<svg width="14" height="23" viewBox="0 0 14 23" fill="none" xmlns="http://www.w3.org/2000/svg">
<path d="M4.30185 7.75658V16.2822C4.31172 16.9069 4.56682 17.5027 5.0121 17.941C5.45738 18.3793 6.05714 18.625 6.68195 18.625C7.30675 18.625 7.90651 18.3793 8.35179 17.941C8.79708 17.5027 9.05218 16.9069 9.06205 16.2822L9.06977 5.08398C9.07624 4.55002 8.97667 4.02007 8.77681 3.52488C8.57695 3.02968 8.28079 2.57908 7.90549 2.19919C7.53018 1.81931 7.08321 1.5177 6.59047 1.31185C6.09773 1.106 5.56904 1 5.03503 1C4.50102 1 3.97233 1.106 3.47959 1.31185C2.98686 1.5177 2.53988 1.81931 2.16458 2.19919C1.78928 2.57908 1.49311 3.02968 1.29325 3.52488C1.09339 4.02007 0.993818 4.55002 1.0003 5.08398V16.3576C1.02186 17.8477 1.62892 19.2694 2.69025 20.3155C3.75158 21.3615 5.18194 21.948 6.67215 21.948C8.16236 21.948 9.59271 21.3615 10.654 20.3155C11.7154 19.2694 12.3224 17.8477 12.344 16.3576V5.82281" stroke="#AF2245" stroke-width="1.90052" stroke-miterlimit="10" stroke-linecap="square"/>
</svg>
