<svg width="139" height="130" viewBox="0 0 139 130" fill="none" xmlns="http://www.w3.org/2000/svg">
<g clip-path="url(#clip0_534_30776)">
<path d="M22.7027 104.145L10.1116 124.457H21.8778V129.542H0L12.5719 109.22H1.78496V104.145H22.7027Z" fill="#453C41"/>
<path d="M36.5144 129.542H32.8336L24.3574 113.746H30.6289L34.4883 122.273L38.2753 113.746H42.0333L45.8203 122.273L49.6797 113.746H55.9512L47.4847 129.542H43.7894L40.1519 121.396L36.5144 129.542Z" fill="#453C41"/>
<path d="M60.0226 127.59C58.591 125.943 57.8027 123.835 57.8027 121.654C57.8027 119.473 58.591 117.365 60.0226 115.718C60.7293 114.927 61.5999 114.3 62.5738 113.88C63.5477 113.459 64.6016 113.256 65.6621 113.284C66.6126 113.25 67.5602 113.407 68.4492 113.744C69.3382 114.082 70.1506 114.594 70.8385 115.25V113.746H76.2947V129.542H70.8964V127.754H70.8385C70.1928 128.484 69.3945 129.063 68.5001 129.452C67.6057 129.84 66.6369 130.027 65.6621 130C64.6035 130.03 63.5511 129.83 62.5774 129.414C61.6038 128.998 60.7321 128.375 60.0226 127.59ZM64.6731 118.986C64.3213 119.335 64.0458 119.752 63.8639 120.213C63.6821 120.673 63.5979 121.166 63.6166 121.661C63.597 122.15 63.6761 122.637 63.8494 123.094C64.0226 123.551 64.2864 123.969 64.6249 124.322C64.9767 124.67 65.3964 124.941 65.8579 125.119C66.3194 125.298 66.8128 125.379 67.3072 125.358C67.7951 125.375 68.2812 125.29 68.7346 125.109C69.188 124.928 69.5988 124.655 69.9412 124.307C70.2825 123.958 70.5498 123.544 70.7272 123.089C70.9046 122.635 70.9884 122.149 70.9736 121.661C70.9779 120.93 70.7658 120.214 70.3639 119.603C69.9619 118.992 69.3882 118.514 68.7148 118.228C68.0414 117.942 67.2983 117.861 66.5792 117.996C65.86 118.131 65.1969 118.475 64.6731 118.986Z" fill="#453C41"/>
<path d="M82.8273 127.59C81.3957 125.943 80.6074 123.835 80.6074 121.654C80.6074 119.473 81.3957 117.365 82.8273 115.718C83.533 114.927 84.4027 114.3 85.3759 113.88C86.349 113.459 87.4021 113.256 88.462 113.284C89.4124 113.25 90.3601 113.407 91.249 113.744C92.138 114.082 92.9504 114.594 93.6383 115.25V113.746H99.0945V129.542H93.701V127.754H93.619C92.9733 128.484 92.1751 129.063 91.2806 129.452C90.3862 129.84 89.4174 130.027 88.4427 130C87.3881 130.027 86.3401 129.826 85.3707 129.41C84.4014 128.994 83.5337 128.373 82.8273 127.59ZM87.4585 118.986C87.1077 119.335 86.8327 119.753 86.6509 120.213C86.4691 120.674 86.3844 121.167 86.402 121.661C86.383 122.15 86.4629 122.638 86.637 123.095C86.8111 123.552 87.0757 123.969 87.4151 124.322C87.7656 124.67 88.1845 124.942 88.6453 125.12C89.1061 125.298 89.5988 125.379 90.0925 125.358C90.5805 125.375 91.0665 125.29 91.5199 125.109C91.9733 124.928 92.3842 124.655 92.7266 124.307C93.3895 123.582 93.7547 122.633 93.7493 121.651C93.7439 120.668 93.3685 119.724 92.6976 119.005C91.9927 118.331 91.0542 117.954 90.0781 117.954C89.1019 117.954 88.1635 118.331 87.4585 119.005V118.986Z" fill="#453C41"/>
<path d="M104.546 129.542V113.746H110.021V116.031H110.084C110.138 115.921 110.203 115.816 110.277 115.718C110.374 115.597 110.576 115.38 110.885 115.072C111.183 114.769 111.506 114.492 111.85 114.243C112.271 113.963 112.726 113.74 113.205 113.578C113.751 113.386 114.325 113.287 114.903 113.284C115.496 113.283 116.086 113.367 116.655 113.534C117.096 113.643 117.522 113.805 117.923 114.016L118.353 114.267L116.076 118.88C115.262 118.267 114.257 117.962 113.239 118.022C112.646 118.006 112.06 118.155 111.546 118.451C111.115 118.695 110.766 119.06 110.542 119.502C110.378 119.839 110.239 120.189 110.127 120.548C110.058 120.768 110.017 120.996 110.007 121.227V129.542H104.546Z" fill="#453C41"/>
<path d="M122.728 127.59C121.296 125.943 120.508 123.835 120.508 121.654C120.508 119.473 121.296 117.365 122.728 115.718C123.433 114.927 124.303 114.3 125.276 113.88C126.249 113.459 127.303 113.256 128.362 113.284C129.313 113.25 130.261 113.406 131.15 113.744C132.039 114.082 132.851 114.594 133.539 115.25V113.746H138.995V129.542H133.601V127.754H133.539C132.893 128.484 132.095 129.064 131.201 129.453C130.306 129.841 129.337 130.028 128.362 130C127.305 130.03 126.253 129.83 125.28 129.414C124.307 128.998 123.436 128.375 122.728 127.59ZM127.359 118.986C127.008 119.335 126.733 119.753 126.551 120.213C126.37 120.674 126.285 121.167 126.302 121.661C126.283 122.15 126.363 122.638 126.537 123.095C126.711 123.552 126.976 123.969 127.315 124.322C127.667 124.669 128.085 124.94 128.546 125.119C129.007 125.297 129.499 125.379 129.993 125.358C130.481 125.375 130.967 125.29 131.42 125.109C131.874 124.928 132.285 124.655 132.627 124.307C133.29 123.582 133.655 122.633 133.65 121.651C133.644 120.668 133.269 119.724 132.598 119.005C132.258 118.662 131.852 118.392 131.404 118.212C130.956 118.031 130.476 117.944 129.993 117.954C129.507 117.94 129.023 118.024 128.57 118.201C128.118 118.378 127.706 118.645 127.359 118.986Z" fill="#453C41"/>
<path d="M101.265 63.554C101.269 68.7978 99.9733 73.961 97.4927 78.5821C95.012 83.2031 91.4241 87.1382 87.0496 90.0354C82.6752 92.9327 77.6505 94.7019 72.4246 95.185C67.1987 95.6681 61.9344 94.85 57.1022 92.8039C52.27 90.7577 48.0204 87.5472 44.7333 83.4594C41.4462 79.3715 39.2239 74.5336 38.2651 69.378C37.3063 64.2224 37.6408 58.9098 39.2388 53.9149C40.8367 48.9201 43.6483 44.3986 47.4223 40.7546L57.8233 51.1469C55.3387 53.487 53.6142 56.5183 52.8729 59.8485C52.1315 63.1787 52.4074 66.6546 53.665 69.8264C54.9225 72.9982 57.1037 75.7199 59.9264 77.6395C62.7491 79.559 66.0834 80.588 69.4979 80.5933C80.5502 80.5933 89.3399 69.1213 85.6928 58.4205C84.1539 53.9136 80.6273 50.419 77.2118 47.0931C68.5282 38.6289 59.946 30.1068 51.3733 21.5462L50.4712 20.6545L50.1046 20.2881L39.1681 9.3608C43.8542 6.72609 48.8659 4.71663 54.0749 3.38379C62.7874 12.089 71.4758 20.7798 80.2559 29.4127L82.5474 31.6637C87.1352 36.1802 91.7472 40.7208 95.65 45.8591C99.4659 50.8914 101.265 57.2251 101.265 63.554Z" fill="url(#paint0_linear_534_30776)"/>
<path d="M68.5523 63.3563H62.8115V69.0923H68.5523V63.3563Z" fill="#BC1F38"/>
<path d="M76.1891 63.3563H70.4482V69.0923H76.1891V63.3563Z" fill="#BC1F38"/>
<path d="M68.5523 55.7742H62.8115V61.5102H68.5523V55.7742Z" fill="#BC1F38"/>
<path d="M76.1891 55.7742H70.4482V61.5102H76.1891V55.7742Z" fill="#BC1F38"/>
<path d="M81.9105 17.9407C86.8688 17.9407 90.8883 13.9245 90.8883 8.97034C90.8883 4.01616 86.8688 0 81.9105 0C76.9521 0 72.9326 4.01616 72.9326 8.97034C72.9326 13.9245 76.9521 17.9407 81.9105 17.9407Z" fill="#BC1F38"/>
<mask id="mask0_534_30776" style="mask-type:luminance" maskUnits="userSpaceOnUse" x="72" y="0" width="19" height="18">
<path d="M81.9056 17.9407C86.8639 17.9407 90.8835 13.9245 90.8835 8.97034C90.8835 4.01616 86.8639 0 81.9056 0C76.9473 0 72.9277 4.01616 72.9277 8.97034C72.9277 13.9245 76.9473 17.9407 81.9056 17.9407Z" fill="white"/>
</mask>
<g mask="url(#mask0_534_30776)">
<path d="M72.9277 0H90.8883V17.9455H72.9277V0Z" fill="#BC1F38"/>
</g>
</g>
<defs>
<linearGradient id="paint0_linear_534_30776" x1="85.0077" y1="34.7101" x2="32.6014" y2="70.6034" gradientUnits="userSpaceOnUse">
<stop offset="0.0785412" stop-color="#602D8A"/>
<stop offset="1" stop-color="#BC1F38"/>
</linearGradient>
<clipPath id="clip0_534_30776">
<rect width="139" height="130" fill="white"/>
</clipPath>
</defs>
</svg>
