<svg width="31" height="31" viewBox="0 0 31 31" fill="none" xmlns="http://www.w3.org/2000/svg">
<g clip-path="url(#clip0_4651_42030)">
<path d="M26.1562 0H4.84375C3.55911 0 2.32708 0.510322 1.4187 1.4187C0.510322 2.32708 0 3.55911 0 4.84375V20.3438C0 21.6284 0.510322 22.8604 1.4187 23.7688C2.32708 24.6772 3.55911 25.1875 4.84375 25.1875H5.8125V30.0313C5.81253 30.2229 5.86943 30.4103 5.97601 30.5697C6.08258 30.729 6.23403 30.8531 6.41119 30.9264C6.52836 30.9755 6.65421 31.0005 6.78125 31C6.90855 31.0002 7.03465 30.9754 7.15234 30.9268C7.27003 30.8783 7.37699 30.807 7.46712 30.7171L12.9948 25.1875H26.1562C27.4409 25.1875 28.6729 24.6772 29.5813 23.7688C30.4897 22.8604 31 21.6284 31 20.3438V4.84375C31 3.55911 30.4897 2.32708 29.5813 1.4187C28.6729 0.510322 27.4409 0 26.1562 0ZM29.0625 20.3438C29.0625 21.1145 28.7563 21.8538 28.2113 22.3988C27.6663 22.9438 26.927 23.25 26.1562 23.25H12.5938C12.4664 23.2498 12.3403 23.2746 12.2227 23.3232C12.105 23.3717 11.998 23.443 11.9079 23.5329L7.75 27.6927V24.2188C7.75 23.9618 7.64794 23.7154 7.46626 23.5337C7.28458 23.3521 7.03818 23.25 6.78125 23.25H4.84375C4.07296 23.25 3.33375 22.9438 2.78872 22.3988C2.24369 21.8538 1.9375 21.1145 1.9375 20.3438V4.84375C1.9375 4.07296 2.24369 3.33375 2.78872 2.78872C3.33375 2.24369 4.07296 1.9375 4.84375 1.9375H26.1562C26.927 1.9375 27.6663 2.24369 28.2113 2.78872C28.7563 3.33375 29.0625 4.07296 29.0625 4.84375V20.3438ZM25.1139 12.9638C25.0642 13.0816 24.9925 13.1888 24.9027 13.2796L21.0277 17.1546C20.8461 17.3357 20.6002 17.4374 20.3438 17.4375C20.2164 17.4377 20.0903 17.4129 19.9727 17.3643C19.855 17.3158 19.748 17.2445 19.6579 17.1546C19.5677 17.0646 19.4961 16.9577 19.4472 16.84C19.3984 16.7223 19.3733 16.5962 19.3733 16.4688C19.3733 16.3413 19.3984 16.2152 19.4472 16.0975C19.4961 15.9798 19.5677 15.8729 19.6579 15.7829L21.8802 13.5625H12.5938C11.823 13.5625 11.0837 13.8687 10.5387 14.4137C9.9937 14.9587 9.6875 15.698 9.6875 16.4688C9.6875 16.7257 9.58544 16.9721 9.40376 17.1538C9.22208 17.3354 8.97568 17.4375 8.71875 17.4375C8.46182 17.4375 8.21542 17.3354 8.03374 17.1538C7.85206 16.9721 7.75 16.7257 7.75 16.4688C7.75 15.1841 8.26032 13.9521 9.1687 13.0437C10.0771 12.1353 11.3091 11.625 12.5938 11.625H21.8802L19.6579 9.40463C19.5677 9.31464 19.4961 9.20773 19.4472 9.09004C19.3984 8.97235 19.3733 8.84617 19.3733 8.71875C19.3733 8.59133 19.3984 8.46515 19.4472 8.34746C19.4961 8.22977 19.5677 8.12286 19.6579 8.03288C19.7479 7.94266 19.8548 7.87108 19.9725 7.82224C20.0902 7.77341 20.2163 7.74827 20.3438 7.74827C20.4712 7.74827 20.5973 7.77341 20.715 7.82224C20.8327 7.87108 20.9396 7.94266 21.0296 8.03288L24.9046 11.9079C24.9945 11.9987 25.0662 12.1059 25.1158 12.2237C25.2121 12.4611 25.2114 12.7269 25.1139 12.9638Z" fill="#E4D5D5"/>
</g>
<defs>
<clipPath id="clip0_4651_42030">
<rect width="31" height="31" fill="white"/>
</clipPath>
</defs>
</svg>
