<svg width="167" height="152" viewBox="0 0 167 152" fill="none" xmlns="http://www.w3.org/2000/svg">
<rect width="167" height="152" rx="7" fill="white"/>
<g clip-path="url(#clip0_333_962)">
<path d="M36.7027 115.145L24.1116 135.457H35.8778V140.542H14L26.5719 120.22H15.785V115.145H36.7027Z" fill="#453C41"/>
<path d="M50.5144 140.542H46.8336L38.3574 124.746H44.6289L48.4883 133.273L52.2753 124.746H56.0333L59.8203 133.273L63.6797 124.746H69.9512L61.4847 140.542H57.7894L54.1519 132.396L50.5144 140.542Z" fill="#453C41"/>
<path d="M74.0226 138.59C72.591 136.943 71.8027 134.835 71.8027 132.654C71.8027 130.473 72.591 128.365 74.0226 126.718C74.7293 125.927 75.5999 125.3 76.5738 124.88C77.5477 124.459 78.6016 124.256 79.6621 124.284C80.6126 124.25 81.5602 124.407 82.4492 124.744C83.3382 125.082 84.1506 125.594 84.8385 126.25V124.746H90.2947V140.542H84.8964V138.754H84.8385C84.1928 139.484 83.3945 140.063 82.5001 140.452C81.6057 140.84 80.6369 141.027 79.6621 141C78.6035 141.03 77.5511 140.83 76.5774 140.414C75.6038 139.998 74.7321 139.375 74.0226 138.59ZM78.6731 129.986C78.3213 130.335 78.0458 130.752 77.8639 131.213C77.6821 131.673 77.5979 132.166 77.6166 132.661C77.597 133.15 77.6761 133.637 77.8494 134.094C78.0226 134.551 78.2864 134.969 78.6249 135.322C78.9767 135.67 79.3964 135.941 79.8579 136.119C80.3194 136.298 80.8128 136.379 81.3072 136.358C81.7951 136.375 82.2812 136.29 82.7346 136.109C83.188 135.928 83.5988 135.655 83.9412 135.307C84.2825 134.958 84.5498 134.544 84.7272 134.089C84.9046 133.635 84.9884 133.149 84.9736 132.661C84.9779 131.93 84.7658 131.214 84.3639 130.603C83.9619 129.992 83.3882 129.514 82.7148 129.228C82.0414 128.942 81.2983 128.861 80.5792 128.996C79.86 129.131 79.1969 129.475 78.6731 129.986Z" fill="#453C41"/>
<path d="M96.8273 138.59C95.3957 136.943 94.6074 134.835 94.6074 132.654C94.6074 130.473 95.3957 128.365 96.8273 126.718C97.533 125.927 98.4027 125.3 99.3759 124.88C100.349 124.459 101.402 124.256 102.462 124.284C103.412 124.25 104.36 124.407 105.249 124.744C106.138 125.082 106.95 125.594 107.638 126.25V124.746H113.095V140.542H107.701V138.754H107.619C106.973 139.484 106.175 140.063 105.281 140.452C104.386 140.84 103.417 141.027 102.443 141C101.388 141.027 100.34 140.826 99.3707 140.41C98.4014 139.994 97.5337 139.373 96.8273 138.59ZM101.459 129.986C101.108 130.335 100.833 130.753 100.651 131.213C100.469 131.674 100.384 132.167 100.402 132.661C100.383 133.15 100.463 133.638 100.637 134.095C100.811 134.552 101.076 134.969 101.415 135.322C101.766 135.67 102.184 135.942 102.645 136.12C103.106 136.298 103.599 136.379 104.093 136.358C104.58 136.375 105.067 136.29 105.52 136.109C105.973 135.928 106.384 135.655 106.727 135.307C107.39 134.582 107.755 133.633 107.749 132.651C107.744 131.668 107.368 130.724 106.698 130.005C105.993 129.331 105.054 128.954 104.078 128.954C103.102 128.954 102.163 129.331 101.459 130.005V129.986Z" fill="#453C41"/>
<path d="M118.546 140.542V124.746H124.021V127.031H124.084C124.138 126.921 124.203 126.816 124.277 126.718C124.374 126.597 124.576 126.38 124.885 126.072C125.183 125.769 125.506 125.492 125.85 125.243C126.271 124.963 126.726 124.74 127.205 124.578C127.751 124.386 128.325 124.287 128.903 124.284C129.496 124.283 130.086 124.367 130.655 124.534C131.096 124.643 131.522 124.805 131.923 125.016L132.353 125.267L130.076 129.88C129.262 129.267 128.257 128.962 127.239 129.022C126.646 129.006 126.06 129.155 125.546 129.451C125.115 129.695 124.766 130.06 124.542 130.502C124.378 130.839 124.239 131.189 124.127 131.548C124.058 131.768 124.017 131.996 124.007 132.227V140.542H118.546Z" fill="#453C41"/>
<path d="M136.728 138.59C135.296 136.943 134.508 134.835 134.508 132.654C134.508 130.473 135.296 128.365 136.728 126.718C137.433 125.927 138.303 125.3 139.276 124.88C140.249 124.459 141.303 124.256 142.362 124.284C143.313 124.25 144.261 124.406 145.15 124.744C146.039 125.082 146.851 125.594 147.539 126.25V124.746H152.995V140.542H147.601V138.754H147.539C146.893 139.484 146.095 140.064 145.201 140.453C144.306 140.841 143.337 141.028 142.362 141C141.305 141.03 140.253 140.83 139.28 140.414C138.307 139.998 137.436 139.375 136.728 138.59ZM141.359 129.986C141.008 130.335 140.733 130.753 140.551 131.213C140.37 131.674 140.285 132.167 140.302 132.661C140.283 133.15 140.363 133.638 140.537 134.095C140.711 134.552 140.976 134.969 141.315 135.322C141.667 135.669 142.085 135.94 142.546 136.119C143.007 136.297 143.499 136.379 143.993 136.358C144.481 136.375 144.967 136.29 145.42 136.109C145.874 135.928 146.285 135.655 146.627 135.307C147.29 134.582 147.655 133.633 147.65 132.651C147.644 131.668 147.269 130.724 146.598 130.005C146.258 129.662 145.852 129.392 145.404 129.212C144.956 129.031 144.476 128.944 143.993 128.954C143.507 128.94 143.023 129.024 142.57 129.201C142.118 129.378 141.706 129.645 141.359 129.986Z" fill="#453C41"/>
<path d="M115.265 74.554C115.269 79.7978 113.973 84.961 111.493 89.5821C109.012 94.2031 105.424 98.1382 101.05 101.035C96.6752 103.933 91.6505 105.702 86.4246 106.185C81.1987 106.668 75.9344 105.85 71.1022 103.804C66.27 101.758 62.0204 98.5472 58.7333 94.4594C55.4462 90.3715 53.2239 85.5336 52.2651 80.378C51.3063 75.2224 51.6408 69.9098 53.2388 64.9149C54.8367 59.9201 57.6483 55.3986 61.4223 51.7546L71.8233 62.1469C69.3387 64.487 67.6142 67.5183 66.8729 70.8485C66.1315 74.1787 66.4074 77.6546 67.665 80.8264C68.9225 83.9982 71.1037 86.7199 73.9264 88.6395C76.7491 90.559 80.0834 91.588 83.4979 91.5933C94.5502 91.5933 103.34 80.1213 99.6928 69.4205C98.1539 64.9136 94.6273 61.419 91.2118 58.0931C82.5282 49.6289 73.946 41.1068 65.3733 32.5462L64.4712 31.6545L64.1046 31.2881L53.1681 20.3608C57.8542 17.7261 62.8659 15.7166 68.0749 14.3838C76.7874 23.089 85.4758 31.7798 94.2559 40.4127L96.5474 42.6637C101.135 47.1802 105.747 51.7208 109.65 56.8591C113.466 61.8914 115.265 68.2251 115.265 74.554Z" fill="url(#paint0_linear_333_962)"/>
<path d="M82.5523 74.3563H76.8115V80.0923H82.5523V74.3563Z" fill="#BC1F38"/>
<path d="M90.1891 74.3563H84.4482V80.0923H90.1891V74.3563Z" fill="#BC1F38"/>
<path d="M82.5523 66.7742H76.8115V72.5102H82.5523V66.7742Z" fill="#BC1F38"/>
<path d="M90.1891 66.7742H84.4482V72.5102H90.1891V66.7742Z" fill="#BC1F38"/>
<path d="M95.9105 28.9407C100.869 28.9407 104.888 24.9245 104.888 19.9703C104.888 15.0162 100.869 11 95.9105 11C90.9521 11 86.9326 15.0162 86.9326 19.9703C86.9326 24.9245 90.9521 28.9407 95.9105 28.9407Z" fill="#BC1F38"/>
<mask id="mask0_333_962" style="mask-type:luminance" maskUnits="userSpaceOnUse" x="86" y="11" width="19" height="18">
<path d="M95.9056 28.9407C100.864 28.9407 104.883 24.9245 104.883 19.9703C104.883 15.0162 100.864 11 95.9056 11C90.9473 11 86.9277 15.0162 86.9277 19.9703C86.9277 24.9245 90.9473 28.9407 95.9056 28.9407Z" fill="white"/>
</mask>
<g mask="url(#mask0_333_962)">
<path d="M86.9277 11H104.888V28.9455H86.9277V11Z" fill="#BC1F38"/>
</g>
</g>
<defs>
<linearGradient id="paint0_linear_333_962" x1="99.0077" y1="45.7101" x2="46.6014" y2="81.6034" gradientUnits="userSpaceOnUse">
<stop offset="0.0785412" stop-color="#602D8A"/>
<stop offset="1" stop-color="#BC1F38"/>
</linearGradient>
<clipPath id="clip0_333_962">
<rect width="139" height="130" fill="white" transform="translate(14 11)"/>
</clipPath>
</defs>
</svg>
