<svg width="21" height="22" viewBox="0 0 21 22" fill="none" xmlns="http://www.w3.org/2000/svg">
<path d="M7 0L13.074 3.544L20 0.658V9.158H18V3.658L14 5.325V9.158H12V5.232L8 2.899V15.084L9.868 16.174L8.86 17.901L6.926 16.772L0 19.658V4.084L7 0ZM6 14.991V2.899L2 5.232V16.658L6 14.991ZM16 12.158C15.2707 12.158 14.5712 12.4477 14.0555 12.9635C13.5397 13.4792 13.25 14.1787 13.25 14.908C13.25 16.16 13.985 17.362 14.865 18.33C15.272 18.778 15.682 19.144 16 19.405C16.318 19.145 16.728 18.778 17.135 18.33C18.015 17.362 18.75 16.16 18.75 14.908C18.75 14.1787 18.4603 13.4792 17.9445 12.9635C17.4288 12.4477 16.7293 12.158 16 12.158ZM16 21.859L15.445 21.49L15.443 21.489L15.439 21.486L15.427 21.478L15.387 21.45L15.25 21.353C14.5757 20.8554 13.9512 20.2938 13.385 19.676C12.39 18.582 11.25 16.909 11.25 14.908C11.25 14.2842 11.3729 13.6666 11.6116 13.0903C11.8503 12.514 12.2002 11.9903 12.6412 11.5492C13.0823 11.1082 13.606 10.7583 14.1823 10.5196C14.7585 10.2809 15.3762 10.158 16 10.158C16.6238 10.158 17.2415 10.2809 17.8177 10.5196C18.394 10.7583 18.9177 11.1082 19.3588 11.5492C19.7998 11.9903 20.1497 12.514 20.3884 13.0903C20.6271 13.6666 20.75 14.2842 20.75 14.908C20.75 16.909 19.61 18.582 18.615 19.676C18.0104 20.3346 17.3396 20.9291 16.613 21.45L16.573 21.478L16.561 21.486L16.557 21.489H16.555L16 21.859ZM14.75 14.158H17.25V16.158H14.75V14.158Z" fill="#111535"/>
</svg>
