<?xml version="1.0" encoding="UTF-8"?>
<svg width="109px" height="49px" viewBox="0 0 109 49" version="1.1" xmlns="http://www.w3.org/2000/svg" xmlns:xlink="http://www.w3.org/1999/xlink">
    <title>Group 14</title>
    <defs>
        <filter x="-8.2%" y="-21.6%" width="116.5%" height="143.2%" filterUnits="objectBoundingBox" id="filter-1">
            <feOffset dx="0" dy="0" in="SourceAlpha" result="shadowOffsetOuter1"></feOffset>
            <feGaussianBlur stdDeviation="2" in="shadowOffsetOuter1" result="shadowBlurOuter1"></feGaussianBlur>
            <feColorMatrix values="0 0 0 0 0   0 0 0 0 0   0 0 0 0 0  0 0 0 0.152480332 0" type="matrix" in="shadowBlurOuter1" result="shadowMatrixOuter1"></feColorMatrix>
            <feMerge>
                <feMergeNode in="shadowMatrixOuter1"></feMergeNode>
                <feMergeNode in="SourceGraphic"></feMergeNode>
            </feMerge>
        </filter>
        <path d="M6,0 L91,0 C94.3137085,2.79460044e-16 97,2.6862915 97,6 L97,31 C97,34.3137085 94.3137085,37 91,37 L6,37 C2.6862915,37 1.29399067e-15,34.3137085 0,31 L0,6 C4.82366169e-16,2.6862915 2.6862915,1.4968968e-15 6,0 Z" id="path-2"></path>
    </defs>
    <g id="Page-1" stroke="none" stroke-width="1" fill="none" fill-rule="evenodd">
        <g id="1_Home-design-(1)" transform="translate(-797.000000, -11.000000)">
            <g id="Group-34" transform="translate(112.000000, 17.000000)">
                <g id="Group-14" filter="url(#filter-1)" transform="translate(691.000000, 0.000000)">
                    <g id="Group-5">
                        <mask id="mask-3" fill="white">
                            <use xlink:href="#path-2"></use>
                        </mask>
                        <use id="Mask" fill="#FFFFFF" xlink:href="#path-2"></use>
                        <g id="Group-6" mask="url(#mask-3)">
                            <g transform="translate(10.000000, 4.000000)">
                                <g id="iOS-icon" stroke-width="1" fill-rule="evenodd" transform="translate(0.000000, 6.000000)">
                                    <path d="M9.84347619,0.326547619 L9.82645238,0 L9.50145238,0.0349761905 C9.46957143,0.0383809524 6.32821429,0.416928571 6.11278571,3.92909524 L6.09111905,4.28071429 L6.4427381,4.25688095 C6.47864286,4.25440476 10.036619,3.97057143 9.84347619,0.326547619 Z M9.23030952,0.718714286 C9.17119048,2.8352381 7.52452381,3.42395238 6.76866667,3.5827381 C7.05652381,1.52595238 8.54811905,0.899166667 9.23030952,0.718714286 Z" id="Shape" fill="#0B7FE1" fill-rule="nonzero"></path>
                                    <path d="M12.8712381,11.6124048 L12.6734524,11.5483333 C11.4765238,11.1614286 10.6726905,10.0650952 10.6726905,8.82019048 C10.6726905,7.71271429 11.2988571,6.7222381 12.3072857,6.23504762 L12.6081429,6.08988095 L12.440381,5.80109524 C12.3685714,5.67728571 11.6972143,4.58064286 10.2789762,4.21757143 C9.15416667,3.92971429 7.88945238,4.18445238 6.51857143,4.97497619 C5.93821429,4.6227381 4.0105,3.6075 2.47680952,4.62521429 C2.17657143,4.79111905 -1.00564286,6.69747619 0.650619048,11.8411429 C0.699214286,11.9562857 1.85404762,14.6618333 3.22059524,15.6752143 C3.5892381,16.0274524 4.53204762,16.4675952 5.6095,15.7330952 C5.79614286,15.6560238 7.04507143,15.1753333 7.83745238,15.7383571 C8.12995238,15.938619 8.64066667,16.1655 9.18016667,16.1655 C9.58935714,16.1655 10.0149524,16.0351905 10.374619,15.6637619 C10.542381,15.5185952 12.0748333,14.1508095 12.8712381,11.9841429 L12.8944524,11.921 L12.8712381,11.6124048 Z M9.96109524,15.2022619 L9.9372619,15.2248571 C9.25847619,15.9376905 8.22930952,15.2558095 8.1912381,15.2304286 C7.78638095,14.9425714 7.31745238,14.8487857 6.87761905,14.8487857 C6.07935714,14.8487857 5.37735714,15.158 5.33247619,15.178119 L5.28202381,15.2065952 C4.34757143,15.8587619 3.70778571,15.2849048 3.64,15.2195952 L3.60347619,15.1883333 C2.36754762,14.287 1.23159524,11.6266429 1.23004762,11.6257143 C-0.320047619,6.80704762 2.64952381,5.23095238 2.77580952,5.16688095 L2.80985714,5.1467619 C4.24821429,4.18104762 6.31583333,5.57885714 6.3362619,5.59278571 L6.5012381,5.70607143 L6.67209524,5.603 C7.95971429,4.82454762 9.12166667,4.55990476 10.1254524,4.81711905 C10.9432143,5.02635714 11.4644524,5.53738095 11.7195,5.85154762 C10.6835238,6.48638095 10.0539524,7.59416667 10.0539524,8.82019048 C10.0539524,10.230381 10.9005,11.4833333 12.1902857,12.0284048 C11.3963571,13.9663333 9.9762619,15.1895714 9.96109524,15.2022619 Z" id="Shape" fill="#0B7FE1" fill-rule="nonzero"></path>
                                </g>
                                <text id="Get-it-on-App-Store" font-family="Poppins-Regular, Poppins" font-size="8" font-weight="normal" line-spacing="12">
                                    <tspan x="30.63" y="8" fill="#4A4A4A">Get it on</tspan>
                                    <tspan x="63.95" y="8" fill="#000000"></tspan>
                                    <tspan x="25" y="19.9199829" font-family="Poppins-Bold, Poppins" font-size="10" font-weight="bold" fill="#000000">App Store</tspan>
                                </text>
                            </g>
                        </g>
                    </g>
                </g>
            </g>
        </g>
    </g>
</svg>