<svg width="19" height="18" viewBox="0 0 19 18" fill="none" xmlns="http://www.w3.org/2000/svg">
<mask id="path-1-inside-1_5283_120942" fill="white">
<path d="M15.2105 2.36526V0.820923H0.851562V14.7199C0.851562 16.4257 2.13741 17.8086 3.72336 17.8086H15.2105C16.7965 17.8086 18.0823 16.4257 18.0823 14.7199V2.36526H15.2105ZM16.6464 14.7199C16.6464 15.5732 16.0039 16.2643 15.2105 16.2643H3.72336C2.93002 16.2643 2.28746 15.5732 2.28746 14.7199V2.36526H13.7746V14.7199H15.2105V3.90959H16.6464V14.7199ZM8.03105 3.90959H3.72336V8.5426H8.03105V3.90959ZM6.59515 6.99826H5.15926V5.45393H6.59515V6.99826ZM9.46695 3.90959H12.3387V5.45393H9.46695V3.90959ZM9.46695 6.99826H12.3387V8.5426H9.46695V6.99826ZM3.72336 10.0869H12.3387V11.6313H3.72336V10.0869ZM3.72336 13.1756H12.3387V14.7199H3.72336V13.1756Z"/>
</mask>
<path d="M15.2105 2.36526V0.820923H0.851562V14.7199C0.851562 16.4257 2.13741 17.8086 3.72336 17.8086H15.2105C16.7965 17.8086 18.0823 16.4257 18.0823 14.7199V2.36526H15.2105ZM16.6464 14.7199C16.6464 15.5732 16.0039 16.2643 15.2105 16.2643H3.72336C2.93002 16.2643 2.28746 15.5732 2.28746 14.7199V2.36526H13.7746V14.7199H15.2105V3.90959H16.6464V14.7199ZM8.03105 3.90959H3.72336V8.5426H8.03105V3.90959ZM6.59515 6.99826H5.15926V5.45393H6.59515V6.99826ZM9.46695 3.90959H12.3387V5.45393H9.46695V3.90959ZM9.46695 6.99826H12.3387V8.5426H9.46695V6.99826ZM3.72336 10.0869H12.3387V11.6313H3.72336V10.0869ZM3.72336 13.1756H12.3387V14.7199H3.72336V13.1756Z" fill="#898B9F"/>
<path d="M15.2105 2.36526H-9.78946V27.3653H15.2105V2.36526ZM15.2105 0.820923H40.2105V-24.1791H15.2105V0.820923ZM0.851562 0.820923V-24.1791H-24.1484V0.820923H0.851562ZM18.0823 2.36526H43.0823V-22.6347H18.0823V2.36526ZM2.28746 2.36526V-22.6347H-22.7125V2.36526H2.28746ZM13.7746 2.36526H38.7746V-22.6347H13.7746V2.36526ZM13.7746 14.7199H-11.2254V39.7199H13.7746V14.7199ZM15.2105 14.7199V39.7199H40.2105V14.7199H15.2105ZM15.2105 3.90959V-21.0904H-9.78946V3.90959H15.2105ZM16.6464 3.90959H41.6464V-21.0904H16.6464V3.90959ZM8.03105 3.90959H33.0311V-21.0904H8.03105V3.90959ZM3.72336 3.90959V-21.0904H-21.2766V3.90959H3.72336ZM3.72336 8.5426H-21.2766V33.5426H3.72336V8.5426ZM8.03105 8.5426V33.5426H33.0311V8.5426H8.03105ZM6.59515 6.99826V31.9983H31.5952V6.99826H6.59515ZM5.15926 6.99826H-19.8407V31.9983H5.15926V6.99826ZM5.15926 5.45393V-19.5461H-19.8407V5.45393H5.15926ZM6.59515 5.45393H31.5952V-19.5461H6.59515V5.45393ZM9.46695 3.90959V-21.0904H-15.5331V3.90959H9.46695ZM12.3387 3.90959H37.3387V-21.0904H12.3387V3.90959ZM12.3387 5.45393V30.4539H37.3387V5.45393H12.3387ZM9.46695 5.45393H-15.5331V30.4539H9.46695V5.45393ZM9.46695 6.99826V-18.0017H-15.5331V6.99826H9.46695ZM12.3387 6.99826H37.3387V-18.0017H12.3387V6.99826ZM12.3387 8.5426V33.5426H37.3387V8.5426H12.3387ZM9.46695 8.5426H-15.5331V33.5426H9.46695V8.5426ZM3.72336 10.0869V-14.9131H-21.2766V10.0869H3.72336ZM12.3387 10.0869H37.3387V-14.9131H12.3387V10.0869ZM12.3387 11.6313V36.6313H37.3387V11.6313H12.3387ZM3.72336 11.6313H-21.2766V36.6313H3.72336V11.6313ZM3.72336 13.1756V-11.8244H-21.2766V13.1756H3.72336ZM12.3387 13.1756H37.3387V-11.8244H12.3387V13.1756ZM12.3387 14.7199V39.7199H37.3387V14.7199H12.3387ZM3.72336 14.7199H-21.2766V39.7199H3.72336V14.7199ZM40.2105 2.36526V0.820923H-9.78946V2.36526H40.2105ZM15.2105 -24.1791H0.851562V25.8209H15.2105V-24.1791ZM-24.1484 0.820923V14.7199H25.8516V0.820923H-24.1484ZM-24.1484 14.7199C-24.1484 28.4875 -13.3526 42.8086 3.72336 42.8086V-7.19139C17.6275 -7.19139 25.8516 4.36381 25.8516 14.7199H-24.1484ZM3.72336 42.8086H15.2105V-7.19139H3.72336V42.8086ZM15.2105 42.8086C32.2865 42.8086 43.0823 28.4875 43.0823 14.7199H-6.91767C-6.91767 4.36381 1.30644 -7.19139 15.2105 -7.19139V42.8086ZM43.0823 14.7199V2.36526H-6.91767V14.7199H43.0823ZM18.0823 -22.6347H15.2105V27.3653H18.0823V-22.6347ZM-8.35357 14.7199C-8.35357 3.51134 0.513825 -8.73573 15.2105 -8.73573V41.2643C31.4939 41.2643 41.6464 27.635 41.6464 14.7199H-8.35357ZM15.2105 -8.73573H3.72336V41.2643H15.2105V-8.73573ZM3.72336 -8.73573C18.4201 -8.73573 27.2875 3.51134 27.2875 14.7199H-22.7125C-22.7125 27.635 -12.56 41.2643 3.72336 41.2643V-8.73573ZM27.2875 14.7199V2.36526H-22.7125V14.7199H27.2875ZM2.28746 27.3653H13.7746V-22.6347H2.28746V27.3653ZM-11.2254 2.36526V14.7199H38.7746V2.36526H-11.2254ZM13.7746 39.7199H15.2105V-10.2801H13.7746V39.7199ZM40.2105 14.7199V3.90959H-9.78946V14.7199H40.2105ZM15.2105 28.9096H16.6464V-21.0904H15.2105V28.9096ZM-8.35357 3.90959V14.7199H41.6464V3.90959H-8.35357ZM8.03105 -21.0904H3.72336V28.9096H8.03105V-21.0904ZM-21.2766 3.90959V8.5426H28.7234V3.90959H-21.2766ZM3.72336 33.5426H8.03105V-16.4574H3.72336V33.5426ZM33.0311 8.5426V3.90959H-16.969V8.5426H33.0311ZM6.59515 -18.0017H5.15926V31.9983H6.59515V-18.0017ZM30.1593 6.99826V5.45393H-19.8407V6.99826H30.1593ZM5.15926 30.4539H6.59515V-19.5461H5.15926V30.4539ZM-18.4048 5.45393V6.99826H31.5952V5.45393H-18.4048ZM9.46695 28.9096H12.3387V-21.0904H9.46695V28.9096ZM-12.6613 3.90959V5.45393H37.3387V3.90959H-12.6613ZM12.3387 -19.5461H9.46695V30.4539H12.3387V-19.5461ZM34.4669 5.45393V3.90959H-15.5331V5.45393H34.4669ZM9.46695 31.9983H12.3387V-18.0017H9.46695V31.9983ZM-12.6613 6.99826V8.5426H37.3387V6.99826H-12.6613ZM12.3387 -16.4574H9.46695V33.5426H12.3387V-16.4574ZM34.4669 8.5426V6.99826H-15.5331V8.5426H34.4669ZM3.72336 35.0869H12.3387V-14.9131H3.72336V35.0869ZM-12.6613 10.0869V11.6313H37.3387V10.0869H-12.6613ZM12.3387 -13.3687H3.72336V36.6313H12.3387V-13.3687ZM28.7234 11.6313V10.0869H-21.2766V11.6313H28.7234ZM3.72336 38.1756H12.3387V-11.8244H3.72336V38.1756ZM-12.6613 13.1756V14.7199H37.3387V13.1756H-12.6613ZM12.3387 -10.2801H3.72336V39.7199H12.3387V-10.2801ZM28.7234 14.7199V13.1756H-21.2766V14.7199H28.7234Z" fill="#111535" mask="url(#path-1-inside-1_5283_120942)"/>
</svg>
