<svg width="19" height="19" viewBox="0 0 19 19" fill="none" xmlns="http://www.w3.org/2000/svg">
<path d="M0.851563 9.13398C0.851563 5.84882 0.851562 4.20581 1.8132 3.18568C2.77402 2.16467 4.32151 2.16467 7.41567 2.16467H10.6977C13.7919 2.16467 15.3394 2.16467 16.3002 3.18568C17.2618 4.20581 17.2618 5.84882 17.2618 9.13398V10.8763C17.2618 14.1615 17.2618 15.8045 16.3002 16.8246C15.3394 17.8456 13.7919 17.8456 10.6977 17.8456H7.41567C4.32151 17.8456 2.77402 17.8456 1.8132 16.8246C0.851562 15.8045 0.851563 14.1615 0.851563 10.8763V9.13398Z" stroke="#111535" stroke-width="1.5"/>
<path d="M4.95403 2.16478V0.858032M13.1592 2.16478V0.858032M1.26172 6.52059H16.8515" stroke="#111535" stroke-width="1.5" stroke-linecap="round"/>
<path d="M13.479 13.4899C13.479 13.5976 13.4384 13.6954 13.3747 13.763C13.3119 13.8297 13.2335 13.861 13.1585 13.861C13.0834 13.861 13.005 13.8296 12.9422 13.763L12.5783 14.1059L12.9422 13.763C12.8785 13.6954 12.8379 13.5976 12.8379 13.4899C12.8379 13.3821 12.8785 13.2843 12.9422 13.2167C13.005 13.15 13.0834 13.1187 13.1585 13.1187C13.2335 13.1187 13.3119 13.15 13.3747 13.2167C13.4384 13.2843 13.479 13.3821 13.479 13.4899ZM9.2721 13.2167L9.63608 12.8738L9.2721 13.2167C9.3358 13.2843 9.3764 13.3821 9.3764 13.4899C9.3764 13.5976 9.3358 13.6954 9.2721 13.763C9.20937 13.8297 9.1309 13.861 9.05589 13.861C8.98088 13.861 8.90241 13.8297 8.83968 13.763C8.77598 13.6954 8.73538 13.5976 8.73538 13.4899C8.73538 13.3821 8.77598 13.2843 8.83968 13.2167C8.90241 13.15 8.98088 13.1187 9.05589 13.1187C9.1309 13.1187 9.20937 13.15 9.2721 13.2167ZM4.73711 13.2167L4.37314 12.8738L4.73711 13.2167C4.79985 13.15 4.87831 13.1187 4.95333 13.1187C5.02834 13.1187 5.1068 13.15 5.16954 13.2167C5.23323 13.2843 5.27384 13.3821 5.27384 13.4899C5.27384 13.5976 5.23323 13.6954 5.16954 13.763C5.1068 13.8297 5.02834 13.861 4.95333 13.861C4.87831 13.861 4.79985 13.8297 4.73711 13.763C4.67342 13.6954 4.63281 13.5976 4.63281 13.4899C4.63281 13.3821 4.67342 13.2843 4.73711 13.2167ZM9.2721 10.2784L9.63608 10.6212L9.2721 10.2784C9.20937 10.345 9.1309 10.3764 9.05589 10.3764C8.98088 10.3764 8.90241 10.345 8.83968 10.2784C8.77598 10.2108 8.73538 10.113 8.73538 10.0052C8.73538 9.89742 8.77598 9.79963 8.83968 9.73201C8.90241 9.6654 8.98088 9.63403 9.05589 9.63403C9.1309 9.63403 9.20937 9.6654 9.2721 9.73201C9.3358 9.79963 9.3764 9.89742 9.3764 10.0052C9.3764 10.113 9.3358 10.2108 9.2721 10.2784ZM13.479 10.0052C13.479 10.113 13.4384 10.2108 13.3747 10.2784C13.3119 10.345 13.2335 10.3764 13.1585 10.3764C13.0834 10.3764 13.005 10.345 12.9422 10.2784C12.8785 10.2108 12.8379 10.113 12.8379 10.0052C12.8379 9.89741 12.8785 9.79963 12.9422 9.73201C13.005 9.6654 13.0834 9.63403 13.1585 9.63403C13.2335 9.63403 13.3119 9.6654 13.3747 9.73201C13.4384 9.79963 13.479 9.89741 13.479 10.0052ZM5.16954 10.2784L5.53352 10.6212L5.16954 10.2784C5.1068 10.345 5.02834 10.3764 4.95333 10.3764C4.87831 10.3764 4.79985 10.345 4.73711 10.2784C4.67342 10.2108 4.63281 10.113 4.63281 10.0052C4.63281 9.89742 4.67342 9.79963 4.73711 9.73201C4.79985 9.6654 4.87831 9.63403 4.95333 9.63403C5.02834 9.63403 5.1068 9.6654 5.16954 9.73201C5.23323 9.79963 5.27384 9.89742 5.27384 10.0052C5.27384 10.113 5.23323 10.2108 5.16954 10.2784Z" fill="#699BF7" stroke="#111535"/>
</svg>
