<svg width="45" height="45" viewBox="0 0 45 45" fill="none" xmlns="http://www.w3.org/2000/svg">
<mask id="path-1-inside-1_1433_26540" fill="white">
<path d="M22.5 4.17092C22.5 1.86738 20.6169 -0.0391321 18.3528 0.385474C14.7456 1.06197 11.3367 2.61505 8.43872 4.93497C4.44826 8.12944 1.66446 12.5874 0.54561 17.5751C-0.573241 22.5627 0.0395512 27.7827 2.2831 32.3756C4.52665 36.9685 8.26723 40.6606 12.889 42.844C17.5108 45.0275 22.7383 45.5721 27.7109 44.3883C32.6835 43.2044 37.1049 40.3627 40.247 36.3309C43.3891 32.2991 45.0648 27.3176 44.9981 22.2065C44.9497 18.4946 43.9844 14.875 42.2161 11.659C41.1062 9.64051 38.4376 9.39669 36.6583 10.8596C34.8789 12.3225 34.6928 14.9438 35.5761 17.0713C36.2618 18.7232 36.6333 20.5017 36.657 22.3153C36.6989 25.5315 35.6445 28.6661 33.6673 31.2031C31.6901 33.7401 28.908 35.5283 25.779 36.2732C22.65 37.0182 19.3605 36.6754 16.4523 35.3015C13.544 33.9276 11.1902 31.6043 9.77848 28.7142C8.36672 25.8241 7.98112 22.5395 8.68516 19.401C9.3892 16.2625 11.1409 13.4573 13.6519 11.4472C15.0678 10.3137 16.6776 9.47111 18.3891 8.95179C20.5934 8.28292 22.5 6.47445 22.5 4.17092Z"/>
</mask>
<path d="M22.5 4.17092C22.5 1.86738 20.6169 -0.0391321 18.3528 0.385474C14.7456 1.06197 11.3367 2.61505 8.43872 4.93497C4.44826 8.12944 1.66446 12.5874 0.54561 17.5751C-0.573241 22.5627 0.0395512 27.7827 2.2831 32.3756C4.52665 36.9685 8.26723 40.6606 12.889 42.844C17.5108 45.0275 22.7383 45.5721 27.7109 44.3883C32.6835 43.2044 37.1049 40.3627 40.247 36.3309C43.3891 32.2991 45.0648 27.3176 44.9981 22.2065C44.9497 18.4946 43.9844 14.875 42.2161 11.659C41.1062 9.64051 38.4376 9.39669 36.6583 10.8596C34.8789 12.3225 34.6928 14.9438 35.5761 17.0713C36.2618 18.7232 36.6333 20.5017 36.657 22.3153C36.6989 25.5315 35.6445 28.6661 33.6673 31.2031C31.6901 33.7401 28.908 35.5283 25.779 36.2732C22.65 37.0182 19.3605 36.6754 16.4523 35.3015C13.544 33.9276 11.1902 31.6043 9.77848 28.7142C8.36672 25.8241 7.98112 22.5395 8.68516 19.401C9.3892 16.2625 11.1409 13.4573 13.6519 11.4472C15.0678 10.3137 16.6776 9.47111 18.3891 8.95179C20.5934 8.28292 22.5 6.47445 22.5 4.17092Z" fill="#AF2245" fill-opacity="0.1" stroke="#AF2245" stroke-width="2" mask="url(#path-1-inside-1_1433_26540)"/>
</svg>
