<svg width="239" height="176" viewBox="0 0 239 176" fill="none" xmlns="http://www.w3.org/2000/svg">
<g clip-path="url(#clip0_1142_4612)">
<path d="M156.411 44.1469C158.508 44.1469 160.207 42.4478 160.207 40.3518C160.207 38.2558 158.508 36.5566 156.411 36.5566C154.314 36.5566 152.614 38.2558 152.614 40.3518C152.614 42.4478 154.314 44.1469 156.411 44.1469Z" fill="#FAFAFA"/>
<path d="M114.5 176C176.632 176 227 172.866 227 169C227 165.134 176.632 162 114.5 162C52.368 162 2 165.134 2 169C2 172.866 52.368 176 114.5 176Z" fill="url(#paint0_linear_1142_4612)"/>
<path d="M107.966 57.2879L109.264 56.1291C109.504 55.9133 109.793 55.7585 110.106 55.6778C110.418 55.5971 110.746 55.5929 111.061 55.6656L114.04 56.3435C114.629 56.4756 115.177 56.7471 115.639 57.1353C116.101 57.5235 116.463 58.017 116.695 58.5742L116.985 59.2695C114.962 61.338 111.246 62.0796 111.246 62.0796L110.214 62.4099C110.005 62.4845 109.782 62.5165 109.559 62.504C109.337 62.4915 109.119 62.4347 108.919 62.3371C108.719 62.2394 108.54 62.1028 108.393 61.9352C108.246 61.7676 108.134 61.5725 108.064 61.3611L107.38 59.3216C107.272 58.9623 107.269 58.5793 107.373 58.2186C107.477 57.8579 107.683 57.5348 107.966 57.2879Z" fill="#EBB376"/>
<path d="M137.822 39.7956C137.469 42.8027 137.034 45.804 136.576 48.7996C136.118 51.7951 135.631 54.7849 135.115 57.7746V57.9021C135.091 58.0422 135.054 58.1799 135.005 58.3135C134.675 59.1559 134.109 59.8859 133.376 60.4167C132.848 60.8105 132.261 61.1194 131.637 61.3322C130.66 61.6468 129.648 61.8413 128.623 61.9116C126.842 62.0313 125.054 61.9925 123.279 61.7957C121.54 61.6161 119.883 61.3496 118.219 61.0251C116.556 60.7006 114.933 60.3182 113.281 59.8663C112.94 59.7648 112.648 59.5411 112.462 59.2381C112.276 58.935 112.209 58.5739 112.273 58.2242C112.337 57.8744 112.528 57.5606 112.809 57.3429C113.09 57.1252 113.442 57.0189 113.797 57.0446H113.831C115.425 57.172 117.066 57.2995 118.677 57.3632C120.288 57.427 121.9 57.4907 123.482 57.4675C125.003 57.4698 126.523 57.3555 128.026 57.1257C128.646 57.0315 129.251 56.8622 129.829 56.6216C129.985 56.5641 130.127 56.4754 130.246 56.3609C130.293 56.3087 130.171 56.3609 130.107 56.5347L129.974 57.0735C130.27 54.0606 130.554 51.0535 130.942 48.0521C131.33 45.0508 131.666 42.0495 132.101 39.0597C132.152 38.6827 132.277 38.3194 132.468 37.9906C132.66 37.6618 132.914 37.3739 133.217 37.1434C133.52 36.9128 133.865 36.7441 134.233 36.6469C134.601 36.5498 134.984 36.526 135.362 36.577C135.739 36.6279 136.102 36.7527 136.431 36.9441C136.76 37.1354 137.048 37.3897 137.279 37.6924C137.509 37.995 137.678 38.3401 137.775 38.7079C137.873 39.0757 137.896 39.4591 137.845 39.8361L137.822 39.7956Z" fill="#E9B376"/>
<path d="M137.492 30.6293C132.71 31.1392 130.536 34.6852 128.496 42.6578C130.281 45.2826 137.19 47.0729 137.19 47.0729C137.19 47.0729 141.306 35.2298 137.492 30.6293Z" fill="#602D8A"/>
<path opacity="0.1" d="M139.109 36.8986C139.022 41.783 137.185 47.073 137.185 47.073C137.185 47.073 136.46 46.8876 135.417 46.5399C134.93 44.7491 135.025 42.85 135.689 41.1168C136.352 39.3837 137.55 37.9065 139.109 36.8986Z" fill="black"/>
<path d="M156.532 89.9086C157.292 91.9366 157.993 93.9645 158.631 95.9982C161.853 106.178 163.5 118.282 163.5 118.282C172.113 135.665 178.158 161.836 178.158 161.836L174.97 162.914L154.028 116.37L147.809 100.338L156.532 89.9086Z" fill="#EBB376"/>
<path d="M178.292 159.397C178.1 159.02 173.579 161.587 173.579 161.587C173.579 161.587 172.124 165.898 169.655 167.909C167.186 169.919 169.557 170.835 172.675 169.322C175.793 167.81 178.17 166.651 180.384 165.579C182.598 164.507 180.297 163.291 178.292 159.397Z" fill="#263238"/>
<path d="M171.701 163.969C171.562 164.053 171.398 164.083 171.238 164.056C171.11 164.027 170.948 163.928 170.884 163.615C170.868 163.54 170.868 163.463 170.884 163.388C170.899 163.313 170.931 163.242 170.977 163.181C171.244 162.886 171.587 162.669 171.968 162.555C171.493 162.555 171.041 162.456 170.907 162.213C170.82 162.062 170.861 161.877 171.023 161.674C171.092 161.584 171.179 161.51 171.279 161.457C171.379 161.404 171.49 161.373 171.603 161.367C172.356 161.321 173.272 162.213 173.342 162.259C173.358 162.271 173.37 162.287 173.376 162.306C173.379 162.319 173.379 162.333 173.376 162.346C173.379 162.362 173.379 162.377 173.376 162.393C173.37 162.41 173.36 162.426 173.347 162.439C172.895 163.043 172.337 163.561 171.701 163.969ZM171.701 162.966C171.506 163.044 171.332 163.17 171.197 163.331C171.172 163.364 171.155 163.402 171.146 163.442C171.137 163.481 171.137 163.523 171.145 163.563C171.185 163.766 171.267 163.783 171.296 163.795C171.603 163.864 172.333 163.215 172.878 162.572C172.474 162.66 172.082 162.792 171.707 162.966H171.701ZM171.417 161.692C171.344 161.729 171.281 161.782 171.232 161.848C171.18 161.906 171.104 162.022 171.139 162.08C171.255 162.288 172.095 162.323 172.913 162.254C172.562 161.914 172.11 161.698 171.626 161.639C171.555 161.642 171.486 161.66 171.423 161.692H171.417Z" fill="#AF2245"/>
<path d="M142.587 89.7811C143.508 95.8133 145.185 101.706 147.577 107.32C150.174 113.351 153.043 117.79 155.112 122.384C158.799 130.496 168.334 149.738 168.334 149.738L174.71 144.923C174.71 144.923 164.549 120.38 163.842 115.565C163.395 112.448 162.966 95.6853 162.717 84.2767C162.584 78.0481 162.503 73.407 162.503 73.407L144.273 58.8581C141.563 68.9359 140.989 79.4685 142.587 89.7811Z" fill="#602D8A"/>
<path opacity="0.2" d="M147.577 107.32C150.174 113.351 153.043 117.79 155.112 122.384C158.799 130.496 168.334 149.738 168.334 149.738L174.71 144.923C174.71 144.923 164.549 120.38 163.842 115.565C163.395 112.448 162.966 95.6853 162.717 84.2768L157.321 72.9493L150.325 75.7595L152.608 84.5433L147.577 107.32Z" fill="black"/>
<path d="M154.249 125.884C149.444 144.176 140.413 165.863 140.413 165.863L137.283 164.646L146.453 125.884H154.249Z" fill="#EBB376"/>
<path d="M142.071 164.073C142.158 163.662 137.04 162.752 137.04 162.752C137.04 162.752 133.168 165.145 129.986 165.116C126.803 165.087 128.038 167.306 131.406 168.129L139.735 170.162C142.123 170.765 141.126 168.366 142.071 164.073Z" fill="#263238"/>
<path d="M134.078 163.407C133.917 163.38 133.77 163.301 133.66 163.181C133.601 163.096 133.569 162.995 133.569 162.891C133.569 162.787 133.601 162.686 133.66 162.601C133.695 162.533 133.745 162.473 133.805 162.425C133.864 162.377 133.934 162.342 134.008 162.323C134.402 162.268 134.803 162.322 135.167 162.479C134.808 162.161 134.512 161.807 134.588 161.535C134.623 161.361 134.767 161.245 135.023 161.193C135.136 161.169 135.253 161.169 135.366 161.194C135.479 161.219 135.585 161.268 135.677 161.338C136.292 161.784 136.425 163.076 136.431 163.123C136.437 163.14 136.437 163.158 136.431 163.175C136.434 163.181 136.435 163.188 136.435 163.195C136.435 163.202 136.434 163.209 136.431 163.215L136.396 163.25C136.381 163.253 136.365 163.253 136.35 163.25C135.608 163.438 134.838 163.491 134.078 163.407ZM134.721 162.636C134.52 162.574 134.307 162.562 134.101 162.601C134.061 162.609 134.023 162.626 133.99 162.65C133.957 162.674 133.93 162.705 133.91 162.74C133.811 162.926 133.863 162.995 133.881 163.013C134.066 163.267 135.04 163.215 135.88 163.082C135.51 162.894 135.122 162.744 134.721 162.636ZM135.301 161.477C135.221 161.454 135.137 161.454 135.057 161.477C134.976 161.477 134.849 161.529 134.831 161.599C134.791 161.831 135.411 162.398 136.095 162.862C136.041 162.381 135.839 161.93 135.515 161.57C135.457 161.524 135.39 161.493 135.318 161.477H135.301Z" fill="#AF2245"/>
<path d="M163.575 56.8823C163.575 56.8823 170.641 71.7789 168.142 85.8527C165.644 99.9266 158.097 117.958 156.063 122.355C154.028 126.753 146.453 152.624 146.453 152.624L139.88 150.486C139.88 150.486 145.751 124.76 147.595 115.797C148.47 111.561 155.93 81.4145 155.93 81.4145C155.93 81.4145 143.143 71.918 144.047 57.0793L163.575 56.8823Z" fill="#602D8A"/>
<path d="M149.803 15.6748C150.56 15.2053 151.466 15.0358 152.342 15.1997C154.823 15.669 155.414 18.0968 155.078 19.8987C154.938 20.6304 154.603 21.3107 154.108 21.8676C153.613 22.4245 152.977 22.8373 152.266 23.0623C150.313 23.549 148.592 21.747 148.087 20.3854C147.766 19.5245 147.763 18.5776 148.077 17.7143C148.392 16.8511 149.004 16.128 149.803 15.6748Z" fill="#263238"/>
<path d="M141.816 68.2967L149.826 71.0025L151.316 66.1355L152.933 70.6259L167.476 67.2422C166.235 58.3135 161.251 51.1983 160.474 48.4983C159.39 44.7669 158.55 37.6228 159.286 33.0049C159.359 32.539 159.335 32.0629 159.216 31.6065C159.097 31.1501 158.885 30.7231 158.594 30.3522C158.302 29.9814 157.937 29.6746 157.522 29.4511C157.106 29.2277 156.649 29.0922 156.179 29.0534C154.77 28.9433 153.362 28.8853 151.942 28.8853C149.14 28.8525 146.339 29.017 143.56 29.3778C139.99 29.9572 135.95 31.0233 135.95 31.0233C135.95 31.0233 135.37 31.2609 135.648 35.0792C135.886 38.4398 136.53 48.8633 143.387 57.6761L141.816 68.2967Z" fill="#602D8A"/>
<path d="M149.93 35.9715C149.93 35.9715 146.731 38.7469 145.798 45.8794L142.187 35.9078L139.706 36.661C139.706 36.661 141.613 27.6222 147.821 27.4542C154.028 27.2862 153.559 36.6668 153.559 36.6668L149.93 35.9715Z" fill="url(#paint1_linear_1142_4612)"/>
<path d="M140.946 25.7971C140.946 25.7971 143.218 27.2688 143.607 28.2364C143.632 28.2982 143.651 28.3622 143.665 28.4276C143.777 28.9803 143.855 29.5396 143.897 30.1021C142.158 33.8335 145.491 40.2707 145.491 40.2707C146.847 36.4707 148.768 32.8963 151.188 29.6675C147.542 28.2364 146.847 21.2545 146.847 21.2545L145.079 22.6161L140.946 25.7971Z" fill="#EBB376"/>
<path opacity="0.2" d="M140.946 25.7971C140.946 25.7971 143.218 27.2688 143.607 28.2364C143.632 28.2982 143.651 28.3622 143.665 28.4276C144.626 27.6908 145.393 26.7302 145.898 25.6295C146.403 24.5287 146.631 23.3212 146.563 22.1121L145.085 22.6161L140.946 25.7971Z" fill="black"/>
<path d="M138.419 9.42301C138.419 9.42301 133.829 8.13673 131.603 11.8449C129.377 15.5532 131.156 18.3575 132.698 19.7017" stroke="#263238" stroke-width="0.49" stroke-linecap="round" stroke-linejoin="round"/>
<path d="M136.599 9.22021C136.599 9.22021 132.855 9.33608 131.823 12.4997C130.791 15.6632 131.556 19.2092 137.115 23.0391C139.833 24.9106 146.586 21.2545 146.586 21.2545L147.125 22.8884C148.026 22.2334 148.845 21.4728 149.565 20.623C151.75 18.062 151.188 9.57365 145.125 7.91654C138.778 6.18411 136.599 9.22021 136.599 9.22021Z" fill="#263238"/>
<path d="M140.164 10.2747C135.399 10.9236 134.217 13.6816 134.536 18.6298C134.936 24.8178 136.889 28.9838 142.65 26.869C150.51 23.9893 148.064 9.20279 140.164 10.2747Z" fill="#EBB376"/>
<path d="M137.579 17.9461C137.293 18.7086 136.918 19.4341 136.46 20.1073C136.626 20.2841 136.838 20.4121 137.072 20.4775C137.306 20.5428 137.553 20.543 137.787 20.4781L137.579 17.9461Z" fill="#D58745"/>
<path d="M140.436 17.1581C140.483 17.5521 140.726 17.8476 141.016 17.8186C141.306 17.7897 141.451 17.4478 141.41 17.0538C141.369 16.6598 141.114 16.3701 140.83 16.3991C140.546 16.4281 140.396 16.7699 140.436 17.1581Z" fill="#263238"/>
<path d="M140.94 16.4049L140.054 16.1673C140.054 16.1673 140.558 16.8336 140.94 16.4049Z" fill="#263238"/>
<path d="M135.55 17.6274C135.596 18.0214 135.846 18.3111 136.13 18.2821C136.414 18.2532 136.564 17.9113 136.524 17.5231C136.483 17.1349 136.228 16.8336 135.944 16.8626C135.66 16.8916 135.509 17.2334 135.55 17.6274Z" fill="#263238"/>
<path d="M136.054 16.8684L135.167 16.6309C135.167 16.6309 135.672 17.303 136.054 16.8684Z" fill="#263238"/>
<path d="M140.036 13.867C140.406 13.7705 140.794 13.76 141.168 13.8363C141.543 13.9127 141.895 14.0738 142.198 14.3074" stroke="#263238" stroke-width="0.71" stroke-linecap="round" stroke-linejoin="round"/>
<path d="M136.553 14.1394C136.216 14.1011 135.874 14.1396 135.554 14.2519C135.234 14.3643 134.943 14.5477 134.704 14.7883" stroke="#263238" stroke-width="0.71" stroke-linecap="round" stroke-linejoin="round"/>
<path d="M146.453 17.5869C146.453 17.5869 143.694 13.9829 143.618 10.9179C143.618 10.9179 133.66 8.3511 134.501 17.9809C134.501 17.9809 132.42 9.60841 140.575 8.31054C148.731 7.01266 150.614 18.2358 146.87 22.3728C146.876 22.3728 148.192 19.8466 146.453 17.5869Z" fill="#263238"/>
<path d="M145.815 18.6993C145.8 18.4235 145.84 18.1474 145.932 17.8869C146.024 17.6264 146.166 17.3865 146.351 17.181C146.535 16.9755 146.758 16.8083 147.008 16.689C147.257 16.5698 147.527 16.5008 147.803 16.486C149.299 16.4454 150.417 19.383 146.847 20.5998C146.331 20.7794 145.966 20.3043 145.815 18.6993Z" fill="#EBB376"/>
<path d="M138.042 21.8977C138.246 22.4642 138.407 23.0453 138.523 23.6359C138.63 23.6417 138.736 23.6417 138.842 23.6359C140.28 23.5722 140.923 23.0565 141.201 22.5292C141.331 22.2621 141.396 21.9685 141.393 21.6717C141.394 21.5035 141.373 21.3358 141.329 21.1734C140.459 21.6064 139.506 21.8493 138.535 21.8861L138.042 21.8977Z" fill="#263238"/>
<path d="M138.535 21.8687L138.686 22.3728C140.042 22.309 141.004 22.0831 141.393 21.6543C141.394 21.4861 141.373 21.3184 141.329 21.156C140.459 21.589 139.506 21.8319 138.535 21.8687Z" fill="white"/>
<path d="M138.842 23.6185C140.28 23.5548 140.923 23.0391 141.201 22.5118C140.655 22.5469 140.119 22.6783 139.619 22.9001C139.292 23.0531 139.02 23.3042 138.842 23.6185Z" fill="#DE5753"/>
<path d="M150.719 14.7883L150.377 7.38348L151.669 5.31499C148.289 4.08125 144.631 3.81635 141.109 4.55016L136.576 9.18543C136.576 9.18543 145.328 7.05322 150.719 14.7883Z" fill="#602D8A"/>
<path opacity="0.1" d="M145.667 10.0039C147.601 11.0074 149.256 12.4019 150.506 14.08L150.128 6.74293L151.533 4.69336L145.667 10.0039Z" fill="black"/>
<path d="M136.831 47.606L143.201 47.1773L142.749 43.6255L136.379 44.0543L136.831 47.606Z" fill="#AF2245"/>
<path opacity="0.5" d="M137.173 47.3279L142.65 46.957L142.262 43.9036L136.785 44.2744L137.173 47.3279Z" fill="white"/>
<path d="M139.375 42.6578L139.984 44.3787H138.964V42.6578H139.375Z" fill="#263238"/>
<path opacity="0.1" d="M161.338 50.6015C154.568 49.9294 155.147 40.8791 155.147 40.8791C156.404 40.3201 157.705 39.8666 159.036 39.5233C159.192 42.5542 159.656 45.5614 160.422 48.4983C160.674 49.2211 160.98 49.9242 161.338 50.6015Z" fill="black"/>
<path d="M136.964 57.2879L138.263 56.1291C138.503 55.9137 138.792 55.7592 139.105 55.6785C139.417 55.5979 139.745 55.5934 140.059 55.6656L143.045 56.3435C143.632 56.4764 144.18 56.7484 144.641 57.1365C145.102 57.5247 145.463 58.0177 145.693 58.5742L145.983 59.2695C143.96 61.338 140.251 62.0796 140.251 62.0796L139.213 62.4099C139.003 62.4845 138.781 62.5165 138.558 62.504C138.336 62.4915 138.118 62.4347 137.918 62.3371C137.717 62.2394 137.539 62.1028 137.392 61.9352C137.245 61.7677 137.133 61.5725 137.063 61.3612L136.385 59.3217C136.273 58.963 136.269 58.5798 136.372 58.2186C136.475 57.8575 136.681 57.5342 136.964 57.2879Z" fill="#EBB376"/>
<path d="M162.63 38.0632C162.879 38.9323 163.071 39.6855 163.245 40.4967C163.418 41.3079 163.581 42.0959 163.731 42.9012C164.021 44.5062 164.218 46.1285 164.375 47.7625C164.532 49.4108 164.596 51.0667 164.566 52.7222C164.535 54.4149 164.384 56.1033 164.114 57.7746V57.8616C164.088 58.0159 164.048 58.1673 163.992 58.3135C163.664 59.1571 163.098 59.8876 162.363 60.4168C161.836 60.8127 161.249 61.1218 160.625 61.3322C159.647 61.6468 158.635 61.8413 157.611 61.9116C155.829 62.0313 154.041 61.9925 152.266 61.7957C150.528 61.6161 148.87 61.3496 147.206 61.0251C145.543 60.7007 143.92 60.3183 142.268 59.8663C141.927 59.7649 141.636 59.5411 141.449 59.2381C141.263 58.935 141.196 58.574 141.26 58.2242C141.324 57.8744 141.515 57.5606 141.796 57.3429C142.077 57.1252 142.429 57.019 142.784 57.0446H142.818C144.412 57.1721 146.053 57.2995 147.664 57.3633C149.276 57.427 150.887 57.4907 152.469 57.4676C153.991 57.4698 155.51 57.3555 157.014 57.1257C157.633 57.0315 158.238 56.8622 158.816 56.6216C158.972 56.5642 159.114 56.4754 159.233 56.3609C159.28 56.3088 159.158 56.3609 159.094 56.5347L158.961 57.0736C159.077 55.6436 159.112 54.2082 159.065 52.7744C158.996 51.32 158.892 49.8773 158.712 48.3767C158.532 46.876 158.289 45.4333 158.016 43.9674C157.877 43.2315 157.732 42.5014 157.576 41.7714C157.419 41.0413 157.24 40.2939 157.083 39.6508V39.5754C156.899 38.838 157.013 38.058 157.399 37.4033C157.785 36.7487 158.413 36.272 159.147 36.0759C159.882 35.8798 160.664 35.9801 161.325 36.3551C161.986 36.73 162.474 37.3497 162.682 38.0806L162.63 38.0632Z" fill="#E9B376"/>
<path d="M156.057 29.2504C160.845 29.7602 163.013 33.3062 165.059 41.2789C163.274 43.9036 156.364 45.694 156.364 45.694C156.364 45.694 152.249 33.8509 156.057 29.2504Z" fill="#602D8A"/>
<path d="M50.1594 160.55C47.9742 160.55 46.189 162.729 46.189 165.411C46.189 168.094 47.9742 170.267 50.1594 170.267C52.3446 170.267 54.1298 168.088 54.1298 165.411C54.1298 162.734 52.3504 160.55 50.1594 160.55Z" fill="#2E353A"/>
<path d="M50.1594 168.534C48.9538 168.534 47.9279 167.103 47.9279 165.411C47.9279 163.719 48.9538 162.288 50.1594 162.288C51.365 162.288 52.391 163.714 52.391 165.411C52.391 167.109 51.394 168.534 50.1594 168.534Z" fill="#AF2245"/>
<path d="M49.6146 165.643V160.15H53.5502L51.4868 165.944C51.4196 166.132 51.2961 166.293 51.1331 166.408C50.9701 166.522 50.7757 166.583 50.5767 166.582C50.3255 166.582 50.0842 166.484 49.9044 166.308C49.7247 166.133 49.6206 165.894 49.6146 165.643Z" fill="#2E353A"/>
<path opacity="0.3" d="M49.6146 165.643V160.15H53.5502L51.4868 165.944C51.4196 166.132 51.2961 166.293 51.1331 166.408C50.9701 166.522 50.7757 166.583 50.5767 166.582C50.3255 166.582 50.0842 166.484 49.9044 166.308C49.7247 166.133 49.6206 165.894 49.6146 165.643Z" fill="white"/>
<path d="M62.9865 105.941V97.4872C62.9865 96.7558 63.2772 96.0543 63.7946 95.537C64.312 95.0198 65.0138 94.7292 65.7455 94.7292H106.986" stroke="#263238" stroke-width="4" stroke-miterlimit="10"/>
<path d="M86.6643 170.267C74.2776 170.267 64.1979 157.92 64.1979 142.745C64.1979 127.57 74.2776 115.217 86.6643 115.217C99.0509 115.217 109.136 127.564 109.136 142.745C109.136 157.925 99.0567 170.267 86.6643 170.267ZM86.6643 118.12C75.8716 118.12 67.0961 129.169 67.0961 142.751C67.0961 156.332 75.8716 167.375 86.6643 167.375C97.4569 167.375 106.238 156.332 106.238 142.751C106.238 129.169 97.4569 118.114 86.6643 118.114V118.12Z" fill="#2E353A"/>
<path d="M86.6643 117.824C75.7151 117.824 66.8063 129.007 66.8063 142.739C66.8063 156.471 75.7151 167.654 86.6643 167.654C97.6134 167.654 106.528 156.477 106.528 142.739C106.528 129.001 97.6192 117.824 86.6643 117.824ZM90.7622 138.451L98.7321 128.254C100.014 130.107 101.02 132.137 101.717 134.28L91.3882 139.651C91.215 139.233 91.0055 138.832 90.7622 138.451ZM87.2439 135.966V121.324C89.1315 121.416 90.9766 121.916 92.6518 122.79L88.2119 136.226C87.9006 136.102 87.5757 136.014 87.2439 135.966ZM86.0847 135.966C85.7823 136.014 85.4853 136.092 85.1978 136.198L80.9086 122.674C82.521 121.869 84.2841 121.409 86.0847 121.324V135.966ZM82.0273 139.564L71.7331 134.002C72.4253 131.96 73.4009 130.025 74.6312 128.254L82.6011 138.451C82.3709 138.805 82.1711 139.177 82.0041 139.564H82.0273ZM81.6621 140.682C81.5447 141.169 81.469 141.665 81.4361 142.165H70.2898C70.3321 139.774 70.6907 137.399 71.3563 135.102L81.6621 140.682ZM81.4361 143.324C81.467 143.79 81.5348 144.253 81.6389 144.709L71.2926 150.08C70.6856 147.878 70.3565 145.608 70.313 143.324H81.4361ZM82.0157 145.833C82.1717 146.252 82.3657 146.655 82.5953 147.038L74.5791 157.236C73.2935 155.385 72.2877 153.354 71.594 151.21L82.0157 145.833ZM86.131 149.518V164.166C84.2452 164.075 82.4018 163.575 80.7289 162.7L85.1688 149.263C85.4635 149.382 85.7707 149.468 86.0847 149.518H86.131ZM87.2903 149.518C87.5951 149.475 87.8943 149.399 88.1829 149.292L92.4721 162.816C90.8576 163.621 89.0927 164.081 87.2903 164.166V149.518ZM91.3766 145.926L101.665 151.488C100.973 153.53 99.9974 155.465 98.7669 157.236L90.797 147.038C91.0053 146.683 91.1837 146.311 91.3303 145.926H91.3766ZM91.7418 144.802C91.8605 144.317 91.9343 143.822 91.9621 143.324H103.039C102.996 145.707 102.64 148.074 101.978 150.364L91.7418 144.802ZM91.9621 142.165C91.9339 141.697 91.8661 141.232 91.7592 140.775L102.111 135.41C102.717 137.612 103.044 139.882 103.085 142.165H91.9621ZM98.0539 127.292L90.0783 137.495C89.8367 137.239 89.5729 137.004 89.29 136.794L93.7067 123.369C95.3521 124.424 96.8063 125.751 98.0076 127.292H98.0539ZM79.9174 123.236L84.2009 136.742C83.8909 136.962 83.6035 137.213 83.343 137.49L75.3674 127.286C76.6165 125.682 78.1416 124.312 79.8711 123.242L79.9174 123.236ZM75.3674 158.186L83.2735 147.994C83.517 148.249 83.7827 148.482 84.0676 148.69L79.6276 162.12C77.98 161.064 76.5237 159.736 75.321 158.192L75.3674 158.186ZM93.5097 162.242L89.2204 148.736C89.5316 148.517 89.8191 148.267 90.0783 147.988L98.0539 158.186C96.782 159.806 95.2266 161.182 93.4633 162.248L93.5097 162.242Z" fill="#AF2245"/>
<g opacity="0.2">
<path d="M86.6643 117.824C75.7151 117.824 66.8063 129.007 66.8063 142.739C66.8063 156.471 75.7151 167.654 86.6643 167.654C97.6134 167.654 106.528 156.477 106.528 142.739C106.528 129.001 97.6192 117.824 86.6643 117.824ZM90.7622 138.451L98.7321 128.254C100.014 130.107 101.02 132.137 101.717 134.28L91.3882 139.651C91.215 139.233 91.0055 138.832 90.7622 138.451ZM87.2439 135.966V121.324C89.1315 121.416 90.9766 121.916 92.6518 122.79L88.2119 136.226C87.9006 136.102 87.5757 136.014 87.2439 135.966ZM86.0847 135.966C85.7823 136.014 85.4853 136.092 85.1978 136.198L80.9086 122.674C82.521 121.869 84.2841 121.409 86.0847 121.324V135.966ZM82.0273 139.564L71.7331 134.002C72.4253 131.96 73.4009 130.025 74.6312 128.254L82.6011 138.451C82.3709 138.805 82.1711 139.177 82.0041 139.564H82.0273ZM81.6621 140.682C81.5447 141.169 81.469 141.665 81.4361 142.165H70.2898C70.3321 139.774 70.6907 137.399 71.3563 135.102L81.6621 140.682ZM81.4361 143.324C81.467 143.79 81.5348 144.253 81.6389 144.709L71.2926 150.08C70.6856 147.878 70.3565 145.608 70.313 143.324H81.4361ZM82.0157 145.833C82.1717 146.252 82.3657 146.655 82.5953 147.038L74.5791 157.236C73.2935 155.385 72.2877 153.354 71.594 151.21L82.0157 145.833ZM86.131 149.518V164.166C84.2452 164.075 82.4018 163.575 80.7289 162.7L85.1688 149.263C85.4635 149.382 85.7707 149.468 86.0847 149.518H86.131ZM87.2903 149.518C87.5951 149.475 87.8943 149.399 88.1829 149.292L92.4721 162.816C90.8576 163.621 89.0927 164.081 87.2903 164.166V149.518ZM91.3766 145.926L101.665 151.488C100.973 153.53 99.9974 155.465 98.7669 157.236L90.797 147.038C91.0053 146.683 91.1837 146.311 91.3303 145.926H91.3766ZM91.7418 144.802C91.8605 144.317 91.9343 143.822 91.9621 143.324H103.039C102.996 145.707 102.64 148.074 101.978 150.364L91.7418 144.802ZM91.9621 142.165C91.9339 141.697 91.8661 141.232 91.7592 140.775L102.111 135.41C102.717 137.612 103.044 139.882 103.085 142.165H91.9621ZM98.0539 127.292L90.0783 137.495C89.8367 137.239 89.5729 137.004 89.29 136.794L93.7067 123.369C95.3521 124.424 96.8063 125.751 98.0076 127.292H98.0539ZM79.9174 123.236L84.2009 136.742C83.8909 136.962 83.6035 137.213 83.343 137.49L75.3674 127.286C76.6165 125.682 78.1416 124.312 79.8711 123.242L79.9174 123.236ZM75.3674 158.186L83.2735 147.994C83.517 148.249 83.7827 148.482 84.0676 148.69L79.6276 162.12C77.98 161.064 76.5237 159.736 75.321 158.192L75.3674 158.186ZM93.5097 162.242L89.2204 148.736C89.5316 148.517 89.8191 148.267 90.0783 147.988L98.0539 158.186C96.782 159.806 95.2266 161.182 93.4633 162.248L93.5097 162.242Z" fill="black"/>
</g>
<path d="M101.769 115.582H61.8273C60.5575 115.582 59.3397 116.086 58.4419 116.984C57.544 117.881 57.0396 119.099 57.0396 120.368V157.78C57.0396 158.349 56.8136 158.894 56.4114 159.296C56.0092 159.698 55.4637 159.924 54.8949 159.924H46.1252C45.8177 159.924 45.5229 160.046 45.3055 160.264C45.0881 160.481 44.9659 160.776 44.9659 161.083C44.9659 161.39 45.0881 161.685 45.3055 161.902C45.5229 162.12 45.8177 162.242 46.1252 162.242H54.9007C56.084 162.24 57.2183 161.77 58.055 160.933C58.8916 160.097 59.3623 158.963 59.3639 157.78V143.904H101.769C102.077 143.904 102.372 143.782 102.589 143.564C102.806 143.347 102.929 143.052 102.929 142.745V116.741C102.929 116.434 102.806 116.139 102.589 115.922C102.372 115.704 102.077 115.582 101.769 115.582ZM100.61 141.586H59.3639V120.368C59.3639 119.713 59.624 119.086 60.0871 118.623C60.5501 118.16 61.1782 117.9 61.8331 117.9H100.61V141.586Z" fill="#2E353A"/>
<path opacity="0.3" d="M101.769 115.582H61.8273C60.5575 115.582 59.3397 116.086 58.4419 116.984C57.544 117.881 57.0396 119.099 57.0396 120.368V157.78C57.0396 158.349 56.8136 158.894 56.4114 159.296C56.0092 159.698 55.4637 159.924 54.8949 159.924H46.1252C45.8177 159.924 45.5229 160.046 45.3055 160.264C45.0881 160.481 44.9659 160.776 44.9659 161.083C44.9659 161.39 45.0881 161.685 45.3055 161.902C45.5229 162.12 45.8177 162.242 46.1252 162.242H54.9007C56.084 162.24 57.2183 161.77 58.055 160.933C58.8916 160.097 59.3623 158.963 59.3639 157.78V143.904H101.769C102.077 143.904 102.372 143.782 102.589 143.564C102.806 143.347 102.929 143.052 102.929 142.745V116.741C102.929 116.434 102.806 116.139 102.589 115.922C102.372 115.704 102.077 115.582 101.769 115.582ZM100.61 141.586H59.3639V120.368C59.3639 119.713 59.624 119.086 60.0871 118.623C60.5501 118.16 61.1782 117.9 61.8331 117.9H100.61V141.586Z" fill="white"/>
<path d="M104.447 65.3127V102.656H59.8159C58.6599 102.656 57.5512 103.115 56.7338 103.932C55.9164 104.749 55.4572 105.857 55.4572 107.013V126.353H102.094C102.786 126.354 103.472 126.218 104.112 125.954C104.752 125.69 105.333 125.302 105.823 124.813C106.313 124.324 106.702 123.743 106.967 123.103C107.232 122.464 107.369 121.779 107.369 121.087V65.3127H104.447Z" fill="#2E353A"/>
<path opacity="0.3" d="M104.447 65.3127V102.656H59.8159C58.6599 102.656 57.5512 103.115 56.7338 103.932C55.9164 104.749 55.4572 105.857 55.4572 107.013V126.353H102.094C102.786 126.354 103.472 126.218 104.112 125.954C104.752 125.69 105.333 125.302 105.823 124.813C106.313 124.324 106.702 123.743 106.967 123.103C107.232 122.464 107.369 121.779 107.369 121.087V65.3127H104.447Z" fill="white"/>
<path d="M59.3233 116.666H120.949V125.148H54.9239V121.092C54.9201 120.512 55.0311 119.937 55.2505 119.4C55.4698 118.864 55.7933 118.375 56.2022 117.964C56.6111 117.552 57.0974 117.226 57.633 117.003C58.1687 116.78 58.7431 116.666 59.3233 116.666Z" fill="#263238"/>
<path d="M125.325 123.943H54.8718C54.7134 123.943 54.5567 123.974 54.4104 124.035C54.2641 124.095 54.1312 124.184 54.0193 124.296C53.9073 124.408 53.8185 124.541 53.7579 124.687C53.6973 124.833 53.6661 124.99 53.6661 125.148C53.6661 125.306 53.6973 125.463 53.7579 125.609C53.8185 125.756 53.9073 125.888 54.0193 126C54.1312 126.112 54.2641 126.201 54.4104 126.262C54.5567 126.322 54.7134 126.353 54.8718 126.353H125.325C125.637 126.352 125.936 126.231 126.16 126.015C126.385 125.799 126.518 125.506 126.531 125.195C126.537 125.032 126.511 124.871 126.453 124.719C126.395 124.567 126.307 124.429 126.195 124.312C126.082 124.195 125.947 124.102 125.798 124.039C125.648 123.976 125.488 123.943 125.325 123.943Z" fill="#2E353A"/>
<path opacity="0.3" d="M125.325 123.943H54.8718C54.7134 123.943 54.5567 123.974 54.4104 124.035C54.2641 124.095 54.1312 124.184 54.0193 124.296C53.9073 124.408 53.8185 124.541 53.7579 124.687C53.6973 124.833 53.6661 124.99 53.6661 125.148C53.6661 125.306 53.6973 125.463 53.7579 125.609C53.8185 125.756 53.9073 125.888 54.0193 126C54.1312 126.112 54.2641 126.201 54.4104 126.262C54.5567 126.322 54.7134 126.353 54.8718 126.353H125.325C125.637 126.352 125.936 126.231 126.16 126.015C126.385 125.799 126.518 125.506 126.531 125.195C126.537 125.032 126.511 124.871 126.453 124.719C126.395 124.567 126.307 124.429 126.195 124.312C126.082 124.195 125.947 124.102 125.798 124.039C125.648 123.976 125.488 123.943 125.325 123.943Z" fill="white"/>
<path d="M105.485 66.4136H130.223V116.295C130.223 118.323 129.417 120.269 127.982 121.703C126.547 123.137 124.601 123.943 122.572 123.943H105.485V66.4136Z" fill="#263238"/>
<path d="M54.5414 157.966H34.4457C33.6518 157.966 33.0082 158.609 33.0082 159.403V160.214C33.0082 161.008 33.6518 161.651 34.4457 161.651H54.5414C55.3353 161.651 55.9788 161.008 55.9788 160.214V159.403C55.9788 158.609 55.3353 157.966 54.5414 157.966Z" fill="#2E353A"/>
<path opacity="0.2" d="M54.5414 157.966H34.4457C33.6518 157.966 33.0082 158.609 33.0082 159.403V160.214C33.0082 161.008 33.6518 161.651 34.4457 161.651H54.5414C55.3353 161.651 55.9788 161.008 55.9788 160.214V159.403C55.9788 158.609 55.3353 157.966 54.5414 157.966Z" fill="white"/>
<path d="M125.215 141.928L102.778 133.944L125.215 125.965C125.33 125.934 125.438 125.878 125.531 125.803C125.624 125.728 125.701 125.635 125.756 125.529C125.811 125.423 125.844 125.307 125.852 125.188C125.861 125.069 125.844 124.949 125.804 124.837C125.765 124.724 125.702 124.621 125.62 124.534C125.539 124.446 125.44 124.377 125.33 124.329C125.22 124.282 125.102 124.258 124.983 124.258C124.863 124.258 124.745 124.283 124.636 124.331L100.187 133.022L75.7441 124.331C75.6347 124.283 75.5165 124.258 75.397 124.258C75.2775 124.258 75.1592 124.282 75.0495 124.329C74.9399 124.377 74.8411 124.446 74.7595 124.534C74.6779 124.621 74.6152 124.724 74.5753 124.837C74.5353 124.949 74.519 125.069 74.5274 125.188C74.5358 125.307 74.5686 125.423 74.6239 125.529C74.6792 125.635 74.7558 125.728 74.8488 125.803C74.9418 125.878 75.0492 125.934 75.1645 125.965L97.5902 133.944L75.1587 141.928C75.0434 141.959 74.936 142.015 74.843 142.09C74.75 142.165 74.6734 142.258 74.6181 142.364C74.5628 142.47 74.53 142.586 74.5216 142.705C74.5132 142.824 74.5295 142.944 74.5695 143.056C74.6094 143.169 74.6721 143.272 74.7537 143.359C74.8353 143.447 74.9341 143.516 75.0438 143.564C75.1534 143.611 75.2717 143.635 75.3912 143.635C75.5107 143.635 75.6289 143.61 75.7383 143.562L100.181 134.871L124.63 143.562C124.739 143.61 124.857 143.635 124.977 143.635C125.096 143.635 125.215 143.611 125.324 143.564C125.434 143.516 125.533 143.447 125.614 143.359C125.696 143.272 125.759 143.169 125.799 143.056C125.839 142.944 125.855 142.824 125.847 142.705C125.838 142.586 125.805 142.47 125.75 142.364C125.695 142.258 125.618 142.165 125.525 142.09C125.432 142.015 125.325 141.959 125.209 141.928H125.215Z" fill="#2E353A"/>
<path opacity="0.3" d="M125.215 141.928L102.778 133.944L125.215 125.965C125.33 125.934 125.438 125.878 125.531 125.803C125.624 125.728 125.701 125.635 125.756 125.529C125.811 125.423 125.844 125.307 125.852 125.188C125.861 125.069 125.844 124.949 125.804 124.837C125.765 124.724 125.702 124.621 125.62 124.534C125.539 124.446 125.44 124.377 125.33 124.329C125.22 124.282 125.102 124.258 124.983 124.258C124.863 124.258 124.745 124.283 124.636 124.331L100.187 133.022L75.7441 124.331C75.6347 124.283 75.5165 124.258 75.397 124.258C75.2775 124.258 75.1592 124.282 75.0495 124.329C74.9399 124.377 74.8411 124.446 74.7595 124.534C74.6779 124.621 74.6152 124.724 74.5753 124.837C74.5353 124.949 74.519 125.069 74.5274 125.188C74.5358 125.307 74.5686 125.423 74.6239 125.529C74.6792 125.635 74.7558 125.728 74.8488 125.803C74.9418 125.878 75.0492 125.934 75.1645 125.965L97.5902 133.944L75.1587 141.928C75.0434 141.959 74.936 142.015 74.843 142.09C74.75 142.165 74.6734 142.258 74.6181 142.364C74.5628 142.47 74.53 142.586 74.5216 142.705C74.5132 142.824 74.5295 142.944 74.5695 143.056C74.6094 143.169 74.6721 143.272 74.7537 143.359C74.8353 143.447 74.9341 143.516 75.0438 143.564C75.1534 143.611 75.2717 143.635 75.3912 143.635C75.5107 143.635 75.6289 143.61 75.7383 143.562L100.181 134.871L124.63 143.562C124.739 143.61 124.857 143.635 124.977 143.635C125.096 143.635 125.215 143.611 125.324 143.564C125.434 143.516 125.533 143.447 125.614 143.359C125.696 143.272 125.759 143.169 125.799 143.056C125.839 142.944 125.855 142.824 125.847 142.705C125.838 142.586 125.805 142.47 125.75 142.364C125.695 142.258 125.618 142.165 125.525 142.09C125.432 142.015 125.325 141.959 125.209 141.928H125.215Z" fill="white"/>
<path d="M105.879 70.8229C105.648 70.8229 105.427 70.7313 105.264 70.5683C105.101 70.4053 105.009 70.1843 105.009 69.9538V63.2964C105.008 62.0211 105.498 60.7943 106.378 59.8707C107.257 58.9471 108.459 58.3977 109.733 58.3366L115.35 58.0643C115.581 58.0535 115.806 58.1348 115.977 58.2902C116.147 58.4456 116.249 58.6624 116.26 58.8929C116.271 59.1234 116.189 59.3487 116.034 59.5193C115.879 59.6899 115.662 59.7918 115.431 59.8025L109.82 60.0748C108.992 60.1136 108.211 60.4701 107.638 61.0701C107.066 61.6701 106.747 62.4674 106.748 63.2964V69.9538C106.748 70.1843 106.657 70.4053 106.494 70.5683C106.331 70.7313 106.109 70.8229 105.879 70.8229Z" fill="#263238"/>
<path d="M72.1968 160.55C70.0116 160.55 68.2322 162.729 68.2322 165.411C68.2322 168.094 70.0116 170.267 72.1968 170.267C74.382 170.267 76.1673 168.088 76.1673 165.411C76.1673 162.734 74.3878 160.55 72.1968 160.55Z" fill="#2E353A"/>
<path d="M72.1968 168.534C70.9911 168.534 69.971 167.103 69.971 165.411C69.971 163.719 70.9911 162.288 72.1968 162.288C73.4024 162.288 74.4283 163.714 74.4283 165.411C74.4283 167.109 73.4198 168.534 72.1968 168.534Z" fill="#AF2245"/>
<path d="M71.6809 165.643V160.15H75.6166L73.5473 165.944C73.4812 166.131 73.3587 166.293 73.1967 166.407C73.0348 166.521 72.8413 166.582 72.6431 166.582C72.3919 166.582 72.1506 166.484 71.9708 166.308C71.791 166.133 71.687 165.894 71.6809 165.643Z" fill="#2E353A"/>
<path opacity="0.6" d="M71.6809 165.643V160.15H75.6166L73.5473 165.944C73.4812 166.131 73.3587 166.293 73.1967 166.407C73.0348 166.521 72.8413 166.582 72.6431 166.582C72.3919 166.582 72.1506 166.484 71.9708 166.308C71.791 166.133 71.687 165.894 71.6809 165.643Z" fill="white"/>
<path d="M86.6585 92.8056L84.7747 96.1314C84.7747 96.1314 57.028 96.172 51.5853 101.671C46.1426 107.169 39.0306 124.267 39.0306 124.267L49.6146 128.242L61.4274 111.347L98.2684 113.774L101.868 92.2899L86.6585 92.8056Z" fill="#263238"/>
<path opacity="0.2" d="M101.874 92.2726L98.2742 113.757L77.0657 112.361L61.4157 111.329L56.4599 118.427L49.5972 128.277L39.0074 124.302C39.0074 124.302 46.1194 107.21 51.5679 101.705C57.0164 96.201 84.7573 96.1662 84.7573 96.1662L86.6411 92.8404L101.874 92.2726Z" fill="white"/>
<path opacity="0.2" d="M77.0657 112.361L61.4157 111.329L56.4599 118.427C55.7238 114.423 54.9239 105.344 57.0396 102.296C59.7696 98.3447 77.6047 97.354 85.9456 97.916C90.8782 98.2462 85.592 106.045 77.0657 112.361Z" fill="black"/>
<path d="M92.0606 60.295C91.5389 63.8178 90.9361 67.2943 90.2638 70.7823C89.5914 74.2704 88.8495 77.7352 87.9163 81.2812L87.5337 82.6312L87.3077 83.3439L87.1975 83.6973L87.1685 83.7843L87.0758 84.0334L86.9773 84.2826L86.8729 84.4853C86.4846 85.2078 85.9635 85.8506 85.3369 86.38C84.9146 86.7496 84.4693 87.0921 84.0038 87.4056C82.4053 88.4531 80.7247 89.3696 78.9784 90.1462C75.6833 91.6398 72.2858 92.8964 68.8118 93.9065C68.3946 94.0301 67.9466 93.9972 67.5519 93.8138C67.1573 93.6304 66.8433 93.3093 66.6689 92.9108C66.4945 92.5123 66.4717 92.0638 66.6048 91.6497C66.7379 91.2355 67.0177 90.8842 67.3917 90.6618H67.4265C70.4173 88.8888 73.4546 87.1101 76.3237 85.2849C77.0425 84.833 77.738 84.3637 78.4104 83.8943C79.0591 83.4545 79.684 82.9806 80.2826 82.4748C80.5201 82.2625 80.7446 82.0361 80.9549 81.7969C81.1288 81.6289 81.2448 81.3855 81.0709 81.6405L81.0419 81.6984L80.9955 81.7969L80.9665 81.8838V81.8143L81.0303 81.5304L81.1694 80.951L81.4187 79.74C82.0736 76.42 82.6359 72.9551 83.1981 69.5076C83.7603 66.0602 84.3574 62.5953 84.937 59.1594C85.0907 58.222 85.6107 57.3841 86.3824 56.8299C87.1542 56.2757 88.1146 56.0508 89.0523 56.2044C89.9901 56.3581 90.8283 56.8778 91.3827 57.6493C91.9371 58.4208 92.1622 59.3808 92.0084 60.3182L92.0606 60.295Z" fill="#DD8A7D"/>
<path d="M89.6494 52.9017C85.592 53.4811 83.3314 56.7026 81.6621 70.4404L92.2113 72.9319C92.2113 72.9319 95.3065 64.6058 95.1906 60.6426C95.0747 56.6795 89.6494 52.9017 89.6494 52.9017Z" fill="#AF2245"/>
<path opacity="0.2" d="M92.1997 72.9319L90.884 72.619L84.7747 71.1763L81.6563 70.4404C83.3198 56.7026 85.5514 53.4753 89.6378 52.9017C89.6378 52.9017 95.0689 56.6853 95.1848 60.6426C95.3007 64.6 92.1997 72.9319 92.1997 72.9319Z" fill="white"/>
<path opacity="0.2" d="M90.884 72.619L84.7747 71.1763C85.3196 68.6964 86.9193 62.7633 89.9508 61.8015C92.9822 60.8397 95.6659 70.3767 90.884 72.619Z" fill="black"/>
<path d="M70.029 155.532L75.6977 154.148L75.3383 148.62L74.9906 143.55L68.0814 144.46L69.1074 150.323L70.029 155.532Z" fill="#E4897B"/>
<path opacity="0.2" d="M69.1364 150.439L75.3616 148.724L75.008 143.602L68.0873 144.483L69.1364 150.439Z" fill="black"/>
<path d="M75.9122 152.653C75.8832 152.224 69.1074 152.803 69.1074 152.803C69.1074 152.803 65.05 156.28 61.0216 157.16C56.9932 158.041 59.3291 159.872 63.8617 159.716L75.0717 159.31C78.2945 159.194 76.202 157.12 75.9122 152.653Z" fill="#2E353A"/>
<path d="M113.994 92.6028C113.994 92.6028 116.55 110.281 110.597 116.666C104.644 123.051 74.3704 113.879 73.4546 114.348C72.5388 114.817 75.6978 146.691 75.6978 146.691L66.8063 147.983C66.8063 147.983 57.1497 115.403 57.3642 105.941C57.5786 96.4791 89.8233 97.5394 89.8233 97.5394L91.6839 92.6028H113.994Z" fill="#2E353A"/>
<path opacity="0.2" d="M113.994 92.6028C113.994 92.6028 116.55 110.281 110.597 116.666C104.644 123.051 74.3704 113.879 73.4546 114.348C72.5388 114.817 75.6978 146.691 75.6978 146.691L66.8063 147.983C66.8063 147.983 57.1497 115.403 57.3642 105.941C57.5786 96.4791 89.8233 97.5394 89.8233 97.5394L91.6839 92.6028H113.994Z" fill="white"/>
<path d="M114.115 92.8056C114.84 77.2253 119.425 55.1788 119.425 55.1788C106.708 52.1138 89.6319 52.8612 89.6319 52.8612C86.3049 64.7565 86.3686 83.9523 86.6584 92.7824L114.115 92.8056Z" fill="#AF2245"/>
<path opacity="0.2" d="M114.11 92.8056C114.347 87.7822 114.979 82.0866 115.733 76.6749C116.161 73.5924 116.631 70.6027 117.083 67.8795C118.306 60.5615 119.402 55.1788 119.402 55.1788C106.685 52.1138 89.6146 52.8612 89.6146 52.8612C86.2875 64.7565 86.3455 83.9523 86.6353 92.7824L114.11 92.8056Z" fill="white"/>
<path opacity="0.2" d="M117.083 67.891C116.631 70.6143 116.161 73.604 115.733 76.6865C114.875 75.0732 114.384 73.2912 114.293 71.4668C114.201 69.6424 114.513 67.8202 115.205 66.1296L117.083 67.891Z" fill="black"/>
<path d="M109.357 53.4754C107.003 55.6134 101.242 54.8254 101.242 54.8254C101.242 54.8254 97.6424 53.8404 98.3959 52.7164C100.517 52.3629 101.543 51.3779 101.966 50.109C102.201 49.3264 102.274 48.5045 102.181 47.6929C102.146 47.2383 102.088 46.7858 102.007 46.3371L109.131 41.0645C108.197 44.5467 107.038 50.955 109.357 53.4754Z" fill="#E4897B"/>
<path opacity="0.2" d="M107.461 44.4193C107.177 48.6895 103.665 49.8715 101.943 50.109C102.177 49.3264 102.25 48.5045 102.158 47.6929L107.461 44.4193Z" fill="black"/>
<path d="M96.5527 30.1136C96.5527 30.1136 94.5936 36.771 97.8453 39.8825C101.097 42.9939 102.83 30.328 102.83 30.328L96.5527 30.1136Z" fill="#263238"/>
<path d="M107.618 46.7137C106.71 47.7311 105.492 48.4218 104.152 48.6794C102.813 48.9369 101.425 48.7471 100.204 48.139C98.6121 47.3833 97.3682 46.0488 96.7266 44.4077C96.6344 44.1805 96.5551 43.9484 96.489 43.7124C95.2775 39.3147 95.7065 31.9678 100.477 29.8413C101.528 29.3668 102.683 29.1689 103.832 29.2666C104.981 29.3643 106.086 29.7544 107.042 30.3996C107.997 31.0448 108.772 31.9237 109.292 32.9528C109.812 33.9818 110.06 35.1267 110.012 36.2786C109.844 41.2383 110.006 44.1353 107.618 46.7137Z" fill="#E4897B"/>
<path d="M102.529 37.9067C102.569 38.3065 102.343 38.6425 102.077 38.6483C101.81 38.6541 101.59 38.3355 101.578 37.9357C101.567 37.5359 101.769 37.2056 102.03 37.194C102.291 37.1824 102.511 37.5011 102.529 37.9067Z" fill="#263238"/>
<path d="M97.9902 38.0573C98.0307 38.4571 97.7989 38.7932 97.5381 38.799C97.2772 38.8047 97.0512 38.4861 97.0338 38.0863C97.0164 37.6865 97.2251 37.3562 97.4859 37.3446C97.7467 37.3331 97.9728 37.6807 97.9902 38.0573Z" fill="#263238"/>
<path d="M99.4392 38.2079C98.9997 39.4446 98.3912 40.6145 97.6308 41.6844C97.9138 41.8736 98.235 41.9981 98.5716 42.0492C98.9082 42.1003 99.2519 42.0766 99.5783 41.9799L99.4392 38.2079Z" fill="#DE5753"/>
<path d="M96.2397 36.1742C96.2774 36.1967 96.3205 36.2085 96.3644 36.2085C96.4082 36.2085 96.4513 36.1967 96.489 36.1742C96.7303 36.0047 97.0078 35.8934 97.2994 35.8492C97.5911 35.8049 97.8891 35.8289 98.1699 35.9193C98.1979 35.9326 98.2283 35.9399 98.2593 35.9409C98.2903 35.9419 98.3211 35.9366 98.3499 35.9252C98.3787 35.9138 98.4049 35.8965 98.4268 35.8746C98.4486 35.8527 98.4658 35.8265 98.4771 35.7976C98.4895 35.7695 98.4962 35.7392 98.4968 35.7085C98.4974 35.6777 98.4919 35.6472 98.4806 35.6186C98.4692 35.59 98.4523 35.564 98.4308 35.542C98.4093 35.52 98.3837 35.5025 98.3554 35.4905C98.0032 35.3646 97.6259 35.3258 97.2555 35.3772C96.885 35.4287 96.5326 35.5689 96.2281 35.786C96.2017 35.8015 96.1786 35.8221 96.1604 35.8467C96.1422 35.8714 96.1291 35.8994 96.1221 35.9292C96.115 35.959 96.1141 35.99 96.1194 36.0201C96.1247 36.0503 96.136 36.0791 96.1528 36.1047C96.1776 36.1326 96.207 36.1561 96.2397 36.1742Z" fill="#263238"/>
<path d="M103.363 36.0642C103.412 36.0593 103.458 36.0412 103.497 36.012C103.516 35.9882 103.531 35.9607 103.54 35.9311C103.549 35.9014 103.552 35.8703 103.549 35.8395C103.546 35.8088 103.536 35.7789 103.521 35.7518C103.506 35.7247 103.486 35.7009 103.462 35.6818C103.173 35.4417 102.83 35.2743 102.463 35.1937C102.096 35.113 101.715 35.1215 101.352 35.2182C101.293 35.2392 101.245 35.2827 101.218 35.3391C101.19 35.3955 101.187 35.4603 101.207 35.5195C101.228 35.5771 101.271 35.6244 101.326 35.6514C101.381 35.6784 101.444 35.683 101.503 35.6644C101.792 35.597 102.092 35.5975 102.381 35.6659C102.669 35.7343 102.938 35.8686 103.166 36.0584C103.197 36.0737 103.23 36.0822 103.264 36.0832C103.298 36.0842 103.332 36.0777 103.363 36.0642Z" fill="#263238"/>
<path d="M106.146 30.2295L105.85 32.4023C106.215 32.583 106.498 32.8945 106.643 33.2747C106.788 33.6549 106.784 34.0758 106.632 34.4534C105.902 36.2727 106.905 39.1234 108.29 40.2764C108.29 40.2764 108.342 39.4826 109.009 39.697C109.675 39.9114 109.432 44.0194 108.099 45.972C108.099 45.972 110.099 44.2338 111.275 39.8998C112.365 35.9135 112.539 32.5761 111.739 31.0117L106.146 30.2295Z" fill="#263238"/>
<path d="M112.255 40.2475C112.003 40.8097 111.642 41.3166 111.193 41.7392C110.745 42.1618 110.217 42.4917 109.641 42.71C108.099 43.2894 107.189 41.9393 107.496 40.3923C107.786 39.0365 108.922 37.0549 110.533 37.1534C112.145 37.2519 112.869 38.8511 112.255 40.2475Z" fill="#E4897B"/>
<path d="M105.879 32.4197C105.879 32.4197 94.5588 34.6678 96.7787 27.5411C96.7787 27.5411 103.079 24.8758 108.047 26.5213C113.014 28.1668 111.901 33.3873 111.901 33.3873L105.879 32.4197Z" fill="#263238"/>
<path d="M100.025 44.1643C100.025 44.1643 100.923 42.7216 103.439 42.6288" stroke="#263238" stroke-width="0.75" stroke-linecap="round" stroke-linejoin="round"/>
<path d="M97.0338 45.1551C97.0338 45.1551 98.7727 47.548 101.196 47.606C103.618 47.6639 107.647 43.2488 109.977 43.3937L110.62 44.1643C110.62 44.1643 109.931 49.6571 110.62 50.955C111.31 52.2528 113.6 53.7072 113.6 53.7072V54.078C113.6 54.078 107.641 59.6345 100.454 58.1976C93.2663 56.7606 94.0082 52.8265 94.0082 52.8265L94.7211 52.3398C94.7211 52.3398 96.8368 51.3374 97.3063 49.8888C97.7758 48.4403 96.4658 45.6302 96.4658 45.6302L97.0338 45.1551Z" fill="#AF2245"/>
<path opacity="0.6" d="M97.0338 45.1551C97.0338 45.1551 98.7727 47.548 101.196 47.606C103.618 47.6639 107.647 43.2488 109.977 43.3937L110.62 44.1643C110.62 44.1643 109.931 49.6571 110.62 50.955C111.31 52.2528 113.6 53.7072 113.6 53.7072V54.078C113.6 54.078 107.641 59.6345 100.454 58.1976C93.2663 56.7606 94.0082 52.8265 94.0082 52.8265L94.7211 52.3398C94.7211 52.3398 96.8368 51.3374 97.3063 49.8888C97.7758 48.4403 96.4658 45.6302 96.4658 45.6302L97.0338 45.1551Z" fill="white"/>
<path opacity="0.1" d="M108.777 43.6196L109.357 44.6336C109.357 44.6336 109.107 49.3847 109.357 50.9144C109.606 52.444 111.942 54.4719 111.942 54.4719V55.3758L111.635 54.582C110.852 54.1414 110.186 53.5194 109.694 52.7682C109.202 52.0171 108.897 51.1587 108.806 50.2654C108.671 48.4577 108.759 46.6402 109.067 44.8538L108.777 43.6196Z" fill="black"/>
<path d="M107.676 47.2641L109.959 46.4471V47.5886L107.676 48.4345V47.2641Z" fill="white"/>
<path d="M111.188 52.3281L111.107 52.3745L109.044 53.5043L109.704 54.582L111.919 53.1277" fill="white"/>
<path d="M67.7685 90.3431L62.9286 90.9225L66.1571 96.172C66.1571 96.172 70.1681 94.7872 69.6349 92.5739L67.7685 90.3431Z" fill="#E4897B"/>
<path d="M60.0768 93.6979L62.9517 97.916L66.1571 96.1488L62.9285 90.8994L60.0768 93.6979Z" fill="#E4897B"/>
<path d="M122.056 59.5765C122.306 60.463 122.503 61.251 122.682 62.0912C122.862 62.9313 123.042 63.7483 123.198 64.5826C123.511 66.2571 123.778 67.949 123.905 69.6872C124.081 71.4898 124.102 73.3042 123.969 75.1105C123.895 76.1298 123.728 77.1402 123.471 78.1292C123.141 79.4083 122.527 80.5966 121.674 81.6056C121.392 81.9253 121.077 82.2146 120.735 82.4689L120.462 82.6601C120.392 82.7108 120.318 82.7573 120.242 82.7992L119.813 83.0368C119.289 83.3088 118.742 83.5337 118.179 83.7089C117.208 84.0034 116.21 84.1976 115.199 84.2883C113.412 84.4409 111.615 84.4215 109.832 84.2303C106.459 83.8733 103.131 83.1685 99.903 82.1271C99.4868 81.9996 99.1317 81.7241 98.9051 81.3526C98.6784 80.9811 98.5958 80.5395 98.6729 80.1112C98.75 79.683 98.9815 79.2978 99.3235 79.0287C99.6656 78.7595 100.094 78.625 100.529 78.6506H100.61C102.152 78.726 103.769 78.8129 105.334 78.8303C106.899 78.8476 108.47 78.8592 109.971 78.7781C111.427 78.728 112.877 78.5633 114.307 78.2856C114.902 78.1643 115.484 77.9858 116.046 77.7526C116.248 77.6658 116.442 77.5611 116.625 77.4397L116.724 77.3644H116.759H116.73C116.695 77.3644 116.672 77.3644 116.666 77.3644C116.767 77.0791 116.846 76.7867 116.903 76.4894C117.01 75.8966 117.067 75.2957 117.071 74.6933C117.075 73.2595 116.982 71.827 116.793 70.4057C116.608 68.9224 116.347 67.4101 116.063 65.8921C115.779 64.374 115.425 62.827 115.095 61.4074V61.3205C114.981 60.864 114.958 60.3895 115.027 59.924C115.096 59.4585 115.257 59.0113 115.499 58.6078C115.741 58.2042 116.06 57.8524 116.439 57.5722C116.817 57.292 117.247 57.0891 117.703 56.975C118.16 56.8608 118.635 56.8377 119.1 56.907C119.566 56.9763 120.013 57.1365 120.417 57.3787C121.232 57.8676 121.82 58.6603 122.05 59.5823L122.056 59.5765Z" fill="#DD8A7D"/>
<path d="M119.425 55.1962C123.001 56.355 124.479 60.6195 125.575 71.9469L115.675 72.816C115.675 72.816 112.776 64.7333 113.298 60.4051C113.82 56.0769 119.425 55.1962 119.425 55.1962Z" fill="#AF2245"/>
<path opacity="0.2" d="M119.425 55.1962C123.001 56.355 124.479 60.6195 125.575 71.9469L115.675 72.816C115.675 72.816 112.776 64.7333 113.298 60.4051C113.82 56.0769 119.425 55.1962 119.425 55.1962Z" fill="white"/>
<path d="M92.9648 75.2495C90.6753 75.377 89.7537 79.5719 89.9855 82.8398C90.2174 86.1077 96.6339 85.6441 96.6339 85.6441C96.6339 85.6441 111.31 88.9294 118.949 87.0927C126.589 85.2559 125.522 74.5658 125.522 74.5658C125.522 74.5658 124.363 73.9864 119.946 73.6909C115.53 73.3954 115.124 74.1834 115.124 74.1834C115.124 74.1834 115.704 76.0781 114.266 76.6923C112.829 77.3064 98.4655 74.9483 92.9648 75.2495Z" fill="#AF2245"/>
<path opacity="0.6" d="M92.9648 75.2495C90.6753 75.377 89.7537 79.5719 89.9855 82.8398C90.2174 86.1077 96.6339 85.6441 96.6339 85.6441C96.6339 85.6441 111.31 88.9294 118.949 87.0927C126.589 85.2559 125.522 74.5658 125.522 74.5658C125.522 74.5658 124.363 73.9864 119.946 73.6909C115.53 73.3954 115.124 74.1834 115.124 74.1834C115.124 74.1834 115.704 76.0781 114.266 76.6923C112.829 77.3064 98.4655 74.9483 92.9648 75.2495Z" fill="white"/>
<path d="M93.4749 52.5947C93.4749 52.5947 94.6921 58.8233 98.7379 67.1784C103.114 76.2287 111.919 81.5187 111.919 81.5187L109.977 82.8398C109.977 82.8398 101.735 76.6923 96.8599 67.7172C94.3937 63.0426 92.6913 58.0038 91.8171 52.7917L93.4749 52.5947Z" fill="#263238"/>
<path d="M110.417 83.3902L112.608 81.9533C112.608 81.9533 116.034 83.1121 118.405 82.8398C120.775 82.5675 122.514 82.5269 124.004 83.9639C123.027 85.3325 121.724 86.4363 120.213 87.1757C118.702 87.9152 117.031 88.267 115.35 88.1993C109.386 88.0892 107.45 87.6489 107.45 87.6489C107.385 87.0889 107.546 86.5262 107.896 86.0845C108.481 85.4529 110.417 83.3902 110.417 83.3902Z" fill="#AF2245"/>
<path d="M109.762 82.5848L111.652 81.2811C111.727 81.2277 111.819 81.2025 111.912 81.2099C112.004 81.2173 112.09 81.2569 112.156 81.3217L112.585 81.7157C112.629 81.758 112.662 81.8094 112.683 81.8661C112.704 81.9228 112.713 81.9834 112.708 82.0437C112.703 82.1041 112.684 82.1625 112.654 82.215C112.624 82.2675 112.583 82.3126 112.533 82.3473L110.58 83.6857C110.496 83.7409 110.395 83.7637 110.296 83.7498C110.197 83.736 110.106 83.6864 110.041 83.6104L109.681 83.1758C109.646 83.1326 109.619 83.0824 109.604 83.0285C109.589 82.9746 109.585 82.9181 109.592 82.8625C109.6 82.807 109.619 82.7537 109.648 82.7059C109.678 82.6581 109.716 82.6168 109.762 82.5848Z" stroke="white" stroke-linecap="round" stroke-linejoin="round"/>
<path d="M42.317 113.149L57.0454 120.368C57.0454 120.368 40.1782 150.364 37.4308 151.975C34.6834 153.586 16.1933 147.38 16.1121 145.086C16.031 142.791 18.164 138.643 18.164 138.643L28.8697 139.564L42.317 113.149Z" fill="#AF2245"/>
<path opacity="0.6" d="M42.317 113.149L57.0454 120.368C57.0454 120.368 40.1782 150.364 37.4308 151.975C34.6834 153.586 16.1933 147.38 16.1121 145.086C16.031 142.791 18.164 138.643 18.164 138.643L28.8697 139.564L42.317 113.149Z" fill="white"/>
<path d="M87.3308 105.941H85.0123V97.4872C85.0139 96.4479 85.428 95.4517 86.1637 94.7173C86.8995 93.9829 87.8967 93.5704 88.9364 93.5704H130.223V95.8881H88.9596C88.5348 95.8881 88.1273 96.0564 87.8263 96.3561C87.5254 96.6558 87.3556 97.0626 87.354 97.4872L87.3308 105.941Z" fill="#263238"/>
<g opacity="0.4">
<path d="M87.3308 105.941H85.0123V97.4872C85.0139 96.4479 85.428 95.4517 86.1637 94.7173C86.8995 93.9829 87.8967 93.5704 88.9364 93.5704H130.223V95.8881H88.9596C88.5348 95.8881 88.1273 96.0564 87.8263 96.3561C87.5254 96.6558 87.3556 97.0626 87.354 97.4872L87.3308 105.941Z" fill="white"/>
</g>
<path d="M130.223 70.8229C129.993 70.8229 129.771 70.7313 129.608 70.5683C129.445 70.4053 129.354 70.1843 129.354 69.9538V63.2964C129.352 62.0211 129.842 60.7943 130.722 59.8707C131.602 58.9471 132.803 58.3977 134.078 58.3366L139.694 58.0643C139.808 58.059 139.923 58.0762 140.03 58.1149C140.138 58.1537 140.236 58.2132 140.321 58.2902C140.405 58.3671 140.474 58.4599 140.523 58.5634C140.571 58.6668 140.599 58.7787 140.604 58.8929C140.61 59.007 140.592 59.1211 140.554 59.2285C140.515 59.336 140.455 59.4348 140.378 59.5193C140.301 59.6038 140.209 59.6723 140.105 59.7209C140.002 59.7694 139.89 59.7972 139.775 59.8025L134.165 60.0748C133.336 60.1136 132.555 60.4701 131.983 61.0701C131.411 61.6701 131.092 62.4674 131.093 63.2964V69.9538C131.093 70.1843 131.001 70.4053 130.838 70.5683C130.675 70.7313 130.454 70.8229 130.223 70.8229Z" fill="#263238"/>
<path d="M128.792 66.7786V102.656H84.1603C83.0043 102.656 81.8956 103.115 81.0782 103.932C80.2607 104.749 79.8015 105.857 79.8015 107.013V126.353H126.438C127.131 126.354 127.816 126.218 128.456 125.954C129.096 125.69 129.678 125.302 130.168 124.813C130.657 124.324 131.046 123.743 131.311 123.103C131.576 122.464 131.713 121.779 131.713 121.087V66.7786C131.711 66.3893 131.556 66.0164 131.28 65.7417C131.004 65.4669 130.63 65.3127 130.241 65.3127C129.855 65.3187 129.488 65.4757 129.217 65.7498C128.946 66.0239 128.793 66.3933 128.792 66.7786Z" fill="#2E353A"/>
<path opacity="0.4" d="M128.792 66.7786V102.656H84.1603C83.0043 102.656 81.8956 103.115 81.0782 103.932C80.2607 104.749 79.8015 105.857 79.8015 107.013V126.353H126.438C127.131 126.354 127.816 126.218 128.456 125.954C129.096 125.69 129.678 125.302 130.168 124.813C130.657 124.324 131.046 123.743 131.311 123.103C131.576 122.464 131.713 121.779 131.713 121.087V66.7786C131.711 66.3893 131.556 66.0164 131.28 65.7417C131.004 65.4669 130.63 65.3127 130.241 65.3127C129.855 65.3187 129.488 65.4757 129.217 65.7498C128.946 66.0239 128.793 66.3933 128.792 66.7786Z" fill="white"/>
<path d="M124.954 115.582H85.0124C83.7426 115.582 82.5248 116.086 81.6269 116.984C80.7291 117.881 80.2247 119.099 80.2247 120.368V157.78C80.2247 158.349 79.9987 158.894 79.5965 159.296C79.1943 159.698 78.6488 159.924 78.08 159.924H66.9976C66.6901 159.924 66.3953 160.046 66.1779 160.264C65.9605 160.481 65.8383 160.776 65.8383 161.083C65.8383 161.39 65.9605 161.685 66.1779 161.902C66.3953 162.12 66.6901 162.242 66.9976 162.242H78.0858C79.2691 162.24 80.4034 161.77 81.24 160.933C82.0767 160.097 82.5474 158.963 82.549 157.78V143.904H124.954C125.262 143.904 125.557 143.782 125.774 143.564C125.992 143.347 126.114 143.052 126.114 142.745V116.741C126.114 116.434 125.992 116.139 125.774 115.922C125.557 115.704 125.262 115.582 124.954 115.582ZM123.795 141.586H82.549V120.368C82.549 119.713 82.8091 119.086 83.2722 118.623C83.7352 118.16 84.3633 117.9 85.0182 117.9H123.795V141.586Z" fill="#2E353A"/>
<path opacity="0.6" d="M124.954 115.582H85.0124C83.7426 115.582 82.5248 116.086 81.6269 116.984C80.7291 117.881 80.2247 119.099 80.2247 120.368V157.78C80.2247 158.349 79.9987 158.894 79.5965 159.296C79.1943 159.698 78.6488 159.924 78.08 159.924H66.9976C66.6901 159.924 66.3953 160.046 66.1779 160.264C65.9605 160.481 65.8383 160.776 65.8383 161.083C65.8383 161.39 65.9605 161.685 66.1779 161.902C66.3953 162.12 66.6901 162.242 66.9976 162.242H78.0858C79.2691 162.24 80.4034 161.77 81.24 160.933C82.0767 160.097 82.5474 158.963 82.549 157.78V143.904H124.954C125.262 143.904 125.557 143.782 125.774 143.564C125.992 143.347 126.114 143.052 126.114 142.745V116.741C126.114 116.434 125.992 116.139 125.774 115.922C125.557 115.704 125.262 115.582 124.954 115.582ZM123.795 141.586H82.549V120.368C82.549 119.713 82.8091 119.086 83.2722 118.623C83.7352 118.16 84.3633 117.9 85.0182 117.9H123.795V141.586Z" fill="white"/>
<path d="M77.1526 157.966H58.8016C58.0077 157.966 57.3641 158.609 57.3641 159.403V160.214C57.3641 161.008 58.0077 161.651 58.8016 161.651H77.1526C77.9465 161.651 78.5901 161.008 78.5901 160.214V159.403C78.5901 158.609 77.9465 157.966 77.1526 157.966Z" fill="#2E353A"/>
<path opacity="0.4" d="M77.1526 157.966H58.8016C58.0077 157.966 57.3641 158.609 57.3641 159.403V160.214C57.3641 161.008 58.0077 161.651 58.8016 161.651H77.1526C77.9465 161.651 78.5901 161.008 78.5901 160.214V159.403C78.5901 158.609 77.9465 157.966 77.1526 157.966Z" fill="white"/>
<path d="M124.92 170.267C112.533 170.267 102.453 157.92 102.453 142.745C102.453 127.57 112.533 115.217 124.92 115.217C137.306 115.217 147.392 127.564 147.392 142.745C147.392 157.925 137.312 170.267 124.92 170.267ZM124.92 118.12C114.127 118.12 105.351 129.169 105.351 142.751C105.351 156.332 114.127 167.375 124.92 167.375C135.712 167.375 144.494 156.332 144.494 142.751C144.494 129.169 135.712 118.114 124.92 118.114V118.12Z" fill="#2E353A"/>
<path d="M124.92 167.659C113.971 167.659 105.062 156.483 105.062 142.745C105.062 129.007 113.971 117.83 124.92 117.83C135.869 117.83 144.783 129.013 144.783 142.745C144.783 156.477 135.875 167.659 124.92 167.659ZM124.92 121.307C115.889 121.307 108.539 130.925 108.539 142.745C108.539 154.565 115.889 164.183 124.92 164.183C133.95 164.183 141.306 154.565 141.306 142.745C141.306 130.925 133.956 121.301 124.92 121.301V121.307Z" fill="#AF2245"/>
<path d="M124.92 149.564C127.833 149.564 130.194 146.511 130.194 142.745C130.194 138.978 127.833 135.925 124.92 135.925C122.007 135.925 119.645 138.978 119.645 142.745C119.645 146.511 122.007 149.564 124.92 149.564Z" fill="#AF2245"/>
<path d="M125.499 119.563H124.34V165.921H125.499V119.563Z" fill="#AF2245"/>
<path d="M143.05 142.165H106.801V143.324H143.05V142.165Z" fill="#AF2245"/>
<path d="M112.559 126.004L111.646 126.717L137.277 159.5L138.19 158.786L112.559 126.004Z" fill="#AF2245"/>
<path d="M137.282 125.993L111.645 158.771L112.559 159.485L138.196 126.707L137.282 125.993Z" fill="#AF2245"/>
<path d="M131.433 121.223L117.329 163.93L118.43 164.293L132.534 121.586L131.433 121.223Z" fill="#AF2245"/>
<path d="M108.505 133.214L107.954 134.234L141.342 152.287L141.893 151.268L108.505 133.214Z" fill="#AF2245"/>
<path d="M118.65 121.103L117.545 121.453L131.17 164.413L132.275 164.062L118.65 121.103Z" fill="#AF2245"/>
<path d="M141.441 133.522L107.855 150.955L108.389 151.983L141.975 134.551L141.441 133.522Z" fill="#AF2245"/>
<path d="M237.224 81.7007C208.577 100.855 218.501 117.013 218.501 117.013C218.465 117.22 218.41 117.424 218.338 117.621C215.382 128.899 215.369 155.544 215.369 155.816H215.718C215.718 155.544 216.172 129.652 219.123 118.429C219.164 118.275 219.391 117.585 219.432 117.43C236.003 117.117 237.224 81.7007 237.224 81.7007Z" fill="#AF2245"/>
<path d="M213.453 88.5515C213.453 88.438 213.453 88.3245 213.453 88.2065C213.453 88.2065 205.154 74.2959 220.19 52C220.19 52 224.685 85.596 214.602 88.3699C214.602 88.5152 214.602 88.6605 214.602 88.8239C214.311 99.9242 215.727 143.463 215.75 143.903L215.401 143.926C215.364 143.476 213.162 99.67 213.453 88.5515Z" fill="#AF2245"/>
<path d="M210.534 123.26L210.479 123.115C210.479 123.115 216.622 114.107 197 103.179C197 103.179 198.666 123.201 209.653 123.55C209.689 123.655 209.73 123.75 209.766 123.855C212.036 130.161 213.398 144.779 213.398 144.934L213.748 144.907C213.744 144.752 212.836 129.625 210.534 123.26Z" fill="#AF2245"/>
<path d="M211.455 107.538C211.433 107.42 211.405 107.311 211.383 107.193C211.383 107.193 217.407 92.0338 197.785 73.3335C197.785 73.3335 194.571 102.099 210.497 107.565C210.538 107.751 210.615 108.042 210.656 108.232C212.926 119.056 214.166 144.493 214.175 144.752H214.529C214.524 144.489 213.748 118.375 211.455 107.538Z" fill="#AF2245"/>
<path d="M219.564 135.995H208.5V166.567H219.564V135.995Z" fill="#602D8A"/>
</g>
<defs>
<linearGradient id="paint0_linear_1142_4612" x1="6" y1="169" x2="35.4627" y2="244.121" gradientUnits="userSpaceOnUse">
<stop stop-color="#602D8A"/>
<stop offset="1" stop-color="#AF2245" stop-opacity="0.67"/>
</linearGradient>
<linearGradient id="paint1_linear_1142_4612" x1="139.706" y1="27.452" x2="155.903" y2="29.8054" gradientUnits="userSpaceOnUse">
<stop stop-color="#AF2245"/>
<stop offset="1" stop-color="#FF7194"/>
</linearGradient>
<clipPath id="clip0_1142_4612">
<rect width="239" height="176" fill="white"/>
</clipPath>
</defs>
</svg>
