<svg width="22" height="24" viewBox="0 0 22 24" fill="none" xmlns="http://www.w3.org/2000/svg">
<path fill-rule="evenodd" clip-rule="evenodd" d="M21.8182 20.8735C21.8182 22.6036 20.4218 24 18.6916 24H3.12654C1.39636 24 0 22.6036 0 20.8735V5.30836C0 3.57818 1.39636 2.18182 3.12654 2.18182H6.54545V1.10182C6.54721 0.845124 6.63767 0.596932 6.8015 0.399306C6.96533 0.20168 7.19244 0.0667751 7.44436 0.0174543L7.63636 0C8.23854 0 8.72727 0.466909 8.72727 1.10182V2.18182H13.0909V1.10182C13.0927 0.845124 13.1831 0.596932 13.347 0.399306C13.5108 0.20168 13.7379 0.0667751 13.9898 0.0174543L14.1818 0C14.784 0 15.2727 0.466909 15.2727 1.10182V2.18182H18.6916C20.4218 2.18182 21.8182 3.57818 21.8182 5.30836V20.8735ZM2.18182 8.72727V20.3564C2.18182 21.1636 2.83636 21.8182 3.64364 21.8182H18.1745C18.9818 21.8182 19.6364 21.1636 19.6364 20.3564V8.72727H2.18182ZM5.45454 17.4545C5.98909 17.4545 6.43636 17.8538 6.528 18.3535L6.54545 18.5455C6.54545 19.08 6.14618 19.5273 5.64654 19.6189L5.45454 19.6364C5.1661 19.6335 4.89027 19.5177 4.6863 19.3137C4.48232 19.1097 4.36648 18.8339 4.36364 18.5455C4.36364 18.0109 4.76291 17.5636 5.26254 17.472L5.45454 17.4545ZM10.9091 17.4545C11.4436 17.4545 11.8909 17.8538 11.9825 18.3535L12 18.5455C12 19.08 11.6007 19.5273 11.1011 19.6189L10.9091 19.6364C10.6206 19.6335 10.3448 19.5177 10.1408 19.3137C9.93687 19.1097 9.82102 18.8339 9.81818 18.5455C9.81818 18.0109 10.2175 17.5636 10.7171 17.472L10.9091 17.4545ZM16.3636 17.4545C16.8982 17.4545 17.3454 17.8538 17.4371 18.3535L17.4545 18.5455C17.4545 19.08 17.0553 19.5273 16.5556 19.6189L16.3636 19.6364C16.0752 19.6335 15.7994 19.5177 15.5954 19.3137C15.3914 19.1097 15.2756 18.8339 15.2727 18.5455C15.2727 18.0109 15.672 17.5636 16.1716 17.472L16.3636 17.4545ZM5.45454 14.1818C5.98909 14.1818 6.43636 14.5811 6.528 15.0807L6.54545 15.2727C6.54545 15.8073 6.14618 16.2545 5.64654 16.3462L5.45454 16.3636C5.1661 16.3608 4.89027 16.2449 4.6863 16.041C4.48232 15.837 4.36648 15.5612 4.36364 15.2727C4.36364 14.7382 4.76291 14.2909 5.26254 14.1993L5.45454 14.1818ZM10.9091 14.1818C11.4436 14.1818 11.8909 14.5811 11.9825 15.0807L12 15.2727C12 15.8073 11.6007 16.2545 11.1011 16.3462L10.9091 16.3636C10.6206 16.3608 10.3448 16.2449 10.1408 16.041C9.93687 15.837 9.82102 15.5612 9.81818 15.2727C9.81818 14.7382 10.2175 14.2909 10.7171 14.1993L10.9091 14.1818ZM16.3636 14.1818C16.8982 14.1818 17.3454 14.5811 17.4371 15.0807L17.4545 15.2727C17.4545 15.8073 17.0553 16.2545 16.5556 16.3462L16.3636 16.3636C16.0752 16.3608 15.7994 16.2449 15.5954 16.041C15.3914 15.837 15.2756 15.5612 15.2727 15.2727C15.2727 14.7382 15.672 14.2909 16.1716 14.1993L16.3636 14.1818ZM5.45454 10.9091C5.98909 10.9091 6.43636 11.3084 6.528 11.808L6.54545 12C6.54545 12.5345 6.14618 12.9818 5.64654 13.0735L5.45454 13.0909C5.1661 13.0881 4.89027 12.9722 4.6863 12.7682C4.48232 12.5643 4.36648 12.2884 4.36364 12C4.36364 11.4655 4.76291 11.0182 5.26254 10.9265L5.45454 10.9091ZM10.9091 10.9091C11.4436 10.9091 11.8909 11.3084 11.9825 11.808L12 12C12 12.5345 11.6007 12.9818 11.1011 13.0735L10.9091 13.0909C10.6206 13.0881 10.3448 12.9722 10.1408 12.7682C9.93687 12.5643 9.82102 12.2884 9.81818 12C9.81818 11.4655 10.2175 11.0182 10.7171 10.9265L10.9091 10.9091ZM16.3636 10.9091C16.8982 10.9091 17.3454 11.3084 17.4371 11.808L17.4545 12C17.4545 12.5345 17.0553 12.9818 16.5556 13.0735L16.3636 13.0909C16.0752 13.0881 15.7994 12.9722 15.5954 12.7682C15.3914 12.5643 15.2756 12.2884 15.2727 12C15.2727 11.4655 15.672 11.0182 16.1716 10.9265L16.3636 10.9091ZM2.18182 6.54545H19.6364V5.82545C19.6364 5.01818 18.9818 4.36364 18.1745 4.36364H3.64364C2.83636 4.36364 2.18182 5.01818 2.18182 5.82545V6.54545Z" fill="#111535"/>
</svg>
