<svg width="71" height="99" viewBox="0 0 71 99" fill="none" xmlns="http://www.w3.org/2000/svg">
<g filter="url(#filter0_d_3661_10491)">
<path d="M34.1953 76.8604C34.1953 77.5795 34.7814 78.1655 35.5005 78.1655C36.2196 78.1655 36.8057 77.5795 36.8057 76.8604C36.8057 76.1412 36.2196 75.5552 35.5005 75.5552C34.7814 75.5552 34.1953 76.1412 34.1953 76.8604Z" fill="#AF2245"/>
<path d="M33.6425 20.9735H37.3616V16.5595H41.7727V12.8402H37.3616V8.42932H33.6425V12.8402H29.2285V16.5595H33.6425V20.9735Z" fill="#AF2245"/>
<path d="M66.1262 74.6489C65.3467 71.8088 63.9298 69.1865 62.0415 66.8662C61.1321 65.7513 60.111 64.706 58.9991 63.7361C59.4222 63.1984 59.8269 62.6424 60.2107 62.0744C63.4162 57.328 65.2955 51.5937 65.3015 45.4454V45.4395V45.4122V45.4091V45.4031C65.3015 41.2973 64.4675 37.3727 62.957 33.8075C61.4283 30.1851 59.1985 26.9373 56.4493 24.2152L62.1503 15.3085L62.1625 15.2812C62.3769 14.9337 62.5523 14.5561 62.667 14.1572C62.7847 13.7554 62.8362 13.3536 62.8452 12.9698L62.8483 12.9365V12.8913V12.8882V12.8822C62.8452 12.2658 62.7215 11.728 62.5765 11.287V11.2839L62.5701 11.2783V11.2814C62.4311 10.8614 62.2377 10.4897 62.0262 10.1755C61.869 9.94583 61.7089 9.75247 61.5639 9.59237L61.5608 9.58927C61.3492 9.35666 61.1559 9.17838 61.023 9.05444V9.05135C60.884 8.9245 60.7782 8.82782 60.7028 8.74913L60.6877 8.73095L60.6756 8.71877L60.6423 8.6886C60.6363 8.68261 60.6181 8.66134 60.5909 8.64026C60.1982 8.26553 57.9865 6.24744 54.0197 4.24134C51.9048 3.17477 49.2915 2.11438 46.1947 1.31987C43.0978 0.525357 39.5242 0 35.4998 0C31.4754 0 27.9013 0.525744 24.8045 1.32026C20.1579 2.51058 16.6018 4.30225 14.1817 5.81896C11.9942 7.18755 10.7374 8.32664 10.4263 8.62267C10.3054 8.72844 10.1755 8.84619 10.0245 8.97922L10.0185 8.98522C9.78589 9.19675 9.48676 9.4808 9.18454 9.86752V9.87061C9.03353 10.0671 8.88232 10.2937 8.74349 10.5505C8.60466 10.8072 8.48671 11.0882 8.39293 11.3844C8.26899 11.7953 8.16322 12.306 8.16322 12.8889C8.16322 13.2697 8.20556 13.6806 8.32332 14.1096C8.44108 14.5356 8.62554 14.9587 8.88232 15.3574L8.9005 15.3906H8.90359L14.5503 24.2157C13.1544 25.5965 11.8916 27.113 10.7917 28.7446C7.57715 33.4941 5.69789 39.2404 5.69789 45.3977C5.69789 45.3977 5.69789 45.4128 5.69789 45.4369C5.70388 49.5338 6.53475 53.4523 8.04237 57.0112C9.0666 59.4342 10.405 61.6942 12.0002 63.7365C10.2237 65.2833 8.68896 67.0205 7.45939 68.927C6.42917 70.5222 5.6103 72.2383 5.05149 74.045C4.49268 75.8518 4.19336 77.7461 4.19336 79.6888C4.19336 81.0938 4.46522 82.4684 4.95481 83.7704C5.38387 84.9095 5.96994 85.9941 6.68905 87.0183C7.94588 88.81 9.59253 90.4293 11.5352 91.8705C14.4478 94.0276 18.0429 95.792 22.1035 97.0368C26.1702 98.2809 30.7081 99 35.4998 99C39.6752 99 43.6541 98.4561 47.2947 97.4924C50.0259 96.7704 52.5697 95.8156 54.8659 94.6705C56.585 93.8095 58.1652 92.8427 59.585 91.7792C61.712 90.184 63.4795 88.3743 64.7514 86.3529V86.3498C65.392 85.3378 65.9025 84.2712 66.2559 83.1534C66.6125 82.0385 66.8058 80.8724 66.8058 79.688C66.8058 77.9602 66.5703 76.2712 66.1262 74.6489ZM12.8827 12.8584C12.8887 12.8402 12.8949 12.8101 12.9038 12.7799C12.9069 12.7739 12.916 12.7588 12.9371 12.7316C12.9734 12.6863 13.0459 12.6107 13.1546 12.5109C13.2664 12.4112 13.4145 12.2783 13.5897 12.1273L13.6198 12.0971L13.6502 12.0699L13.6533 12.0668V12.0637C13.7349 11.9881 15.6625 10.1634 19.3059 8.35661C21.1488 7.44414 23.427 6.53168 26.1279 5.85492C28.8289 5.17236 31.9528 4.71913 35.4998 4.71913C39.1133 4.71913 42.2855 5.19054 45.0227 5.89147C49.1256 6.94296 52.2375 8.51999 54.3162 9.81918C55.3524 10.4658 56.1289 11.0458 56.6365 11.4567C56.8904 11.6623 57.0775 11.8224 57.1984 11.9281C57.2558 11.9796 57.2981 12.0188 57.3223 12.043L57.3434 12.0612C57.5006 12.2244 57.6456 12.3572 57.7603 12.4661C57.9476 12.6413 58.0654 12.753 58.0987 12.7985L58.1047 12.8045C58.1106 12.8226 58.1168 12.8408 58.1197 12.8528L49.5847 26.1855H21.4147L12.8827 12.8584ZM10.4174 45.4093C10.4174 44.8685 10.4356 44.3336 10.4717 43.8019C15.6079 43.5238 32.5389 41.8169 41.6782 31.4451C44.4245 36.3999 56.1529 43.0739 60.5791 44.9379C60.5822 45.0951 60.5822 45.2521 60.5822 45.4093C60.5822 48.8778 59.8812 52.1709 58.6122 55.1708C56.7088 59.6695 53.5244 63.5035 49.5243 66.2074C45.5181 68.9144 40.7023 70.4915 35.4998 70.4915C32.0313 70.4915 28.7382 69.7906 25.7351 68.5215C21.2395 66.6181 17.4056 63.4337 14.7015 59.4305C11.9946 55.4247 10.4174 50.6087 10.4174 45.4093ZM44.1315 72.7878L37.3187 81.063L35.4998 83.2714L33.6839 81.0628L26.868 72.7876C29.5961 73.6458 32.4965 74.111 35.4998 74.111C38.503 74.111 41.4063 73.6458 44.1315 72.7878ZM61.6275 82.1143C61.3556 82.8363 60.9627 83.5736 60.4431 84.3107C59.5429 85.6039 58.2619 86.8878 56.6576 88.0752C54.2496 89.8607 51.1226 91.4228 47.5153 92.5256C43.9049 93.6314 39.8202 94.2809 35.4998 94.2809C31.7353 94.2809 28.1552 93.7853 24.9074 92.9304C22.4753 92.2869 20.2304 91.441 18.2456 90.45C16.7561 89.7068 15.4146 88.879 14.2453 88.0029C12.49 86.6917 11.1334 85.2595 10.2422 83.8397C9.79498 83.1265 9.45969 82.4196 9.23907 81.7278C9.02154 81.0359 8.91268 80.3561 8.91268 79.6884C8.91268 78.3923 9.08786 77.1264 9.42624 75.8997C10.0123 73.7517 11.1 71.7123 12.6167 69.8451C13.5895 68.6548 14.7405 67.5368 16.0457 66.5096C17.1123 67.4946 18.2483 68.3949 19.4506 69.2076C20.363 69.824 21.3147 70.3888 22.2966 70.8995L31.8861 82.5434L35.4998 86.9301L39.1133 82.5432L48.7028 70.8993C50.9807 69.715 53.0835 68.2375 54.9537 66.5154C56.842 67.9898 58.4069 69.6726 59.5792 71.4884C60.389 72.7453 61.0174 74.0686 61.4403 75.4403C61.8632 76.812 62.0869 78.2259 62.0869 79.6882C62.0867 80.4798 61.9357 81.2865 61.6275 82.1143Z" fill="#AF2245"/>
</g>
<defs>
<filter id="filter0_d_3661_10491" x="0.193359" y="0" width="70.6133" height="107" filterUnits="userSpaceOnUse" color-interpolation-filters="sRGB">
<feFlood flood-opacity="0" result="BackgroundImageFix"/>
<feColorMatrix in="SourceAlpha" type="matrix" values="0 0 0 0 0 0 0 0 0 0 0 0 0 0 0 0 0 0 127 0" result="hardAlpha"/>
<feOffset dy="4"/>
<feGaussianBlur stdDeviation="2"/>
<feComposite in2="hardAlpha" operator="out"/>
<feColorMatrix type="matrix" values="0 0 0 0 0 0 0 0 0 0 0 0 0 0 0 0 0 0 0.25 0"/>
<feBlend mode="normal" in2="BackgroundImageFix" result="effect1_dropShadow_3661_10491"/>
<feBlend mode="normal" in="SourceGraphic" in2="effect1_dropShadow_3661_10491" result="shape"/>
</filter>
</defs>
</svg>
