<svg width="82" height="82" viewBox="0 0 82 82" fill="none" xmlns="http://www.w3.org/2000/svg">
<path d="M30.7507 50.9665V52.9584C30.7507 57.0361 32.3705 60.9468 35.2539 63.8301C38.1373 66.7135 42.0479 68.3334 46.1256 68.3334C50.2034 68.3334 54.114 66.7135 56.9974 63.8301C59.8808 60.9468 61.5006 57.0361 61.5006 52.9584V47.2525C59.22 46.4465 57.2978 44.8602 56.0738 42.774C54.8497 40.6877 54.4026 38.2359 54.8115 35.8518C55.2203 33.4678 56.4589 31.3051 58.3082 29.746C60.1575 28.1868 62.4985 27.3317 64.9173 27.3317C67.3362 27.3317 69.6771 28.1868 71.5264 29.746C73.3757 31.3051 74.6143 33.4678 75.0232 35.8518C75.4321 38.2359 74.985 40.6877 73.7609 42.774C72.5368 44.8602 70.6146 46.4465 68.334 47.2525V52.9584C68.334 58.8484 65.9942 64.4972 61.8293 68.662C57.6644 72.8269 52.0157 75.1667 46.1256 75.1667C40.2356 75.1667 34.5869 72.8269 30.422 68.662C26.2571 64.4972 23.9173 58.8484 23.9173 52.9584V50.9665C19.1406 50.1577 14.8044 47.6838 11.6774 43.9833C8.55047 40.2828 6.83461 35.5948 6.83398 30.75L6.83398 13.6667C6.83398 11.8544 7.55392 10.1163 8.83542 8.83481C10.1169 7.55331 11.855 6.83337 13.6673 6.83337H17.084C17.9901 6.83337 18.8592 7.19334 19.4999 7.83409C20.1407 8.47484 20.5007 9.34388 20.5007 10.25C20.5007 11.1562 20.1407 12.0252 19.4999 12.666C18.8592 13.3067 17.9901 13.6667 17.084 13.6667H13.6673V30.75C13.6673 34.3747 15.1072 37.8508 17.6702 40.4138C20.2332 42.9768 23.7094 44.4167 27.334 44.4167C30.9586 44.4167 34.4348 42.9768 36.9978 40.4138C39.5608 37.8508 41.0006 34.3747 41.0006 30.75V13.6667H37.584C36.6778 13.6667 35.8088 13.3067 35.168 12.666C34.5273 12.0252 34.1673 11.1562 34.1673 10.25C34.1673 9.34388 34.5273 8.47484 35.168 7.83409C35.8088 7.19334 36.6778 6.83337 37.584 6.83337H41.0006C42.813 6.83337 44.551 7.55331 45.8325 8.83481C47.114 10.1163 47.834 11.8544 47.834 13.6667V30.75C47.8334 35.5948 46.1175 40.2828 42.9905 43.9833C39.8635 47.6838 35.5274 50.1577 30.7507 50.9665ZM64.9173 41C65.8235 41 66.6925 40.6401 67.3333 39.9993C67.974 39.3586 68.334 38.4895 68.334 37.5834C68.334 36.6772 67.974 35.8082 67.3333 35.1674C66.6925 34.5267 65.8235 34.1667 64.9173 34.1667C64.0112 34.1667 63.1421 34.5267 62.5014 35.1674C61.8606 35.8082 61.5006 36.6772 61.5006 37.5834C61.5006 38.4895 61.8606 39.3586 62.5014 39.9993C63.1421 40.6401 64.0112 41 64.9173 41Z" fill="#AF2245"/>
</svg>
