<svg width="19" height="26" viewBox="0 0 19 26" fill="none" xmlns="http://www.w3.org/2000/svg">
<path d="M9.3081 1C4.72134 1 1 4.54191 1 8.90424C1 13.9237 6.53874 21.8782 8.57249 24.6256C8.65691 24.7416 8.76756 24.8359 8.8954 24.901C9.02324 24.9661 9.16466 25 9.3081 25C9.45155 25 9.59297 24.9661 9.72081 24.901C9.84865 24.8359 9.9593 24.7416 10.0437 24.6256C12.0775 21.8793 17.6162 13.9278 17.6162 8.90424C17.6162 4.54191 13.8949 1 9.3081 1Z" stroke="#AF2245" stroke-width="2" stroke-linecap="round" stroke-linejoin="round"/>
<path d="M9.30843 12.0775C10.8379 12.0775 12.0778 10.8376 12.0778 9.30813C12.0778 7.77865 10.8379 6.53876 9.30843 6.53876C7.77895 6.53876 6.53906 7.77865 6.53906 9.30813C6.53906 10.8376 7.77895 12.0775 9.30843 12.0775Z" stroke="#AF2245" stroke-width="2" stroke-linecap="round" stroke-linejoin="round"/>
</svg>
