<svg width="36" height="26" viewBox="0 0 36 26" fill="none" xmlns="http://www.w3.org/2000/svg">
<path d="M32 0H4C2.93913 0 1.92172 0.421427 1.17157 1.17157C0.421427 1.92172 0 2.93913 0 4L0 22C0 23.0609 0.421427 24.0783 1.17157 24.8284C1.92172 25.5786 2.93913 26 4 26H32C33.0609 26 34.0783 25.5786 34.8284 24.8284C35.5786 24.0783 36 23.0609 36 22V4C36 2.93913 35.5786 1.92172 34.8284 1.17157C34.0783 0.421427 33.0609 0 32 0Z" fill="#006C35"/>
<path d="M8.91777 9.04995C9.54977 9.10995 9.20077 7.98095 9.42977 7.77595C9.47277 7.67495 9.55277 7.67395 9.55877 7.80195V8.75995C9.55277 9.07195 9.75777 9.16295 9.91677 9.22795C10.0828 9.21495 10.1928 9.22095 10.2578 9.38195L10.3358 11.04C10.3358 11.04 10.7198 11.15 10.7378 10.107C10.7568 9.49495 10.6158 8.98295 10.6988 8.86395C10.7018 8.74695 10.8508 8.73995 10.9548 8.79695C11.1198 8.91295 11.1938 9.05695 11.4498 8.99995C11.8408 8.89295 12.0748 8.70295 12.0808 8.40295C12.0578 8.11795 12.0258 7.83295 11.9028 7.54795C11.9198 7.49595 11.8278 7.36195 11.8448 7.30995C11.9148 7.41995 12.0218 7.41095 12.0458 7.30995C11.9798 7.09095 11.8768 6.88095 11.7088 6.78995C11.5708 6.66795 11.3688 6.69295 11.2948 6.94695C11.2608 7.23895 11.4008 7.58695 11.6128 7.86995C11.6578 7.98095 11.7218 8.16495 11.6938 8.33095C11.5808 8.39495 11.4668 8.36895 11.3728 8.26895C11.3728 8.26895 11.0618 8.03595 11.0618 7.98395C11.1448 7.45595 11.0808 7.39595 11.0348 7.24995C11.0028 7.04795 10.9068 6.98295 10.8288 6.84495C10.7508 6.76295 10.6458 6.76295 10.5958 6.84495C10.4578 7.08295 10.5218 7.59495 10.6218 7.82395C10.6928 8.03395 10.8028 8.16695 10.7508 8.16695C10.7078 8.28595 10.6198 8.25795 10.5558 8.12095C10.4638 7.83695 10.4458 7.41395 10.4458 7.22295C10.4178 6.98695 10.3878 6.48195 10.2328 6.35395C10.1378 6.22495 9.99677 6.28695 9.94777 6.40595C9.93777 6.63995 9.93577 6.87495 9.96277 7.09195C10.0688 7.47095 10.1028 7.80495 10.1548 8.19395C10.1688 8.71495 9.85377 8.41995 9.86777 8.16195C9.94077 7.82695 9.92177 7.29895 9.85677 7.16495C9.80577 7.03195 9.74477 6.99795 9.62077 7.01995C9.52277 7.01195 9.26877 7.28995 9.19677 7.74995C9.19677 7.74995 9.13577 7.98695 9.10977 8.19795C9.07477 8.43595 8.91877 8.60395 8.80877 8.16495C8.71377 7.84595 8.65577 7.05895 8.49677 7.24295C8.45077 7.85795 8.39577 8.93995 8.91777 9.04995Z" fill="white"/>
<path d="M9.86841 9.4989C9.34841 9.5089 8.58741 10.1819 8.56641 10.5549C9.11441 10.2909 9.65341 10.0369 10.2114 9.7649C10.1214 9.6299 10.2064 9.5089 9.86841 9.4989Z" fill="white"/>
<path d="M12.7355 11.5159C12.9765 10.7129 12.6965 10.1209 12.8275 10.1239C13.1045 10.4229 13.4925 10.1639 13.5775 10.0599C13.6145 10.0079 13.7055 9.97394 13.7695 10.0419C13.9865 10.1979 14.3685 10.1239 14.4475 9.84994C14.4974 9.57474 14.5282 9.2964 14.5395 9.01694C14.3625 9.07194 14.2305 9.10894 14.2185 9.18194L14.1815 9.41994C14.1665 9.49694 14.0135 9.49994 14.0075 9.40194C13.9405 9.09694 13.6625 9.05694 13.4945 9.52994C13.3815 9.62194 13.1775 9.63994 13.1555 9.50294C13.1825 9.18594 13.0545 9.14294 12.7985 9.29194C12.7165 8.66294 12.6335 8.06194 12.5515 7.43294C12.6585 7.42994 12.7565 7.50894 12.8535 7.38694C12.7465 7.05394 12.5205 6.37394 12.3955 6.32494C12.3345 6.25094 12.2825 6.29694 12.2035 6.31594C12.0695 6.35894 11.9445 6.47494 11.9835 6.69994C12.1425 7.66494 12.2465 8.39994 12.4045 9.36494C12.4285 9.47794 12.3345 9.62694 12.2125 9.61194C12.0055 9.47194 11.9535 9.18794 11.5995 9.19994C11.3425 9.20294 11.0495 9.48094 11.0135 9.74994C10.9705 9.96294 10.9555 10.1949 11.0135 10.3819C11.1935 10.5979 11.4105 10.5769 11.5995 10.5279C11.7545 10.4639 11.8835 10.3079 11.9375 10.3449C11.9745 10.3899 11.9465 10.9029 11.2055 11.2969C10.7565 11.4979 10.3995 11.5439 10.2075 11.1779C10.0885 10.9489 10.2165 10.0789 9.92347 10.2809C9.05647 12.5159 11.9535 12.8259 12.2775 10.3729C12.3085 10.2719 12.4305 10.1709 12.4515 10.3359C12.3845 12.5579 10.2105 12.7109 9.84147 12.0119C9.74947 11.8469 9.72247 11.4809 9.71347 11.2609C9.65847 10.8239 9.42947 10.9919 9.39347 11.4249C9.35647 11.6659 9.36647 11.7339 9.36647 11.9649C9.48147 13.7199 12.2815 12.9659 12.7355 11.5159ZM11.6555 9.99794C11.6375 10.0319 11.5585 10.0179 11.5005 10.0179C11.4345 10.0149 11.4035 10.0039 11.3635 9.95094C11.3455 9.89094 11.4015 9.83394 11.4265 9.78894C11.4575 9.73594 11.6245 9.68094 11.6835 9.82894C11.6944 9.85703 11.6976 9.88754 11.6926 9.91727C11.6877 9.94701 11.6749 9.97487 11.6555 9.99794Z" fill="white"/>
<path d="M13.6013 8.00894C13.7753 7.94494 14.6003 7.00194 14.6003 7.00194C14.5573 6.96494 14.5193 6.93794 14.4763 6.90094C14.4303 6.86094 14.4353 6.82094 14.4763 6.78194C14.6803 6.66294 14.6153 6.40194 14.5083 6.28294C14.439 6.24899 14.3629 6.23167 14.2858 6.23237C14.2087 6.23306 14.1328 6.25175 14.0643 6.28694C13.9213 6.42394 13.8873 6.64394 14.0003 6.78194C14.1103 6.83394 14.2203 6.94494 14.1473 7.00594C13.8103 7.36594 12.8863 7.98694 12.9933 8.00894C13.0163 8.03894 13.5833 8.03794 13.6013 8.00894ZM14.2123 6.52794C14.2653 6.51494 14.3333 6.56194 14.3653 6.63194C14.3973 6.70194 14.3803 6.76894 14.3283 6.78194H14.3263C14.2743 6.79494 14.2063 6.74794 14.1743 6.67794C14.1433 6.60694 14.1603 6.54094 14.2123 6.52794ZM8.86126 12.2579C8.72526 12.5349 8.66825 12.3449 8.65625 12.1899C8.64063 11.9296 8.65371 11.6684 8.69525 11.4109C8.72925 11.1909 8.69526 11.2579 8.62526 11.3469C8.31626 11.8389 8.28926 12.5749 8.46026 12.7939C8.55026 12.8979 8.69925 12.9439 8.81025 12.9099C9.00425 12.8259 9.08925 12.4319 9.04325 12.2889C8.97725 12.1879 8.92626 12.1719 8.86126 12.2579ZM19.0423 7.04994C19.3983 7.52794 19.7363 8.01494 20.0673 8.51094C20.1323 8.94094 20.1793 9.36094 20.2073 9.77794C20.2623 10.5819 20.2783 11.4519 20.2283 12.2989C20.3783 12.3049 20.6213 12.0549 20.7053 11.6899C20.7603 11.1849 20.6853 10.2859 20.6803 9.98794C20.6736 9.80117 20.6646 9.61449 20.6533 9.42794C21.0473 10.0719 21.4313 10.7459 21.8063 11.4949C21.9433 11.4309 21.9133 10.6649 21.8333 10.5569C21.5333 9.91394 21.1203 9.27794 20.9883 9.03394C20.9393 8.94394 20.7723 8.68794 20.5733 8.39494C20.5562 8.16109 20.5281 7.92817 20.4893 7.69694C20.4273 7.26894 20.6663 7.74394 20.6333 7.49494C20.5563 7.06694 20.3183 6.77794 20.0403 6.38594C19.9503 6.25894 19.9533 6.23294 19.8143 6.41694C19.7651 6.52717 19.7425 6.64739 19.7483 6.76794C19.7049 6.70413 19.6585 6.64239 19.6093 6.58294C19.4583 6.45273 19.3067 6.32339 19.1543 6.19494C19.0533 6.12294 18.8073 5.99294 18.7633 6.20894C18.7428 6.36035 18.7502 6.51422 18.7853 6.66294C18.8113 6.76994 18.9663 6.94794 19.0423 7.04994ZM19.7823 7.02594C19.8013 7.10894 19.8213 7.19194 19.8343 7.27694L19.8493 7.35794C19.8073 7.29932 19.7636 7.24196 19.7183 7.18594C19.5543 6.99194 19.6903 7.03394 19.7823 7.02594Z" fill="white"/>
<path d="M21.9179 11.6929C21.5699 12.0559 21.0679 12.5029 20.5219 12.7099C20.4629 12.7759 20.6679 13.0589 20.9319 13.0589C21.3749 13.0069 21.7649 12.7579 22.1259 12.1029C22.2229 11.9509 22.3929 11.6239 22.3969 11.3699C22.4299 9.88394 22.3229 8.72694 22.0999 7.65294C22.085 7.56676 22.0891 7.47837 22.1119 7.39394C22.1399 7.35994 22.2379 7.39394 22.2899 7.30994C22.3649 7.23194 22.0889 6.59194 21.9309 6.34594C21.8749 6.23594 21.8559 6.16194 21.7629 6.35894C21.6649 6.51894 21.5999 6.79794 21.6079 7.05794C21.8189 8.52094 21.8839 9.80194 22.0219 11.2649C22.0329 11.4059 22.0119 11.6119 21.9179 11.6929ZM27.7479 7.98294C27.7329 7.87894 27.6869 7.63694 27.7049 7.60594C27.7329 7.53194 27.8779 7.61394 27.9299 7.52894C28.0059 7.45194 27.5559 6.87394 27.3989 6.62794C27.3419 6.51794 27.3229 6.44394 27.2299 6.64094C27.1319 6.80094 27.0979 7.08794 27.1369 7.33994C27.3719 8.92894 27.5469 10.1229 27.5829 11.5319C27.5619 11.6659 27.5579 11.7379 27.4949 11.9059C27.3559 12.0839 27.2029 12.3059 27.0579 12.4139C26.9139 12.5209 26.6069 12.6239 26.5059 12.7029C26.1889 12.8879 26.1879 13.0989 26.4459 13.1059C26.8879 13.0539 27.4119 13.0179 27.7729 12.4719C27.8699 12.3199 27.9849 11.9069 27.9899 11.6529C28.0229 10.1669 27.9709 9.05694 27.7479 7.98294ZM24.3969 9.21994C24.4009 9.01594 24.4199 8.74594 24.4309 8.57694C24.4359 8.51394 24.4509 8.44294 24.5109 8.42694C24.5719 8.41094 24.6799 8.48894 24.6809 8.42294C24.6689 8.29394 24.6429 8.10194 24.5699 8.01094C24.4699 7.86294 24.2049 7.89894 24.1579 8.13094C24.1589 8.21694 24.1979 8.26294 24.1909 8.34094C24.1789 8.38494 24.1329 8.41494 24.0239 8.36294C24.0419 8.34694 23.9529 8.22394 23.9529 8.22394C23.8679 8.17194 23.7539 8.22694 23.6809 8.27394C23.6545 8.32436 23.6387 8.37967 23.6346 8.43644C23.6305 8.49322 23.6381 8.55023 23.6569 8.60394C23.7769 8.83094 24.1959 9.21594 24.3969 9.21994Z" fill="white"/>
<path d="M24.2572 7.48092C24.5502 7.83992 24.8492 8.20392 25.1502 8.57392C25.2152 9.39992 25.2322 10.0759 25.2962 10.9019C25.2872 11.2519 25.1792 11.5569 25.0762 11.6009C25.0762 11.6009 24.9212 11.6909 24.8172 11.5919C24.7412 11.5609 24.4382 11.0869 24.4382 11.0869C24.2832 10.9449 24.1812 10.9849 24.0712 11.0869C23.7672 11.3799 23.6302 11.9299 23.4242 12.3079C23.3702 12.3929 23.2202 12.4649 23.0532 12.3019C22.6302 11.7229 22.8782 10.8999 22.8262 11.1119C22.4492 11.5369 22.6152 12.2399 22.7002 12.3919C22.8242 12.6399 22.9252 12.7999 23.1672 12.9229C23.3872 13.0849 23.5592 12.9829 23.6532 12.8699C23.8752 12.6389 23.8782 12.0539 23.9822 11.9359C24.0542 11.7229 24.2392 11.7589 24.3282 11.8539C24.4097 11.9689 24.5177 12.0626 24.6432 12.1269C24.8502 12.3099 25.0972 12.3429 25.3402 12.1759C25.5062 12.0829 25.6152 11.9619 25.7122 11.7229C25.8202 11.4349 25.7612 10.1109 25.7392 9.31692C25.8942 9.51692 26.0452 9.72592 26.1982 9.93492C26.2652 10.5979 26.3032 11.2579 26.2812 11.9319C26.2652 12.0669 26.7512 11.5319 26.7472 11.2779C26.7452 11.0729 26.7472 10.8869 26.7472 10.7119C26.9812 11.0639 27.2092 11.4269 27.4232 11.8109C27.5572 11.7409 27.5132 10.9859 27.4282 10.8819C27.1812 10.4679 26.8522 10.0369 26.6252 9.72892C26.6102 9.68992 26.6022 9.64592 26.5842 9.60892C26.4932 9.39792 26.5502 9.22792 26.5072 9.00392C26.4652 8.77892 26.4762 8.44292 26.4112 8.17592C26.3932 8.07192 26.3392 7.73792 26.3552 7.70692C26.3812 7.63192 26.4812 7.70892 26.5302 7.62292C26.6032 7.54292 26.2772 6.69792 26.1112 6.45592C26.0512 6.34792 25.9432 6.38492 25.8092 6.56092C25.6862 6.67692 25.7322 6.94092 25.7792 7.19192C25.8962 7.79992 25.9942 8.38292 26.0782 8.95992C25.8984 8.72084 25.7167 8.48317 25.5332 8.24692L25.5252 8.20292C25.5252 8.19192 25.4982 7.67892 25.4742 7.55692C25.4702 7.50792 25.4582 7.49292 25.5102 7.49892C25.5652 7.54492 25.5722 7.54792 25.6072 7.56392C25.6632 7.57392 25.7122 7.47892 25.6792 7.39192L25.1622 6.43992C25.1212 6.39892 25.0672 6.35492 25.0022 6.45092C24.9618 6.48616 24.9295 6.52967 24.9074 6.5785C24.8853 6.62733 24.874 6.68033 24.8742 6.73392C24.8902 6.95892 24.9292 7.18892 24.9442 7.41492L24.9662 7.53692C24.9432 7.50992 24.9152 7.47592 24.9032 7.46392C24.4642 7.00192 25.1052 7.38892 24.8192 7.03192C24.5772 6.76592 24.5072 6.68292 24.2992 6.52292C24.1952 6.45592 24.1322 6.32792 24.0982 6.54592C24.0811 6.73707 24.076 6.92913 24.0832 7.12092C24.0832 7.21292 24.1762 7.38092 24.2572 7.48092ZM15.3562 8.55992C15.6082 8.66392 15.7692 8.18392 15.8732 7.65792C15.9432 7.50992 15.9972 7.49392 16.0332 7.56992C16.0242 8.26992 16.0832 8.42492 16.2632 8.63792C16.6642 8.94792 16.9962 8.67692 17.0232 8.65092L17.3352 8.33892C17.4042 8.26592 17.4972 8.26092 17.5952 8.32592C17.6912 8.41192 17.6782 8.56192 17.8822 8.66592C18.0542 8.73492 18.4222 8.68192 18.5072 8.53392C18.6222 8.33792 18.6502 8.26992 18.7022 8.19592C18.7842 8.08692 18.9242 8.13592 18.9242 8.16992C18.9112 8.23092 18.8292 8.29192 18.8852 8.40092C18.9832 8.47392 19.0052 8.42692 19.0632 8.41092C19.2672 8.31292 19.4192 7.87092 19.4192 7.87092C19.4282 7.70592 19.3362 7.71992 19.2762 7.75392C19.1982 7.80092 19.1932 7.81692 19.1152 7.86492C19.0152 7.87992 18.8222 7.94592 18.7272 7.79792C18.6292 7.61992 18.6272 7.37192 18.5532 7.19292C18.5532 7.17992 18.4232 6.90992 18.5442 6.89292C18.6052 6.90392 18.7342 6.93792 18.7552 6.82992C18.8182 6.72392 18.6182 6.42192 18.4822 6.26892C18.3632 6.13892 18.1982 6.12292 18.0392 6.25592C17.9272 6.35892 17.9432 6.47292 17.9212 6.58192C17.903 6.65884 17.903 6.73893 17.9213 6.81584C17.9395 6.89274 17.9754 6.96433 18.0262 7.02492C18.1372 7.24392 18.3402 7.52692 18.2732 7.92292C18.2732 7.92292 18.1552 8.11092 17.9482 8.08692C17.8622 8.06792 17.7222 8.03092 17.6482 7.48092C17.5922 7.06392 17.6622 6.48092 17.4852 6.20792C17.4212 6.04292 17.3752 5.88392 17.2192 6.16592C17.1772 6.27692 16.9972 6.44492 17.1282 6.79192C17.2352 7.01092 17.2782 7.36792 17.2302 7.76592C17.1562 7.87892 17.1402 7.91692 17.0432 8.02992C16.9072 8.17592 16.7602 8.13892 16.6472 8.08392C16.5412 8.01292 16.4592 7.97592 16.4112 7.74992C16.4202 7.38992 16.4402 6.79992 16.3742 6.67492C16.2772 6.48092 16.1172 6.55092 16.0482 6.60992C15.7192 6.91092 15.5572 7.41792 15.4582 7.82092C15.3672 8.11492 15.2702 8.03092 15.2022 7.91192C15.0362 7.75592 15.0252 6.53892 14.8242 6.73992C14.5012 7.65392 15.0062 8.65792 15.3562 8.55992Z" fill="white"/>
<path d="M20.1364 10.5239L20.0404 10.4689L18.1594 10.4599C18.0624 10.4229 18.0914 10.3909 18.1594 10.3649C18.6084 10.3039 19.4074 10.1739 19.4604 9.40693C19.4514 9.00793 19.2884 8.74593 18.7984 8.67393C18.4394 8.70193 18.1824 9.05093 18.2234 9.43393C18.2064 9.53793 18.2574 9.73993 18.1524 9.76293C17.4614 9.82593 16.7084 10.2579 16.6834 10.5679C16.6414 10.5969 16.5474 10.5129 16.5594 10.3809C16.5261 9.81629 16.3636 9.26684 16.0844 8.77493C15.8664 8.55693 15.9344 8.62893 15.7884 8.73193C15.6944 8.83993 15.6774 8.91393 15.6824 9.12893C15.6824 9.13693 15.8584 9.62793 16.0074 9.97193C16.1064 10.3249 16.1994 10.7279 16.1324 11.1089C15.9004 11.6129 15.4334 12.0649 14.9834 12.3099C14.7514 12.3849 14.5524 12.3579 14.5034 12.3059C14.3604 12.2099 14.3674 12.0329 14.3784 12.0299C14.7574 11.7649 15.1914 11.5519 15.5314 10.8389C15.6314 10.5669 15.6614 10.4019 15.5624 9.98093C15.5349 9.83257 15.4667 9.69478 15.3654 9.58293C15.4264 9.54293 15.6014 9.67593 15.6284 9.59693C15.5777 9.36649 15.463 9.15505 15.2974 8.98693C15.1624 8.86393 15.0154 8.84993 14.8914 8.96293C14.7514 9.04093 14.7214 9.31893 14.7884 9.56293C14.8624 9.74693 15.0634 9.77793 15.2074 10.1469C15.2074 10.1549 15.2594 10.4229 15.1854 10.5279C15.1264 10.7119 14.3614 11.3129 14.3194 11.3399C14.2984 11.3659 14.3074 11.3269 14.3044 11.2269C14.2994 11.1049 14.3534 10.8169 14.3384 10.8149C14.0894 10.9759 14.0064 11.4689 13.9614 11.6149C13.3314 12.0499 12.6184 12.3739 12.2064 12.8159C11.9914 13.1509 13.6844 12.4309 13.8814 12.3439C13.9254 12.3759 13.9204 12.5269 14.0384 12.6619C14.2144 12.8999 14.5864 13.0469 14.9514 12.9559C15.5614 12.7349 15.9144 12.3189 16.2724 11.8579C16.3234 11.7829 16.4034 11.7259 16.4774 11.7829C16.7234 12.3339 17.4344 12.7239 18.3514 12.7649C18.5644 12.5059 18.4614 12.3809 18.3754 12.3269C18.3754 12.3189 17.9224 12.1469 17.8534 11.9749C17.8114 11.8189 17.9134 11.6819 18.1174 11.5779C18.7064 11.5069 19.2854 11.4279 19.8464 11.2479C19.8524 11.0599 19.9614 10.7779 20.0364 10.6559C20.1084 10.5319 20.1474 10.5689 20.1364 10.5239ZM18.5894 9.35193C18.6174 9.30493 18.7104 9.30693 18.7974 9.35793C18.8844 9.40793 18.9334 9.48793 18.9044 9.53493C18.8764 9.58293 18.7824 9.57993 18.6954 9.52893C18.6084 9.47893 18.5614 9.39993 18.5894 9.35193ZM17.8324 11.2519C17.6304 11.3209 17.4364 11.3749 17.4364 11.6669C17.5114 12.0729 17.3334 11.9339 17.2284 11.8779C17.1044 11.7889 16.7554 11.5739 16.7054 11.1099C16.6974 10.9989 16.7844 10.9059 16.9234 10.9059C17.1324 10.9629 17.4414 10.9669 17.7094 10.9949C17.9284 11.0089 18.0374 11.1809 17.8324 11.2519ZM10.8654 6.74693C11.0814 6.85093 11.4894 6.80693 11.4714 6.45693C11.4714 6.42593 11.4634 6.32193 11.4604 6.29393C11.4164 6.19093 11.2964 6.21593 11.2684 6.32293C11.2594 6.35793 11.2834 6.41393 11.2524 6.43193C11.2344 6.44993 11.1654 6.43893 11.1684 6.34293C11.1684 6.31193 11.1454 6.27893 11.1324 6.25993C11.1184 6.25093 11.1104 6.24793 11.0854 6.24793C11.0554 6.24893 11.0554 6.25693 11.0394 6.28293C11.0324 6.30793 11.0224 6.33393 11.0224 6.36293C11.0184 6.39693 11.0054 6.40893 10.9804 6.41493C10.9524 6.41493 10.9584 6.41793 10.9364 6.40293C10.9224 6.38793 10.9054 6.38193 10.9054 6.35693C10.9053 6.32771 10.9006 6.29868 10.8914 6.27093C10.8794 6.25493 10.8604 6.24793 10.8384 6.24193C10.7204 6.24193 10.7124 6.37693 10.7194 6.42893C10.7084 6.43793 10.7044 6.67993 10.8654 6.74693Z" fill="white"/>
<path d="M17.5107 9.02694C17.5107 8.99594 17.4877 8.96394 17.4747 8.94394C17.4607 8.93494 17.4527 8.93194 17.4277 8.93194C17.3977 8.93294 17.3987 8.94094 17.3817 8.96694C17.3747 8.99294 17.3647 9.01794 17.3647 9.04694C17.3617 9.08194 17.3477 9.09394 17.3227 9.09894C17.2947 9.09894 17.3007 9.10194 17.2777 9.08794C17.2637 9.07294 17.2467 9.06694 17.2467 9.04194C17.2467 9.01271 17.242 8.98367 17.2327 8.95594C17.2207 8.93994 17.2017 8.93294 17.1797 8.92794C17.0617 8.92794 17.0537 9.06294 17.0597 9.11394C17.0507 9.12394 17.0457 9.36494 17.2067 9.43294C17.4237 9.53594 17.9387 9.47594 17.8127 9.14294C17.8106 9.08818 17.8069 9.03349 17.8017 8.97894C17.7577 8.87594 17.6367 8.90194 17.6097 9.00794C17.6017 9.04294 17.6257 9.09894 17.5937 9.11694C17.5777 9.13494 17.5077 9.12394 17.5107 9.02694ZM20.9077 8.31994C21.1237 8.42394 21.5307 8.37994 21.5127 8.03094C21.5106 7.97618 21.5069 7.92149 21.5017 7.86694C21.4577 7.76394 21.3377 7.78994 21.3107 7.89594C21.3017 7.93094 21.3257 7.98694 21.2937 8.00494C21.2757 8.02294 21.2067 8.01294 21.2097 7.91594C21.2097 7.88494 21.1867 7.85194 21.1737 7.83294C21.1597 7.82394 21.1517 7.82094 21.1257 7.82094C21.0957 7.82294 21.0967 7.82994 21.0797 7.85594C21.0727 7.88194 21.0627 7.90694 21.0627 7.93594C21.0587 7.97094 21.0457 7.98294 21.0207 7.98794C20.9927 7.98794 20.9987 7.99094 20.9757 7.97694C20.9617 7.96194 20.9457 7.95594 20.9457 7.93094C20.9456 7.90139 20.9409 7.87203 20.9317 7.84394C20.9187 7.82794 20.9007 7.82094 20.8777 7.81594C20.7597 7.81594 20.7517 7.95094 20.7587 8.00194C20.7517 8.01194 20.7467 8.25294 20.9077 8.31994ZM21.0537 6.96794C21.1307 7.18394 20.9947 7.38994 21.0757 7.41994C21.1487 7.45394 21.2527 7.19694 21.2907 6.95994C21.3357 6.76794 21.1987 6.37494 21.0047 6.29394C20.8867 6.26594 20.7187 6.33594 20.7727 6.49394C20.7457 6.56994 21.0107 6.82794 21.0537 6.96794ZM23.0487 12.0319C23.1997 12.0329 23.3737 11.6869 23.4477 11.3439C23.4887 10.8719 23.4197 10.5849 23.4077 10.3069C23.3947 10.0299 23.0947 7.91494 23.0327 7.70494C22.9597 7.30794 23.3257 7.65194 23.2857 7.42094C23.1587 7.12994 22.8437 6.70694 22.7437 6.45394C22.6837 6.34594 22.7097 6.24994 22.5757 6.42594C22.4527 6.83094 22.4097 7.16094 22.4567 7.41294C22.7747 9.07294 23.1007 10.4529 23.0487 12.0319ZM26.8047 7.69194C26.8397 7.79994 26.7517 8.14894 26.8247 8.18094C26.8917 8.21694 26.9857 7.93994 27.0207 7.68294C27.0397 7.54194 26.9367 7.04994 26.7597 6.96194C26.6517 6.93194 26.4987 7.00694 26.5487 7.17894C26.5237 7.26194 26.7657 7.53994 26.8047 7.69194ZM13.6857 11.3479C13.7507 11.3749 13.8397 11.1709 13.8737 10.9819C13.8927 10.8779 13.7927 10.5169 13.6237 10.4519C13.5197 10.4299 13.3777 10.4579 13.4217 10.6119C13.4167 10.6949 13.6517 10.7949 13.6657 10.9879C13.6997 11.0679 13.6157 11.3249 13.6857 11.3479ZM9.1297 6.73294C9.1627 6.81594 9.0967 7.08094 9.1657 7.10594C9.2287 7.13394 9.3177 6.92194 9.3507 6.72694C9.3697 6.61894 9.3547 6.25294 9.1047 6.17794C9.0017 6.15494 8.8587 6.21194 8.9057 6.34294C8.8817 6.40494 9.0927 6.61694 9.1297 6.73294ZM14.0317 7.90594C13.8407 8.00994 13.7657 8.31794 13.8857 8.49694C13.9967 8.65594 14.1727 8.59694 14.1967 8.59694C14.3847 8.61994 14.4957 8.24494 14.4957 8.24494C14.4957 8.24494 14.5017 8.13994 14.2787 8.33894C14.1847 8.35694 14.1727 8.32194 14.1497 8.26794C14.1269 8.17007 14.1371 8.06742 14.1787 7.97594C14.2107 7.88294 14.1387 7.84194 14.0317 7.90594ZM15.4737 6.75294C15.5045 6.7339 15.531 6.70855 15.5513 6.67856C15.5716 6.64857 15.5854 6.61463 15.5917 6.57894C15.6207 6.43294 15.4367 6.64794 15.4137 6.48494C15.3727 6.33394 15.4907 6.27194 15.6027 6.12594C15.6067 6.02494 15.6047 5.95394 15.4677 6.03594C15.3717 6.10094 15.1797 6.29894 15.1737 6.52694C15.1677 6.65594 15.1437 6.65494 15.2287 6.73694C15.2897 6.82594 15.3507 6.81694 15.4737 6.75294ZM16.7727 6.83094C16.8967 6.49494 16.8967 6.35294 16.9057 6.20994C16.8677 5.99294 16.7207 5.99994 16.6237 6.24094C16.5817 6.33194 16.5327 6.81094 16.5407 6.81094C16.5077 6.95394 16.6897 7.01494 16.7727 6.83094ZM24.9427 9.21394C24.9427 9.21394 23.9397 9.92694 23.9157 9.95194C23.8157 10.0399 23.8657 10.3519 23.9157 10.3159C23.9867 10.3439 24.9957 9.65894 24.9757 9.57894C25.0227 9.58094 25.0457 9.17794 24.9427 9.21394ZM24.8197 11.1479C24.8867 11.1839 25.0637 10.9649 25.0567 10.6919C25.0767 10.5509 25.0057 10.0339 24.8297 9.94594C24.7217 9.91594 24.5777 10.0079 24.6277 10.1789C24.6027 10.2609 24.7517 10.5479 24.7907 10.6999C24.8257 10.8089 24.7467 11.1159 24.8197 11.1479ZM19.1397 12.6439C19.1397 12.6529 19.2247 12.7259 19.3247 12.6679C19.5347 12.5869 19.6667 12.5089 19.9607 12.4439C20.0377 12.4429 20.0327 12.2359 19.9107 12.2289C19.7517 12.2369 19.6037 12.2449 19.4447 12.3709C19.3467 12.3929 19.3307 12.3339 19.3087 12.2799C19.2847 12.1469 19.3637 12.0549 19.3467 11.9559C19.3527 11.9619 19.2557 11.8729 19.1567 11.9229C19.1517 11.9229 18.9357 12.0689 18.8667 12.1709C18.8237 12.2039 18.8287 12.2319 18.8417 12.2869C18.8747 12.3629 18.9337 12.3399 18.9997 12.3039C19.0877 12.2919 19.1297 12.3499 19.1227 12.4549C19.0807 12.5879 19.1397 12.6369 19.1397 12.6439ZM25.6907 12.8099C25.6577 12.8669 25.6357 12.9529 25.7377 12.9799C25.9257 13.0329 26.3587 12.7509 26.3587 12.7459C26.4287 12.6929 26.4057 12.5939 26.3997 12.5939C26.3587 12.5469 26.2667 12.5739 26.2047 12.5669C26.1757 12.5669 26.0777 12.5519 26.1247 12.4659C26.1578 12.4196 26.184 12.3687 26.2027 12.3149C26.2317 12.2499 26.2067 12.2069 26.1007 12.1719C25.9937 12.1519 25.9507 12.1619 25.8317 12.1719C25.7677 12.1859 25.7457 12.2139 25.7337 12.2919C25.7387 12.4099 25.8097 12.4039 25.8837 12.4509C25.9267 12.5059 25.9547 12.5559 25.8807 12.6449C25.8107 12.7099 25.7617 12.7459 25.6907 12.8099ZM25.4987 17.9999H23.9987V17.4999C23.9987 17.3673 23.946 17.2402 23.8523 17.1464C23.7585 17.0526 23.6313 16.9999 23.4987 16.9999C23.3661 16.9999 23.2389 17.0526 23.1451 17.1464C23.0514 17.2402 22.9987 17.3673 22.9987 17.4999V17.9999H10.9987C10.9987 17.9999 10.9987 18.9999 13.9987 18.9999H22.9987V19.4999C22.9987 19.6326 23.0514 19.7597 23.1451 19.8535C23.2389 19.9473 23.3661 19.9999 23.4987 19.9999C23.6313 19.9999 23.7585 19.9473 23.8523 19.8535C23.946 19.7597 23.9987 19.6326 23.9987 19.4999V18.9999H24.9987V19.4999C24.9987 19.6326 25.0514 19.7597 25.1451 19.8535C25.2389 19.9473 25.3661 19.9999 25.4987 19.9999C25.6313 19.9999 25.7585 19.9473 25.8523 19.8535C25.946 19.7597 25.9987 19.6326 25.9987 19.4999V18.4999C25.9987 18.3673 25.946 18.2402 25.8523 18.1464C25.7585 18.0526 25.6313 17.9999 25.4987 17.9999Z" fill="white"/>
</svg>
