<svg width="213" height="213" viewBox="0 0 213 213" fill="none" xmlns="http://www.w3.org/2000/svg">
<path d="M213 162.902H0V163.008H213V162.902Z" fill="#EBEBEB"/>
<path d="M191.658 169.759H177.548V169.865H191.658V169.759Z" fill="#EBEBEB"/>
<path d="M141.1 170.915H137.396V171.021H141.1V170.915Z" fill="#EBEBEB"/>
<path d="M177.121 165.803H168.946V165.909H177.121V165.803Z" fill="#EBEBEB"/>
<path d="M40.7478 166.518H22.3475V166.625H40.7478V166.518Z" fill="#EBEBEB"/>
<path d="M47.2387 166.518H44.5409V166.625H47.2387V166.518Z" fill="#EBEBEB"/>
<path d="M95.9126 168.317H56.0067V168.424H95.9126V168.317Z" fill="#EBEBEB"/>
<path d="M138.516 87.3278L142.177 99.5544" stroke="#AF2245" stroke-opacity="0.67" stroke-miterlimit="10"/>
<path d="M143.342 86.7659L139.204 99.5544" stroke="#AF2245" stroke-opacity="0.67" stroke-miterlimit="10"/>
<path d="M140.347 85.755L141.069 100.023" stroke="#AF2245" stroke-opacity="0.67" stroke-miterlimit="10"/>
<path d="M172.747 97.4871C172.747 97.4871 173.174 94.6759 171.123 92.8735C169.073 91.0711 169.253 89.9988 169.839 89.8591C170.425 89.7194 170.966 91.5218 171.867 92.0172C171.867 92.0172 171.895 89.4489 170.98 88.5027C170.064 87.5566 169.584 85.119 170.455 85.076C171.326 85.033 171.416 86.524 171.596 87.5809C171.776 88.6378 172.747 90.1249 172.747 90.1249C172.747 90.1249 172.936 87.8267 173.528 86.8805C174.119 85.9344 172.542 83.7716 173.15 82.825C173.759 81.8789 174.84 83.6813 174.75 85.709C174.66 87.7368 173.308 89.8996 173.623 92.0172C173.623 92.0172 174.22 90.5305 174.755 90.395C175.29 90.26 175.831 89.2763 176.191 88.9121C176.552 88.5479 177.003 89.8093 176.191 90.9808C175.38 92.1523 173.307 95.2868 173.623 97.8202L172.747 97.4871Z" fill="#E6E6E6"/>
<path d="M173.308 89.605C173.382 89.2927 173.467 88.9867 173.555 88.689C173.603 88.5218 173.653 88.3576 173.701 88.1961C173.831 87.7634 173.955 87.3499 174.052 86.9488C174.025 87.0158 173.992 87.0816 173.952 87.1455L173.308 89.605ZM173.308 89.605C173.333 89.4131 173.366 89.1856 173.408 88.9438C173.53 88.2462 173.714 87.5262 173.952 87.1456L173.308 89.605ZM171.867 92.0172C172.367 92.0228 172.367 92.0227 172.367 92.0226L172.367 92.0223L172.367 92.0216L172.367 92.0195L172.367 92.0125L172.367 91.9878C172.367 91.9667 172.367 91.9364 172.366 91.898C172.365 91.8214 172.362 91.712 172.356 91.5784C172.344 91.3119 172.318 90.9449 172.262 90.5449C172.246 90.4346 172.228 90.3208 172.207 90.2052C172.237 90.2537 172.262 90.2942 172.282 90.3253C172.296 90.3479 172.307 90.3656 172.315 90.3779L172.324 90.3923L172.327 90.3963L172.328 90.3975L172.328 90.3979L172.328 90.3981C172.328 90.3981 172.328 90.3982 172.747 90.1249L172.328 90.3982L173.079 91.5492C173.086 91.7292 173.102 91.9099 173.129 92.0908L173.4 93.9158L174.087 92.2036L174.087 92.2036L174.087 92.2035L174.087 92.2034L174.087 92.2033L174.088 92.2012L174.092 92.1909L174.11 92.1483C174.126 92.1107 174.15 92.056 174.18 91.9896C174.241 91.856 174.326 91.6788 174.425 91.4999C174.526 91.3181 174.634 91.1494 174.737 91.0246C174.835 90.9065 174.887 90.8796 174.886 90.8779C174.886 90.8777 174.885 90.8778 174.884 90.8781C175.127 90.815 175.331 90.6701 175.487 90.5314C175.649 90.3871 175.799 90.2149 175.929 90.0522C176 89.964 176.07 89.8724 176.135 89.785C176.105 90.0511 176.004 90.3737 175.78 90.6961C175.37 91.2883 174.63 92.3928 174.031 93.6788C173.698 94.3953 173.398 95.1912 173.23 96.0013C173.221 95.928 173.21 95.853 173.198 95.7766C173.037 94.7768 172.594 93.5003 171.453 92.498C170.456 91.6212 170.075 90.9827 169.975 90.6124C169.957 90.5442 169.949 90.4907 169.947 90.4498C170.05 90.5687 170.166 90.7427 170.315 90.9721C170.328 90.9916 170.341 91.0116 170.354 91.0317C170.501 91.2594 170.672 91.5234 170.86 91.7611C171.062 92.0176 171.314 92.284 171.626 92.4554L172.357 92.8577L172.367 92.0228L171.867 92.0172ZM169.829 90.3357C169.829 90.3354 169.831 90.3365 169.836 90.3397C169.831 90.3376 169.829 90.336 169.829 90.3357ZM174.16 86.4501C174.171 86.261 174.154 86.0743 174.127 85.9031C174.066 85.5185 173.936 85.1035 173.819 84.7325C173.816 84.7226 173.813 84.7128 173.81 84.703C173.685 84.3049 173.576 83.9551 173.53 83.6501C173.485 83.3538 173.515 83.1942 173.562 83.1093C173.57 83.1165 173.578 83.1246 173.587 83.1338C173.643 83.1921 173.709 83.2797 173.778 83.4001C174.06 83.8934 174.292 84.7548 174.25 85.6868C174.239 85.9383 174.207 86.1921 174.16 86.4501ZM171.163 87.9405C170.875 87.536 170.637 86.9283 170.54 86.3662C170.483 86.0313 170.487 85.7719 170.525 85.6193C170.529 85.6045 170.533 85.5921 170.536 85.5818C170.557 85.5895 170.577 85.6048 170.602 85.633C170.666 85.7046 170.738 85.8401 170.807 86.0632C170.908 86.3911 170.966 86.7737 171.026 87.177C171.051 87.337 171.075 87.5004 171.103 87.6649C171.119 87.7552 171.139 87.8474 171.163 87.9405Z" stroke="#AF2245" stroke-opacity="0.67"/>
<path d="M171.522 96.2083L170.85 100.421C170.643 101.722 171.648 102.901 172.966 102.901H173.682C175 102.901 176.005 101.722 175.797 100.421L175.126 96.2083H171.522Z" fill="#E6E6E6"/>
<path d="M171.344 100.5L171.344 100.5L171.948 96.7083H174.699L175.304 100.5L175.304 100.5C175.463 101.497 174.692 102.401 173.682 102.401H172.966C171.956 102.401 171.185 101.497 171.344 100.5Z" stroke="#AF2245" stroke-opacity="0.67"/>
<path d="M181.676 101.346H134.219V103.784H181.676V101.346Z" fill="#E0E0E0"/>
<path d="M134.719 103.284V101.846H181.176V103.284H134.719Z" stroke="#AF2245" stroke-opacity="0.67"/>
<path d="M143.866 94.6307H138.272V101.389H143.866V94.6307Z" fill="#EBEBEB"/>
<path d="M138.772 100.889V95.1307H143.366V100.889H138.772Z" stroke="#AF2245" stroke-opacity="0.67"/>
<path d="M159.555 98.0098H154.222V101.541H159.555V98.0098Z" fill="#E6E6E6"/>
<path d="M154.722 101.041V98.5098H159.055V101.041H154.722Z" stroke="#AF2245" stroke-opacity="0.67"/>
<path d="M156.889 93.8162C156.889 93.8162 158.257 96.6423 156.889 98.0097C156.889 98.0097 155.476 96.8493 156.889 93.8162Z" fill="#E6E6E6"/>
<path d="M156.842 96.9228C156.75 96.5723 156.706 96.0521 156.876 95.3305C156.889 95.3848 156.9 95.44 156.911 95.4958C157.022 96.0635 157.038 96.6179 156.887 97.0709C156.871 97.0247 156.856 96.9754 156.842 96.9228Z" stroke="#AF2245" stroke-opacity="0.67"/>
<path d="M123.895 79.351C123.895 78.2047 124.824 77.2751 125.971 77.2751C127.117 77.2751 128.047 78.2047 128.047 79.351C128.047 80.4974 127.117 81.4269 125.971 81.4269C124.824 81.4265 123.895 80.4974 123.895 79.351Z" fill="#E0E0E0"/>
<path d="M125.971 77.7751C125.101 77.7751 124.395 78.4808 124.395 79.351C124.395 80.221 125.1 80.9265 125.971 80.9269V77.7751ZM125.971 77.7751C126.841 77.7751 127.547 78.4808 127.547 79.351M125.971 77.7751L127.547 79.351M127.547 79.351C127.547 80.2212 126.841 80.9268 125.971 80.9269L127.547 79.351Z" stroke="#AF2245" stroke-opacity="0.67"/>
<path d="M125.478 82.9993L119.483 79.351L124.522 75.1992L125.478 82.9993Z" fill="#F5F5F5"/>
<path d="M124.137 76.1647L124.856 82.0355L120.344 79.2896L124.137 76.1647Z" stroke="#AF2245" stroke-opacity="0.67"/>
<path d="M106.5 182.141C152.117 182.141 189.097 179.981 189.097 177.317C189.097 174.653 152.117 172.494 106.5 172.494C60.8831 172.494 23.9033 174.653 23.9033 177.317C23.9033 179.981 60.8831 182.141 106.5 182.141Z" fill="url(#paint0_linear_1180_2232)"/>
<path d="M177.323 118.775C177.323 118.775 178.805 122.507 176.688 123.86C176.688 123.86 175.357 121.942 177.323 118.775Z" fill="#602D8A"/>
<path opacity="0.7" d="M177.323 118.775C177.323 118.775 178.805 122.507 176.688 123.86C176.688 123.86 175.357 121.942 177.323 118.775Z" fill="white"/>
<path d="M177.038 121.318C177.038 121.318 177.99 122.517 176.688 123.584C176.688 123.584 176.077 122.365 177.038 121.318Z" fill="white"/>
<path d="M182.738 123.276C182.738 123.276 184.32 126.007 182.83 127.303C182.83 127.303 181.575 125.966 182.738 123.276Z" fill="#602D8A"/>
<path opacity="0.7" d="M182.738 123.276C182.738 123.276 184.32 126.007 182.83 127.303C182.83 127.303 181.575 125.966 182.738 123.276Z" fill="white"/>
<path d="M182.809 125.286C182.809 125.286 183.688 126.108 182.799 127.089C182.799 127.089 182.183 126.211 182.809 125.286Z" fill="white"/>
<path d="M170.259 123.276C170.259 123.276 171.841 126.007 170.351 127.303C170.351 127.303 169.096 125.966 170.259 123.276Z" fill="#602D8A"/>
<path opacity="0.7" d="M170.259 123.276C170.259 123.276 171.841 126.007 170.351 127.303C170.351 127.303 169.096 125.966 170.259 123.276Z" fill="white"/>
<path d="M170.33 125.286C170.33 125.286 171.209 126.108 170.319 127.089C170.319 127.089 169.704 126.211 170.33 125.286Z" fill="white"/>
<path d="M183.934 160.979H169.441V163.934H183.934V160.979Z" fill="#263238"/>
<path opacity="0.5" d="M183.934 160.979H169.441V163.934H183.934V160.979Z" fill="white"/>
<path d="M170.942 149.115H167.94V177.317H170.942V149.115Z" fill="#263238"/>
<path opacity="0.6" d="M170.942 149.115H167.94V177.317H170.942V149.115Z" fill="#AF2245" fill-opacity="0.1"/>
<path d="M178.189 149.115H175.187V177.317H178.189V149.115Z" fill="#263238"/>
<path opacity="0.6" d="M178.189 149.115H175.187V177.317H178.189V149.115Z" fill="#AF2245" fill-opacity="0.1"/>
<path d="M185.435 149.115H182.433V177.317H185.435V149.115Z" fill="#263238"/>
<path opacity="0.6" d="M185.435 149.115H182.433V177.317H185.435V149.115Z" fill="#AF2245" fill-opacity="0.1"/>
<path d="M185.472 137.658H167.903V148.823H185.472V137.658Z" fill="#263238"/>
<path d="M185.708 145.879V148.823H185.601L184.183 147.404L185.708 145.879Z" fill="#263238"/>
<path opacity="0.5" d="M185.708 145.879V148.823H185.601L184.183 147.404L185.708 145.879Z" fill="white"/>
<path d="M185.708 137.658V140.243L184.183 138.718L185.244 137.658H185.708Z" fill="#263238"/>
<path opacity="0.6" d="M185.708 137.658V140.243L184.183 138.718L185.244 137.658H185.708Z" fill="white"/>
<path d="M185.708 137.658V140.597L183.242 143.064L181.286 145.015L177.478 148.823H176.404L174.985 147.404L176.689 145.705L181.286 141.108L184.737 137.658H185.708Z" fill="#263238"/>
<path opacity="0.5" d="M185.708 137.658V140.597L183.242 143.064L181.286 145.015L177.478 148.823H176.404L174.985 147.404L176.689 145.705L181.286 141.108L184.737 137.658H185.708Z" fill="white"/>
<path d="M185.708 145.526V148.823H185.094L181.286 145.015L179.331 143.064L176.689 140.418L174.985 138.718L176.046 137.658H177.835L181.286 141.108L183.242 143.064L185.708 145.526Z" fill="#263238"/>
<path opacity="0.6" d="M185.708 145.526V148.823H185.094L181.286 145.015L179.331 143.064L176.689 140.418L174.985 138.718L176.046 137.658H177.835L181.286 141.108L183.242 143.064L185.708 145.526Z" fill="white"/>
<path d="M178.389 138.718L176.689 140.418L174.048 143.064L172.093 145.019L168.284 148.823H167.667V145.53L170.138 143.064L172.093 141.108L175.539 137.658H177.328L178.389 138.718Z" fill="#263238"/>
<path opacity="0.5" d="M178.389 138.718L176.689 140.418L174.048 143.064L172.093 145.019L168.284 148.823H167.667V145.53L170.138 143.064L172.093 141.108L175.539 137.658H177.328L178.389 138.718Z" fill="white"/>
<path d="M178.389 147.404L176.971 148.823H175.897L167.667 140.593V137.658H168.643L172.093 141.108L178.389 147.404Z" fill="#263238"/>
<path opacity="0.6" d="M178.389 147.404L176.971 148.823H175.897L167.667 140.593V137.658H168.643L172.093 141.108L178.389 147.404Z" fill="white"/>
<path d="M169.192 138.718L167.667 140.243V137.658H168.131L169.192 138.718Z" fill="#263238"/>
<path opacity="0.5" d="M169.192 138.718L167.667 140.243V137.658H168.131L169.192 138.718Z" fill="white"/>
<path d="M169.192 147.404L167.774 148.823H167.667V145.879L169.192 147.404Z" fill="#263238"/>
<path opacity="0.6" d="M169.192 147.404L167.774 148.823H167.667V145.879L169.192 147.404Z" fill="white"/>
<path d="M186.075 140.109H167.3C167.04 140.109 166.829 139.898 166.829 139.638V135.674C166.829 135.414 167.04 135.203 167.3 135.203H186.075C186.335 135.203 186.547 135.414 186.547 135.674V139.638C186.546 139.898 186.335 140.109 186.075 140.109Z" fill="#263238"/>
<path opacity="0.7" d="M186.075 140.109H167.3C167.04 140.109 166.829 139.898 166.829 139.638V135.674C166.829 135.414 167.04 135.203 167.3 135.203H186.075C186.335 135.203 186.547 135.414 186.547 135.674V139.638C186.546 139.898 186.335 140.109 186.075 140.109Z" fill="white"/>
<path d="M186.075 149.913H167.3C167.04 149.913 166.829 149.702 166.829 149.442V146.757C166.829 146.497 167.04 146.285 167.3 146.285H186.075C186.335 146.285 186.547 146.497 186.547 146.757V149.442C186.546 149.702 186.335 149.913 186.075 149.913Z" fill="#263238"/>
<path opacity="0.7" d="M186.075 149.913H167.3C167.04 149.913 166.829 149.702 166.829 149.442V146.757C166.829 146.497 167.04 146.285 167.3 146.285H186.075C186.335 146.285 186.547 146.497 186.547 146.757V149.442C186.546 149.702 186.335 149.913 186.075 149.913Z" fill="white"/>
<path d="M187.975 136.781H165.4C165.099 136.781 164.856 136.537 164.856 136.236V134.838C164.856 134.537 165.099 134.293 165.4 134.293H187.975C188.276 134.293 188.519 134.537 188.519 134.838V136.236C188.519 136.537 188.276 136.781 187.975 136.781Z" fill="#263238"/>
<path opacity="0.6" d="M187.975 136.781H165.4C165.099 136.781 164.856 136.537 164.856 136.236V134.838C164.856 134.537 165.099 134.293 165.4 134.293H187.975C188.276 134.293 188.519 134.537 188.519 134.838V136.236C188.519 136.537 188.276 136.781 187.975 136.781Z" fill="white"/>
<path d="M189.862 134.874H163.514C163.25 134.874 163.037 134.661 163.037 134.397C163.037 134.134 163.25 133.921 163.514 133.921H189.862C190.125 133.921 190.338 134.134 190.338 134.397C190.338 134.661 190.125 134.874 189.862 134.874Z" fill="#263238"/>
<path opacity="0.5" d="M189.862 134.874H163.514C163.25 134.874 163.037 134.661 163.037 134.397C163.037 134.134 163.25 133.921 163.514 133.921H189.862C190.125 133.921 190.338 134.134 190.338 134.397C190.338 134.661 190.125 134.874 189.862 134.874Z" fill="white"/>
<path d="M178.915 124.742H174.533V134.124H178.915V124.742Z" fill="#602D8A"/>
<path d="M174.374 125.7C174.374 125.7 174.065 124.567 174.374 124.455C174.683 124.343 175.413 124.537 176.565 123.794C177.717 123.051 178.784 122.763 179.009 123.469C179.233 124.175 179.177 125.949 178.756 125.876C178.335 125.803 178.51 124.846 178.029 125.1C177.548 125.354 177.288 126.59 176.688 126.197C176.088 125.803 176.2 129.285 175.638 129.285C175.076 129.285 175.189 125.878 174.374 125.7Z" fill="#602D8A"/>
<path opacity="0.2" d="M174.374 125.7C174.374 125.7 174.065 124.567 174.374 124.455C174.683 124.343 175.413 124.537 176.565 123.794C177.717 123.051 178.784 122.763 179.009 123.469C179.233 124.175 179.177 125.949 178.756 125.876C178.335 125.803 178.51 124.846 178.029 125.1C177.548 125.354 177.288 126.59 176.688 126.197C176.088 125.803 176.2 129.285 175.638 129.285C175.076 129.285 175.189 125.878 174.374 125.7Z" fill="white"/>
<path d="M184.183 127.257H181.275V134.124H184.183V127.257Z" fill="#602D8A"/>
<path d="M181.275 127.973C181.176 128.01 180.98 127.32 181.064 127.11C181.148 126.899 181.422 126.815 181.717 126.962C182.011 127.11 182.833 126.877 183.107 126.888C183.381 126.899 183.486 127.11 183.865 127.089C184.245 127.068 184.266 127.162 184.329 127.431C184.392 127.7 184.31 128.964 184.183 128.964C184.055 128.964 184.118 127.868 183.802 127.826C183.486 127.784 183.444 130.017 183.192 129.743C182.939 129.469 183.024 127.869 182.729 127.806C182.433 127.742 182.349 128.796 181.991 128.838C181.633 128.88 181.612 127.784 181.528 127.742C181.443 127.699 181.443 127.91 181.275 127.973Z" fill="#602D8A"/>
<path opacity="0.2" d="M181.275 127.973C181.176 128.01 180.98 127.32 181.064 127.11C181.148 126.899 181.422 126.815 181.717 126.962C182.011 127.11 182.833 126.877 183.107 126.888C183.381 126.899 183.486 127.11 183.865 127.089C184.245 127.068 184.266 127.162 184.329 127.431C184.392 127.7 184.31 128.964 184.183 128.964C184.055 128.964 184.118 127.868 183.802 127.826C183.486 127.784 183.444 130.017 183.192 129.743C182.939 129.469 183.024 127.869 182.729 127.806C182.433 127.742 182.349 128.796 181.991 128.838C181.633 128.88 181.612 127.784 181.528 127.742C181.443 127.699 181.443 127.91 181.275 127.973Z" fill="white"/>
<path d="M169.298 134.069H171.788V127.831H169.298V134.069Z" fill="#602D8A"/>
<path d="M171.879 128.468C171.879 128.468 172.054 127.715 171.879 127.64C171.703 127.566 171.288 127.695 170.633 127.201C169.979 126.706 169.372 126.515 169.245 126.984C169.117 127.453 169.149 128.633 169.388 128.585C169.628 128.536 169.528 127.9 169.801 128.069C170.075 128.237 170.222 129.059 170.564 128.798C170.905 128.536 170.841 130.851 171.16 130.851C171.479 130.851 171.416 128.586 171.879 128.468Z" fill="#602D8A"/>
<path opacity="0.2" d="M171.879 128.468C171.879 128.468 172.054 127.715 171.879 127.64C171.703 127.566 171.288 127.695 170.633 127.201C169.979 126.706 169.372 126.515 169.245 126.984C169.117 127.453 169.149 128.633 169.388 128.585C169.628 128.536 169.528 127.9 169.801 128.069C170.075 128.237 170.222 129.059 170.564 128.798C170.905 128.536 170.841 130.851 171.16 130.851C171.479 130.851 171.416 128.586 171.879 128.468Z" fill="white"/>
<path d="M132.989 117.861C132.473 118.283 131.758 118.296 131.234 117.951C129.453 116.779 127.783 115.523 126.143 114.177C125.321 113.508 124.524 112.809 123.723 112.081C122.931 111.335 122.147 110.602 121.359 109.665C121.261 109.559 121.159 109.422 121.056 109.286L120.75 108.877C120.558 108.6 120.362 108.276 120.2 107.995C120.179 107.961 120.162 107.927 120.145 107.893C119.855 107.382 119.612 106.896 119.391 106.415C118.918 105.388 118.505 104.4 118.13 103.39C117.964 102.96 117.806 102.525 117.653 102.095C117.095 100.527 116.605 98.9556 116.179 97.3282C115.761 95.7393 116.715 94.1162 118.304 93.6987C119.834 93.2983 121.401 94.1716 121.883 95.6583L121.896 95.7009C122.505 97.6009 123.084 99.5733 123.672 101.477C123.975 102.427 124.26 103.386 124.579 104.272C124.741 104.711 124.895 105.141 125.048 105.516C125.129 105.699 125.18 105.827 125.265 105.985L125.402 106.215C125.444 106.291 125.487 106.368 125.559 106.462C126.028 107.169 126.646 107.961 127.276 108.715C127.894 109.495 128.563 110.257 129.219 111.037C130.539 112.588 131.89 114.155 133.193 115.753L133.202 115.766C133.721 116.405 133.628 117.342 132.989 117.861Z" fill="#FFB573"/>
<path opacity="0.2" d="M120.145 107.893C119.855 107.382 119.612 106.896 119.391 106.415C118.918 105.388 118.505 104.4 118.13 103.39C117.964 102.96 117.806 102.525 117.653 102.095C118.471 101.124 119.625 100.357 121.188 100.025C121.188 100.025 121.84 104.672 120.145 107.893Z" fill="black"/>
<path d="M110 175.525C107.019 175.294 105.012 173.248 105.222 171.08C105.338 169.885 101.517 169.778 101.517 169.778C102.121 173.485 101.362 174.014 101.113 174.971C100.863 175.933 100.925 176.987 101.715 177.007C102.662 177.031 103.103 176.85 104.279 176.895C105.654 176.949 107.142 177.003 109.587 177.007C110.564 177.009 111.325 175.628 110 175.525Z" fill="#263238"/>
<path d="M114.357 105.709C114.357 105.709 113.823 123.079 111.293 136.164C110.693 147.237 105.457 171.583 105.457 171.583C104.023 171.862 102.68 171.907 101.494 171.547C101.494 171.547 98.8508 153.764 101.484 135.976C99.5494 117.333 100.208 105.709 100.208 105.709L114.357 105.709Z" fill="#602D8A"/>
<path opacity="0.2" d="M100.131 114.35C100.222 119.565 100.548 126.947 101.483 135.974C101.286 137.31 101.129 138.65 101.01 139.978C107.488 129.256 109.025 112.312 100.131 114.35Z" fill="black"/>
<path d="M78.7683 169.794C79.3902 169.036 80.4373 168.023 81.5138 165.897C81.5138 165.897 84.9265 166.736 84.2564 167.721C83.0406 169.507 82.4476 173.174 84.0149 175.14C84.909 176.263 83.4947 176.448 82.5601 175.968C81.0729 175.204 81.136 174.92 80.3641 173.657C79.7033 172.577 79.4426 172.154 78.534 171.692C77.7748 171.305 78.1437 170.555 78.7683 169.794Z" fill="#263238"/>
<path d="M109.206 105.709C109.206 105.709 103.46 129.848 99.8382 140.157C96.0345 150.984 84.8434 167.69 84.44 168.408C82.9469 168.01 81.6152 167.487 80.7278 166.619C80.7278 166.619 84.9887 149.287 89.797 137.53C91.6215 112.988 97.7934 105.709 97.7934 105.709H109.206Z" fill="#602D8A"/>
<path d="M126.852 76.7026C126.852 76.7026 127.509 73.3334 124.139 73.4599C120.768 73.5864 119.303 77.083 122.416 78.1365C125.529 79.1896 126.852 76.7026 126.852 76.7026Z" fill="#263238"/>
<path d="M121.861 78.3053C121.578 78.0522 122.324 76.6055 124.355 76.0999C126.386 75.5942 127.931 76.3665 127.257 77.2786C127.043 77.5683 122.744 79.0959 121.861 78.3053Z" fill="#602D8A"/>
<path d="M127.846 88.2946C130.728 87.8911 132.79 85.1383 132.085 81.971C133.707 79.8768 128.131 75.115 123.799 77.1397C117.284 80.1844 119.751 85.8604 119.751 85.8604C119.751 85.8604 122.416 89.055 127.846 88.2946Z" fill="#263238"/>
<path d="M133.731 115.972L135.165 115.865C135.687 115.826 136.21 115.924 136.682 116.15L137.571 116.576C138.161 116.858 138.465 117.52 138.295 118.151L138.038 119.103C137.841 119.832 137.086 120.259 136.359 120.053L135.554 119.824C135.554 119.824 133.243 119.461 131.956 118.115L132.124 117.62C132.399 116.816 132.99 116.209 133.731 115.972Z" fill="#FFB573"/>
<path d="M121.742 101.478C120.809 102.543 120.502 106.483 117.171 106.236C116.851 107.454 116.08 112.174 113.942 115.855C113.277 115.829 111.364 115.557 108.958 115.003L108.34 112.643L106.385 114.338C102.419 113.214 97.9157 111.412 95.4065 108.788C96.6931 105.26 102.563 98.6233 108.331 91.3259C110.334 88.7955 114.534 88.8807 115.037 89.2471C116.996 90.6699 118.589 91.8457 120.123 93.3281C120.634 93.8223 121.145 94.3463 121.627 94.8575C123.361 96.7021 123.412 99.5733 121.742 101.478Z" fill="#602D8A"/>
<path opacity="0.2" d="M121.742 101.478C120.809 102.543 120.502 106.483 117.171 106.236C116.851 107.454 116.08 112.174 113.942 115.855C113.277 115.829 111.364 115.557 108.958 115.003L108.34 112.643L106.385 114.338C102.419 113.214 97.9157 111.412 95.4065 108.788C96.6931 105.26 102.563 98.6233 108.331 91.3259C110.334 88.7955 114.534 88.8807 115.037 89.2471C116.996 90.6699 118.589 91.8457 120.123 93.3281C120.634 93.8223 121.145 94.3463 121.627 94.8575C123.361 96.7021 123.412 99.5733 121.742 101.478Z" fill="white"/>
<path opacity="0.7" d="M117.988 101.941L118.379 100.803L120.558 101.604L120.221 102.699L117.988 101.941Z" fill="white"/>
<path d="M117.257 118.172L118.692 118.275C119.214 118.312 119.717 118.486 120.151 118.777L120.97 119.328C121.512 119.692 121.717 120.392 121.456 120.991L121.064 121.896C120.763 122.589 119.954 122.902 119.265 122.592L118.502 122.249C118.502 122.249 116.268 121.554 115.19 120.035L115.429 119.571C115.817 118.814 116.49 118.299 117.257 118.172Z" fill="#FFB573"/>
<path d="M114.035 93.9172L113.347 100.263C113.255 101.305 113.145 102.35 113.117 103.314C113.102 103.785 113.091 104.27 113.112 104.578L113.118 104.681C113.119 104.714 113.12 104.716 113.12 104.736C113.12 104.747 113.116 104.746 113.12 104.767L113.142 104.854L113.185 105.027C113.241 105.255 113.3 105.49 113.375 105.74C113.646 106.723 113.965 107.753 114.297 108.778L115.282 111.884C115.946 113.962 116.606 116.061 117.196 118.18L117.198 118.189C117.418 118.981 116.955 119.8 116.164 120.02C115.513 120.201 114.842 119.918 114.502 119.371C113.325 117.472 112.258 115.534 111.241 113.557C110.221 111.571 109.262 109.594 108.391 107.422C108.283 107.155 108.178 106.866 108.075 106.569L107.998 106.348L107.959 106.238L107.91 106.069C107.879 105.956 107.842 105.826 107.819 105.724L107.755 105.421C107.608 104.644 107.556 104.03 107.518 103.403C107.458 102.172 107.457 101.023 107.505 99.8753C107.594 97.583 107.793 95.3763 108.144 93.1198C108.397 91.4975 109.917 90.387 111.539 90.6396C113.113 90.8845 114.206 92.3231 114.039 93.8908L114.035 93.9172Z" fill="#FFB573"/>
<path d="M120.735 84.5164C119.522 86.3064 117.316 88.9736 115.408 89.5772C115.408 89.5772 117.378 91.9718 117.675 97.0305C120.958 96.5854 119.914 94.6219 119.914 94.6219C119.101 93.1399 120.415 91.6075 121.577 90.5651L120.735 84.5164Z" fill="#FFB573"/>
<path opacity="0.2" d="M121.578 90.5659L121.099 87.1251C120.801 87.3305 120.502 87.7462 120.322 88.171C119.809 89.4051 119.963 90.8735 120.329 91.9108C120.687 91.4149 121.142 90.9578 121.578 90.5659Z" fill="black"/>
<path d="M122.683 80.9255C120.693 83.8172 119.79 84.9993 120.051 87.485C120.443 91.224 124.368 92.9808 127.167 90.7286C129.686 88.7017 132.518 84.3134 130.725 81.1444C128.958 78.0218 124.674 78.0338 122.683 80.9255Z" fill="#FFB573"/>
<path d="M125.468 86.098C125.292 86.3229 125.269 86.5981 125.416 86.7131C125.563 86.8277 125.824 86.7387 126 86.5138C126.175 86.2888 126.199 86.0136 126.052 85.8986C125.905 85.784 125.644 85.8731 125.468 86.098Z" fill="#263238"/>
<path d="M128.202 88.297C128.027 88.5219 128.003 88.7971 128.15 88.9121C128.297 89.0267 128.559 88.9377 128.734 88.7127C128.91 88.4878 128.933 88.2126 128.786 88.0976C128.639 87.983 128.378 88.072 128.202 88.297Z" fill="#263238"/>
<path d="M128.712 88.0593L129.373 88.3256C129.373 88.3256 128.767 88.5309 128.712 88.0593Z" fill="#263238"/>
<path d="M127.471 87.8263C127.471 87.8263 127.097 89.0924 127.152 89.8873C126.639 89.9324 126.233 89.4119 126.233 89.4119L127.471 87.8263Z" fill="#ED893E"/>
<path d="M123.868 88.8167C123.968 88.9283 124.084 89.0382 124.219 89.1439C124.256 89.1724 124.309 89.1656 124.337 89.1294C124.365 89.0932 124.36 89.0412 124.323 89.0118C123.336 88.2425 123.413 87.192 123.414 87.1817C123.418 87.1353 123.384 87.0948 123.338 87.091C123.292 87.0872 123.251 87.1212 123.247 87.1672C123.244 87.2073 123.18 88.0529 123.868 88.8167Z" fill="#263238"/>
<path d="M125.986 84.2969C126.024 84.3194 126.071 84.3275 126.117 84.3148C126.837 84.1141 127.305 84.5158 127.31 84.5201C127.379 84.5797 127.485 84.5742 127.547 84.5048C127.607 84.4353 127.601 84.3297 127.531 84.2683C127.507 84.247 126.921 83.7426 126.027 83.9919C125.938 84.0166 125.886 84.109 125.911 84.1985C125.923 84.2411 125.951 84.2756 125.986 84.2969Z" fill="#263238"/>
<path d="M130.156 87.8706C130.188 87.8966 130.23 87.9111 130.275 87.9072C130.368 87.8996 130.436 87.8186 130.428 87.7266C130.352 86.803 129.676 86.4277 129.647 86.412C129.565 86.3681 129.464 86.3983 129.42 86.4797C129.376 86.5611 129.406 86.6625 129.487 86.7068C129.514 86.7212 130.034 87.0199 130.094 87.7543C130.098 87.8016 130.122 87.8429 130.156 87.8706Z" fill="#263238"/>
<path d="M125.977 85.8604L126.639 86.1266C126.639 86.1266 126.033 86.3319 125.977 85.8604Z" fill="#263238"/>
<path d="M132.341 82.9533C129.914 83.0095 122.825 83.4134 121.229 82.7859C119.634 82.1588 121.09 79.3749 123.595 78.5386C126.101 77.7024 130.871 79.0971 132.341 82.9533Z" fill="#263238"/>
<path d="M120.152 82.8659C119.865 83.5479 119.92 84.2381 120.16 84.719C120.521 85.4428 121.414 85.1574 121.911 84.414C122.357 83.7448 122.709 82.5618 122.06 82.0961C121.42 81.6373 120.481 82.0859 120.152 82.8659Z" fill="#FFB573"/>
<path d="M122.423 83.4062C122.423 83.4062 121.631 82.7829 122.197 82.0553C122.764 81.3277 123.157 82.6743 123.157 82.6743C123.157 82.6743 123.08 81.6647 123.863 81.6084C124.645 81.5522 124.745 82.1282 124.589 82.4511C124.439 82.7621 123.863 83.0411 123.863 83.0411C123.863 83.0411 124.702 83.013 124.814 83.4062C124.927 83.7994 124.393 84.4384 124.084 84.3855C123.775 84.3327 123.527 83.9382 123.527 83.9382C123.527 83.9382 123.92 84.9649 123.199 85.2175C122.478 85.4701 122.694 84.2905 122.694 84.2905C122.694 84.2905 122.028 85.1557 121.806 84.6599C121.584 84.1649 121.491 83.6873 122.423 83.4062Z" fill="#602D8A"/>
<path opacity="0.7" d="M122.423 83.4062C122.423 83.4062 121.631 82.7829 122.197 82.0553C122.764 81.3277 123.157 82.6743 123.157 82.6743C123.157 82.6743 123.08 81.6647 123.863 81.6084C124.645 81.5522 124.745 82.1282 124.589 82.4511C124.439 82.7621 123.863 83.0411 123.863 83.0411C123.863 83.0411 124.702 83.013 124.814 83.4062C124.927 83.7994 124.393 84.4384 124.084 84.3855C123.775 84.3327 123.527 83.9382 123.527 83.9382C123.527 83.9382 123.92 84.9649 123.199 85.2175C122.478 85.4701 122.694 84.2905 122.694 84.2905C122.694 84.2905 122.028 85.1557 121.806 84.6599C121.584 84.1649 121.491 83.6873 122.423 83.4062Z" fill="white"/>
<path opacity="0.4" d="M123.484 82.967C123.738 83.039 123.467 84.0763 122.976 83.8799C122.484 83.6831 123.037 82.8405 123.484 82.967Z" fill="white"/>
<path d="M158.358 160.979H28.7725V163.934H158.358V160.979Z" fill="#263238"/>
<path opacity="0.5" d="M158.358 160.979H28.7725V163.934H158.358V160.979Z" fill="url(#paint1_linear_1180_2232)"/>
<path d="M159.875 138.435H27.653V148.02H159.875V138.435Z" fill="#263238"/>
<path d="M159.875 149.115H156.873V177.317H159.875V149.115Z" fill="url(#paint2_linear_1180_2232)"/>
<path opacity="0.6" d="M159.875 149.115H156.873V177.317H159.875V149.115Z" fill="white"/>
<path d="M141.415 149.115H138.413V177.317H141.415V149.115Z" fill="url(#paint3_linear_1180_2232)"/>
<path opacity="0.6" d="M141.415 149.115H138.413V177.317H141.415V149.115Z" fill="white"/>
<path d="M122.956 149.115H119.953V177.317H122.956V149.115Z" fill="url(#paint4_linear_1180_2232)"/>
<path opacity="0.6" d="M122.956 149.115H119.953V177.317H122.956V149.115Z" fill="white"/>
<path d="M104.496 149.115H101.493V177.317H104.496V149.115Z" fill="url(#paint5_linear_1180_2232)"/>
<path opacity="0.6" d="M104.496 149.115H101.493V177.317H104.496V149.115Z" fill="white"/>
<path d="M86.0354 149.115H83.033V177.317H86.0354V149.115Z" fill="url(#paint6_linear_1180_2232)"/>
<path opacity="0.6" d="M86.0354 149.115H83.033V177.317H86.0354V149.115Z" fill="white"/>
<path d="M67.5755 149.115H64.5731V177.317H67.5755V149.115Z" fill="url(#paint7_linear_1180_2232)"/>
<path opacity="0.6" d="M67.5755 149.115H64.5731V177.317H67.5755V149.115Z" fill="white"/>
<path d="M49.1157 149.115H46.1133V177.317H49.1157V149.115Z" fill="url(#paint8_linear_1180_2232)"/>
<path opacity="0.6" d="M49.1157 149.115H46.1133V177.317H49.1157V149.115Z" fill="white"/>
<path d="M30.6554 149.115H27.653V177.317H30.6554V149.115Z" fill="url(#paint9_linear_1180_2232)"/>
<path opacity="0.6" d="M30.6554 149.115H27.653V177.317H30.6554V149.115Z" fill="white"/>
<path d="M159.841 138.717L157.885 136.761L147.243 147.404L149.199 149.36L159.841 138.717Z" fill="#263238"/>
<path opacity="0.5" d="M159.841 138.717L157.885 136.761L147.243 147.404L149.199 149.36L159.841 138.717Z" fill="white"/>
<path d="M157.887 149.359L159.843 147.404L149.201 136.761L147.245 138.717L157.887 149.359Z" fill="#263238"/>
<path opacity="0.6" d="M157.887 149.359L159.843 147.404L149.201 136.761L147.245 138.717L157.887 149.359Z" fill="white"/>
<path d="M150.645 138.717L148.689 136.761L138.046 147.403L140.002 149.359L150.645 138.717Z" fill="#263238"/>
<path opacity="0.5" d="M150.645 138.717L148.689 136.761L138.046 147.403L140.002 149.359L150.645 138.717Z" fill="white"/>
<path d="M148.691 149.359L150.647 147.403L140.004 136.761L138.048 138.717L148.691 149.359Z" fill="#263238"/>
<path opacity="0.6" d="M148.691 149.359L150.647 147.403L140.004 136.761L138.048 138.717L148.691 149.359Z" fill="white"/>
<path d="M141.448 138.717L139.492 136.761L128.85 147.404L130.806 149.359L141.448 138.717Z" fill="#263238"/>
<path opacity="0.5" d="M141.448 138.717L139.492 136.761L128.85 147.404L130.806 149.359L141.448 138.717Z" fill="white"/>
<path d="M139.494 149.359L141.45 147.404L130.808 136.761L128.852 138.717L139.494 149.359Z" fill="#263238"/>
<path opacity="0.6" d="M139.494 149.359L141.45 147.404L130.808 136.761L128.852 138.717L139.494 149.359Z" fill="white"/>
<path d="M132.252 138.717L130.296 136.761L119.653 147.404L121.609 149.36L132.252 138.717Z" fill="#263238"/>
<path opacity="0.5" d="M132.252 138.717L130.296 136.761L119.653 147.404L121.609 149.36L132.252 138.717Z" fill="white"/>
<path d="M130.298 149.36L132.253 147.404L121.611 136.761L119.655 138.717L130.298 149.36Z" fill="#263238"/>
<path opacity="0.6" d="M130.298 149.36L132.253 147.404L121.611 136.761L119.655 138.717L130.298 149.36Z" fill="white"/>
<path d="M123.055 138.717L121.099 136.761L110.457 147.404L112.413 149.36L123.055 138.717Z" fill="#263238"/>
<path opacity="0.5" d="M123.055 138.717L121.099 136.761L110.457 147.404L112.413 149.36L123.055 138.717Z" fill="white"/>
<path d="M121.101 149.36L123.057 147.404L112.414 136.761L110.458 138.717L121.101 149.36Z" fill="#263238"/>
<path opacity="0.6" d="M121.101 149.36L123.057 147.404L112.414 136.761L110.458 138.717L121.101 149.36Z" fill="white"/>
<path d="M113.859 138.717L111.903 136.761L101.26 147.404L103.216 149.36L113.859 138.717Z" fill="#263238"/>
<path opacity="0.5" d="M113.859 138.717L111.903 136.761L101.26 147.404L103.216 149.36L113.859 138.717Z" fill="white"/>
<path d="M111.904 149.36L113.86 147.404L103.218 136.762L101.262 138.717L111.904 149.36Z" fill="#263238"/>
<path opacity="0.6" d="M111.904 149.36L113.86 147.404L103.218 136.762L101.262 138.717L111.904 149.36Z" fill="white"/>
<path d="M104.662 138.717L102.706 136.761L92.0636 147.404L94.0194 149.36L104.662 138.717Z" fill="#263238"/>
<path opacity="0.5" d="M104.662 138.717L102.706 136.761L92.0636 147.404L94.0194 149.36L104.662 138.717Z" fill="white"/>
<path d="M102.708 149.36L104.664 147.404L94.0213 136.762L92.0655 138.717L102.708 149.36Z" fill="#263238"/>
<path opacity="0.6" d="M102.708 149.36L104.664 147.404L94.0213 136.762L92.0655 138.717L102.708 149.36Z" fill="white"/>
<path d="M95.4656 138.717L93.5097 136.761L82.8672 147.404L84.823 149.36L95.4656 138.717Z" fill="#263238"/>
<path opacity="0.5" d="M95.4656 138.717L93.5097 136.761L82.8672 147.404L84.823 149.36L95.4656 138.717Z" fill="white"/>
<path d="M93.5115 149.36L95.4673 147.404L84.8248 136.762L82.8689 138.718L93.5115 149.36Z" fill="#263238"/>
<path opacity="0.6" d="M93.5115 149.36L95.4673 147.404L84.8248 136.762L82.8689 138.718L93.5115 149.36Z" fill="white"/>
<path d="M86.2691 138.717L84.3132 136.761L73.6707 147.404L75.6265 149.36L86.2691 138.717Z" fill="#263238"/>
<path opacity="0.5" d="M86.2691 138.717L84.3132 136.761L73.6707 147.404L75.6265 149.36L86.2691 138.717Z" fill="white"/>
<path d="M84.3148 149.36L86.2707 147.405L75.6281 136.762L73.6722 138.718L84.3148 149.36Z" fill="#263238"/>
<path opacity="0.6" d="M84.3148 149.36L86.2707 147.405L75.6281 136.762L73.6722 138.718L84.3148 149.36Z" fill="white"/>
<path d="M77.0727 138.717L75.1168 136.762L64.4743 147.404L66.4301 149.36L77.0727 138.717Z" fill="#263238"/>
<path opacity="0.5" d="M77.0727 138.717L75.1168 136.762L64.4743 147.404L66.4301 149.36L77.0727 138.717Z" fill="white"/>
<path d="M75.1182 149.361L77.074 147.405L66.4315 136.762L64.4756 138.718L75.1182 149.361Z" fill="#263238"/>
<path opacity="0.6" d="M75.1182 149.361L77.074 147.405L66.4315 136.762L64.4756 138.718L75.1182 149.361Z" fill="white"/>
<path d="M67.8763 138.718L65.9204 136.762L55.2778 147.404L57.2337 149.36L67.8763 138.718Z" fill="#263238"/>
<path opacity="0.5" d="M67.8763 138.718L65.9204 136.762L55.2778 147.404L57.2337 149.36L67.8763 138.718Z" fill="white"/>
<path d="M65.9216 149.361L67.8775 147.405L57.2349 136.762L55.2791 138.718L65.9216 149.361Z" fill="#263238"/>
<path opacity="0.6" d="M65.9216 149.361L67.8775 147.405L57.2349 136.762L55.2791 138.718L65.9216 149.361Z" fill="white"/>
<path d="M58.6795 138.717L56.7236 136.761L46.0811 147.404L48.0369 149.36L58.6795 138.717Z" fill="#263238"/>
<path opacity="0.5" d="M58.6795 138.717L56.7236 136.761L46.0811 147.404L48.0369 149.36L58.6795 138.717Z" fill="white"/>
<path d="M56.7252 149.361L58.6811 147.405L48.0385 136.762L46.0827 138.718L56.7252 149.361Z" fill="#263238"/>
<path opacity="0.6" d="M56.7252 149.361L58.6811 147.405L48.0385 136.762L46.0827 138.718L56.7252 149.361Z" fill="white"/>
<path d="M49.483 138.717L47.5272 136.762L36.8846 147.404L38.8404 149.36L49.483 138.717Z" fill="#263238"/>
<path opacity="0.5" d="M49.483 138.717L47.5272 136.762L36.8846 147.404L38.8404 149.36L49.483 138.717Z" fill="white"/>
<path d="M47.5286 149.361L49.4845 147.405L38.8419 136.762L36.8861 138.718L47.5286 149.361Z" fill="#263238"/>
<path opacity="0.6" d="M47.5286 149.361L49.4845 147.405L38.8419 136.762L36.8861 138.718L47.5286 149.361Z" fill="white"/>
<path d="M40.2852 138.717L38.3293 136.761L27.6868 147.403L29.6426 149.359L40.2852 138.717Z" fill="#263238"/>
<path opacity="0.5" d="M40.2852 138.717L38.3293 136.761L27.6868 147.403L29.6426 149.359L40.2852 138.717Z" fill="white"/>
<path d="M38.3311 149.362L40.287 147.406L29.6444 136.764L27.6886 138.72L38.3311 149.362Z" fill="#263238"/>
<path opacity="0.6" d="M38.3311 149.362L40.287 147.406L29.6444 136.764L27.6886 138.72L38.3311 149.362Z" fill="white"/>
<path d="M159.934 149.998H27.5942C27.3424 149.998 27.1383 149.794 27.1383 149.543V146.498C27.1383 146.247 27.3424 146.043 27.5942 146.043H159.934C160.186 146.043 160.39 146.247 160.39 146.498V149.543C160.39 149.794 160.186 149.998 159.934 149.998Z" fill="#263238"/>
<path d="M138.677 120.714C140.42 121.165 139.173 128.287 139.173 128.287L134.42 129.625C134.42 129.625 134.107 119.534 138.677 120.714Z" fill="#E4897B"/>
<path opacity="0.2" d="M138.677 120.714C140.42 121.165 139.173 128.287 139.173 128.287L134.42 129.625C134.42 129.625 134.107 119.534 138.677 120.714Z" fill="black"/>
<path d="M138.678 128.217C138.678 128.217 137.758 127.003 139.647 125.251C141.537 123.498 143.907 124.63 146.564 124.85C149.221 125.07 151.145 122.32 153.17 122.667C155.194 123.013 157.947 125.483 156.25 128.217C154.555 130.951 140.113 129.531 138.678 128.217Z" fill="#602D8A"/>
<path d="M115.401 129.708C115.401 129.781 113.159 129.878 109.73 129.947C107.286 130.003 104.236 130.044 100.972 130.056C94.2176 130.084 86.5381 129.991 81.3554 129.64C69.5961 129.454 50.0162 127.797 42.6477 128.436C42.1753 127.797 41.941 126.597 42.1306 125.277C42.1024 125.532 66.554 119.149 79.5738 121.843C106.134 114.794 114.181 122.058 114.189 122.344C114.594 124.8 114.997 127.256 115.401 129.708Z" fill="#E4897B"/>
<path opacity="0.2" d="M109.73 129.947C107.286 130.003 104.236 130.044 100.972 130.056C101.877 127.87 110.457 122.441 110.457 122.441C109.806 124.4 109.968 127.252 111.192 128.621C111.56 129.029 110.885 129.514 109.73 129.947Z" fill="black"/>
<path d="M138.678 123.027C137.034 125.802 134.605 127.571 131.931 128.678C130.154 129.421 128.264 129.866 126.421 130.116C120.681 130.896 115.414 129.777 115.414 129.777L113.592 122.202C113.592 122.202 129.697 117.516 133.006 117.787C136.314 118.057 137.858 119.245 137.858 119.245L138.678 123.027Z" fill="#E4897B"/>
<path opacity="0.2" d="M131.931 128.678C130.154 129.421 128.264 129.866 126.421 130.116C126.421 130.1 126.425 130.08 126.43 130.06C127.286 125.923 133.353 123.427 133.353 123.427C134.61 124.982 133.563 127.046 131.931 128.678Z" fill="black"/>
<path d="M34.9422 126.825C37.4002 125.507 37.246 125.638 38.6552 124.942C39.8638 124.349 40.0564 124.055 41.0195 123.566C41.8238 123.156 42.2575 123.902 42.5455 124.874C42.6562 125.246 42.7623 125.695 42.9238 126.23C43.0171 126.539 42.8841 126.862 42.5949 127.017L43.918 128.355C43.918 128.355 40.9092 128.565 40.6643 128.581C37.7589 128.768 36.063 128.218 35.3103 128.504C33.8819 129.046 33.962 127.351 34.9422 126.825Z" fill="#E4897B"/>
<path d="M136.373 118.643C136.373 118.643 134.196 117.686 135.769 123.096C135.764 123.098 135.757 123.1 135.752 123.103L136.022 124.147L137.458 124.386C137.861 122.919 140.062 122.659 141.587 122.898L144.097 118.739C142.039 119.294 138.185 119.975 136.373 118.643Z" fill="#E4897B"/>
<path opacity="0.2" d="M143.072 120.435L141.588 122.896C141.166 122.829 140.744 122.783 140.345 122.784C140.253 121.902 140.953 120.631 141.893 120.47C142.362 120.39 142.829 120.377 143.072 120.435Z" fill="black"/>
<path d="M152.313 111.89C152.313 111.89 152.258 109.533 150.588 108.654C148.918 107.775 144.585 108.774 144.734 109.892C144.734 109.892 144.826 109.136 146.492 109.294C146.492 109.294 144.363 110.172 145.322 111.49C145.322 111.49 144.961 110.691 145.601 110.331C145.601 110.331 145.295 111.225 145.958 111.41C145.958 111.41 145.642 110.731 146.681 110.571C146.681 110.571 146.378 111.25 147.149 111.89C147.919 112.53 152.313 111.89 152.313 111.89Z" fill="#263238"/>
<path d="M146.805 114.748C143.739 116.662 142.405 117.405 141.555 119.913C140.276 123.684 143.062 127.093 146.581 126.15C149.748 125.3 154.23 122.314 153.992 118.478C153.757 114.698 149.871 112.835 146.805 114.748Z" fill="#E4897B"/>
<path d="M150.306 116.66C147.237 115.754 145.992 120.562 144.685 116.75C143.378 112.939 149.268 112.395 151.341 114.152C153.414 115.909 150.306 116.66 150.306 116.66Z" fill="#263238"/>
<path d="M148.949 122.838C148.949 122.838 148.027 123.934 147.716 124.742C147.222 124.574 147.085 123.892 147.085 123.892L148.949 122.838Z" fill="#DE5753"/>
<path d="M145.376 122.913C145.418 123.065 145.475 123.222 145.551 123.382C145.572 123.425 145.623 123.44 145.666 123.416C145.709 123.391 145.727 123.338 145.706 123.293C145.148 122.126 145.697 121.12 145.703 121.111C145.728 121.067 145.715 121.012 145.674 120.99C145.633 120.967 145.58 120.984 145.555 121.028C145.534 121.066 145.091 121.875 145.376 122.913Z" fill="#263238"/>
<path d="M149.436 118.674C149.452 118.717 149.485 118.753 149.53 118.77C150.238 119.034 150.358 119.673 150.359 119.68C150.377 119.775 150.466 119.835 150.559 119.811C150.653 119.787 150.715 119.691 150.698 119.594C150.692 119.56 150.542 118.759 149.664 118.431C149.576 118.398 149.475 118.448 149.438 118.541C149.421 118.586 149.421 118.633 149.436 118.674Z" fill="#263238"/>
<path d="M151.723 123.638C151.736 123.68 151.763 123.716 151.804 123.737C151.887 123.78 151.991 123.742 152.037 123.653C152.494 122.755 152.13 122.039 152.114 122.009C152.069 121.925 151.966 121.897 151.882 121.949C151.798 122 151.767 122.111 151.811 122.196C151.825 122.224 152.1 122.783 151.736 123.497C151.713 123.543 151.709 123.594 151.723 123.638Z" fill="#263238"/>
<path d="M148.99 121.388L148.804 120.687C148.804 120.687 148.154 120.72 148.207 120.04C148.207 120.04 147.863 120.435 148.207 120.786C148.355 120.938 148.55 120.976 148.683 120.983C148.712 121.213 148.99 121.388 148.99 121.388Z" fill="#263238"/>
<path d="M150.587 124.386L150.342 123.704C150.342 123.704 149.697 123.792 149.692 123.111C149.692 123.111 149.383 123.534 149.756 123.854C149.917 123.992 150.114 124.013 150.248 124.009C150.295 124.235 150.587 124.386 150.587 124.386Z" fill="#263238"/>
<path d="M144.328 115.499C144.328 115.499 150.136 115.164 153.652 118.227C153.652 118.227 153.973 119.605 153.201 121.494C153.201 121.494 154.506 121.438 155.066 120.533C155.625 119.628 155.389 117.651 155.389 117.651C155.389 117.651 156.611 116.926 156.558 115.487C156.519 114.455 154.002 111.861 154.002 111.861C154.002 111.861 154.72 111.011 152.314 110.246C150.874 109.788 147.148 110.838 147.085 111.957C147.085 111.957 143.045 113.395 144.328 115.499Z" fill="#602D8A"/>
<path opacity="0.7" d="M156.557 115.486C156.562 115.575 156.557 115.66 156.549 115.745C156.489 116.658 155.915 117.243 155.6 117.502C155.474 117.595 155.39 117.652 155.39 117.652C155.39 117.652 155.624 119.627 155.066 120.532C154.505 121.437 153.2 121.493 153.2 121.493C153.972 119.607 153.652 118.229 153.652 118.229C151.9 116.698 149.573 116.016 147.682 115.717C145.787 115.414 144.329 115.499 144.329 115.499C143.044 113.394 147.084 111.956 147.084 111.956C147.116 111.406 148.029 110.877 149.12 110.534C150.251 110.171 151.58 110.013 152.315 110.247C154.719 111.011 154 111.863 154 111.863C154 111.863 156.521 114.456 156.557 115.486Z" fill="white"/>
<path opacity="0.2" d="M155.599 117.502C155.474 117.595 155.389 117.651 155.389 117.651L153.652 118.229C151.899 116.698 149.572 116.016 147.682 115.717C149.855 115.89 152.586 116.189 154.238 116.646C157.328 117.498 152.668 114.698 152.668 114.698C152.668 114.698 156.185 114.836 156.549 115.745C156.549 115.749 156.077 115.483 156.077 115.488C156.344 116.186 156 117.19 155.599 117.502Z" fill="black"/>
<path opacity="0.2" d="M153.996 111.858C151.225 110.331 147.084 111.955 147.084 111.955C147.117 111.406 148.029 110.877 149.12 110.533C151.641 110.271 153.867 111.774 153.996 111.858Z" fill="black"/>
<path d="M143.489 115.672C142.943 116.276 142.742 116.995 142.805 117.56C142.902 118.41 143.915 118.399 144.696 117.799C145.4 117.258 146.198 116.165 145.712 115.487C145.234 114.82 144.113 114.982 143.489 115.672Z" fill="#E4897B"/>
<path d="M153.586 120.148C153.586 120.148 149.239 116.492 145.712 115.488C145.712 115.488 152.442 116.246 153.841 117.324C153.841 117.324 154.769 121.395 152.827 122.056C152.827 122.056 153.532 121.255 153.586 120.148Z" fill="#263238"/>
<path d="M159.176 136.348H28.3524V131.368C28.3524 129.628 29.7634 128.217 31.504 128.217H156.025C157.765 128.217 159.176 129.628 159.176 131.368V136.348H159.176Z" fill="url(#paint10_linear_1180_2232)"/>
<path d="M159.893 140.109H27.6355C27.201 140.109 26.8491 139.757 26.8491 139.323V135.99C26.8491 135.555 27.2014 135.203 27.6355 135.203H159.893C160.328 135.203 160.68 135.555 160.68 135.99V139.323C160.68 139.757 160.327 140.109 159.893 140.109Z" fill="url(#paint11_linear_1180_2232)"/>
<path opacity="0.7" d="M159.893 140.109H27.6355C27.201 140.109 26.8491 139.757 26.8491 139.323V135.99C26.8491 135.555 27.2014 135.203 27.6355 135.203H159.893C160.328 135.203 160.68 135.555 160.68 135.99V139.323C160.68 139.757 160.327 140.109 159.893 140.109Z" fill="white"/>
<path d="M112.483 120.733C112.483 120.733 108.342 122.881 108.342 128.371L107.411 129.25V143.331C107.411 143.331 90.951 143.562 85.0381 144.235C79.1252 144.907 53.2364 146.043 53.2364 146.043C53.2364 146.043 53.3961 129.603 53.2364 129.18C53.0766 128.758 54.8343 127.965 54.8343 127.965C54.8343 127.965 54.994 123.621 57.3911 121.799L58.46 121.865C58.46 121.865 70.9124 119.228 79.5734 121.44C79.5734 121.44 98.3783 114.717 111.871 120.437C111.871 120.437 112.387 120.158 112.483 120.733Z" fill="#602D8A"/>
<path opacity="0.7" d="M112.483 120.733C112.483 120.733 108.342 122.881 108.342 128.371L107.411 129.25V143.331C107.411 143.331 90.951 143.562 85.0381 144.235C79.1252 144.907 53.2364 146.043 53.2364 146.043C53.2364 146.043 53.3961 129.603 53.2364 129.18C53.0766 128.758 54.8343 127.965 54.8343 127.965C54.8343 127.965 54.994 123.621 57.3911 121.799L58.46 121.865C58.46 121.865 70.9124 119.228 79.5734 121.44C79.5734 121.44 98.3783 114.717 111.871 120.437C111.871 120.437 112.387 120.158 112.483 120.733Z" fill="#AF2245"/>
<path opacity="0.2" d="M108.342 128.371C108.342 128.371 103.576 126.369 101.179 127.088C98.7817 127.807 93.3481 128.127 91.7502 128.127C90.1522 128.127 81.9219 128.306 80.8033 128.216C79.6846 128.127 78.2464 128.621 78.2464 128.621L108.342 128.371Z" fill="black"/>
<path opacity="0.2" d="M54.3261 128.217H69.297C69.297 128.217 65.302 127.408 63.1443 127.328C60.987 127.248 57.8704 128.137 57.0716 127.773C56.2725 127.408 54.3261 128.217 54.3261 128.217Z" fill="black"/>
<path opacity="0.2" d="M79.5734 121.44C79.5734 121.44 77.6871 122.569 76.8879 123.111C76.0887 123.652 75.7552 122.195 76.8879 121.648C78.0206 121.101 79.5734 121.44 79.5734 121.44Z" fill="black"/>
<path opacity="0.2" d="M111.871 120.437C111.871 120.437 110.128 121.073 109.169 122.283C108.21 123.493 108.61 121.502 109.169 120.979C109.728 120.457 111.871 120.437 111.871 120.437Z" fill="black"/>
<path opacity="0.2" d="M55.5534 138.435C55.5534 138.435 63.54 143.888 70.4953 144.348C70.4953 144.348 58.9891 143.868 55.5534 138.435Z" fill="black"/>
<path opacity="0.2" d="M105.973 131.404C105.973 131.404 99.0216 141.472 91.0311 141.711C91.0311 141.711 100.779 137.796 105.973 131.404Z" fill="black"/>
<path d="M138.361 122.695C137.348 124.245 136.271 125.921 135.476 127.465C135.281 127.845 135.105 128.226 135.002 128.523C134.95 128.664 134.918 128.798 134.909 128.81C134.898 128.822 134.902 128.782 134.877 128.681C134.852 128.582 134.797 128.375 134.604 128.126C134.417 127.876 134.099 127.686 133.898 127.634C133.854 127.619 133.808 127.608 133.762 127.602C133.729 127.595 133.699 127.591 133.668 127.59L133.603 127.588C133.586 127.589 133.552 127.593 133.599 127.593L134.265 127.601C134.719 127.592 135.182 127.589 135.656 127.562C137.55 127.463 139.504 127.246 141.46 127.018L147.354 126.286L147.372 126.284C147.993 126.207 148.559 126.648 148.636 127.268C148.703 127.808 148.378 128.306 147.885 128.478C145.961 129.15 144.034 129.732 142.065 130.236C140.099 130.746 138.11 131.179 136.031 131.473C135.513 131.551 134.979 131.608 134.437 131.652L133.606 131.701C133.591 131.704 133.494 131.703 133.415 131.701C133.331 131.698 133.263 131.699 133.164 131.686C133.071 131.675 132.979 131.662 132.885 131.645C132.779 131.622 132.673 131.594 132.569 131.562C132.132 131.432 131.597 131.098 131.26 130.646C130.917 130.198 130.779 129.748 130.713 129.404C130.648 129.057 130.641 128.766 130.652 128.529C130.675 128.042 130.756 127.686 130.837 127.348C131.007 126.684 131.214 126.141 131.433 125.613C132.336 123.542 133.399 121.829 134.632 120.083C135.357 119.056 136.777 118.812 137.804 119.537C138.807 120.246 139.063 121.617 138.399 122.637L138.361 122.695Z" fill="#DC897C"/>
<path d="M147.084 126.309C147.084 126.309 149.33 125.572 150.318 125.518C151.305 125.464 152.903 125.913 152.903 125.913L153.756 128.217L151.412 128.447C151.412 128.447 149.077 129.366 147.085 128.66C145.093 127.954 147.084 126.309 147.084 126.309Z" fill="#E4897B"/>
<path opacity="0.7" d="M159.934 149.998H27.5942C27.3424 149.998 27.1383 149.794 27.1383 149.543V146.498C27.1383 146.247 27.3424 146.043 27.5942 146.043H159.934C160.186 146.043 160.39 146.247 160.39 146.498V149.543C160.39 149.794 160.186 149.998 159.934 149.998Z" fill="white"/>
<defs>
<linearGradient id="paint0_linear_1180_2232" x1="23.9033" y1="172.494" x2="40.4102" y2="227.093" gradientUnits="userSpaceOnUse">
<stop stop-color="#AF2245"/>
<stop offset="1" stop-color="#602D8A" stop-opacity="0.48"/>
</linearGradient>
<linearGradient id="paint1_linear_1180_2232" x1="28.7725" y1="160.979" x2="30.8973" y2="178.98" gradientUnits="userSpaceOnUse">
<stop stop-color="#AF2245"/>
<stop offset="1" stop-color="#FF7194"/>
</linearGradient>
<linearGradient id="paint2_linear_1180_2232" x1="156.873" y1="149.115" x2="160.454" y2="149.189" gradientUnits="userSpaceOnUse">
<stop stop-color="#AF2245"/>
<stop offset="1" stop-color="#FF7194"/>
</linearGradient>
<linearGradient id="paint3_linear_1180_2232" x1="138.413" y1="149.115" x2="141.994" y2="149.189" gradientUnits="userSpaceOnUse">
<stop stop-color="#AF2245"/>
<stop offset="1" stop-color="#FF7194"/>
</linearGradient>
<linearGradient id="paint4_linear_1180_2232" x1="119.953" y1="149.115" x2="123.534" y2="149.189" gradientUnits="userSpaceOnUse">
<stop stop-color="#AF2245"/>
<stop offset="1" stop-color="#FF7194"/>
</linearGradient>
<linearGradient id="paint5_linear_1180_2232" x1="101.493" y1="149.115" x2="105.074" y2="149.189" gradientUnits="userSpaceOnUse">
<stop stop-color="#AF2245"/>
<stop offset="1" stop-color="#FF7194"/>
</linearGradient>
<linearGradient id="paint6_linear_1180_2232" x1="83.033" y1="149.115" x2="86.6139" y2="149.189" gradientUnits="userSpaceOnUse">
<stop stop-color="#AF2245"/>
<stop offset="1" stop-color="#FF7194"/>
</linearGradient>
<linearGradient id="paint7_linear_1180_2232" x1="64.5731" y1="149.115" x2="68.154" y2="149.189" gradientUnits="userSpaceOnUse">
<stop stop-color="#AF2245"/>
<stop offset="1" stop-color="#FF7194"/>
</linearGradient>
<linearGradient id="paint8_linear_1180_2232" x1="46.1133" y1="149.115" x2="49.6942" y2="149.189" gradientUnits="userSpaceOnUse">
<stop stop-color="#AF2245"/>
<stop offset="1" stop-color="#FF7194"/>
</linearGradient>
<linearGradient id="paint9_linear_1180_2232" x1="27.653" y1="149.115" x2="31.2339" y2="149.189" gradientUnits="userSpaceOnUse">
<stop stop-color="#AF2245"/>
<stop offset="1" stop-color="#FF7194"/>
</linearGradient>
<linearGradient id="paint10_linear_1180_2232" x1="28.3524" y1="128.217" x2="42.998" y2="173.732" gradientUnits="userSpaceOnUse">
<stop stop-color="#AF2245"/>
<stop offset="1" stop-color="#FF7194"/>
</linearGradient>
<linearGradient id="paint11_linear_1180_2232" x1="26.8491" y1="135.203" x2="32.4007" y2="164.455" gradientUnits="userSpaceOnUse">
<stop stop-color="#AF2245"/>
<stop offset="1" stop-color="#FF7194"/>
</linearGradient>
</defs>
</svg>
