<svg width="96" height="96" viewBox="0 0 96 96" fill="none" xmlns="http://www.w3.org/2000/svg">
<path fill-rule="evenodd" clip-rule="evenodd" d="M86 34C86 28.3822 86 25.5732 84.6516 23.5554C84.068 22.6819 83.318 21.9319 82.4444 21.3482C80.6796 20.169 78.3096 20.0212 73.984 20.0026C74.0004 21.1682 74 22.3862 74 23.642V24V29H78C79.6568 29 81 30.3432 81 32C81 33.6568 79.6568 35 78 35H74V41H78C79.6568 41 81 42.3432 81 44C81 45.6568 79.6568 47 78 47H74V53H78C79.6568 53 81 54.3432 81 56C81 57.6568 79.6568 59 78 59H74V85H68V24C68 16.4575 68 12.6863 65.6568 10.3432C63.3136 8 59.5424 8 52 8H44C36.4575 8 32.6863 8 30.3432 10.3432C28 12.6863 28 16.4575 28 24V85H22V59H18C16.3432 59 15 57.6568 15 56C15 54.3432 16.3432 53 18 53H22V47H18C16.3432 47 15 45.6568 15 44C15 42.3432 16.3432 41 18 41H22V35H18C16.3432 35 15 33.6568 15 32C15 30.3432 16.3432 29 18 29H22V24L22 23.642C21.9998 22.3862 21.9997 21.1682 22.0161 20.0026C17.6905 20.0212 15.3203 20.169 13.5554 21.3482C12.6819 21.9319 11.9319 22.6819 11.3482 23.5554C10 25.5732 10 28.3822 10 34V85H8C6.34316 85 5 86.3432 5 88C5 89.6568 6.34316 91 8 91H88C89.6568 91 91 89.6568 91 88C91 86.3432 89.6568 85 88 85H86V34ZM48 17C49.6568 17 51 18.3432 51 20V25H56C57.6568 25 59 26.3432 59 28C59 29.6568 57.6568 31 56 31H51V36C51 37.6568 49.6568 39 48 39C46.3432 39 45 37.6568 45 36V31H40C38.3432 31 37 29.6568 37 28C37 26.3432 38.3432 25 40 25H45V20C45 18.3432 46.3432 17 48 17ZM37 48C37 46.3432 38.3432 45 40 45H56C57.6568 45 59 46.3432 59 48C59 49.6568 57.6568 51 56 51H40C38.3432 51 37 49.6568 37 48ZM37 60C37 58.3432 38.3432 57 40 57H56C57.6568 57 59 58.3432 59 60C59 61.6568 57.6568 63 56 63H40C38.3432 63 37 61.6568 37 60ZM48 73C49.6568 73 51 74.3432 51 76V85H45V76C45 74.3432 46.3432 73 48 73Z" fill="#AF2245"/>
</svg>
