<svg width="211" height="208" viewBox="0 0 211 208" fill="none" xmlns="http://www.w3.org/2000/svg">
<g clip-path="url(#clip0_1142_3185)">
<path d="M109.561 52.9975C109.561 52.9975 109.561 52.9562 109.561 52.8872V52.5792C109.561 52.2942 109.561 51.8989 109.561 51.3886C109.561 50.3451 109.561 48.8465 109.52 46.9572L109.589 47.0262L86.7562 47.0721L86.8711 46.9572V52.9883L86.7562 52.8734L103.029 52.924L107.833 52.9608H109.129H109.469H109.589C109.589 52.9608 109.557 52.9608 109.483 52.9608H109.161H107.884L103.107 52.9929L86.7562 53.0481H86.6413V49.9636C86.6413 49.4579 86.6413 48.9477 86.6413 48.4374V46.9021C86.8757 46.6676 86.7103 46.8377 86.7608 46.7825L109.594 46.8285H109.635V46.9021C109.635 48.8098 109.603 50.3221 109.594 51.3748C109.594 51.8759 109.594 52.2666 109.594 52.547C109.594 52.6711 109.594 52.7677 109.594 52.8458C109.594 52.924 109.566 53.0021 109.561 52.9975Z" fill="url(#paint0_linear_1142_3185)"/>
<path d="M112.66 46.9572C112.656 46.919 112.656 46.8805 112.66 46.8423C112.66 46.7549 112.66 46.6492 112.66 46.5205C112.66 46.2217 112.66 45.8218 112.66 45.3115C112.66 44.2496 112.632 42.7557 112.614 40.9169L112.696 40.9996L98.9747 41.0318C98.8736 41.1376 99.1173 40.8893 99.0943 40.9169V44.0198C99.0943 45.0265 99.0943 46.0103 99.0943 46.948L98.9839 46.8377L108.798 46.8883L111.658 46.9204H112.43H112.706C112.623 46.9268 112.54 46.9268 112.457 46.9204H111.708L108.876 46.948L98.9839 47.0032H98.8736V46.8929C98.8736 45.9735 98.8736 44.9714 98.8736 43.9646V40.8617C98.846 40.8847 99.0943 40.6411 98.9885 40.7422L112.71 40.7744H112.793V40.8617C112.793 42.7005 112.761 44.2359 112.747 45.3069C112.747 45.808 112.747 46.2263 112.747 46.4975C112.747 46.7687 112.664 46.9618 112.66 46.9572Z" fill="url(#paint1_linear_1142_3185)"/>
<path d="M157.783 115.763H136.982V121.266H157.783V115.763Z" fill="url(#paint2_linear_1142_3185)"/>
<path d="M195.137 58.9275C196.672 61.3642 198.476 63.6201 200.515 65.6528L195.137 58.9275Z" fill="white"/>
<path d="M159.047 65.4735C160.84 63.2608 162.631 61.0513 164.421 58.8448L159.047 65.4735Z" fill="white"/>
<path d="M210.252 207.88C210.252 207.945 163.363 208 105.502 208C47.6413 208 0.743835 207.945 0.743835 207.88C0.743835 207.816 47.6367 207.752 105.498 207.752C163.359 207.752 210.252 207.812 210.252 207.88Z" fill="#602D8A"/>
<path d="M177.641 190.481C177.641 190.481 175.141 173.28 175.343 163.272C175.545 153.265 175.343 142.007 175.343 142.007H176.497C176.497 142.007 175.715 161.87 176.566 173.85C177.416 185.829 179.65 190.481 179.65 190.481H177.65" fill="#263238"/>
<path d="M185.093 122.654C184.914 122.045 184.547 121.508 184.045 121.119C183.309 120.659 182.353 120.848 181.535 121.119C178.055 122.351 174.966 128.846 173.559 132.262L178.184 147.841C186.527 140.118 187.975 129.959 185.093 122.654Z" fill="#455A64"/>
<path d="M183.774 121.749C183.758 121.818 183.735 121.886 183.705 121.951L183.479 122.521C183.277 123.008 182.992 123.725 182.652 124.608C181.972 126.378 181.103 128.851 180.326 131.637C179.549 134.422 179.025 136.992 178.694 138.863C178.529 139.782 178.404 140.554 178.326 141.078C178.289 141.322 178.253 141.538 178.23 141.681C178.22 141.751 178.205 141.82 178.184 141.888C178.173 141.818 178.173 141.746 178.184 141.676C178.184 141.515 178.221 141.313 178.243 141.069C178.303 140.541 178.404 139.778 178.551 138.84C179.335 133.942 180.669 129.147 182.528 124.548C182.882 123.67 183.185 122.962 183.41 122.479L183.672 121.928C183.7 121.865 183.733 121.805 183.774 121.749Z" fill="#263238"/>
<path d="M176.124 151.596C171.794 149.201 169.229 144.701 168.999 139.75C168.834 136.293 169.896 132.896 171.1 129.637C171.171 129.343 171.343 129.084 171.587 128.906C171.784 128.835 171.995 128.814 172.201 128.846C172.408 128.878 172.603 128.962 172.769 129.09C175.917 130.883 177.825 134.303 178.841 137.783C179.57 140.09 179.815 142.524 179.558 144.931C179.16 147.46 177.956 149.793 176.124 151.582" fill="#455A64"/>
<path d="M176.124 151.596C176.119 151.527 176.119 151.458 176.124 151.389C176.124 151.228 176.124 151.031 176.124 150.787C176.124 150.272 176.101 149.518 176.06 148.594C175.937 146.181 175.669 143.777 175.256 141.396C174.773 138.605 174.194 136.105 173.762 134.298C173.55 133.415 173.375 132.689 173.247 132.161C173.196 131.922 173.15 131.728 173.113 131.577C173.095 131.509 173.085 131.44 173.081 131.37C173.114 131.432 173.137 131.499 173.15 131.568L173.32 132.142C173.463 132.639 173.66 133.365 173.89 134.266C174.35 136.063 174.961 138.564 175.444 141.364C175.861 143.751 176.111 146.164 176.193 148.585C176.221 149.505 176.221 150.272 176.193 150.792C176.193 151.031 176.193 151.251 176.17 151.389C176.165 151.46 176.149 151.53 176.124 151.596Z" fill="#263238"/>
<g opacity="0.3">
<path d="M176.124 151.596C171.794 149.201 169.229 144.701 168.999 139.75C168.834 136.293 169.896 132.896 171.1 129.637C171.171 129.343 171.343 129.084 171.587 128.906C171.784 128.835 171.995 128.814 172.201 128.846C172.408 128.878 172.603 128.962 172.769 129.09C175.917 130.883 177.825 134.303 178.841 137.783C179.57 140.09 179.815 142.524 179.558 144.931C179.16 147.46 177.956 149.793 176.124 151.582" fill="black"/>
</g>
<path d="M181.015 177.913C185.281 178.833 188.793 181.857 192.912 183.324C195.634 184.289 198.713 184.634 200.888 186.542C200.364 185.222 199.127 184.349 197.927 183.595C194.54 181.48 190.923 179.754 187.148 178.451C185.212 177.78 183.112 177.224 181.135 177.771" fill="#455A64"/>
<path d="M174.851 181.715C169.505 181.628 163.883 177.077 158.564 176.806C164.126 175.008 172.097 176.479 174.851 181.715Z" fill="#455A64"/>
<path d="M176.938 168.899C179.65 167.92 182.629 167.874 185.479 168.315C188.316 168.839 191.105 169.597 193.818 170.581C193.542 168.743 192.039 167.336 190.632 166.099C189.6 165.138 188.478 164.277 187.281 163.53C186.079 162.777 184.686 162.383 183.268 162.394C182.417 162.449 181.586 162.676 180.824 163.06C180.063 163.444 179.387 163.977 178.837 164.628C177.756 165.808 177.09 167.307 176.938 168.899Z" fill="#455A64"/>
<path d="M165.97 162.996C162.609 160.128 157.516 160.408 153.099 160.51C160.203 163.894 166.903 168.068 173.072 172.953C173.247 169.827 170.217 166.623 165.97 162.996Z" fill="#455A64"/>
<g opacity="0.3">
<path d="M165.97 162.996C162.609 160.128 157.516 160.408 153.099 160.51C160.203 163.894 166.903 168.068 173.072 172.953C173.247 169.827 170.217 166.623 165.97 162.996Z" fill="black"/>
</g>
<path d="M178.45 159.025C180.099 157.889 181.836 156.887 183.645 156.028C185.415 155.223 187.065 153.945 188.775 153.017C190.991 151.817 192.912 150.148 194.949 148.659C196.985 147.169 199.219 145.827 201.706 145.441C199.657 145.073 197.549 145.194 195.555 145.795C193.569 146.395 191.633 147.148 189.763 148.047C187.143 149.229 184.472 150.442 182.33 152.359C180.188 154.276 178.243 156.17 178.473 159.039" fill="#455A64"/>
<path d="M192.811 181.715L192.646 181.641L192.186 181.398C191.786 181.186 191.207 180.869 190.48 180.501C190.122 180.313 189.722 180.115 189.29 179.908C188.858 179.702 188.393 179.485 187.911 179.274C186.849 178.798 185.748 178.415 184.619 178.129C183.502 177.82 182.326 177.79 181.195 178.042C180.7 178.146 180.214 178.291 179.742 178.474C179.334 178.639 178.942 178.841 178.57 179.076C178.028 179.418 177.533 179.828 177.094 180.295C176.786 180.626 176.635 180.828 176.635 180.819C176.659 180.762 176.691 180.709 176.731 180.662C176.8 180.561 176.906 180.419 177.053 180.244C177.476 179.75 177.967 179.318 178.51 178.961C178.885 178.714 179.282 178.502 179.696 178.327C180.173 178.134 180.665 177.98 181.167 177.867C182.325 177.597 183.533 177.621 184.679 177.936C185.817 178.227 186.926 178.619 187.993 179.109C188.49 179.329 188.954 179.545 189.373 179.761C189.791 179.977 190.2 180.18 190.554 180.377C191.276 180.759 191.846 181.094 192.236 181.329L192.696 181.6C192.765 181.669 192.839 181.706 192.811 181.715Z" fill="#263238"/>
<path d="M170.865 179.067C170.98 179.083 171.091 179.115 171.196 179.164C171.495 179.27 171.787 179.396 172.07 179.541C173.951 180.495 175.505 181.988 176.533 183.83C176.687 184.106 176.826 184.392 176.947 184.685C176.998 184.79 177.035 184.901 177.057 185.016C177.025 185.016 176.828 184.556 176.414 183.899C175.881 183.014 175.233 182.204 174.488 181.49C173.742 180.773 172.908 180.155 172.005 179.651C171.311 179.279 170.852 179.099 170.865 179.067Z" fill="#263238"/>
<path d="M159.042 162.73C159.121 162.745 159.198 162.768 159.272 162.799L159.911 163.024L160.922 163.396C161.318 163.543 161.745 163.76 162.228 163.976C164.735 165.132 167.075 166.623 169.183 168.407C170.336 169.397 171.42 170.465 172.428 171.602C173.246 172.532 174.013 173.505 174.727 174.516C175.334 175.38 175.798 176.102 176.106 176.599C176.258 176.833 176.377 177.022 176.469 177.173C176.514 177.237 176.554 177.305 176.589 177.376C176.533 177.319 176.484 177.258 176.442 177.192C176.345 177.068 176.212 176.884 176.046 176.64C175.706 176.153 175.228 175.445 174.607 174.594C173.987 173.744 173.205 172.756 172.281 171.717C171.277 170.594 170.202 169.536 169.064 168.55C166.962 166.781 164.645 165.284 162.168 164.095C161.708 163.874 161.249 163.635 160.876 163.498L159.879 163.093L159.254 162.836C159.181 162.805 159.11 162.77 159.042 162.73Z" fill="#263238"/>
<path d="M184.955 165.892C184.811 165.893 184.667 165.875 184.527 165.837L184.036 165.75C183.847 165.713 183.622 165.709 183.378 165.686C182.108 165.573 180.832 165.825 179.701 166.412C179.081 166.733 178.517 167.151 178.027 167.649C177.622 168.051 177.261 168.496 176.952 168.977C176.676 169.427 176.432 169.895 176.221 170.379C176.235 170.237 176.27 170.097 176.327 169.965C176.464 169.597 176.636 169.243 176.841 168.908C177.138 168.407 177.494 167.943 177.903 167.529C178.601 166.797 179.459 166.238 180.41 165.895C181.361 165.553 182.379 165.437 183.383 165.557C183.626 165.589 183.842 165.603 184.045 165.649L184.532 165.773C184.676 165.799 184.818 165.839 184.955 165.892Z" fill="#263238"/>
<path d="M190.324 149.238C190.259 149.283 190.192 149.325 190.122 149.362L189.524 149.684C189.005 149.964 188.26 150.378 187.355 150.911C186.449 151.444 185.387 152.116 184.256 152.925C183.023 153.787 181.868 154.756 180.804 155.821C180.253 156.368 179.777 156.987 179.388 157.659C179.039 158.331 178.703 158.979 178.4 159.604C177.844 160.703 177.349 161.831 176.915 162.983C176.625 163.761 176.384 164.556 176.193 165.364C176.055 165.934 176.005 166.256 175.986 166.251C175.986 166.172 175.994 166.094 176.009 166.017C176.009 165.86 176.06 165.635 176.12 165.345C176.283 164.527 176.506 163.722 176.786 162.937C177.205 161.773 177.69 160.634 178.239 159.526C178.542 158.896 178.878 158.248 179.223 157.572C179.616 156.884 180.102 156.253 180.666 155.697C181.739 154.624 182.906 153.652 184.155 152.791C185.3 151.987 186.371 151.33 187.286 150.801C188.2 150.272 188.959 149.882 189.487 149.629L190.103 149.335C190.172 149.292 190.246 149.259 190.324 149.238Z" fill="#263238"/>
<path d="M175.343 165.414C175.291 165.266 175.255 165.111 175.237 164.955C175.173 164.624 175.095 164.21 175.003 163.718C174.504 161.001 173.65 158.362 172.465 155.867L171.946 154.722C171.874 154.585 171.816 154.442 171.771 154.295C171.867 154.416 171.948 154.548 172.01 154.69C172.153 154.952 172.35 155.333 172.589 155.807C173.844 158.288 174.704 160.949 175.136 163.695C175.219 164.219 175.279 164.647 175.311 164.941C175.335 165.098 175.346 165.256 175.343 165.414Z" fill="#263238"/>
<path d="M174.957 153.26C174.785 151.237 174.193 149.272 173.219 147.491C171.899 145.044 170.06 142.916 167.83 141.255C165.6 139.594 163.034 138.442 160.311 137.879L172.263 155.687L173.808 158.868C174.856 157.126 175.09 155.278 174.957 153.26Z" fill="#455A64"/>
<path d="M192.099 188.353H164.315V193.276H192.099V188.353Z" fill="#AF2245"/>
<path d="M166.388 192.297L168.756 207.577H187.198L190.021 192.297H166.388Z" fill="#AF2245"/>
<path d="M192.076 193.281C192.076 193.336 185.81 193.382 178.083 193.382C170.355 193.382 164.085 193.336 164.085 193.281C164.085 193.226 170.351 193.184 178.083 193.184C185.815 193.184 192.076 193.23 192.076 193.281Z" fill="#263238"/>
<path d="M145.454 12.5909H145.233C144.066 12.4034 143.01 11.7871 142.273 10.8624C142.072 10.6338 141.824 10.4507 141.547 10.3255C141.269 10.2002 140.968 10.1356 140.664 10.1361H110.214C109.53 10.1363 108.873 10.3978 108.375 10.867C107.562 11.6301 106.307 12.5403 104.96 12.5403C103.245 12.5403 102.013 11.0141 101.554 9.49717L103.006 9.06047C103.245 9.84653 103.962 11.0233 104.96 11.0233C105.626 11.0233 106.472 10.5636 107.341 9.76379C108.116 9.03033 109.142 8.62086 110.21 8.61917H140.669C141.19 8.6181 141.705 8.7278 142.18 8.94098C142.656 9.15416 143.081 9.46597 143.427 9.85573C143.92 10.481 144.619 10.9123 145.399 11.0739C146.208 11.1566 147.187 9.23515 147.578 7.85608L149.039 8.26061C148.906 8.70651 147.789 12.5909 145.454 12.5909Z" fill="url(#paint3_linear_1142_3185)"/>
<path d="M122.768 199.9H126.726L126.726 -1.52588e-05H122.768L122.768 199.9Z" fill="url(#paint4_linear_1142_3185)"/>
<path d="M108.83 202.314H139.482C139.482 201.674 139.228 201.06 138.776 200.607C138.323 200.155 137.709 199.9 137.069 199.9H111.239C110.6 199.902 109.987 200.156 109.536 200.609C109.084 201.061 108.83 201.674 108.83 202.314Z" fill="url(#paint5_linear_1142_3185)"/>
<path d="M134.187 204.534C134.186 205.213 134.386 205.876 134.763 206.441C135.139 207.006 135.675 207.446 136.302 207.706C136.929 207.966 137.618 208.034 138.284 207.902C138.95 207.77 139.561 207.443 140.041 206.963C140.521 206.484 140.848 205.872 140.98 205.206C141.112 204.541 141.044 203.851 140.784 203.224C140.523 202.597 140.083 202.062 139.518 201.685C138.954 201.309 138.29 201.108 137.612 201.109C136.704 201.11 135.833 201.472 135.191 202.114C134.549 202.756 134.188 203.626 134.187 204.534Z" fill="#263238"/>
<path d="M109.662 207.903C111.529 207.601 112.797 205.842 112.495 203.975C112.193 202.108 110.434 200.839 108.567 201.142C106.7 201.444 105.431 203.203 105.734 205.07C106.036 206.937 107.795 208.205 109.662 207.903Z" fill="#263238"/>
<path d="M124.727 207.942C126.591 207.623 127.843 205.852 127.524 203.988C127.204 202.124 125.434 200.872 123.569 201.191C121.705 201.511 120.453 203.281 120.773 205.146C121.092 207.01 122.863 208.262 124.727 207.942Z" fill="#263238"/>
<path d="M125.444 9.75C125.444 9.67645 128.937 9.61669 133.258 9.61669C137.579 9.61669 141.073 9.67645 141.073 9.75C141.073 9.82355 137.575 9.88331 133.258 9.88331C128.942 9.88331 125.444 9.82355 125.444 9.75Z" fill="#263238"/>
<path d="M125.513 9.71322C125.471 9.77758 125.223 9.62129 125.264 9.29951C125.306 8.97772 125.605 8.90417 125.623 8.97772C125.641 9.05127 125.545 9.17079 125.526 9.34088C125.508 9.51096 125.563 9.66266 125.513 9.71322Z" fill="#263238"/>
<path d="M122.736 20.07C122.662 20.07 122.603 16.6086 122.603 12.3472C122.603 8.08593 122.662 4.62447 122.736 4.62447C122.81 4.62447 122.865 8.08133 122.865 12.3472C122.865 16.6132 122.805 20.07 122.736 20.07Z" fill="#263238"/>
<path d="M145.031 58.3759H129.507V50.0785C129.51 48.7101 130.054 47.3985 131.022 46.4309C131.99 45.4633 133.301 44.9186 134.67 44.9162H139.85C140.529 44.915 141.202 45.0476 141.83 45.3063C142.458 45.5651 143.029 45.945 143.51 46.4244C143.991 46.9038 144.373 47.4732 144.634 48.1002C144.895 48.7271 145.03 49.3994 145.031 50.0785V58.3759ZM131.548 56.3533H143.008V50.0785C143.008 49.2458 142.678 48.4472 142.089 47.8584C141.5 47.2696 140.701 46.9388 139.869 46.9388H134.67C133.837 46.9388 133.038 47.2696 132.449 47.8584C131.861 48.4472 131.53 49.2458 131.53 50.0785L131.548 56.3533Z" fill="url(#paint6_linear_1142_3185)"/>
<path d="M124.763 86.9271H150.12V55.5258H124.763V86.9271Z" fill="url(#paint7_linear_1142_3185)"/>
<path d="M132.206 86.6467H150.12V55.5258H132.206V86.6467Z" fill="#F5F5F5"/>
<path d="M147.863 58.5598H134.481V71.9413H147.863V58.5598Z" fill="white"/>
<path d="M134.458 71.9413C134.458 71.9413 134.458 71.8678 134.458 71.7069C134.458 71.546 134.458 71.2977 134.458 71.0035C134.458 70.36 134.458 69.4498 134.426 68.296C134.426 65.9286 134.394 62.5774 134.371 58.5644V58.4494H134.458H147.84L147.973 58.5827V62.1821C147.973 63.362 147.973 64.5143 147.973 65.639C147.973 67.8869 147.973 70.006 147.973 71.9505V72.0654H147.858L138.136 71.9965L135.433 71.9689H134.725C134.647 71.975 134.568 71.975 134.49 71.9689H134.752H135.479L138.209 71.9367L147.863 71.8769L147.748 71.9919C147.748 70.0474 147.748 67.9282 147.748 65.6803C147.748 64.5587 147.748 63.4064 147.748 62.2235V58.6241L147.876 58.7528H134.495L134.61 58.6425C134.587 62.6234 134.568 65.9516 134.555 68.296C134.555 69.4544 134.532 70.3738 134.522 71.0265C134.522 71.3299 134.522 71.569 134.522 71.7528C134.504 71.8167 134.483 71.8796 134.458 71.9413Z" fill="#263238"/>
<path d="M125.195 55.5258C125.195 55.4523 130.762 55.3971 137.607 55.3971C144.452 55.3971 150.019 55.4523 150.019 55.5258C150.019 55.5994 144.456 55.6591 137.607 55.6591C130.758 55.6591 125.195 55.5948 125.195 55.5258Z" fill="#263238"/>
<path d="M124.759 86.9272C124.685 86.9272 124.625 79.9491 124.625 71.3483C124.625 62.7475 124.685 55.7649 124.759 55.7649C124.832 55.7649 124.892 62.7383 124.892 71.3483C124.892 79.9583 124.832 86.9272 124.759 86.9272Z" fill="#263238"/>
<path d="M132.201 86.9272C132.132 86.9272 132.072 79.9491 132.072 71.3483C132.072 62.7475 132.132 55.7649 132.201 55.7649C132.27 55.7649 132.334 62.7383 132.334 71.3483C132.334 79.9583 132.275 86.9272 132.201 86.9272Z" fill="#263238"/>
<path d="M145.808 76.598H147.858V74.5477H145.808V76.598Z" fill="#455A64"/>
<path d="M142.972 76.598H145.026V74.5477H142.972V76.598Z" fill="#455A64"/>
<path d="M140.144 76.598H142.195V74.5477H140.144V76.598Z" fill="#455A64"/>
<path d="M137.313 76.598H139.363V74.5477H137.313V76.598Z" fill="#455A64"/>
<path d="M134.486 76.598H136.536V74.5477H134.486V76.598Z" fill="#455A64"/>
<path d="M145.808 79.3193H147.858V77.2691H145.808V79.3193Z" fill="#455A64"/>
<path d="M142.972 79.3193H145.026V77.2691H142.972V79.3193Z" fill="#455A64"/>
<path d="M140.144 79.3193H142.195V77.2691H140.144V79.3193Z" fill="#455A64"/>
<path d="M137.313 79.3193H139.363V77.2691H137.313V79.3193Z" fill="#455A64"/>
<path d="M134.486 79.3193H136.536V77.2691H134.486V79.3193Z" fill="#455A64"/>
<path d="M145.808 82.0361H147.858V79.9859H145.808V82.0361Z" fill="#455A64"/>
<path d="M142.972 82.0361H145.026V79.9859H142.972V82.0361Z" fill="#455A64"/>
<path d="M140.144 82.0361H142.195V79.9859H140.144V82.0361Z" fill="#455A64"/>
<path d="M134.481 82.0361H139.368V79.9859H134.481V82.0361Z" fill="#AF2245"/>
<path d="M135.148 65.4735C135.217 65.4402 135.292 65.4185 135.368 65.4091C135.515 65.3769 135.727 65.331 136.012 65.2942C136.356 65.2435 136.706 65.2435 137.051 65.2942C137.521 65.3598 137.956 65.5798 138.287 65.9194C138.477 66.1283 138.609 66.3836 138.669 66.6595C138.726 66.9485 138.746 67.2435 138.729 67.5375C138.703 67.8342 138.703 68.1326 138.729 68.4293C138.775 68.7285 138.904 69.0088 139.101 69.2383C139.194 69.352 139.321 69.4324 139.464 69.4673C139.607 69.5021 139.757 69.4895 139.892 69.4314C140.172 69.2665 140.386 69.0076 140.494 68.7005C140.752 68.0119 140.923 67.2939 141.004 66.5629C141.105 65.809 141.004 65.0735 141.091 64.3197C141.103 63.9439 141.23 63.5807 141.454 63.279C141.678 62.9774 141.99 62.7518 142.346 62.6326C142.522 62.5943 142.705 62.5971 142.879 62.641C143.054 62.6849 143.216 62.7685 143.353 62.8854C143.6 63.0976 143.795 63.3633 143.923 63.6623C144.167 64.2277 144.249 64.7747 144.479 65.2023C144.68 65.5895 145.004 65.8997 145.399 66.0849C145.701 66.2261 146.03 66.2998 146.364 66.3009C146.652 66.289 146.936 66.2379 147.21 66.1492C147.151 66.1966 147.084 66.2339 147.012 66.2595C146.808 66.3454 146.59 66.3937 146.369 66.402C146.016 66.4231 145.663 66.3601 145.339 66.2182C144.903 66.0352 144.54 65.7116 144.309 65.2988C144.052 64.8391 143.951 64.2783 143.716 63.7588C143.597 63.4943 143.421 63.2591 143.201 63.0693C143.092 62.975 142.961 62.908 142.821 62.8736C142.68 62.8393 142.533 62.8386 142.392 62.8716C142.09 62.9587 141.829 63.1511 141.657 63.4141C141.475 63.6974 141.364 64.0208 141.335 64.3564C141.266 65.046 141.363 65.8182 141.257 66.5951C141.175 67.3524 140.994 68.0958 140.719 68.8062C140.588 69.1734 140.326 69.4795 139.984 69.6658C139.802 69.7432 139.6 69.76 139.408 69.7136C139.216 69.6673 139.044 69.5602 138.917 69.4084C138.69 69.1495 138.543 68.8301 138.494 68.489C138.466 68.1832 138.466 67.8755 138.494 67.5697C138.537 67.3105 138.526 67.0454 138.464 66.7903C138.401 66.5352 138.288 66.2952 138.131 66.0849C137.831 65.7666 137.436 65.5538 137.005 65.4781C136.674 65.4214 136.337 65.4059 136.003 65.4321C135.465 65.4413 135.152 65.4919 135.148 65.4735Z" fill="#AF2245"/>
<path d="M94.7916 32.8402C94.7726 33.4865 94.9664 34.1213 95.3432 34.6467C95.9592 35.3501 97.0762 35.442 98.0645 35.4788L107.861 35.8419C108.83 35.8787 109.938 35.8419 110.577 35.1984C111.037 34.7387 111.782 33.4837 111.837 32.8494C112.328 27.0698 112.206 21.2546 111.474 15.5007C111.271 13.7815 110.945 12.0255 109.943 10.5636C108.941 9.10184 107.672 8.02157 105.213 7.5297C100.616 6.84477 96.7682 8.10431 95.7615 10.5774C94.8651 12.7656 95.0076 14.8158 94.8835 17.151C94.538 22.3741 94.5073 27.6133 94.7916 32.8402ZM101.586 8.98232C101.706 8.82553 101.865 8.70307 102.047 8.62723C102.23 8.55139 102.429 8.52483 102.625 8.55021C102.902 8.54854 103.171 8.63748 103.393 8.80348C103.615 8.96948 103.776 9.20341 103.852 9.46959C103.902 9.73186 103.861 10.0034 103.734 10.2386C103.608 10.4739 103.404 10.6584 103.158 10.7613C102.9 10.8706 102.615 10.8988 102.341 10.8421C102.066 10.7855 101.816 10.6466 101.623 10.4441C101.46 10.2366 101.369 9.98253 101.363 9.7193C101.356 9.45607 101.434 9.19769 101.586 8.98232Z" fill="#F5F5F5"/>
<path d="M101.586 8.98232C101.586 8.98232 101.558 9.08805 101.508 9.27192C101.433 9.51763 101.433 9.78011 101.508 10.0258C101.575 10.1972 101.686 10.3483 101.83 10.4642C101.973 10.5802 102.144 10.6572 102.326 10.6878C102.542 10.7438 102.77 10.7368 102.983 10.6676C103.195 10.5984 103.384 10.4698 103.526 10.297C103.667 10.1365 103.748 9.93155 103.755 9.71755C103.762 9.50356 103.694 9.29392 103.562 9.12482C103.45 8.98743 103.311 8.87539 103.152 8.79614C102.994 8.71688 102.82 8.67223 102.643 8.66514H102.62C102.353 8.63336 102.084 8.68987 101.852 8.82603C101.682 8.92256 101.623 9.0191 101.604 9.0099C101.586 9.00071 101.604 8.87659 101.793 8.73869C102.039 8.54263 102.353 8.45177 102.666 8.48586H102.643C102.857 8.48166 103.069 8.52625 103.264 8.61625C103.458 8.70625 103.629 8.83929 103.765 9.00531C103.933 9.208 104.024 9.46362 104.022 9.72702C104.018 10.0051 103.921 10.2738 103.746 10.4901C103.574 10.7003 103.343 10.8557 103.084 10.9373C102.824 11.0189 102.546 11.0233 102.284 10.9498C102.071 10.9031 101.873 10.8007 101.712 10.6529C101.55 10.5052 101.431 10.3174 101.365 10.1086C101.296 9.82538 101.325 9.52717 101.448 9.26273C101.494 9.05587 101.572 8.97313 101.586 8.98232Z" fill="#263238"/>
<path d="M94.7916 32.8402C94.7767 32.7705 94.7675 32.6998 94.764 32.6287C94.764 32.477 94.7364 32.2747 94.7134 32.0127C94.672 31.4703 94.6261 30.6704 94.5847 29.6361C94.5019 27.5721 94.4928 24.5796 94.6307 20.902C94.6904 19.0633 94.8237 17.0407 94.8743 14.8709C94.8944 13.7396 95.0487 12.6147 95.334 11.5198C95.4801 10.9383 95.7158 10.3831 96.0327 9.87411C96.3834 9.36326 96.8337 8.92858 97.3566 8.59618C98.4325 7.92634 99.6424 7.50106 100.901 7.35042C102.205 7.17571 103.527 7.17571 104.831 7.35042C106.204 7.50629 107.508 8.03575 108.601 8.88119C109.689 9.79602 110.504 10.9939 110.954 12.3426C111.359 13.6895 111.613 15.077 111.713 16.4798C111.86 17.8467 111.978 19.1935 112.067 20.5205C112.241 23.1775 112.287 25.7426 112.209 28.1881C112.169 29.414 112.107 30.603 112.021 31.7553C111.998 32.0403 111.975 32.3299 111.952 32.6103C111.941 32.9054 111.879 33.1963 111.768 33.4699C111.549 33.9869 111.27 34.4761 110.936 34.9272C110.775 35.1581 110.576 35.3601 110.347 35.5247C110.115 35.6751 109.858 35.784 109.589 35.8465C109.075 35.9539 108.55 35.9941 108.026 35.9661L105.135 35.8511L100.156 35.6443L98.1151 35.5569C97.537 35.5541 96.9612 35.4816 96.4005 35.3409C95.9435 35.2302 95.5341 34.9756 95.2329 34.6146C95.0342 34.3424 94.902 34.0276 94.8467 33.6952C94.7935 33.4227 94.7689 33.1454 94.7732 32.8677C94.7883 32.9358 94.7976 33.005 94.8007 33.0746C94.8007 33.2125 94.8421 33.4194 94.8973 33.6814C94.9558 34.0152 95.0929 34.3304 95.2972 34.6008C95.5906 34.9439 95.9874 35.1826 96.428 35.2811C96.9826 35.4103 97.5504 35.4735 98.1197 35.4696L100.161 35.5385L105.139 35.704L108.035 35.8006C108.539 35.8273 109.045 35.7871 109.538 35.681C109.788 35.6288 110.025 35.5271 110.235 35.3818C110.445 35.2366 110.624 35.0507 110.761 34.8352C111.083 34.3981 111.351 33.9244 111.561 33.424C111.665 33.1715 111.721 32.9018 111.726 32.6287C111.749 32.3483 111.768 32.0587 111.791 31.7737C111.874 30.6214 111.932 29.4354 111.966 28.2157C112.039 25.7793 111.989 23.2189 111.814 20.5757C111.722 19.2518 111.602 17.9079 111.455 16.5442C111.354 15.1668 111.104 13.8044 110.711 12.4805C110.275 11.1766 109.488 10.0184 108.435 9.13402C107.38 8.31665 106.121 7.80465 104.794 7.65382C103.513 7.48143 102.214 7.48143 100.933 7.65382C99.7053 7.79309 98.5226 8.19778 97.4669 8.83982C96.9712 9.15741 96.5432 9.56984 96.2074 10.0534C95.9036 10.5412 95.6772 11.0731 95.5363 11.6301C95.2541 12.7069 95.0998 13.8132 95.0766 14.9261C95.0168 17.0912 94.8697 19.1139 94.8007 20.9572C94.6399 24.6347 94.6215 27.6273 94.672 29.6913C94.695 30.721 94.7318 31.5301 94.7548 32.0633C94.7548 32.3253 94.7548 32.523 94.7778 32.6839C94.7857 32.7356 94.7903 32.7878 94.7916 32.8402Z" fill="#263238"/>
<path d="M97.6003 33.3826L107.893 33.7917C108.321 33.8255 108.745 33.6921 109.077 33.4196C109.409 33.147 109.622 32.7564 109.672 32.3299L109.984 19.2793H95.9684V31.8243C95.9862 32.2446 96.1661 32.6417 96.4704 32.9322C96.7746 33.2227 97.1796 33.3842 97.6003 33.3826Z" fill="#AF2245"/>
<path d="M107.69 10.3154C107.69 10.3154 107.746 10.3614 107.833 10.4625C107.958 10.6088 108.075 10.7623 108.182 10.9222C108.568 11.5231 108.877 12.1702 109.102 12.8483C109.435 13.8569 109.657 14.8989 109.764 15.9558C109.902 17.1464 109.961 18.4565 110.016 19.831C110.122 22.5891 110.09 25.0714 110.016 26.8734C109.98 27.7928 109.934 28.5007 109.892 29.0018C109.881 29.264 109.852 29.5251 109.805 29.7832C109.781 29.5217 109.781 29.2587 109.805 28.9972C109.805 28.4501 109.833 27.733 109.846 26.8688C109.874 25.0668 109.879 22.5799 109.773 19.8402C109.718 18.4611 109.667 17.1602 109.543 15.9834C109.448 14.9407 109.248 13.9103 108.945 12.9081C108.638 11.9944 108.216 11.1232 107.69 10.3154Z" fill="#263238"/>
<path d="M96.3039 23.4165C96.1868 22.9374 96.1191 22.4476 96.1016 21.9547C96.0235 21.0354 95.9591 19.785 95.9637 18.3967C95.9683 17.0085 96.0465 15.7443 96.1338 14.8342C96.1532 14.3421 96.2256 13.8535 96.3499 13.3769C96.3762 13.8674 96.3655 14.3591 96.3177 14.8479C96.2809 15.7673 96.235 17.0085 96.2258 18.3967C96.2166 19.785 96.2533 21.0354 96.2855 21.9409C96.3282 22.4317 96.3344 22.9249 96.3039 23.4165Z" fill="#263238"/>
<path d="M97.9404 33.5619C98.5265 33.5179 99.115 33.5179 99.701 33.5619C100.786 33.5619 102.284 33.6262 103.944 33.6906L106.275 33.7917C106.9 33.8484 107.531 33.8221 108.15 33.7136C108.56 33.632 108.944 33.4539 109.272 33.1941C109.502 33.0057 109.589 32.8586 109.607 32.8723C109.626 32.8861 109.561 33.0424 109.341 33.2677C109.02 33.5747 108.623 33.7906 108.191 33.8929C107.56 34.0323 106.911 34.0787 106.265 34.0308L103.93 33.948C102.275 33.8837 100.777 33.8101 99.6918 33.7458C99.1041 33.73 98.5186 33.6686 97.9404 33.5619Z" fill="#263238"/>
<path d="M98.2254 28.9374H106.996V26.0092H98.2254V28.9374Z" fill="white"/>
<path d="M99.678 27.448C100.622 27.3181 101.576 27.2751 102.528 27.3193C103.48 27.2752 104.434 27.3183 105.378 27.448C104.434 27.5777 103.48 27.6208 102.528 27.5767C101.576 27.621 100.622 27.5779 99.678 27.448Z" fill="#263238"/>
<path d="M97.7382 22.2949C97.9 22.347 98.0545 22.4196 98.1978 22.511C98.4737 22.6627 98.8644 22.8971 99.3471 23.1913C100.303 23.7843 101.6 24.6439 102.983 25.6598C104.367 26.6757 105.576 27.6641 106.426 28.418C106.854 28.7857 107.189 29.0937 107.419 29.3098C107.546 29.4143 107.659 29.5348 107.755 29.6683C107.25 29.3282 106.767 28.9583 106.307 28.5605C105.429 27.8617 104.211 26.9056 102.832 25.8897C101.452 24.8738 100.175 23.9958 99.2459 23.366C98.7217 23.0404 98.2182 22.6827 97.7382 22.2949Z" fill="white"/>
<path d="M101.558 22.8281C102.357 23.2132 103.116 23.6751 103.824 24.2072C104.586 24.6677 105.3 25.202 105.957 25.8023C105.159 25.4173 104.4 24.9554 103.691 24.4233C102.93 23.9628 102.215 23.4285 101.558 22.8281Z" fill="white"/>
<path d="M102.032 10.5912C101.268 9.05746 100.732 7.42062 100.441 5.73232L101.94 5.55764C101.94 5.55764 102.882 9.11103 103.608 10.104L102.032 10.5912Z" fill="url(#paint8_linear_1142_3185)"/>
<path d="M99.5953 188.491L101.894 207.724L96.6947 207.775L89.3075 188.509L99.5953 188.491Z" fill="#263238"/>
<path d="M22.887 94.9717C22.8697 91.8601 24.0318 88.8574 26.1393 86.5681C28.2469 84.2789 31.1435 82.8731 34.2459 82.6337C47.7056 81.5718 69.5868 80.2341 80.4722 81.6867C82.4593 81.9493 84.3172 82.818 85.7929 84.1744C87.2685 85.5308 88.2903 87.309 88.7191 89.267L95.4995 120.411L124.143 120.788C124.143 120.788 133.056 120.586 135.557 125.334C138.122 130.207 137.731 138.573 137.198 143.262C136.844 146.379 132.39 188.771 132.39 188.771L23.6271 188.583L22.887 94.9717Z" fill="#455A64"/>
<path d="M76.312 188.656L69.026 207.963L63.8269 207.913L66.1253 188.606L76.312 188.656Z" fill="#263238"/>
<path d="M131.323 188.56L133.01 207.2L127.811 207.15L121.302 188.541L131.323 188.56Z" fill="#263238"/>
<path d="M35.4687 188.509L28.0861 207.88L22.887 207.83L25.1855 188.491L35.4687 188.509Z" fill="#263238"/>
<path d="M94.2767 115.299C94.2767 115.299 107.998 118.342 107.286 108.9C106.573 99.4583 98.6437 96.3462 98.6437 88.9544C98.6437 81.5626 101.82 79.8158 107.336 77.5265C110.154 76.3635 112.016 71.5506 106.458 68.3327C100.685 64.9586 98.7771 65.9424 99.508 53.8985C100.239 41.8547 103.429 42.1994 102.726 34.895" stroke="url(#paint9_linear_1142_3185)" stroke-width="4" stroke-miterlimit="10"/>
<path d="M94.7042 115.382C94.7042 115.382 107.998 118.342 107.286 108.9C106.573 99.4583 98.6438 96.3462 98.6438 88.9544C98.6438 81.5626 101.82 79.8158 107.336 77.5265C110.154 76.3635 112.016 71.5506 106.458 68.3327C100.685 64.9586 98.7771 65.9424 99.508 53.8985C100.239 41.8547 103.429 42.1994 102.726 34.895" stroke="#AF2245" stroke-miterlimit="10"/>
<path d="M79.1667 158.459C79.1667 158.514 82.2237 157.54 85.9471 156.303C89.6706 155.067 92.6816 154.005 92.6632 153.95C92.6448 153.895 89.6109 154.869 85.8828 156.101C82.1547 157.333 79.1484 158.404 79.1667 158.459Z" fill="#455A64"/>
<path d="M66.1208 139.915L77.5578 138.362C77.5578 138.362 99.4988 134.997 111.575 133.503C114.035 133.194 116.525 133.194 118.985 133.503C123.416 134.39 126.234 141.92 126.823 148.64C127.103 152.014 127.563 194.88 127.563 194.88L117.909 194.853L113.156 169.138L111.566 152.64L93.0861 157.347L68.9019 157.264C65.9231 154.924 66.1208 139.915 66.1208 139.915Z" fill="#FFBF9D"/>
<path d="M111.575 146.057C111.553 146.263 111.553 146.471 111.575 146.678C111.575 147.073 111.648 147.647 111.726 148.355C111.878 149.767 112.136 151.716 112.444 153.872C112.752 156.028 113.06 157.963 113.294 159.36C113.414 160.064 113.515 160.629 113.593 161.02C113.622 161.224 113.67 161.426 113.735 161.622C113.732 161.415 113.712 161.209 113.676 161.006C113.616 160.574 113.538 160.013 113.446 159.337C113.239 157.894 112.963 155.968 112.66 153.821C112.356 151.674 112.085 149.771 111.878 148.328C111.791 147.652 111.717 147.091 111.658 146.659C111.648 146.456 111.62 146.255 111.575 146.057Z" fill="#455A64"/>
<path d="M108.716 147.859C108.735 148.139 108.81 148.412 108.936 148.663C109.191 149.292 109.543 149.877 109.98 150.396C110.412 150.918 110.926 151.367 111.501 151.725C111.73 151.89 111.987 152.011 112.26 152.083C110.653 151.095 109.41 149.613 108.716 147.859Z" fill="#455A64"/>
<path d="M116.645 187.489L118.125 196.14L117.491 199.992L117.293 204.373C117.252 205.016 117.466 205.649 117.89 206.134C118.314 206.619 118.912 206.916 119.555 206.961L142.65 207.618C142.81 207.625 142.968 207.585 143.106 207.503C143.244 207.422 143.355 207.302 143.427 207.159C143.762 206.455 144.121 205.15 142.76 204.318C141.151 203.316 127.563 194.88 127.563 194.88L127.37 186.955L116.645 187.489Z" fill="#FFBF9D"/>
<path d="M128.082 207.88C128.082 207.88 127.678 201.141 132.265 198.121L132.647 197.97C132.647 197.97 142.935 203.946 143.679 204.865C144.976 206.451 144.015 207.756 144.015 207.756L128.082 207.88Z" fill="url(#paint10_linear_1142_3185)"/>
<path d="M128.689 206.455H115.721V207.361H128.689V206.455Z" fill="#AF2245"/>
<path d="M84.5865 118.839C84.5865 118.839 86.2413 127.306 89.6752 128.685C93.1091 130.064 113.478 129.775 113.478 129.775L114.361 123.762L95.5684 119.275L93.6331 110.601L83.7314 111.286L84.5865 118.839Z" fill="#FFBF9D"/>
<path d="M110.274 123.578C111.627 123.101 113.026 122.762 114.448 122.567C116.608 122.3 120.916 122.728 121.219 122.797C121.522 122.866 125.536 125.251 125.536 125.251L128.147 128.598C128.147 128.598 127.687 129.835 126.593 128.598C125.978 127.889 125.316 127.223 124.612 126.603L121.716 125.472L124.202 127.463L126.423 132.239C126.423 132.239 125.554 133.199 124.726 132.239C123.899 131.278 122.428 129.527 122.428 129.527L123.683 132.873C123.683 132.873 123.131 133.746 122.428 133.089C122.029 132.717 121.652 132.321 121.302 131.903C121.302 131.903 120.925 132.974 120.254 132.11C119.822 131.564 119.332 131.068 118.792 130.63L116.034 129.632C116.034 129.632 113.078 130.005 111.745 129.531C110.412 129.058 110.274 123.578 110.274 123.578Z" fill="#FFBF9D"/>
<path d="M92.7643 122.378C92.9373 121.637 93.3116 120.957 93.8461 120.414C94.3806 119.872 95.0546 119.487 95.7937 119.303C94.4617 119.951 93.3925 121.037 92.7643 122.378Z" fill="#FF9A6C"/>
<path d="M112.241 125.385C112.571 125.993 113.063 126.498 113.661 126.845C114.26 127.192 114.942 127.368 115.634 127.352C116.397 127.325 117.16 127.063 117.909 127.219C118.948 127.435 119.652 128.391 120.585 128.897C121.012 129.127 121.642 129.209 121.904 128.796C121.968 128.65 121.997 128.491 121.991 128.332C121.984 128.173 121.942 128.017 121.867 127.876C121.506 126.964 120.948 126.142 120.233 125.47C119.518 124.798 118.663 124.291 117.73 123.987" fill="#FFBF9D"/>
<path d="M117.744 123.969C117.744 123.969 117.808 123.969 117.923 124.006C118.09 124.052 118.255 124.109 118.415 124.176C119.012 124.425 119.567 124.764 120.061 125.182C120.801 125.801 121.399 126.572 121.812 127.444C121.94 127.698 122.036 127.967 122.097 128.244C122.124 128.397 122.114 128.555 122.069 128.704C122.009 128.867 121.892 129.003 121.739 129.085C121.587 129.15 121.423 129.184 121.258 129.184C121.093 129.184 120.93 129.15 120.778 129.085C120.485 128.971 120.209 128.816 119.96 128.626C119.506 128.24 119.027 127.887 118.525 127.568C118.056 127.316 117.517 127.224 116.99 127.306C116.486 127.388 115.978 127.437 115.468 127.453C115.015 127.437 114.568 127.339 114.149 127.164C113.544 126.917 113.016 126.514 112.618 125.996C112.508 125.853 112.413 125.699 112.333 125.536C112.278 125.426 112.255 125.371 112.264 125.366C112.274 125.362 112.398 125.578 112.687 125.918C113.1 126.395 113.625 126.763 114.213 126.989C114.615 127.145 115.042 127.228 115.473 127.233C115.974 127.212 116.473 127.157 116.967 127.067C117.248 127.033 117.532 127.033 117.813 127.067C118.109 127.115 118.395 127.213 118.659 127.357C119.173 127.677 119.663 128.035 120.125 128.428C120.354 128.615 120.608 128.769 120.879 128.888C121.001 128.939 121.132 128.965 121.265 128.965C121.398 128.965 121.529 128.939 121.651 128.888C121.754 128.826 121.833 128.732 121.877 128.621C121.921 128.509 121.927 128.387 121.895 128.272C121.839 128.014 121.753 127.764 121.637 127.527C121.243 126.678 120.676 125.92 119.973 125.302C119.305 124.743 118.553 124.293 117.744 123.969Z" fill="#FF9A6C"/>
<path d="M90.498 115.911L94.4146 114.067L94.957 116.504L91.137 118.356L90.498 115.911Z" fill="url(#paint11_linear_1142_3185)"/>
<path d="M53.7827 139.819L62.7742 136.96C62.7742 136.96 85.8414 134.629 97.9082 133.135C100.089 132.837 102.304 132.892 104.468 133.296C108.899 134.183 110.389 139.506 111.152 142.812C111.915 146.117 113.179 195.699 113.179 195.699L102.841 196.388L97.5865 176.47C96.2481 171.91 95.3991 167.221 95.0536 162.482L94.4882 154.63L79.0518 157.627L57.2028 157.462C54.2148 155.108 53.7827 139.819 53.7827 139.819Z" fill="#FFBF9D"/>
<path d="M93.3987 146.838C93.3827 147.043 93.3827 147.249 93.3987 147.454C93.4263 147.854 93.4769 148.429 93.5504 149.137C93.7067 150.548 93.9595 152.497 94.2675 154.653C94.5755 156.809 94.8835 158.74 95.1225 160.142C95.2375 160.845 95.3432 161.411 95.4167 161.801C95.4469 162.006 95.4946 162.207 95.5592 162.403C95.5625 162.197 95.5425 161.99 95.4995 161.787C95.4397 161.355 95.3662 160.795 95.2742 160.119C95.0674 158.675 94.7916 156.749 94.4836 154.603C94.1756 152.456 93.909 150.553 93.7067 149.109C93.6148 148.434 93.5412 147.873 93.486 147.441C93.4738 147.238 93.4445 147.036 93.3987 146.838Z" fill="#455A64"/>
<path d="M90.5302 148.64C90.5557 148.919 90.6304 149.192 90.7509 149.445C91.2646 150.71 92.1637 151.781 93.3206 152.506C93.5479 152.671 93.8034 152.792 94.0744 152.865C92.4707 151.873 91.2282 150.392 90.5302 148.64Z" fill="#455A64"/>
<path d="M100.938 187.268L102.946 196.866L102.638 201.61L102.436 204.368C102.395 205.011 102.609 205.644 103.033 206.129C103.457 206.614 104.055 206.912 104.698 206.956L127.737 207.448C127.943 207.415 128.138 207.336 128.31 207.219C128.481 207.101 128.625 206.947 128.73 206.768C129.066 206.06 129.259 205.132 127.903 204.299C126.294 203.311 113.193 195.676 113.193 195.676L112.761 186.882L100.938 187.268Z" fill="#FFBF9D"/>
<path d="M113.179 207.775C113.179 207.775 112.54 201.004 117.128 197.983L117.509 197.827C117.509 197.827 127.802 203.803 128.542 204.722C128.914 205.147 129.153 205.672 129.231 206.232C129.309 206.791 129.221 207.361 128.979 207.871L113.179 207.775Z" fill="url(#paint12_linear_1142_3185)"/>
<path d="M113.551 206.318H100.584V207.88H113.551V206.318Z" fill="url(#paint13_linear_1142_3185)"/>
<path d="M128.873 207.623C128.873 207.623 128.914 207.398 128.96 207.002C129.028 206.447 128.941 205.884 128.707 205.375C128.542 205.031 128.298 204.73 127.995 204.497C127.668 204.249 127.273 204.014 126.873 203.757L124.239 202.116L119.458 199.123L118.02 198.204C117.836 198.101 117.665 197.978 117.509 197.836C117.703 197.915 117.89 198.012 118.066 198.126L119.546 198.985C120.787 199.726 122.492 200.76 124.363 201.923C125.283 202.502 126.202 203.063 126.993 203.582C127.393 203.844 127.774 204.083 128.119 204.355C128.437 204.612 128.692 204.94 128.864 205.311C129.094 205.851 129.16 206.448 129.052 207.025C129.026 207.181 128.987 207.335 128.937 207.485C128.905 207.572 128.882 207.623 128.873 207.623Z" fill="#263238"/>
<path d="M91.3439 133.319L85.4415 124.769C86.6321 118.333 87.8778 115.731 88.5306 112.536C90.2912 103.609 86.6918 93.7306 86.6918 93.7306L84.9174 85.3688L77.4475 83.0704L67.1551 82.8313L57.2809 84.5965L54.2792 120.172C52.3347 131.384 53.8563 138.1 53.7781 139.796L91.3439 133.319Z" fill="#602D8A"/>
<path d="M56.2788 157.568L92.6494 157.595L92.4288 162.128C92.4288 162.128 97.4302 165.345 105.456 164.311C111.373 163.562 119.178 161.167 122.879 159.953C124.272 159.5 125.779 159.536 127.149 160.054L129.323 160.877L126.708 143.248C126.708 143.248 124.699 131.977 115.216 132.349C105.732 132.721 105.498 133.53 105.498 133.53C103.706 132.507 101.667 131.995 99.6045 132.05C96.1614 132.142 53.6908 135.047 53.6908 135.047C53.4977 144.094 53.4471 152.024 56.2788 157.568Z" fill="#602D8A"/>
<path d="M92.2035 133.153C92.2035 133.218 87.8181 134.119 82.3846 135.162C76.951 136.206 72.538 137.001 72.5242 136.941C72.5104 136.882 76.9051 135.976 82.3432 134.928C87.7813 133.88 92.1897 133.089 92.2035 133.153Z" fill="#263238"/>
<path d="M114.301 158.487C114.266 158.4 114.243 158.309 114.232 158.216C114.195 158.009 114.144 157.756 114.08 157.42C113.956 156.703 113.781 155.71 113.57 154.501C113.152 152.005 112.586 148.608 111.966 144.848C111.72 143.075 111.317 141.327 110.761 139.626C110.297 138.243 109.579 136.96 108.642 135.843C108.01 135.092 107.249 134.46 106.394 133.976C105.783 133.641 105.41 133.517 105.42 133.517C105.513 133.531 105.604 133.557 105.691 133.595C105.948 133.679 106.197 133.785 106.435 133.912C107.323 134.372 108.115 134.996 108.771 135.751C109.741 136.872 110.487 138.169 110.968 139.571C111.542 141.28 111.954 143.039 112.2 144.825C112.798 148.585 113.335 151.987 113.735 154.478C113.915 155.697 114.066 156.69 114.172 157.411C114.218 157.738 114.25 158.004 114.282 158.211C114.298 158.302 114.305 158.395 114.301 158.487Z" fill="#263238"/>
<path d="M84.9221 85.3688C84.9221 85.3688 88.5582 85.7871 91.137 90.8529C93.7159 95.9187 97.2601 110.298 97.2601 110.298L84.2095 111.346L84.9221 85.3688Z" fill="#602D8A"/>
<path d="M87.6204 114.679C87.8963 113.742 88.1128 112.788 88.2686 111.824C88.4065 110.774 88.4649 109.715 88.4432 108.657C88.4092 107.359 88.3064 106.064 88.1352 104.777C87.7629 102.019 87.2159 99.5824 86.8251 97.808C86.6367 96.9484 86.4804 96.2404 86.3654 95.7026C86.2964 95.4483 86.2502 95.1883 86.2275 94.9257C86.3216 95.171 86.3969 95.423 86.4528 95.6796C86.5861 96.1715 86.77 96.884 86.986 97.7666C87.5704 100.066 88.0307 102.396 88.3651 104.745C88.5375 106.04 88.6342 107.345 88.6547 108.652C88.6708 109.729 88.5939 110.806 88.4249 111.87C88.3881 112.091 88.3513 112.307 88.3191 112.509C88.2869 112.711 88.218 112.895 88.1766 113.074C88.1079 113.377 88.0189 113.675 87.91 113.966C87.8316 114.211 87.7348 114.449 87.6204 114.679Z" fill="#263238"/>
<path d="M90.4797 153.191C91.4672 154.825 92.313 156.539 93.008 158.317C92.4819 157.518 92.0208 156.679 91.6289 155.807C91.1732 154.969 90.7888 154.094 90.4797 153.191Z" fill="#263238"/>
<path opacity="0.3" d="M84.2095 157.568C84.2095 157.568 83.6349 140.945 81.8605 135.65C80.0861 130.354 71.1268 127.205 71.1268 127.205L67.3665 129.085L77.0476 157.531L84.2095 157.568Z" fill="black"/>
<path opacity="0.3" d="M106.748 134.123C107.921 134.122 109.069 134.465 110.05 135.11C111.03 135.754 111.8 136.673 112.264 137.75C113.951 141.538 118.112 161.438 118.112 161.438L114.383 162.472L111.708 143.188C111.589 141.408 111.083 139.675 110.226 138.11C109.37 136.544 108.183 135.184 106.748 134.123Z" fill="black"/>
<path opacity="0.3" d="M56.4673 118.356L57.9061 112.619H59.8644L61.9422 99.1825L57.1384 108.772L55.0285 118.356H56.4673Z" fill="black"/>
<path d="M57.7406 84.5552C57.7406 84.5552 51.305 85.0562 48.5836 92.1124C46.2852 98.116 42.2215 107.103 42.2215 107.103L58.421 111.396C58.421 111.396 61.7997 100.52 63.0178 94.0615C64.1257 88.4349 58.3474 85.1482 57.7406 84.5552Z" fill="#602D8A"/>
<path d="M45.0946 107.848C45.0946 107.848 42.1342 116.977 42.3364 122.066C42.3364 122.116 42.3364 122.167 42.3364 122.217C42.4252 124.016 43.2038 125.711 44.5103 126.95C45.8169 128.189 47.5508 128.876 49.3513 128.869H77.4291L76.1879 122.093L55.3273 117.896L56.8075 110.946L45.0946 107.848Z" fill="#FFBF9D"/>
<path d="M51.8704 120.319C52.2071 119.618 52.7261 119.02 53.3731 118.588C54.0201 118.156 54.7712 117.906 55.5479 117.864C54.8374 118.095 54.1545 118.403 53.5115 118.784C52.909 119.233 52.3585 119.748 51.8704 120.319Z" fill="#FF9A6C"/>
<path d="M76.1742 122.093C77.8754 122.435 79.5374 122.95 81.1342 123.629C83.5476 124.695 87.7629 127.83 88.0295 128.088C88.2962 128.345 90.9899 133.337 90.9899 133.337L91.6197 138.444C91.6197 138.444 89.6982 139.217 89.3213 137.231C88.9443 135.245 88.6363 134.041 88.6363 134.041L86.8711 131.168L87.7905 134.284L87.5928 140.178C87.5928 140.178 86.0897 140.637 85.823 139.12C85.5564 137.603 85.1197 135.852 85.1197 135.852L84.3382 140.113C84.3382 140.113 83.2212 140.679 82.8994 139.557C82.7081 138.92 82.5546 138.272 82.4397 137.617C82.4397 137.617 81.3824 138.5 81.2215 137.18C81.1119 136.344 80.9115 135.523 80.624 134.73L78.3577 131.972C78.3577 131.972 75.0479 130.519 73.9539 129.214C72.8598 127.908 76.1742 122.093 76.1742 122.093Z" fill="#FFBF9D"/>
<path d="M80.0907 130.359C80.4488 130.571 80.7792 130.828 81.0744 131.122C81.413 131.423 81.7309 131.747 82.026 132.092C82.4022 132.516 82.6898 133.012 82.8718 133.549C83.1025 134.541 83.1337 135.569 82.9638 136.574C82.908 136.877 82.8186 137.173 82.6971 137.456C82.6098 137.654 82.5408 137.755 82.5271 137.75C82.5133 137.746 82.6971 137.291 82.7937 136.551C82.9098 135.571 82.8585 134.58 82.642 133.618C82.4667 133.114 82.2002 132.646 81.8559 132.239C81.5433 131.853 81.2261 131.526 80.9595 131.255C80.6501 130.976 80.3598 130.677 80.0907 130.359Z" fill="#FF9A6C"/>
<path d="M83.0465 129.664C83.3067 129.886 83.5342 130.142 83.7223 130.428C84.2205 131.083 84.6301 131.802 84.9404 132.565C85.1098 132.988 85.2316 133.429 85.3036 133.88C85.3616 134.249 85.3754 134.624 85.345 134.997C85.3325 135.34 85.2479 135.677 85.0967 135.985C85.0507 135.985 85.1565 135.599 85.1749 134.988C85.1811 134.629 85.1518 134.27 85.0875 133.917C85.0027 133.485 84.8796 133.062 84.7198 132.652C84.411 131.908 84.0307 131.195 83.5843 130.524C83.3795 130.254 83.1995 129.967 83.0465 129.664Z" fill="#FF9A6C"/>
<path d="M42.2215 107.08C42.3314 107.095 42.4404 107.117 42.5479 107.144L43.4673 107.365L46.9379 108.215L58.8485 111.217L58.706 111.304C59.0783 109.466 59.5794 107.572 60.085 105.591C60.8573 102.511 61.6342 99.5824 62.2502 96.9024C62.5393 95.6404 62.6843 94.3496 62.6823 93.0548C62.6764 91.9276 62.4774 90.8097 62.0939 89.7496C61.5236 88.2075 60.4106 86.9261 58.9634 86.1457C58.4247 85.8809 57.8501 85.6966 57.2579 85.5987H57.3775C57.4556 85.5987 57.5751 85.5987 57.7268 85.64C58.1695 85.722 58.5993 85.8626 59.0048 86.0583C60.4998 86.8219 61.6568 88.1149 62.2502 89.6853C62.657 90.7594 62.8702 91.8971 62.8799 93.0456C62.8907 94.358 62.7519 95.6674 62.4662 96.9484C61.8594 99.6376 61.0872 102.561 60.3149 105.646C59.823 107.622 59.3174 109.544 58.9358 111.346V111.465L58.8163 111.433L46.9425 108.349L43.4903 107.429L42.5709 107.172C42.4518 107.152 42.3349 107.121 42.2215 107.08Z" fill="#263238"/>
<path d="M63.7166 71.0173C59.5564 69.2981 56.049 71.5781 53.2908 74.9063C57.1982 76.483 62.1812 75.9636 63.7166 71.0173Z" fill="#AF2245"/>
<path d="M64.2269 71.2242C59.9747 72.6998 58.8669 76.7404 59.0048 81.0523C62.9765 79.6411 66.3598 75.9452 64.2269 71.2242Z" fill="#AF2245"/>
<path d="M86.0253 63.1658C86.0253 63.1658 87.933 51.4805 76.9188 48.8327C71.1865 47.4537 66.939 49.4165 64.3831 52.2436C61.625 55.2822 60.5539 58.8677 60.5539 63.0233C60.5703 65.2003 61.016 67.3526 61.8656 69.3569C62.7151 71.3613 63.9518 73.1784 65.5048 74.704L86.0253 63.1658Z" fill="#AF2245"/>
<path d="M78.6519 85.1711C78.799 82.79 78.8495 81.8154 78.8495 81.8384C78.8495 81.8614 84.3198 80.7811 85.6897 74.2765C86.3701 71.0587 86.0713 66.163 86.0115 61.7776C85.9609 57.8334 82.5776 52.4781 77.7049 52.4827L75.5398 52.2436L67.2654 55.5764C66.6877 55.6063 66.1425 55.8528 65.7387 56.2669C65.3348 56.6811 65.1019 57.2322 65.0865 57.8105L65.1554 83.8151L67.7664 85.5941C71.2785 88.5453 77.3785 88.0948 78.6519 85.1711Z" fill="#FFBF9D"/>
<path d="M83.235 66.5216C83.2254 66.7411 83.1309 66.9482 82.9713 67.0992C82.8117 67.2502 82.5996 67.3332 82.38 67.3306C82.2728 67.3337 82.1661 67.3153 82.0661 67.2765C81.9661 67.2378 81.8749 67.1794 81.7978 67.1049C81.7208 67.0304 81.6593 66.9412 81.6172 66.8426C81.5751 66.744 81.5531 66.638 81.5525 66.5308C81.5609 66.3117 81.6545 66.1045 81.8133 65.9534C81.9721 65.8023 82.1837 65.7192 82.4029 65.7217C82.5103 65.7187 82.6173 65.737 82.7175 65.7757C82.8177 65.8144 82.9092 65.8727 82.9867 65.9472C83.0641 66.0216 83.126 66.1108 83.1686 66.2094C83.2112 66.308 83.2338 66.4141 83.235 66.5216Z" fill="#263238"/>
<path d="M74.6985 66.3515C74.6902 66.5706 74.5966 66.7777 74.4378 66.9288C74.2789 67.08 74.0673 67.1631 73.8481 67.1605C73.7405 67.163 73.6335 67.144 73.5332 67.1048C73.433 67.0656 73.3415 67.0069 73.2641 66.9321C73.1867 66.8572 73.125 66.7678 73.0824 66.6689C73.0398 66.5701 73.0173 66.4637 73.0161 66.3561C73.0268 66.1374 73.1219 65.9314 73.2813 65.7814C73.4408 65.6313 73.6522 65.549 73.8711 65.5516C73.9784 65.5479 74.0854 65.5659 74.1857 65.6044C74.2859 65.6429 74.3774 65.7013 74.4546 65.7759C74.5318 65.8506 74.5932 65.94 74.6351 66.0389C74.677 66.1378 74.6986 66.2441 74.6985 66.3515Z" fill="#263238"/>
<path d="M84.6876 63.9933C84.5773 64.099 83.9659 63.5934 83.0603 63.5336C82.1547 63.4738 81.4698 63.9105 81.3778 63.791C81.2859 63.6715 81.4468 63.5474 81.7456 63.3313C82.1508 63.0783 82.6248 62.9578 83.1017 62.9866C83.5717 63.0076 84.0227 63.1783 84.3888 63.4738C84.66 63.7451 84.7428 63.9473 84.6876 63.9933Z" fill="#263238"/>
<path d="M75.5214 63.8692C75.4157 63.9841 74.7721 63.5198 73.8665 63.5382C72.9609 63.5566 72.3036 63.9979 72.2025 63.9151C72.1013 63.8324 72.2576 63.6669 72.5426 63.4554C72.9273 63.1686 73.3914 63.008 73.8711 62.9958C74.342 62.987 74.8037 63.1269 75.1904 63.3957C75.4708 63.6347 75.572 63.8278 75.5214 63.8692Z" fill="#263238"/>
<path d="M78.7346 71.0725C79.2199 70.9487 79.7186 70.8854 80.2194 70.884C80.4493 70.884 80.6791 70.8334 80.7159 70.6818C80.7497 70.4436 80.7079 70.2008 80.5964 69.9876L80.0034 68.1948C79.1805 65.6436 78.5967 63.5474 78.6978 63.5152C78.799 63.483 79.5529 65.524 80.3757 68.0799C80.5734 68.7051 80.7619 69.3073 80.9411 69.8819C81.0755 70.1695 81.1016 70.4959 81.0147 70.8013C80.978 70.8817 80.9232 70.9526 80.8546 71.0084C80.7861 71.0642 80.7056 71.1034 80.6194 71.123C80.4895 71.1506 80.3566 71.1614 80.224 71.1552C79.7261 71.1943 79.2252 71.1665 78.7346 71.0725Z" fill="#263238"/>
<path d="M78.8358 81.797C75.7446 81.6993 72.7414 80.7444 70.1614 79.0389C70.1614 79.0389 72.1381 83.6864 78.7346 83.4013L78.8358 81.797Z" fill="#FF9A6C"/>
<path d="M78.2428 73.2376C78.0821 73.0119 77.8664 72.8309 77.6162 72.7119C77.3661 72.5928 77.0896 72.5396 76.8131 72.5573C76.6122 72.5654 76.4151 72.6139 76.2334 72.7C76.0517 72.7861 75.8893 72.908 75.7558 73.0584C75.625 73.2011 75.5426 73.3815 75.5203 73.5738C75.498 73.7661 75.537 73.9606 75.6317 74.1294C75.7673 74.3003 75.9512 74.4264 76.1595 74.4912C76.3678 74.556 76.5908 74.5565 76.7993 74.4926C77.2361 74.3631 77.6425 74.1474 77.9945 73.8582C78.0986 73.79 78.1904 73.7045 78.2657 73.6054C78.298 73.5545 78.3152 73.4955 78.3152 73.4353C78.3152 73.3751 78.298 73.3161 78.2657 73.2652" fill="#FF9A6C"/>
<path d="M76.0409 71.5644C76.188 71.5644 76.142 72.5481 76.9602 73.2882C77.7785 74.0283 78.799 73.9685 78.799 74.1064C78.799 74.1708 78.5554 74.2857 78.1141 74.2765C77.5382 74.2558 76.9881 74.0328 76.5603 73.6467C76.1493 73.2767 75.9 72.76 75.8662 72.2079C75.8524 71.7942 75.9719 71.5598 76.0409 71.5644Z" fill="#263238"/>
<path d="M75.8524 61.465C75.7191 61.6856 74.9973 61.3868 74.0826 61.2949C73.1678 61.203 72.3863 61.2949 72.322 61.0697C72.2944 60.9547 72.4737 60.7571 72.8184 60.61C73.2514 60.4193 73.7276 60.3478 74.1975 60.4031C74.6675 60.4483 75.1152 60.6252 75.4892 60.9134C75.7926 61.111 75.9121 61.3593 75.8524 61.465Z" fill="#263238"/>
<path d="M84.5589 61.6029C84.3888 61.8006 83.7774 61.5569 83.0281 61.5064C82.2788 61.4558 81.6491 61.5753 81.502 61.3547C81.4422 61.2489 81.5525 61.0467 81.8421 60.8674C82.2253 60.6522 82.6639 60.5561 83.1019 60.5913C83.54 60.6265 83.9576 60.7915 84.3015 61.0651C84.5589 61.2903 84.6324 61.5064 84.5589 61.6029Z" fill="#263238"/>
<path d="M65.7622 67.7673C65.7622 67.7673 66.7643 60.872 71.0716 56.4498C74.409 53.0067 79.8517 52.3448 83.6027 56.3487C84.2325 57.0198 85.1059 57.5806 86.0253 60.5824C86.0253 60.5824 85.4001 51.2691 77.1027 50.244C69.288 49.2786 65.2657 54.4777 63.9878 58.2518C62.7467 61.9293 63.0684 67.7673 63.0684 67.7673H65.7622Z" fill="#AF2245"/>
<path d="M66.4793 67.1605C66.4793 66.6733 65.6151 66.5629 65.137 66.4618C63.8591 66.1952 61.5331 66.1814 61.3492 69.4498C61.0964 73.918 65.6335 73.2514 65.6473 73.1273C65.6611 73.0032 66.4242 68.8476 66.4793 67.1605Z" fill="#FFBF9D"/>
<path d="M64.3785 71.3529C64.3785 71.3529 64.3004 71.4035 64.1625 71.4586C63.9751 71.5336 63.7661 71.5336 63.5787 71.4586C63.119 71.261 62.765 70.4887 62.788 69.6796C62.7981 69.297 62.8939 68.9216 63.0684 68.581C63.1196 68.4442 63.2025 68.3216 63.3104 68.2233C63.4183 68.125 63.5481 68.0538 63.689 68.0156C63.7816 67.9934 63.879 68.0054 63.9635 68.0493C64.0479 68.0932 64.1137 68.1661 64.1487 68.2546C64.2039 68.3833 64.1487 68.4706 64.1901 68.4798C64.2314 68.489 64.2912 68.4109 64.2682 68.2224C64.249 68.1104 64.1922 68.0083 64.1073 67.9328C63.9898 67.8333 63.838 67.7838 63.6844 67.7949C63.4982 67.8204 63.3218 67.8935 63.172 68.007C63.0222 68.1205 62.9042 68.2707 62.8294 68.4431C62.6175 68.8183 62.5007 69.2397 62.4892 69.6704C62.4892 70.5898 62.88 71.4402 63.5143 71.6655C63.6328 71.7072 63.7592 71.7218 63.884 71.7083C64.0089 71.6947 64.1292 71.6534 64.236 71.5873C64.3648 71.4632 64.3923 71.3621 64.3785 71.3529Z" fill="#FF9A6C"/>
<path d="M71.7244 52.9562C71.7519 52.9975 70.9935 53.4894 69.927 54.4731C69.3037 55.051 68.723 55.6732 68.1894 56.3349C67.5451 57.1501 66.9671 58.0155 66.4609 58.9229C65.9693 59.8377 65.5527 60.7908 65.2152 61.773C64.9445 62.5776 64.734 63.4011 64.5854 64.2369C64.328 65.6665 64.3234 66.5721 64.2728 66.5675C64.2519 66.3566 64.2519 66.1441 64.2728 65.9332C64.2729 65.6844 64.2867 65.4357 64.3142 65.1885C64.336 64.8604 64.3744 64.5336 64.4291 64.2093C64.5613 63.3601 64.7595 62.5224 65.0221 61.704C65.6683 59.6906 66.6917 57.8186 68.0377 56.1878C68.5856 55.5283 69.1851 54.9134 69.8304 54.349C70.0971 54.0962 70.3683 53.8893 70.5935 53.7238C70.7861 53.5582 70.9887 53.4047 71.2003 53.2641C71.3651 53.1455 71.5405 53.0424 71.7244 52.9562Z" fill="#263238"/>
<path d="M82.7799 52.8918C82.1193 52.4313 81.4299 52.0137 80.7159 51.6414C78.9712 50.7691 77.0255 50.3774 75.0791 50.5066C73.1328 50.6359 71.256 51.2815 69.642 52.3769C68.9836 52.8407 68.3542 53.3442 67.7573 53.8847C67.8806 53.7037 68.024 53.5371 68.1848 53.3883C68.6083 52.9624 69.0699 52.5761 69.5638 52.2344C71.184 51.0839 73.0919 50.4059 75.0748 50.276C77.0577 50.1462 79.0376 50.5695 80.794 51.4989C81.324 51.7732 81.8273 52.0964 82.2972 52.4643C82.4739 52.5879 82.6358 52.7314 82.7799 52.8918Z" fill="#263238"/>
<path d="M26.8036 92.9583C26.8036 92.9583 29.6491 91.5792 30.3248 95.436C31.0005 99.2928 35.6756 127.614 35.6756 127.614L64.7233 127.384C64.7233 127.384 74.8778 126.309 79.0426 136.794C81.957 144.126 80.9136 169.965 80.9136 169.965L80.3619 188.027H27.8379C27.8379 188.027 26.2152 150.167 25.9486 133.324C25.6819 116.481 25.0981 98.1344 26.8036 92.9583Z" fill="#455A64"/>
<path d="M81.2031 188.633C81.1342 188.633 81.0836 180.258 81.0836 169.933C81.0836 159.609 81.1342 151.21 81.2031 151.21C81.2721 151.21 81.3227 159.581 81.3227 169.915C81.3227 180.249 81.2675 188.633 81.2031 188.633Z" fill="#263238"/>
<path d="M63.2063 188.633C63.1374 188.633 63.0868 176.107 63.0868 160.661C63.0868 145.216 63.1374 132.685 63.2063 132.685C63.2753 132.685 63.3259 145.207 63.3259 160.661C63.3259 176.116 63.2707 188.633 63.2063 188.633Z" fill="#263238"/>
</g>
<defs>
<linearGradient id="paint0_linear_1142_3185" x1="86.6413" y1="46.7739" x2="104.918" y2="59.7119" gradientUnits="userSpaceOnUse">
<stop stop-color="#AF2245"/>
<stop offset="1" stop-color="#FF7194"/>
</linearGradient>
<linearGradient id="paint1_linear_1142_3185" x1="98.8715" y1="40.7175" x2="112.912" y2="46.7245" gradientUnits="userSpaceOnUse">
<stop stop-color="#AF2245"/>
<stop offset="1" stop-color="#FF7194"/>
</linearGradient>
<linearGradient id="paint2_linear_1142_3185" x1="136.982" y1="115.763" x2="153.169" y2="127.584" gradientUnits="userSpaceOnUse">
<stop stop-color="#AF2245"/>
<stop offset="1" stop-color="#FF7194"/>
</linearGradient>
<linearGradient id="paint3_linear_1142_3185" x1="101.554" y1="7.85608" x2="113.474" y2="30.9493" gradientUnits="userSpaceOnUse">
<stop stop-color="#AF2245"/>
<stop offset="1" stop-color="#FF7194"/>
</linearGradient>
<linearGradient id="paint4_linear_1142_3185" x1="126.726" y1="199.9" x2="122.004" y2="199.882" gradientUnits="userSpaceOnUse">
<stop stop-color="#AF2245"/>
<stop offset="1" stop-color="#FF7194"/>
</linearGradient>
<linearGradient id="paint5_linear_1142_3185" x1="108.83" y1="199.9" x2="114.041" y2="212.684" gradientUnits="userSpaceOnUse">
<stop stop-color="#AF2245"/>
<stop offset="1" stop-color="#FF7194"/>
</linearGradient>
<linearGradient id="paint6_linear_1142_3185" x1="129.507" y1="44.9162" x2="147.154" y2="48.8476" gradientUnits="userSpaceOnUse">
<stop stop-color="#AF2245"/>
<stop offset="1" stop-color="#FF7194"/>
</linearGradient>
<linearGradient id="paint7_linear_1142_3185" x1="150.12" y1="86.9271" x2="120.584" y2="82.3201" gradientUnits="userSpaceOnUse">
<stop stop-color="#AF2245"/>
<stop offset="1" stop-color="#FF7194"/>
</linearGradient>
<linearGradient id="paint8_linear_1142_3185" x1="100.441" y1="5.55764" x2="104.165" y2="6.01028" gradientUnits="userSpaceOnUse">
<stop stop-color="#AF2245"/>
<stop offset="1" stop-color="#FF7194"/>
</linearGradient>
<linearGradient id="paint9_linear_1142_3185" x1="94.2767" y1="34.895" x2="113.069" y2="35.6029" gradientUnits="userSpaceOnUse">
<stop stop-color="#AF2245"/>
<stop offset="1" stop-color="#FF7194"/>
</linearGradient>
<linearGradient id="paint10_linear_1142_3185" x1="128.073" y1="197.97" x2="145.725" y2="203.572" gradientUnits="userSpaceOnUse">
<stop stop-color="#AF2245"/>
<stop offset="1" stop-color="#FF7194"/>
</linearGradient>
<linearGradient id="paint11_linear_1142_3185" x1="90.498" y1="114.067" x2="95.6121" y2="115.094" gradientUnits="userSpaceOnUse">
<stop stop-color="#AF2245"/>
<stop offset="1" stop-color="#FF7194"/>
</linearGradient>
<linearGradient id="paint12_linear_1142_3185" x1="113.149" y1="197.827" x2="130.687" y2="203.261" gradientUnits="userSpaceOnUse">
<stop stop-color="#AF2245"/>
<stop offset="1" stop-color="#FF7194"/>
</linearGradient>
<linearGradient id="paint13_linear_1142_3185" x1="100.584" y1="206.318" x2="104.919" y2="213.266" gradientUnits="userSpaceOnUse">
<stop stop-color="#AF2245"/>
<stop offset="1" stop-color="#FF7194"/>
</linearGradient>
<clipPath id="clip0_1142_3185">
<rect width="209.512" height="208" fill="white" transform="translate(0.743835)"/>
</clipPath>
</defs>
</svg>
