<svg width="279" height="279" viewBox="0 0 279 279" fill="none" xmlns="http://www.w3.org/2000/svg">
<path d="M139.5 273.02C78.7741 273.02 29.5461 245.056 29.5461 210.56C29.5461 176.064 78.7741 148.1 139.5 148.1C200.226 148.1 249.454 176.064 249.454 210.56C249.454 245.056 200.226 273.02 139.5 273.02Z" fill="white"/>
<path d="M93.7412 249.943L175.822 202.553C178.986 200.727 178.985 196.159 175.819 194.335L167.723 189.231C164.879 187.592 161.377 187.594 158.534 189.235L76.4532 236.624C73.2894 238.451 73.291 243.018 76.4566 244.843L84.5537 249.947C87.3967 251.586 90.8987 251.584 93.7412 249.943Z" fill="#E0E0E0"/>
<path d="M218.541 206.74C208.703 206.74 200.727 202.161 200.727 196.513C200.727 190.865 208.703 186.286 218.541 186.286C228.379 186.286 236.354 190.865 236.354 196.513C236.354 202.161 228.379 206.74 218.541 206.74Z" fill="#E6E6E6"/>
<path d="M64.641 209.084L56.8245 213.577C56.8245 213.577 60.8153 201.038 58.6899 188.396C57.8875 183.624 56.1638 181.248 55.5579 179.973C54.9513 178.698 50.2875 170.797 54.4413 167.184C58.5956 163.571 68.2708 170.84 67.7468 190.293C67.4779 200.276 64.641 209.084 64.641 209.084Z" fill="#AF2245"/>
<path opacity="0.5" d="M64.641 209.084L56.8245 213.577C56.8245 213.577 60.8153 201.038 58.6899 188.396C57.8875 183.624 56.1638 181.248 55.5579 179.973C54.9513 178.698 50.2875 170.797 54.4413 167.184C58.5956 163.571 68.2708 170.84 67.7468 190.293C67.4779 200.276 64.641 209.084 64.641 209.084Z" fill="black"/>
<path d="M61.0073 211.451C61.1206 211.451 61.2271 211.382 61.269 211.27C61.2991 211.189 64.2794 203.03 64.1846 189.914C64.0891 176.735 57.2017 169.682 57.132 169.613C57.0232 169.504 56.8468 169.504 56.738 169.613C56.6287 169.721 56.6287 169.898 56.7369 170.007C56.805 170.075 63.5334 176.98 63.6266 189.918C63.7209 202.922 60.7763 210.995 60.7462 211.075C60.6926 211.22 60.7657 211.38 60.9102 211.434C60.942 211.446 60.9749 211.451 61.0073 211.451Z" fill="white"/>
<path d="M61.3817 211.002L50.6999 217.116C48.3864 218.44 45.3604 217.869 43.8817 215.651C43.2701 214.733 42.894 213.525 43.0402 211.94C43.5519 206.395 45.963 205.115 43.009 202.641C40.0544 200.167 39.2866 199.996 39.4573 197.608C39.6281 195.219 41.2491 194.195 42.0169 193.257C42.7847 192.319 44.9174 190.357 43.4671 187.456C42.0169 184.556 40.0393 181.747 43.0408 180.46C44.8325 179.693 47.8184 180.717 49.7803 182.849C51.7422 184.982 53.3632 186.518 55.2404 187.029C57.1169 187.541 61.0413 187.626 60.8706 190.868C60.6998 194.11 59.845 195.22 60.6144 196.669C62.0641 199.4 68.3773 200.935 61.3817 211.002Z" fill="#AF2245"/>
<path d="M56.1014 214.304C56.2436 214.304 56.3653 214.195 56.3787 214.05C56.3965 213.858 58.0214 194.709 44.8549 181.966C44.7444 181.86 44.5675 181.862 44.4604 181.973C44.3532 182.084 44.3566 182.261 44.4671 182.368C57.4439 194.926 55.8413 213.809 55.8229 213.999C55.8089 214.152 55.9217 214.288 56.0746 214.303C56.0841 214.303 56.0924 214.304 56.1014 214.304Z" fill="white"/>
<path d="M53.9871 197.821C54.1299 197.821 54.2521 197.711 54.2644 197.566C54.7013 192.484 58.2641 189.928 58.3004 189.903C58.4271 189.814 58.4572 189.641 58.3685 189.514C58.2798 189.388 58.1046 189.358 57.9801 189.446C57.825 189.555 54.1684 192.179 53.7092 197.518C53.6958 197.671 53.8096 197.807 53.9631 197.82C53.9709 197.82 53.9787 197.821 53.9871 197.821Z" fill="white"/>
<path d="M54.8983 201.109C54.9636 201.109 55.0294 201.086 55.0824 201.039C55.1979 200.937 55.2096 200.761 55.1081 200.646C54.9719 200.49 51.6781 196.851 43.9436 197.819C43.7907 197.838 43.6825 197.977 43.7014 198.13C43.7204 198.283 43.8655 198.388 44.0134 198.372C51.4353 197.441 54.6567 200.978 54.689 201.014C54.7437 201.077 54.8207 201.109 54.8983 201.109Z" fill="white"/>
<path d="M96.2421 244.281L168.429 202.604C173.523 199.663 177.652 191.774 177.652 184.983V30.406C177.652 23.6151 173.522 20.4937 168.429 23.4344L96.2421 65.1114C91.1487 68.052 87.0201 75.941 87.0201 82.7319V237.309C87.0195 244.1 91.1487 247.221 96.2421 244.281Z" fill="#455A64"/>
<path d="M87.9296 60.2663L160.116 18.5893C162.294 17.3321 164.294 17.1859 165.872 17.9582L165.873 17.9593C166.067 18.0542 166.254 18.1635 166.435 18.2857L174.522 22.9874C172.897 22.016 170.765 22.0857 168.428 23.435L96.241 65.112C91.1476 68.0527 87.0189 75.9417 87.0189 82.7325V237.309C87.0189 240.899 88.1734 243.463 90.0143 244.648L82.0332 239.999L82.0343 239.998C80.0015 238.916 78.707 236.266 78.707 232.464V77.8868C78.707 71.096 82.8362 63.207 87.9296 60.2663Z" fill="#37474F"/>
<path d="M87.0195 82.7325V237.309C87.0195 240.899 88.174 243.463 90.0148 244.648L82.0338 239.999L82.0349 239.998C80.0021 238.916 78.7075 236.266 78.7075 232.464V77.8868C78.7075 77.8829 78.7075 77.8784 78.7075 77.8745L87.0206 82.7012C87.02 82.7118 87.0195 82.7219 87.0195 82.7325Z" fill="#263238"/>
<path d="M78.707 89.8872L87.0195 94.6866V98.4341L78.707 93.6347V89.8872Z" fill="#37474F"/>
<path d="M82.3491 114.826C83.0929 115.255 83.6956 114.8 83.6956 113.808V105.747C83.6956 104.755 83.0929 103.603 82.3491 103.174C81.6053 102.745 81.0026 103.2 81.0026 104.192V112.253C81.0032 113.245 81.6058 114.397 82.3491 114.826Z" fill="#37474F"/>
<path d="M83.6955 113.808V105.747C83.6955 104.755 83.0929 103.603 82.3491 103.174C82.0249 102.987 81.7319 102.977 81.4998 103.097L81.4981 103.087L82.5036 102.566L82.5053 102.574C82.7408 102.441 83.0432 102.446 83.378 102.639C84.1213 103.069 84.7245 104.221 84.7245 105.212V113.273C84.7245 113.808 84.5454 114.18 84.2669 114.348L84.2686 114.356L83.2129 114.906L83.2112 114.897C83.5047 114.738 83.6955 114.361 83.6955 113.808Z" fill="#455A64"/>
<path d="M82.3491 134.341C83.0929 134.77 83.6956 134.315 83.6956 133.323V125.262C83.6956 124.27 83.0929 123.119 82.3491 122.69C81.6053 122.26 81.0026 122.716 81.0026 123.707V131.769C81.0032 132.76 81.6058 133.912 82.3491 134.341Z" fill="#37474F"/>
<path d="M83.6955 133.323V125.262C83.6955 124.27 83.0929 123.119 82.3491 122.69C82.0249 122.503 81.7319 122.492 81.4998 122.612L81.4981 122.603L82.5036 122.081L82.5053 122.089C82.7408 121.956 83.0432 121.961 83.378 122.155C84.1213 122.584 84.7245 123.735 84.7245 124.727V132.788C84.7245 133.323 84.5454 133.695 84.2669 133.863L84.2686 133.871L83.2129 134.422L83.2112 134.412C83.5047 134.254 83.6955 133.876 83.6955 133.323Z" fill="#455A64"/>
<path d="M98.7514 69.4588L169.697 28.491C171.001 27.7377 172.632 28.6791 172.632 30.1851V184.983C172.632 190.152 168.969 196.496 164.493 199.08L95.2718 239.045C93.8349 239.874 92.0393 238.837 92.0393 237.179V81.0847C92.0393 76.8222 95.0597 71.5904 98.7514 69.4588Z" fill="#AF2245"/>
<path opacity="0.9" d="M98.7514 69.4588L169.697 28.491C171.001 27.7377 172.632 28.6791 172.632 30.1851V184.983C172.632 190.152 168.969 196.496 164.493 199.08L95.2718 239.045C93.8349 239.874 92.0393 238.837 92.0393 237.179V81.0847C92.0393 76.8222 95.0597 71.5904 98.7514 69.4588Z" fill="white"/>
<path d="M148.483 39.1863L147.385 43.8155L123.87 57.3732L119.81 55.2087L148.483 39.1863Z" fill="#455A64"/>
<path d="M141.573 43.6585C141.573 44.4263 142.112 44.7371 142.777 44.3532C143.441 43.9693 143.98 43.0364 143.98 42.2686C143.98 41.5013 143.441 41.1899 142.777 41.5738C142.111 41.9577 141.573 42.8913 141.573 43.6585Z" fill="#263238"/>
<path d="M125.73 53.4503C125.855 53.4503 125.981 53.4196 126.097 53.3543L138.107 46.6432C138.47 46.4401 138.6 45.9814 138.397 45.6187C138.194 45.2555 137.735 45.126 137.373 45.3286L125.362 52.0397C125 52.2428 124.87 52.7014 125.072 53.0641C125.21 53.3108 125.466 53.4503 125.73 53.4503Z" fill="#263238"/>
<path d="M157.761 60.7094C158.491 60.2875 159.021 60.6541 159.021 61.5877C159.021 62.5312 158.491 63.52 157.761 63.9419C157.326 64.193 156.778 64.198 156.378 63.9368L155.213 66.045C155.891 66.5064 156.926 66.4612 157.865 65.9189C159.734 64.8397 161.09 62.5206 161.09 60.4225C161.09 58.3546 159.699 57.6521 157.786 58.7564C156.856 59.2937 155.839 60.3829 155.213 61.5274L156.378 62.4509C156.743 61.668 157.291 60.9805 157.761 60.7094Z" fill="#AF2245"/>
<path d="M148.502 67.7018C148.502 69.7898 149.909 70.513 151.848 69.3936C153.787 68.2743 155.195 65.9351 155.195 63.837C155.195 61.749 153.787 61.0666 151.848 62.1859C149.909 63.3047 148.502 65.6232 148.502 67.7018ZM153.126 65.0418C153.126 66.0054 152.518 67.0695 151.822 67.4713C151.126 67.8731 150.57 67.4813 150.57 66.5177C150.57 65.5535 151.126 64.5401 151.822 64.1384C152.526 63.7316 153.126 64.0775 153.126 65.0418Z" fill="#AF2245"/>
<path d="M146.25 65.4881L143.842 70.4923V66.8781L142.017 67.9322V74.9691L143.702 73.9954L146.102 69.0163V72.6104L147.936 71.5513V64.5144L146.25 65.4881Z" fill="#AF2245"/>
<path d="M136.052 71.3755V73.2125L137.79 72.2086V77.4086L139.807 76.2441V71.0441L141.537 70.0453V68.2078L136.052 71.3755Z" fill="#AF2245"/>
<path d="M132.122 79.688L134.409 78.3678L134.721 79.1808L136.79 77.9861L134.217 72.4346L132.148 73.6292L129.671 82.0969L131.818 80.857L132.122 79.688ZM132.618 77.7356L133.243 75.3161L133.886 77.0029L132.618 77.7356Z" fill="#AF2245"/>
<path d="M126.47 78.7745C127.201 78.3527 127.731 78.7193 127.731 79.6528C127.731 80.5964 127.201 81.5852 126.47 82.007C126.036 82.2581 125.487 82.2632 125.088 82.002L123.922 84.1101C124.601 84.5716 125.635 84.5264 126.574 83.984C128.444 82.9049 129.8 80.5858 129.8 78.4877C129.8 76.4198 128.409 75.7173 126.496 76.8215C125.566 77.3589 124.549 78.4481 123.922 79.5926L125.088 80.5161C125.453 79.7332 126.001 79.0457 126.47 78.7745Z" fill="#AF2245"/>
<path d="M118.42 81.5552V83.3921L120.159 82.3882V87.5882L122.175 86.4237V81.2237L123.906 80.2249V78.3879L118.42 81.5552Z" fill="#AF2245"/>
<path d="M112.464 90.194C111.969 90.4802 111.587 90.2592 111.587 89.5562V85.5006L109.569 86.6652V90.7207C109.569 92.5883 110.708 93.1452 112.473 92.1263C114.247 91.1024 115.42 89.2102 115.42 87.3431V83.2876L113.403 84.4521V88.5077C113.403 89.1996 112.968 89.9027 112.464 90.194Z" fill="#AF2245"/>
<path d="M106.317 90.2193C106.543 90.0892 106.691 90.0837 106.691 90.2946C106.691 91.1779 103.536 92.4479 103.536 94.9974C103.536 96.5637 104.727 96.5682 106.101 95.7753C107.161 95.1631 108.343 94.0689 109.153 92.8893L108.404 91.5741C107.779 92.5377 106.701 93.6521 106.084 94.0081C105.788 94.1794 105.596 94.1794 105.596 93.9277C105.596 93.0143 108.752 91.7945 108.752 89.3253C108.752 87.9203 107.726 87.629 106.144 88.5419C105.18 89.0993 104.18 90.0078 103.492 90.9062L104.223 92.2515C104.84 91.5038 105.787 90.525 106.317 90.2193Z" fill="#AF2245"/>
<path d="M167.908 95.3851C165.894 92.9154 164.685 89.7633 164.685 86.3277C164.685 78.4074 171.105 71.9871 179.025 71.9871C186.946 71.9871 193.366 78.4074 193.366 86.3277C193.366 94.2479 186.946 100.668 179.025 100.668C176.335 100.668 173.819 99.9261 171.668 98.6371L164.684 101.67L167.908 95.3851Z" fill="#AF2245"/>
<path opacity="0.4" d="M167.908 95.3851C165.894 92.9154 164.685 89.7633 164.685 86.3277C164.685 78.4074 171.105 71.9871 179.025 71.9871C186.946 71.9871 193.366 78.4074 193.366 86.3277C193.366 94.2479 186.946 100.668 179.025 100.668C176.335 100.668 173.819 99.9261 171.668 98.6371L164.684 101.67L167.908 95.3851Z" fill="black"/>
<path d="M184.334 85.5655C184.334 85.3439 184.491 85.2245 184.777 85.2245C185.266 85.2245 185.911 85.5476 186.538 86.0543L187.331 84.5142C186.409 83.8781 185.46 83.4998 184.445 83.4998C183.108 83.4998 182.093 84.2006 182.093 85.2519C182.093 85.9985 182.638 86.7183 183.366 87.4376L184.362 88.4241H182.001V90.0652H187.073L187.082 88.7187L184.823 86.3857C184.556 86.1095 184.334 85.787 184.334 85.5655Z" fill="white"/>
<path d="M177.873 83.5923L179.413 87.2896H178.786V86.0447H176.841V87.2896H176.103V88.8113H176.841V90.0651H178.786V88.8113H181.543V87.428L179.883 83.5923H177.873Z" fill="white"/>
<path d="M170.111 86.8478V90.0658H172.186V87.4471C172.186 87.023 172.426 86.7557 172.785 86.7557C173.191 86.7557 173.449 87.0788 173.449 87.567V90.0663H175.524V83.2241H173.449V85.7413C173.108 85.2251 172.582 84.9299 171.918 84.9299C170.858 84.9294 170.111 85.6855 170.111 86.8478Z" fill="white"/>
<path d="M102.428 138.699V208.028C102.428 211.472 106.157 213.627 109.139 211.902L146.482 190.34L153.097 186.525C154.494 185.719 155.729 184.703 156.772 183.532C159.195 180.824 160.592 177.283 160.592 173.538V104.203C160.592 100.759 156.868 98.6096 153.881 100.329L109.929 125.711C105.286 128.387 102.428 133.341 102.428 138.699Z" fill="#AF2245"/>
<path opacity="0.5" d="M102.428 138.699V208.028C102.428 211.472 106.157 213.627 109.139 211.902L146.482 190.34L153.097 186.525C154.494 185.719 155.729 184.703 156.772 183.532C159.195 180.824 160.592 177.283 160.592 173.538V104.203C160.592 100.759 156.868 98.6096 153.881 100.329L109.929 125.711C105.286 128.387 102.428 133.341 102.428 138.699Z" fill="white"/>
<path d="M123.936 179.719C123.936 179.719 116.943 191.315 121.997 204.391L146.482 190.339L123.936 179.719Z" fill="#263238"/>
<path d="M112.791 127.621C112.261 123.324 115.316 119.411 119.614 118.882C123.911 118.353 127.824 121.408 128.353 125.705C128.882 130.002 125.827 133.915 121.53 134.444C117.232 134.973 113.32 131.918 112.791 127.621Z" fill="#263238"/>
<path d="M120.536 104.673C120.536 104.673 118.129 100.749 117.39 101.051C116.652 101.354 117.871 105.061 117.871 105.061C117.871 105.061 114.231 105.817 114.912 106.724C115.592 107.632 120.034 107.423 120.034 107.423L120.536 104.673Z" fill="#263238"/>
<path d="M118.843 114.74C120.535 127.318 131.121 127.318 131.121 127.318L153.338 117.545C153.338 117.545 155.015 116.078 155.525 112.704C155.703 111.548 155.746 110.162 155.531 108.539C155.531 108.529 155.525 108.512 155.525 108.501C154.816 103.214 150.861 97.5242 142.243 95.7777C140.524 95.4228 138.616 95.2297 136.51 95.2297C135.548 95.2297 134.624 95.2727 133.738 95.3692C127.016 96.0249 122.347 99.1519 120.111 104.009C119.622 105.073 119.251 106.218 119.004 107.443C118.547 109.646 118.489 112.091 118.843 114.74Z" fill="#263238"/>
<path d="M172.169 139.069C172.169 139.069 180.055 138.799 183.093 146.483C183.093 146.483 179.737 148.743 175.35 146.493C170.963 144.243 172.169 139.069 172.169 139.069Z" fill="#AF2245"/>
<path opacity="0.5" d="M172.169 139.069C172.169 139.069 180.055 138.799 183.093 146.483C183.093 146.483 179.737 148.743 175.35 146.493C170.963 144.243 172.169 139.069 172.169 139.069Z" fill="black"/>
<path d="M172.396 142.768C172.396 142.768 174.621 133.073 175.801 132.953C177.042 132.827 177.209 135.912 177.113 137.646L179.923 131.645C180.294 130.853 181.253 130.547 182.02 130.969C184.814 132.504 189.704 137.168 179.383 148.704L172.396 142.768Z" fill="#E1B49B"/>
<path d="M143.824 136.065L145.488 135.845C148.925 135.39 152.339 136.823 154.421 139.595L164.379 152.855L172.169 139.069C172.169 139.069 173.109 148.445 183.092 146.483L172.369 164.522C169.439 169.451 162.497 169.96 158.879 165.511L149.706 154.231L143.824 136.065Z" fill="#AF2245"/>
<path d="M122.566 167.004C124.796 172.662 125.043 173.768 123.657 176.595C122.276 179.415 121.411 183.091 121.411 183.091C121.411 183.091 131.754 194.686 146.482 190.339L153.097 186.524C154.494 185.719 155.729 184.703 156.772 183.532L154.794 168.54C154.692 167.751 154.772 166.939 155.031 166.187L157.142 159.992C159.249 153.808 157.62 146.968 152.946 142.405L145.837 135.458L127.165 137.811L124.393 138.612C120.621 139.697 118.213 143.394 118.751 147.284C119.67 153.899 121.164 163.447 122.566 167.004Z" fill="#AF2245"/>
<path opacity="0.5" d="M122.566 167.004C124.796 172.662 125.043 173.768 123.657 176.595C122.276 179.415 121.411 183.091 121.411 183.091C121.411 183.091 131.754 194.686 146.482 190.339L153.097 186.524C154.494 185.719 155.729 184.703 156.772 183.532L154.794 168.54C154.692 167.751 154.772 166.939 155.031 166.187L157.142 159.992C159.249 153.808 157.62 146.968 152.946 142.405L145.837 135.458L127.165 137.811L124.393 138.612C120.621 139.697 118.213 143.394 118.751 147.284C119.67 153.899 121.164 163.447 122.566 167.004Z" fill="black"/>
<path d="M133.823 150.12L137.562 146.935C138.37 146.247 139.48 146.036 140.484 146.381L145.004 147.935L145.612 145.404C146.011 143.741 147.717 142.748 149.36 143.221L151.32 143.785L148.002 137.435C146.921 135.367 145.255 133.663 143.211 132.537L141.913 131.821L131.171 132.374C131.171 132.374 127.166 134.032 127.166 137.814L133.823 150.12Z" fill="#AF2245"/>
<path d="M131.123 137.109L141.896 145.502V118.782H131.123V137.109Z" fill="#E1B49B"/>
<path d="M141.728 134.91L145.004 147.935L131.171 137.109L141.728 134.91Z" fill="#E1B49B"/>
<path d="M141.896 132.973C137.751 131.373 133.421 128.163 131.123 122.728V118.782H141.896V132.973Z" fill="#BA6D6D"/>
<path d="M139.57 98.9795C143.656 98.9795 152.342 101.257 153.345 111.945C154.347 122.634 153.38 130.929 147.862 131.723C142.345 132.518 129.537 128.524 127.822 114.687C126.107 100.849 135.585 98.9795 139.57 98.9795Z" fill="#E1B49B"/>
<path d="M146.003 116.469V122.773L149.694 121.64L146.003 116.469Z" fill="#BA6D6D"/>
<path d="M141.895 118.844C141.186 118.844 140.611 118.269 140.611 117.56C140.611 116.85 141.186 116.275 141.895 116.275C142.605 116.275 143.18 116.85 143.18 117.56C143.18 118.269 142.605 118.844 141.895 118.844Z" fill="#263238"/>
<path d="M149.059 116.664C149.059 117.373 149.633 117.948 150.343 117.948C151.052 117.948 151.628 117.373 151.628 116.664C151.628 115.955 151.052 115.38 150.343 115.38C149.634 115.38 149.059 115.955 149.059 116.664Z" fill="#263238"/>
<path d="M151.908 113.99L149.396 112.498C149.396 112.498 150.36 111.497 151.32 112.098C152.279 112.7 151.908 113.99 151.908 113.99Z" fill="#263238"/>
<path d="M147.739 125.328C147.739 125.328 145.7 125.514 144.28 124.402C144.28 124.402 144.044 126.223 145.57 126.572C147.096 126.921 147.739 125.328 147.739 125.328Z" fill="#BA6D6D"/>
<path d="M149.928 102.615C149.928 102.615 148.392 117.376 128.324 117.837C128.324 117.837 122.261 103.169 134.244 98.4033C146.228 93.6386 149.928 102.615 149.928 102.615Z" fill="#263238"/>
<path d="M122.416 115.627L122.416 115.626L122.426 115.62C122.429 115.619 122.432 115.617 122.435 115.615L124.902 114.191L124.903 114.192C125.837 113.641 127.134 113.713 128.567 114.54C131.414 116.184 133.722 120.181 133.722 123.468C133.722 125.114 133.143 126.269 132.208 126.807L129.785 128.199C129.739 128.227 129.692 128.254 129.644 128.28L129.562 128.327L129.558 128.32C128.64 128.765 127.42 128.659 126.075 127.883C123.228 126.24 120.92 122.242 120.92 118.955C120.921 117.319 121.493 116.169 122.416 115.627Z" fill="#AF2245"/>
<path d="M122.434 124.038C120.421 120.552 120.421 116.783 122.434 115.621C124.447 114.459 127.71 116.343 129.723 119.83C131.736 123.316 131.737 127.085 129.724 128.247C127.711 129.409 124.447 127.525 122.434 124.038Z" fill="#AF2245"/>
<path opacity="0.5" d="M122.434 124.038C120.421 120.552 120.421 116.783 122.434 115.621C124.447 114.459 127.71 116.343 129.723 119.83C131.736 123.316 131.737 127.085 129.724 128.247C127.711 129.409 124.447 127.525 122.434 124.038Z" fill="black"/>
<path d="M121.425 118.723L121.424 118.722L121.431 118.718C121.434 118.717 121.435 118.716 121.438 118.715L123.126 117.74L123.126 117.741C123.766 117.364 124.652 117.413 125.633 117.979C127.581 119.103 129.16 121.838 129.16 124.087C129.16 125.214 128.764 126.004 128.125 126.372L126.467 127.324C126.436 127.343 126.403 127.362 126.37 127.38L126.314 127.412L126.312 127.408C125.684 127.711 124.849 127.64 123.928 127.109C121.98 125.984 120.401 123.249 120.401 121C120.401 119.881 120.793 119.094 121.425 118.723Z" fill="#AF2245"/>
<path d="M120.401 120.999C120.401 123.249 121.98 125.984 123.928 127.108C125.876 128.233 127.456 127.322 127.456 125.072C127.456 122.823 125.876 120.088 123.928 118.963C121.98 117.838 120.401 118.75 120.401 120.999Z" fill="#AF2245"/>
<path opacity="0.3" d="M120.401 120.999C120.401 123.249 121.98 125.984 123.928 127.108C125.876 128.233 127.456 127.322 127.456 125.072C127.456 122.823 125.876 120.088 123.928 118.963C121.98 117.838 120.401 118.75 120.401 120.999Z" fill="black"/>
<path d="M130.078 96.0959C131.671 94.8504 133.638 94.1931 135.66 94.1635C135.821 94.1613 135.983 94.1602 136.146 94.1602C138.386 94.1602 140.414 94.3661 142.243 94.7427C141.875 94.7282 141.508 94.7299 141.141 94.7427H142.243V95.7778H141.207C138.988 95.8559 136.781 96.4664 134.796 97.6097C130.535 100.07 127.886 104.659 127.886 109.581V113.971C127.886 114.702 127.26 115.282 126.519 115.205C126.476 115.201 126.436 115.188 126.394 115.179L125.293 114.836V114.835C125.367 114.857 125.443 114.874 125.523 114.883C124.837 114.812 124.342 114.183 124.342 113.493V109.42C124.342 102.053 127.528 98.0896 130.078 96.0959Z" fill="#AF2245"/>
<path d="M137.099 131.417C137.551 131.417 138.007 131.321 138.435 131.122L141.925 129.509C142.133 129.412 142.224 129.165 142.127 128.957C142.03 128.748 141.783 128.66 141.576 128.754L138.087 130.367C137.175 130.789 136.096 130.586 135.399 129.861L132.071 126.4C131.911 126.235 131.648 126.229 131.483 126.389C131.317 126.548 131.312 126.811 131.471 126.976L134.799 130.437C135.414 131.077 136.25 131.417 137.099 131.417Z" fill="#AF2245"/>
<path opacity="0.5" d="M137.099 131.417C137.551 131.417 138.007 131.321 138.435 131.122L141.925 129.509C142.133 129.412 142.224 129.165 142.127 128.957C142.03 128.748 141.783 128.66 141.576 128.754L138.087 130.367C137.175 130.789 136.096 130.586 135.399 129.861L132.071 126.4C131.911 126.235 131.648 126.229 131.483 126.389C131.317 126.548 131.312 126.811 131.471 126.976L134.799 130.437C135.414 131.077 136.25 131.417 137.099 131.417Z" fill="black"/>
<path d="M141.006 128.326C141.006 129.226 141.735 129.956 142.635 129.956C143.535 129.956 144.264 129.226 144.264 128.326C144.264 127.426 143.535 126.697 142.635 126.697C141.735 126.697 141.006 127.426 141.006 128.326Z" fill="#AF2245"/>
<path opacity="0.5" d="M141.006 128.326C141.006 129.226 141.735 129.956 142.635 129.956C143.535 129.956 144.264 129.226 144.264 128.326C144.264 127.426 143.535 126.697 142.635 126.697C141.735 126.697 141.006 127.426 141.006 128.326Z" fill="black"/>
<path d="M124.342 109.421V113.494C124.342 114.184 124.837 114.813 125.523 114.884C126.311 114.965 126.976 114.349 126.976 113.571V109.422C126.976 104.188 129.793 99.3088 134.324 96.6917C136.764 95.2861 139.518 94.6349 142.243 94.7432C140.415 94.366 138.386 94.1606 136.146 94.1606C135.984 94.1606 135.821 94.1618 135.66 94.164C133.639 94.1936 131.671 94.8509 130.078 96.0964C127.528 98.0895 124.342 102.052 124.342 109.421Z" fill="#AF2245"/>
<path opacity="0.5" d="M124.342 109.421V113.494C124.342 114.184 124.837 114.813 125.523 114.884C126.311 114.965 126.976 114.349 126.976 113.571V109.422C126.976 104.188 129.793 99.3088 134.324 96.6917C136.764 95.2861 139.518 94.6349 142.243 94.7432C140.415 94.366 138.386 94.1606 136.146 94.1606C135.984 94.1606 135.821 94.1618 135.66 94.164C133.639 94.1936 131.671 94.8509 130.078 96.0964C127.528 98.0895 124.342 102.052 124.342 109.421Z" fill="black"/>
<path d="M130.613 186.189C130.613 186.189 133.315 193.638 123.659 196.965C123.659 196.965 120.506 192.338 123.659 188.55C126.813 184.761 130.613 186.189 130.613 186.189Z" fill="#AF2245"/>
<path opacity="0.7" d="M130.613 186.189C130.613 186.189 133.315 193.638 123.659 196.965C123.659 196.965 120.506 192.338 123.659 188.55C126.813 184.761 130.613 186.189 130.613 186.189Z" fill="black"/>
<path d="M127.241 186.526C127.241 186.526 136.669 189.985 136.621 191.32C136.573 192.654 132.611 191.746 132.611 191.746L134.06 192.693C135.58 193.688 136.758 195.126 137.434 196.813C137.742 197.582 137.42 198.461 136.687 198.849L133.104 200.746C132.252 201.198 131.195 200.856 130.768 199.99C130.372 199.185 129.66 198.589 128.808 198.305C126.861 197.655 123.244 195.79 121.773 190.694L127.241 186.526Z" fill="#E1B49B"/>
<path d="M124.395 138.612C124.395 138.612 129.412 141.41 126.751 149.874C124.09 158.337 119.076 171.487 119.076 171.487L130.613 186.19C130.613 186.19 126.751 186.449 124.412 189.892C122.073 193.336 123.659 196.967 123.659 196.967L109.342 178.574C106.651 175.116 105.886 170.535 107.31 166.391L113.468 148.466C114.993 144.028 118.504 140.558 122.96 139.087L124.395 138.612Z" fill="#AF2245"/>
<path d="M209.165 88.5769L231.356 75.7647C232.026 75.378 232.64 75.3334 233.126 75.5705L233.126 75.5711C233.186 75.6001 233.243 75.6336 233.299 75.6715L238.125 78.5C238.116 78.4944 238.105 78.4905 238.096 78.4855C238.702 78.8287 239.087 79.6328 239.087 80.7811V105.456C239.087 107.543 237.817 109.968 236.252 110.872L214.061 123.685C213.303 124.122 212.616 124.12 212.108 123.768C212.121 123.777 212.133 123.789 212.147 123.797L207.353 120.984L207.354 120.984C206.729 120.651 206.331 119.837 206.331 118.668V93.9929C206.331 91.906 207.599 89.4809 209.165 88.5769Z" fill="#AF2245"/>
<path d="M207.124 90.9155C207.64 89.9033 208.363 89.0401 209.165 88.5769L231.356 75.7647C232.026 75.378 232.64 75.3334 233.126 75.5705L233.126 75.5711C233.186 75.6001 233.243 75.6336 233.299 75.6715L238.125 78.5C237.626 78.2015 236.97 78.2227 236.252 78.6378L214.061 91.4501C213.231 91.9294 212.486 92.8384 211.967 93.8964L207.124 90.9155Z" fill="#AF2245"/>
<path d="M211.225 121.541C211.225 122.645 211.58 123.433 212.146 123.797L207.353 120.985L207.353 120.984C206.728 120.651 206.331 119.837 206.331 118.668V93.993C206.331 92.9752 206.634 91.8781 207.125 90.915L211.967 93.8953C211.508 94.8322 211.226 95.8851 211.226 96.8656L211.225 121.541Z" fill="#AF2245"/>
<path opacity="0.3" d="M207.124 90.9155C207.64 89.9033 208.363 89.0401 209.165 88.5769L231.356 75.7647C232.026 75.378 232.64 75.3334 233.126 75.5705L233.126 75.5711C233.186 75.6001 233.243 75.6336 233.299 75.6715L238.125 78.5C237.626 78.2015 236.97 78.2227 236.252 78.6378L214.061 91.4501C213.231 91.9294 212.486 92.8384 211.967 93.8964L207.124 90.9155Z" fill="black"/>
<path opacity="0.6" d="M211.225 121.541C211.225 122.645 211.58 123.433 212.146 123.797L207.353 120.985L207.353 120.984C206.728 120.651 206.331 119.837 206.331 118.668V93.993C206.331 92.9752 206.634 91.8781 207.125 90.915L211.967 93.8953C211.508 94.8322 211.226 95.8851 211.226 96.8656L211.225 121.541Z" fill="black"/>
<path d="M217.729 103.94C217.729 107.134 218.997 108.223 220.898 107.125C221.948 106.518 222.69 105.555 223.015 104.35C223.556 105.037 224.437 105.082 225.658 104.377C227.651 103.226 229.228 100.495 229.228 97.8008C229.228 95.1241 227.667 94.205 225.658 95.3651C224.638 95.9538 223.834 96.8282 223.278 97.9169V96.8639L221.176 98.0776V103.86C221.176 104.716 220.851 105.189 220.434 105.43C219.723 105.84 219.291 105.144 219.291 103.074C219.291 99.4519 221.609 95.6151 225.04 93.6342C228.486 91.6444 230.789 93.0277 230.789 96.7573C230.789 100.558 228.532 104.555 225.102 106.536C224.129 107.098 223.031 107.5 222.058 107.509L221.563 109.436C222.506 109.445 223.881 108.954 225.102 108.249C229.568 105.671 232.52 100.469 232.52 95.758C232.52 91.1003 229.538 89.3426 225.04 91.939C220.697 94.4467 217.729 99.4609 217.729 103.94ZM223.247 101.254C223.247 99.7019 224.066 98.3543 225.179 97.7121C226.307 97.0609 227.095 97.5157 227.095 99.0329C227.095 100.567 226.307 101.951 225.179 102.602C224.066 103.244 223.247 102.825 223.247 101.254Z" fill="#AF2245"/>
<g opacity="0.9">
<path d="M217.729 103.94C217.729 107.134 218.997 108.223 220.898 107.125C221.948 106.518 222.69 105.555 223.015 104.35C223.556 105.037 224.437 105.082 225.658 104.377C227.651 103.226 229.228 100.495 229.228 97.8008C229.228 95.1241 227.667 94.205 225.658 95.3651C224.638 95.9538 223.834 96.8282 223.278 97.9169V96.8639L221.176 98.0776V103.86C221.176 104.716 220.851 105.189 220.434 105.43C219.723 105.84 219.291 105.144 219.291 103.074C219.291 99.4519 221.609 95.6151 225.04 93.6342C228.486 91.6444 230.789 93.0277 230.789 96.7573C230.789 100.558 228.532 104.555 225.102 106.536C224.129 107.098 223.031 107.5 222.058 107.509L221.563 109.436C222.506 109.445 223.881 108.954 225.102 108.249C229.568 105.671 232.52 100.469 232.52 95.758C232.52 91.1003 229.538 89.3426 225.04 91.939C220.697 94.4467 217.729 99.4609 217.729 103.94ZM223.247 101.254C223.247 99.7019 224.066 98.3543 225.179 97.7121C226.307 97.0609 227.095 97.5157 227.095 99.0329C227.095 100.567 226.307 101.951 225.179 102.602C224.066 103.244 223.247 102.825 223.247 101.254Z" fill="white"/>
</g>
<path d="M209.165 132.533L231.356 119.721C232.026 119.334 232.64 119.29 233.126 119.527L233.126 119.527C233.186 119.556 233.243 119.59 233.299 119.628L238.125 122.456C238.116 122.451 238.105 122.447 238.096 122.442C238.702 122.785 239.087 123.589 239.087 124.737V149.412C239.087 151.5 237.817 153.925 236.252 154.829L214.061 167.641C213.303 168.078 212.616 168.076 212.108 167.724C212.121 167.733 212.133 167.745 212.147 167.754L207.353 164.941L207.354 164.94C206.729 164.608 206.331 163.793 206.331 162.624V137.949C206.331 135.863 207.599 133.437 209.165 132.533Z" fill="#AF2245"/>
<path d="M207.124 134.872C207.64 133.86 208.363 132.997 209.165 132.534L231.356 119.721C232.026 119.335 232.64 119.29 233.126 119.527L233.126 119.528C233.186 119.557 233.243 119.59 233.299 119.628L238.125 122.457C237.626 122.158 236.97 122.179 236.252 122.595L214.061 135.407C213.231 135.886 212.486 136.795 211.967 137.853L207.124 134.872Z" fill="#AF2245"/>
<path d="M211.225 165.498C211.225 166.602 211.58 167.39 212.146 167.754L207.353 164.941L207.353 164.941C206.728 164.608 206.331 163.794 206.331 162.625V137.95C206.331 136.932 206.634 135.835 207.125 134.872L211.967 137.852C211.508 138.789 211.226 139.842 211.226 140.823L211.225 165.498Z" fill="#AF2245"/>
<path opacity="0.3" d="M207.124 134.872C207.64 133.86 208.363 132.997 209.165 132.534L231.356 119.721C232.026 119.335 232.64 119.29 233.126 119.527L233.126 119.528C233.186 119.557 233.243 119.59 233.299 119.628L238.125 122.457C237.626 122.158 236.97 122.179 236.252 122.595L214.061 135.407C213.231 135.886 212.486 136.795 211.967 137.853L207.124 134.872Z" fill="black"/>
<path opacity="0.6" d="M211.225 165.498C211.225 166.602 211.58 167.39 212.146 167.754L207.353 164.941L207.353 164.941C206.728 164.608 206.331 163.794 206.331 162.625V137.95C206.331 136.932 206.634 135.835 207.125 134.872L211.967 137.852C211.508 138.789 211.226 139.842 211.226 140.823L211.225 165.498Z" fill="black"/>
<path d="M227.639 143.566L232.989 134.872V146.655L227.639 143.566Z" fill="#AF2245"/>
<path d="M222.664 146.071L217.324 155.321V143.559L222.664 146.071Z" fill="#AF2245"/>
<path d="M232.176 134.491L226.681 143.421C226.66 143.444 226.634 143.463 226.618 143.492C226.606 143.513 226.604 143.537 226.595 143.559L224.985 146.177L223.602 145.526C223.579 145.505 223.559 145.48 223.531 145.463C223.473 145.43 223.412 145.414 223.35 145.407L217.794 142.794L232.176 134.491Z" fill="#AF2245"/>
<path d="M223.475 146.453L224.966 147.154C225.027 147.183 225.092 147.196 225.155 147.196C225.306 147.196 225.452 147.12 225.536 146.984L227.171 144.327L232.543 147.428L218.096 155.769L223.475 146.453Z" fill="#AF2245"/>
<g opacity="0.9">
<path d="M227.639 143.566L232.989 134.872V146.655L227.639 143.566Z" fill="white"/>
<path d="M222.664 146.071L217.324 155.321V143.559L222.664 146.071Z" fill="white"/>
<path d="M232.176 134.491L226.681 143.421C226.66 143.444 226.634 143.463 226.618 143.492C226.606 143.513 226.604 143.537 226.595 143.559L224.985 146.177L223.602 145.526C223.579 145.505 223.559 145.48 223.531 145.463C223.473 145.43 223.412 145.414 223.35 145.407L217.794 142.794L232.176 134.491Z" fill="white"/>
<path d="M223.475 146.453L224.966 147.154C225.027 147.183 225.092 147.196 225.155 147.196C225.306 147.196 225.452 147.12 225.536 146.984L227.171 144.327L232.543 147.428L218.096 155.769L223.475 146.453Z" fill="white"/>
</g>
<path d="M209.165 44.6204L231.356 31.8082C232.026 31.4215 232.64 31.3768 233.126 31.614L233.126 31.6145C233.186 31.6436 233.243 31.677 233.299 31.715L238.125 34.5435C238.116 34.5379 238.105 34.534 238.096 34.529C238.702 34.8721 239.087 35.6762 239.087 36.8246V61.4993C239.087 63.5868 237.817 66.0124 236.252 66.9164L214.061 79.7286C213.303 80.1661 212.616 80.1639 212.108 79.8118C212.121 79.8207 212.133 79.833 212.147 79.8414L207.353 77.0285L207.354 77.0279C206.729 76.6954 206.331 75.8807 206.331 74.7117V50.0369C206.331 47.9494 207.599 45.5244 209.165 44.6204Z" fill="#AF2245"/>
<path d="M207.124 46.959C207.64 45.9468 208.363 45.0835 209.165 44.6198L231.356 31.8082C232.026 31.4215 232.64 31.3768 233.126 31.614L233.126 31.6145C233.186 31.6436 233.243 31.677 233.299 31.715L238.125 34.5435C237.626 34.2449 236.97 34.2662 236.252 34.6813L214.061 47.4935C213.231 47.9729 212.486 48.8818 211.967 49.9398L207.124 46.959Z" fill="#AF2245"/>
<path d="M211.225 77.5849C211.225 78.6886 211.58 79.4765 212.146 79.8409L207.353 77.028L207.353 77.0274C206.728 76.6949 206.331 75.8802 206.331 74.7112V50.0364C206.331 49.0186 206.634 47.9216 207.125 46.9585L211.967 49.9388C211.508 50.8757 211.226 51.9286 211.226 52.9096L211.225 77.5849Z" fill="#AF2245"/>
<path opacity="0.3" d="M207.124 46.959C207.64 45.9468 208.363 45.0835 209.165 44.6198L231.356 31.8082C232.026 31.4215 232.64 31.3768 233.126 31.614L233.126 31.6145C233.186 31.6436 233.243 31.677 233.299 31.715L238.125 34.5435C237.626 34.2449 236.97 34.2662 236.252 34.6813L214.061 47.4935C213.231 47.9729 212.486 48.8818 211.967 49.9398L207.124 46.959Z" fill="black"/>
<path opacity="0.6" d="M211.225 77.5849C211.225 78.6886 211.58 79.4765 212.146 79.8409L207.353 77.028L207.353 77.0274C206.728 76.6949 206.331 75.8802 206.331 74.7112V50.0364C206.331 49.0186 206.634 47.9216 207.125 46.9585L211.967 49.9388C211.508 50.8757 211.226 51.9286 211.226 52.9096L211.225 77.5849Z" fill="black"/>
<path d="M218.483 66.9405C219.336 65.5377 220.197 64.1399 221.051 62.7377C221.443 62.0937 221.885 61.7204 222.395 61.6111C222.809 61.5223 223.223 61.4319 223.645 61.3053C223.757 61.2718 223.935 61.1278 224.012 60.9939C225.435 58.5292 226.546 55.9976 227.319 53.4034C227.354 53.2829 227.329 53.1216 227.272 53.0647C227.011 52.8019 226.732 52.5614 226.45 52.3282C226.103 52.0408 226.042 51.5503 226.236 50.85C226.648 49.3596 227.047 47.8714 227.456 46.3816C227.723 45.4067 228.327 44.7025 229.054 44.5262C230.066 44.2807 230.979 44.3125 231.789 44.6255C232.13 44.7578 232.306 45.0652 232.31 45.5925C232.169 46.6148 232.071 47.6237 231.88 48.661C230.5 56.1449 227.18 63.0384 221.942 69.3315C221.529 69.827 221.116 70.0614 220.699 70.043C219.779 70.0028 218.99 69.7054 218.342 69.1351C217.845 68.6993 217.896 67.9064 218.483 66.9405Z" fill="#AF2245"/>
<path d="M218.55 59.354C218.64 57.8625 219.081 56.3263 219.869 54.7544C220.438 53.6172 221.137 52.5933 221.959 51.6815C222.18 51.436 222.366 51.3568 222.472 51.5448C222.581 51.7368 222.476 51.9901 222.261 52.2306C222.188 52.3126 222.115 52.3952 222.045 52.4811C220.427 54.4436 219.499 56.5506 219.264 58.8021C219.247 58.974 219.277 59.1442 219.215 59.311C219.149 59.4885 219.007 59.7295 218.885 59.8166C218.769 59.8986 218.637 59.816 218.541 59.8088C218.545 59.5895 218.542 59.4745 218.55 59.354Z" fill="#AF2245"/>
<path d="M223.607 54.7733C222.863 55.6309 222.474 56.546 222.397 57.5421C222.385 57.6916 222.261 57.8942 222.222 57.9913C221.883 58.2725 221.715 58.1776 221.715 57.8272C221.713 56.7782 222.441 55.1243 223.285 54.2476C223.495 54.0295 223.672 53.9636 223.772 54.1466C223.864 54.3163 223.794 54.5579 223.607 54.7733Z" fill="#AF2245"/>
<g opacity="0.9">
<path d="M218.483 66.9405C219.336 65.5377 220.197 64.1399 221.051 62.7377C221.443 62.0937 221.885 61.7204 222.395 61.6111C222.809 61.5223 223.223 61.4319 223.645 61.3053C223.757 61.2718 223.935 61.1278 224.012 60.9939C225.435 58.5292 226.546 55.9976 227.319 53.4034C227.354 53.2829 227.329 53.1216 227.272 53.0647C227.011 52.8019 226.732 52.5614 226.45 52.3282C226.103 52.0408 226.042 51.5503 226.236 50.85C226.648 49.3596 227.047 47.8714 227.456 46.3816C227.723 45.4067 228.327 44.7025 229.054 44.5262C230.066 44.2807 230.979 44.3125 231.789 44.6255C232.13 44.7578 232.306 45.0652 232.31 45.5925C232.169 46.6148 232.071 47.6237 231.88 48.661C230.5 56.1449 227.18 63.0384 221.942 69.3315C221.529 69.827 221.116 70.0614 220.699 70.043C219.779 70.0028 218.99 69.7054 218.342 69.1351C217.845 68.6993 217.896 67.9064 218.483 66.9405Z" fill="white"/>
<path d="M218.55 59.354C218.64 57.8625 219.081 56.3263 219.869 54.7544C220.438 53.6172 221.137 52.5933 221.959 51.6815C222.18 51.436 222.366 51.3568 222.472 51.5448C222.581 51.7368 222.476 51.9901 222.261 52.2306C222.188 52.3126 222.115 52.3952 222.045 52.4811C220.427 54.4436 219.499 56.5506 219.264 58.8021C219.247 58.974 219.277 59.1442 219.215 59.311C219.149 59.4885 219.007 59.7295 218.885 59.8166C218.769 59.8986 218.637 59.816 218.541 59.8088C218.545 59.5895 218.542 59.4745 218.55 59.354Z" fill="white"/>
<path d="M223.607 54.7733C222.863 55.6309 222.474 56.546 222.397 57.5421C222.385 57.6916 222.261 57.8942 222.222 57.9913C221.883 58.2725 221.715 58.1776 221.715 57.8272C221.713 56.7782 222.441 55.1243 223.285 54.2476C223.495 54.0295 223.672 53.9636 223.772 54.1466C223.864 54.3163 223.794 54.5579 223.607 54.7733Z" fill="white"/>
</g>
<path d="M95.3086 29.8417L90.0791 32.817V30.9661C90.0874 30.8344 90.0958 30.7022 90.0958 30.5727C90.0958 30.4432 90.0874 30.321 90.0791 30.1988V30.1553L90.0774 30.1564C89.8893 27.7035 88.0318 26.7632 85.7646 28.0723C84.7987 28.6297 83.9098 29.5125 83.1894 30.5454C82.6783 27.2135 79.9603 26.0111 76.6748 27.9083C73.0249 30.0153 70.0664 35.1399 70.0664 39.3539L70.0631 43.3191C70.0625 43.9574 69.7238 44.5484 69.173 44.8715L66.0968 46.676C64.7392 47.4723 63.9055 48.9281 63.9055 50.5022C63.9055 51.9084 65.4283 52.7872 66.6459 52.0836L95.2294 35.5724C96.7739 34.6801 97.7259 33.0318 97.7259 31.2473C97.7259 30.0069 96.3867 29.2279 95.3086 29.8417Z" fill="white"/>
<path d="M55.4507 29.0684L51.6479 31.2323V29.8864C51.654 29.7905 51.6602 29.6945 51.6602 29.6007C51.6602 29.5064 51.654 29.4177 51.6479 29.329V29.2972L51.6462 29.2977C51.5095 27.5138 50.1586 26.8303 48.5103 27.7822C47.8078 28.1879 47.1616 28.8296 46.6376 29.5806C46.266 27.1578 44.2896 26.2834 41.9002 27.6628C39.2458 29.1951 37.0947 32.9219 37.0947 35.9865L37.0925 38.8697C37.0919 39.3339 36.8458 39.7636 36.4452 39.9985L34.2082 41.3109C33.2211 41.8901 32.6145 42.9487 32.6145 44.0931C32.6145 45.1159 33.7216 45.7548 34.6071 45.2431L55.3932 33.2355C56.5165 32.5866 57.2084 31.388 57.2084 30.0907C57.2084 29.1889 56.2347 28.6226 55.4507 29.0684Z" fill="white"/>
</svg>
