<svg width="222" height="228" viewBox="0 0 222 228" fill="none" xmlns="http://www.w3.org/2000/svg">
<g clip-path="url(#clip0_1142_2618)">
<path d="M46.0265 184.399C45.9518 184.399 45.8787 184.378 45.8151 184.339L22.8275 170.284C22.7547 170.239 22.6979 170.173 22.6652 170.094C22.6324 170.015 22.6253 169.928 22.645 169.844C22.6646 169.761 22.7099 169.686 22.7744 169.63C22.839 169.574 22.9196 169.54 23.0047 169.532L132.13 160.034C132.186 160.029 132.242 160.036 132.296 160.054L164.101 170.864C164.189 170.894 164.264 170.953 164.314 171.031C164.364 171.109 164.385 171.202 164.375 171.294C164.365 171.386 164.323 171.472 164.258 171.537C164.192 171.603 164.106 171.644 164.014 171.653L46.0703 184.396C46.0558 184.398 46.0411 184.399 46.0265 184.399ZM24.3057 170.232L46.1207 183.572L162.1 171.042L132.115 160.851L24.3057 170.232Z" fill="url(#paint0_linear_1142_2618)"/>
<path d="M46.0265 184.399C45.9518 184.399 45.8786 184.378 45.8151 184.339L22.8274 170.284C22.7681 170.248 22.719 170.197 22.685 170.136C22.651 170.075 22.6331 170.007 22.6331 169.937V91.1926C22.6332 91.1321 22.6467 91.0724 22.6727 91.0178C22.6987 90.9631 22.7366 90.915 22.7836 90.8769C22.8305 90.8387 22.8854 90.8115 22.9442 90.7972C23.0029 90.783 23.0642 90.7819 23.1234 90.7943L46.1103 95.6154C46.2016 95.6345 46.2835 95.6844 46.3422 95.7568C46.401 95.8292 46.433 95.9197 46.4329 96.0129V183.992C46.4329 184.1 46.3901 184.204 46.3139 184.28C46.2377 184.356 46.1343 184.399 46.0265 184.399ZM23.446 169.709L45.623 183.267V96.3474L23.446 91.6947V169.709Z" fill="url(#paint1_linear_1142_2618)"/>
<path d="M163.97 171.656C163.926 171.656 163.882 171.649 163.84 171.634L131.785 160.813C131.705 160.786 131.635 160.734 131.586 160.665C131.536 160.596 131.509 160.513 131.509 160.428V85.6565C131.509 85.601 131.52 85.546 131.542 85.495C131.564 85.444 131.596 85.398 131.636 85.3598C131.677 85.3221 131.724 85.2928 131.776 85.2737C131.827 85.2546 131.882 85.2461 131.937 85.2486L163.991 86.9278C164.095 86.9333 164.193 86.9784 164.264 87.0539C164.336 87.1294 164.376 87.2294 164.376 87.3335V171.249C164.376 171.357 164.333 171.46 164.257 171.537C164.181 171.613 164.077 171.656 163.969 171.656H163.97ZM132.32 160.134L163.561 170.681V87.7221L132.32 86.0852V160.134Z" fill="url(#paint2_linear_1142_2618)"/>
<path d="M23.0395 91.6005C22.9353 91.6003 22.8351 91.5601 22.7597 91.4882C22.6842 91.4163 22.6391 91.3182 22.6338 91.2141C22.6334 91.2072 22.6334 91.2002 22.6338 91.1933C22.6341 91.0892 22.6742 90.9891 22.7459 90.9137C22.8176 90.8382 22.9156 90.7931 23.0195 90.7876L131.896 85.2523C131.949 85.2493 132.003 85.2569 132.053 85.2746C132.103 85.2924 132.15 85.32 132.189 85.3558C132.229 85.3916 132.261 85.4349 132.284 85.4832C132.307 85.5315 132.32 85.5838 132.322 85.6372C132.323 85.6444 132.323 85.6516 132.322 85.6587C132.322 85.7628 132.282 85.8629 132.21 85.9383C132.139 86.0137 132.041 86.0586 131.937 86.0637L23.0603 91.6005H23.0395Z" fill="url(#paint3_linear_1142_2618)"/>
<path d="M110.404 159.283V36.641H134.719V159.283C134.719 162.507 133.437 165.599 131.157 167.879C128.877 170.159 125.785 171.44 122.561 171.44C120.964 171.44 119.383 171.125 117.908 170.514C116.433 169.903 115.093 169.008 113.964 167.879C112.835 166.75 111.94 165.41 111.329 163.935C110.718 162.46 110.404 160.879 110.404 159.283Z" fill="url(#paint4_linear_1142_2618)" stroke="#602D8A"/>
<path d="M122.561 170.958C116.123 170.958 110.885 165.721 110.885 159.283V75.1243H134.237V159.283C134.237 165.721 129 170.958 122.561 170.958Z" fill="#AF2245"/>
<path d="M134.237 75.1243C134.237 76.9504 129.01 78.4301 122.561 78.4301C116.112 78.4301 110.885 76.9467 110.885 75.1243C110.885 73.3019 116.112 71.8178 122.561 71.8178C129.009 71.8178 134.237 73.2982 134.237 75.1243Z" fill="#AF2245"/>
<g style="mix-blend-mode:soft-light" opacity="0.5">
<path d="M119.182 161.738C117.048 153.865 123.882 149.916 124.774 136.718C125.783 121.8 117.482 120.481 117.121 105.518C116.669 86.7527 129.547 81.3383 125.363 66.9581C123.012 58.8787 118.281 58.3032 115.355 48.4155C114.085 44.1225 113.713 39.9601 113.846 36.1425H109.904V159.283C109.904 162.639 111.237 165.859 113.611 168.233C115.984 170.606 119.204 171.94 122.561 171.94C123.967 171.94 125.364 171.706 126.693 171.246C122.029 168.05 119.99 164.722 119.182 161.738Z" fill="white"/>
</g>
<path d="M136.985 33.9901V33.9827H135.147C132.677 32.6943 127.968 31.8236 122.561 31.8236C117.154 31.8236 112.445 32.6943 109.976 33.9827H108.138V33.9916C107.959 34.6332 107.989 35.5403 108.138 36.1855V36.5334H108.238C109.069 38.6324 115.163 40.262 122.561 40.262C129.959 40.262 136.053 38.6302 136.885 36.5334C136.888 36.523 136.892 36.5111 136.896 36.5C136.899 36.4889 136.91 36.4577 136.916 36.437C137.119 35.7961 137.188 34.7199 136.985 33.9901Z" fill="url(#paint5_linear_1142_2618)"/>
<path d="M122.561 37.7112C130.527 37.7112 136.985 36.0857 136.985 34.0806C136.985 32.0754 130.527 30.4499 122.561 30.4499C114.595 30.4499 108.137 32.0754 108.137 34.0806C108.137 36.0857 114.595 37.7112 122.561 37.7112Z" fill="#602D8A"/>
<path d="M122.561 37.2202C129.45 37.2202 135.036 35.8146 135.036 34.0806C135.036 32.3466 129.45 30.9409 122.561 30.9409C115.671 30.9409 110.086 32.3466 110.086 34.0806C110.086 35.8146 115.671 37.2202 122.561 37.2202Z" fill="url(#paint6_linear_1142_2618)"/>
<path d="M78.9813 38.0147H103.296V160.653C103.296 163.877 102.015 166.97 99.7349 169.25C97.455 171.53 94.3627 172.81 91.1385 172.81C87.9142 172.81 84.8219 171.53 82.542 169.25C80.2621 166.97 78.9813 163.877 78.9813 160.653V38.0147Z" fill="url(#paint7_linear_1142_2618)" stroke="#602D8A"/>
<path d="M91.1385 172.332C84.6997 172.332 79.4618 167.094 79.4618 160.656V78.0889H102.815V160.653C102.815 167.094 97.5764 172.332 91.1385 172.332Z" fill="#AF2245"/>
<path d="M91.1385 81.3413C97.5873 81.3413 102.815 79.8851 102.815 78.0889C102.815 76.2926 97.5873 74.8365 91.1385 74.8365C84.6896 74.8365 79.4618 76.2926 79.4618 78.0889C79.4618 79.8851 84.6896 81.3413 91.1385 81.3413Z" fill="#AF2245"/>
<g style="mix-blend-mode:soft-light" opacity="0.5">
<path d="M87.7592 163.111C85.6254 155.239 92.4594 151.29 93.3517 138.092C94.3604 123.173 86.0593 121.855 85.6988 106.892C85.2464 88.1264 98.1238 82.7119 93.9406 68.3318C91.5894 60.2524 86.8588 59.6768 83.9328 49.7891C82.6623 45.4954 82.2907 41.3337 82.4242 37.5154H78.4813V160.653C78.4813 164.01 79.8148 167.229 82.1885 169.603C84.5621 171.977 87.7816 173.31 91.1385 173.31C92.5448 173.311 93.9413 173.076 95.2705 172.617C90.6059 169.424 88.5677 166.096 87.7592 163.111Z" fill="white"/>
</g>
<path d="M105.562 35.3645V35.3563H103.724C101.254 34.0687 96.5447 33.1972 91.1377 33.1972C85.7306 33.1972 81.0216 34.0687 78.5524 35.3563H76.7137V35.3652C76.535 36.0068 76.5654 36.9139 76.7137 37.5592V37.907H76.8146C77.6461 40.0061 83.7392 41.6356 91.1377 41.6356C98.5362 41.6356 104.63 40.0038 105.461 37.907L105.473 37.8737C105.48 37.8522 105.487 37.8314 105.493 37.8106C105.693 37.1705 105.767 36.0936 105.562 35.3645Z" fill="url(#paint8_linear_1142_2618)"/>
<path d="M91.1385 39.0849C99.1046 39.0849 105.562 37.4594 105.562 35.4542C105.562 33.4491 99.1046 31.8236 91.1385 31.8236C83.1724 31.8236 76.7145 33.4491 76.7145 35.4542C76.7145 37.4594 83.1724 39.0849 91.1385 39.0849Z" fill="#602D8A"/>
<path d="M103.616 35.4535C103.616 37.1876 98.0311 38.5931 91.1414 38.5931C84.2517 38.5931 78.6667 37.1839 78.6667 35.4535C78.6667 33.7231 84.2517 32.3138 91.1414 32.3138C98.0311 32.3138 103.616 33.7201 103.616 35.4535Z" fill="url(#paint9_linear_1142_2618)"/>
<path d="M49.4525 161.637V38.9945H73.7676V161.637C73.7676 164.862 72.4868 167.954 70.2069 170.234C67.927 172.514 64.8347 173.795 61.6104 173.795C58.3861 173.795 55.2938 172.514 53.0137 170.234C50.7337 167.954 49.4527 164.862 49.4525 161.637Z" stroke="#602D8A"/>
<path d="M61.6067 173.313C55.168 173.313 49.9301 168.075 49.9301 161.637V91.0887H73.2804V161.637C73.2804 168.075 68.0447 173.313 61.6067 173.313Z" fill="url(#paint10_linear_1142_2618)"/>
<g style="mix-blend-mode:soft-light" opacity="0.5">
<path d="M58.2238 164.093C56.0907 156.22 62.924 152.271 63.817 139.073C64.8257 124.155 56.5246 122.836 56.1634 107.873C55.7117 89.1077 68.5891 83.6932 64.4052 69.313C62.0547 61.2337 57.3234 60.6581 54.3974 50.7704C53.1276 46.4774 52.756 42.315 52.8887 38.4967H48.9525V161.637C48.9527 164.994 50.2864 168.214 52.6602 170.588C55.034 172.961 58.2535 174.295 61.6104 174.295C63.0168 174.295 64.4133 174.061 65.7425 173.601C61.0742 170.405 59.0397 167.077 58.2238 164.093Z" fill="#602D8A"/>
</g>
<path d="M76.0299 36.3435V36.3354H74.192C71.7229 35.0478 67.0138 34.177 61.6068 34.177C56.1997 34.177 51.4906 35.0478 49.0208 36.3354H47.1806V36.345C47.0019 36.9858 47.0323 37.8937 47.1806 38.5382V38.8868H47.2807C48.1122 40.9851 54.206 42.6154 61.6045 42.6154C69.0023 42.6154 75.0961 40.9836 75.9276 38.8868C75.932 38.8757 75.935 38.8638 75.9387 38.8527C75.9424 38.8416 75.9528 38.8104 75.9595 38.7897C76.1642 38.1518 76.2339 37.0756 76.0299 36.3435Z" fill="url(#paint11_linear_1142_2618)"/>
<path d="M76.0299 36.4355C76.0299 38.4381 69.5726 40.0699 61.6067 40.0699C53.6408 40.0699 47.1828 38.4448 47.1828 36.4355C47.1828 34.4262 53.6408 32.8056 61.6067 32.8056C69.5726 32.8056 76.0299 34.4307 76.0299 36.4355Z" fill="#602D8A"/>
<path d="M74.0807 36.4355C74.0807 38.1696 68.4956 39.5759 61.6067 39.5759C54.7177 39.5759 49.132 38.1666 49.132 36.4355C49.132 34.7044 54.717 33.2959 61.6067 33.2959C68.4964 33.2959 74.0807 34.7014 74.0807 36.4355Z" fill="url(#paint12_linear_1142_2618)"/>
<path d="M46.0265 96.4216C45.9239 96.4215 45.8251 96.3826 45.75 96.3127C45.6749 96.2428 45.629 96.1471 45.6215 96.0448C45.6215 96.0352 45.6215 96.0255 45.6215 96.0151C45.6214 95.9126 45.6602 95.8139 45.7299 95.7387C45.7997 95.6636 45.8953 95.6177 45.9976 95.6102L163.941 86.9322C164.049 86.9247 164.155 86.9599 164.236 87.0302C164.318 87.1005 164.368 87.2002 164.377 87.3075C164.377 87.3172 164.377 87.3275 164.377 87.3372C164.377 87.4398 164.338 87.5387 164.268 87.6138C164.198 87.689 164.102 87.7348 164 87.7422L46.0599 96.4216H46.0265Z" fill="url(#paint13_linear_1142_2618)"/>
<path d="M111.898 185.688C112.162 177.93 112.55 170.692 114.578 170.355L154.622 178.543L197.641 179.433C197.641 179.433 198.382 178.988 198.981 183.601C199.579 188.213 200.168 195.659 200.168 195.659L182.459 203.254C182.459 203.254 129.613 195.513 111.898 185.688Z" fill="url(#paint14_linear_1142_2618)"/>
<path d="M181.233 204.692C181.185 204.692 181.138 204.692 181.089 204.692C163.908 204.005 145.845 199.112 133.718 195.128C120.597 190.818 111.384 186.606 111.292 186.564C111.116 186.486 110.958 186.374 110.826 186.234C110.694 186.094 110.591 185.93 110.523 185.75C110.455 185.57 110.424 185.378 110.43 185.186C110.437 184.994 110.482 184.805 110.562 184.63C110.642 184.456 110.756 184.299 110.898 184.168C111.039 184.038 111.205 183.937 111.386 183.872C111.567 183.806 111.759 183.777 111.951 183.786C112.143 183.795 112.331 183.842 112.505 183.925C112.594 183.966 121.688 188.122 134.662 192.38C146.604 196.301 164.371 201.115 181.206 201.788C181.292 201.792 181.378 201.778 181.459 201.748C183.807 200.884 195.74 196.455 200.076 194.091C200.414 193.906 200.811 193.864 201.181 193.972C201.55 194.081 201.862 194.332 202.046 194.67C202.231 195.008 202.273 195.406 202.165 195.775C202.056 196.145 201.805 196.456 201.467 196.641C196.954 199.102 184.845 203.597 182.464 204.474C182.07 204.619 181.653 204.692 181.233 204.692Z" fill="#602D8A"/>
<path d="M134.377 175.565C134.377 175.565 134.08 167.676 135.865 164.997C137.651 162.318 168.913 172.44 168.913 172.44L165.042 182.562L134.377 175.565Z" fill="#602D8A"/>
<path d="M172.456 169.175L164.472 172.918C160.205 170.477 153.14 168.391 147.15 166.911C144.09 166.156 141.291 165.554 139.258 165.142C138.295 164.946 137.503 164.793 136.936 164.686C136.983 164.661 137.033 164.636 137.086 164.61C137.889 164.225 139.484 163.783 142.576 163.71C144.085 163.674 146.784 164.009 150.028 164.547C153.256 165.083 156.979 165.812 160.512 166.547C164.044 167.281 167.381 168.02 169.835 168.575C170.891 168.814 171.783 169.019 172.456 169.175Z" fill="white" stroke="#602D8A"/>
<path d="M157.451 174.375C157.451 174.375 151.943 175.714 145.541 174.375C139.139 173.035 122.915 169.611 120.086 169.462C117.257 169.314 114.578 170.352 114.578 170.352C114.578 170.352 132.293 176.902 149.263 180.773C166.233 184.643 177.994 185.834 180.822 185.238C183.65 184.643 197.643 179.433 197.643 179.433C197.643 179.433 198.384 177.349 190.944 176.307C183.504 175.265 157.451 174.375 157.451 174.375Z" fill="white"/>
<path d="M171.208 151.04C171.178 150.832 171.152 150.649 171.13 150.494C171.136 150.494 171.142 150.495 171.148 150.495C171.513 150.523 172.025 150.571 172.643 150.655C173.882 150.821 175.541 151.128 177.302 151.684C180.844 152.803 184.697 154.9 186.47 158.802C188.317 162.865 189.568 166.809 190.174 170.075C190.477 171.708 190.616 173.161 190.591 174.369C190.566 175.587 190.375 176.511 190.055 177.119C189.923 177.37 189.661 177.642 189.249 177.915C188.841 178.186 188.315 178.439 187.699 178.666C186.466 179.121 184.921 179.453 183.354 179.626C181.787 179.8 180.223 179.811 178.954 179.639C178.318 179.553 177.772 179.423 177.341 179.252C176.904 179.08 176.626 178.882 176.477 178.686C176.408 178.595 176.308 178.405 176.185 178.089C176.066 177.782 175.938 177.39 175.803 176.919C175.532 175.979 175.241 174.756 174.941 173.344C174.34 170.522 173.707 166.977 173.129 163.5C172.552 160.024 172.031 156.622 171.654 154.089C171.465 152.822 171.313 151.773 171.208 151.04Z" fill="white" stroke="#602D8A"/>
<path d="M185.301 157.848C185.061 157.377 184.856 156.988 184.701 156.699L186.32 156.318C187.928 157.981 189.283 160.928 190.32 163.95C191.39 167.066 192.092 170.167 192.385 171.785L192.385 171.785C192.849 174.339 194.732 176.346 195.681 177.224L195.682 177.224C195.813 177.345 195.918 177.491 195.989 177.654C196.061 177.817 196.098 177.993 196.098 178.17V178.331L187.733 181.166H183.849V175.505L189.877 173.966L190.253 173.87V173.482C190.253 169.949 188.765 165.589 187.311 162.159C186.58 160.434 185.849 158.925 185.301 157.848Z" fill="white" stroke="#602D8A"/>
<path d="M115.024 109.024L113.789 114.012C113.716 114.334 113.749 114.671 113.882 114.973C114.016 115.275 114.243 115.525 114.531 115.687L145.636 133.14C146.165 133.436 146.729 133.666 147.315 133.822L149.102 134.298C150.28 134.613 151.519 134.624 152.703 134.332L179.74 127.673C180.142 127.574 180.503 127.352 180.772 127.038C181.041 126.724 181.205 126.334 181.241 125.921L181.563 122.273L115.024 109.024Z" fill="url(#paint15_linear_1142_2618)"/>
<path d="M148.424 128.842C149.223 129.001 150.406 129.224 151.242 129.381C151.899 129.504 152.574 129.486 153.223 129.329L181.365 122.505C181.41 122.494 181.453 122.474 181.49 122.447C181.527 122.419 181.558 122.384 181.581 122.343C181.604 122.303 181.619 122.259 181.624 122.213C181.629 122.167 181.625 122.12 181.612 122.076L181.384 121.318C181.347 121.196 181.287 121.082 181.206 120.983C181.124 120.885 181.024 120.803 180.911 120.744L149.092 103.96C148.996 103.909 148.893 103.871 148.786 103.848L145.923 103.236C145.773 103.204 145.619 103.202 145.468 103.228L115.429 108.505C115.316 108.525 115.214 108.584 115.14 108.672C115.066 108.761 115.025 108.872 115.025 108.987V109.338C115.025 109.423 115.048 109.507 115.09 109.581C115.133 109.655 115.194 109.717 115.268 109.76L146.966 128.287C147.418 128.551 147.91 128.739 148.424 128.842Z" fill="white"/>
<path d="M142.592 86.8966L139.984 96.3519C139.797 97.0328 141.04 97.9703 142.762 98.445C144.484 98.9197 146.031 98.7528 146.219 98.0741L148.827 88.6189L142.592 86.8966Z" fill="url(#paint16_linear_1142_2618)"/>
<path d="M167.773 122.837C169.261 118.795 162.426 112.557 152.507 108.906C142.588 105.255 133.341 105.572 131.853 109.614C130.365 113.656 137.199 119.894 147.118 123.545C157.037 127.197 166.285 126.88 167.773 122.837Z" fill="#AF2245"/>
<path d="M168.07 122.241C169.558 118.198 162.724 111.961 152.805 108.31C142.886 104.658 133.639 104.975 132.15 109.018C130.662 113.06 137.497 119.298 147.416 122.949C157.335 126.6 166.582 126.283 168.07 122.241Z" fill="#D3D9E4"/>
<path style="mix-blend-mode:multiply" opacity="0.6" d="M162.232 114.628C156.329 110.186 147.016 106.962 140.087 106.962C139.204 106.957 138.322 107.019 137.448 107.147C135.059 107.511 133.565 108.376 133.228 109.582C133.861 108.732 135.196 108.121 137.106 107.83C137.98 107.702 138.862 107.641 139.745 107.645C146.674 107.645 155.988 110.869 161.89 115.312C165.283 117.866 167.115 120.55 166.669 122.316C166.666 122.332 166.659 122.348 166.654 122.363C166.82 122.146 166.942 121.898 167.011 121.633C167.456 119.866 165.623 117.183 162.232 114.628Z" fill="#AF2245"/>
<g style="mix-blend-mode:soft-light" opacity="0.97">
<path d="M135.948 107.477C136.029 107.452 136.111 107.428 136.196 107.403C136.111 107.428 136.029 107.452 135.948 107.477Z" fill="white"/>
</g>
<g style="mix-blend-mode:soft-light" opacity="0.97">
<path d="M135.564 107.601C135.649 107.571 135.734 107.541 135.823 107.513C135.732 107.541 135.649 107.571 135.564 107.601Z" fill="white"/>
</g>
<g style="mix-blend-mode:soft-light">
<path d="M166.654 122.363C166.659 122.348 166.665 122.332 166.669 122.316C167.114 120.55 165.283 117.866 161.89 115.312C155.988 110.869 146.674 107.645 139.745 107.645C138.862 107.641 137.98 107.702 137.106 107.83C135.196 108.121 133.861 108.732 133.228 109.582C133.376 109.054 133.747 108.592 134.312 108.209C133.726 108.604 133.348 109.082 133.212 109.63C132.767 111.397 134.599 114.08 137.992 116.635C143.894 121.077 153.207 124.301 160.137 124.301C161.02 124.305 161.902 124.244 162.775 124.116C164.805 123.807 166.187 123.136 166.764 122.202C166.73 122.257 166.694 122.311 166.654 122.363Z" fill="white"/>
</g>
<g style="mix-blend-mode:soft-light" opacity="0.97">
<path d="M136.363 107.363C136.437 107.344 136.511 107.325 136.589 107.308C136.512 107.325 136.438 107.344 136.363 107.363Z" fill="white"/>
</g>
<g style="mix-blend-mode:soft-light" opacity="0.97">
<path d="M135.208 107.737C135.294 107.701 135.383 107.663 135.474 107.632C135.383 107.665 135.294 107.701 135.208 107.737Z" fill="white"/>
</g>
<g style="mix-blend-mode:soft-light" opacity="0.97">
<path d="M134.883 107.883C134.969 107.841 135.056 107.8 135.148 107.761C135.056 107.8 134.969 107.844 134.883 107.883Z" fill="white"/>
</g>
<g style="mix-blend-mode:soft-light" opacity="0.97">
<path d="M166.946 121.838C166.931 121.876 166.914 121.911 166.897 121.952C166.913 121.914 166.932 121.876 166.946 121.838Z" fill="white"/>
</g>
<g style="mix-blend-mode:soft-light" opacity="0.97">
<path d="M166.862 122.027C166.837 122.076 166.81 122.125 166.781 122.174C166.809 122.125 166.838 122.076 166.862 122.027Z" fill="white"/>
</g>
<g style="mix-blend-mode:soft-light" opacity="0.97">
<path d="M134.323 108.204C134.401 108.151 134.484 108.1 134.57 108.049C134.481 108.1 134.397 108.151 134.323 108.204Z" fill="white"/>
</g>
<g style="mix-blend-mode:soft-light" opacity="0.97">
<path d="M134.587 108.039C134.67 107.991 134.756 107.945 134.846 107.9C134.756 107.945 134.67 107.992 134.587 108.039Z" fill="white"/>
</g>
<path d="M154.501 91.3624L149.809 109.005C149.621 109.686 150.865 110.624 152.586 111.098C154.308 111.573 155.857 111.406 156.044 110.728L160.736 93.0839L154.501 91.3624Z" fill="url(#paint17_linear_1142_2618)"/>
<path d="M169.976 91.4329C169.331 94.0978 161.965 94.6029 153.528 92.5603C145.092 90.5176 138.768 86.7008 139.417 84.0359C139.722 82.775 139.834 80.3948 142.564 80.1449C145.586 79.8682 151.431 81.836 155.864 82.9092C164.303 84.9511 170.621 88.7679 169.976 91.4329Z" fill="#602D8A"/>
<path d="M170.581 88.9122C171.226 86.2471 164.908 82.4304 156.469 80.3873C148.03 78.3442 140.666 78.8484 140.021 81.5135C139.376 84.1785 145.694 87.9953 154.133 90.0384C162.571 92.0815 169.935 91.5773 170.581 88.9122Z" fill="#AF2245" fill-opacity="0.1"/>
<path d="M184.671 17.7661C185.081 15.9645 181.106 13.5242 175.793 12.316C170.48 11.1078 165.841 11.5891 165.431 13.3907C165.398 13.5391 165.27 14.0976 165.238 14.2422C164.828 16.0438 168.802 18.484 174.115 19.6923C179.428 20.9005 184.067 20.4191 184.478 18.6175C184.51 18.4729 184.638 17.9107 184.671 17.7661Z" fill="#602D8A"/>
<path d="M175.309 14.444C170.295 13.3032 165.956 13.5858 165.617 15.0744L158.907 44.5802L167.986 46.6451L177.065 48.71L183.775 19.2035C184.113 17.7149 180.323 15.584 175.309 14.444Z" fill="url(#paint18_linear_1142_2618)"/>
<path d="M158.442 88.2762C153.232 87.0895 149.294 84.877 149.646 83.3305L158.404 45.2291L177.271 49.5199L168.515 87.6213C168.161 89.1677 163.652 89.4615 158.442 88.2762Z" fill="url(#paint19_linear_1142_2618)"/>
<path d="M178.052 46.7882L158.889 42.4309C158.729 42.3946 158.57 42.4946 158.534 42.6544L157.807 45.8497C157.771 46.0095 157.871 46.1684 158.031 46.2048L177.194 50.562C177.353 50.5984 177.512 50.4983 177.549 50.3385L178.275 47.1432C178.312 46.9835 178.212 46.8245 178.052 46.7882Z" fill="#602D8A"/>
<path d="M161.321 85.2063L163.405 88.0344L162.18 96.59C162.128 96.9469 162.191 97.3109 162.358 97.6304C162.525 97.9499 162.789 98.2087 163.111 98.3701L170.042 101.835L186.558 66.5776L174.75 60.4882C174.75 60.4882 172.978 62.1244 168.345 61.675C167.8 61.6219 167.254 61.7715 166.812 62.0951C166.37 62.4188 166.062 62.8939 165.948 63.4298L161.321 85.2063Z" fill="#602D8A"/>
<path d="M177.051 67.9261L169.692 100.698C169.651 100.878 169.652 101.065 169.694 101.245C169.737 101.425 169.82 101.592 169.938 101.735C170.055 101.878 170.203 101.992 170.372 102.069C170.54 102.145 170.723 102.182 170.908 102.177C172.894 102.12 176.446 101.817 179.504 100.503C179.68 100.427 179.837 100.31 179.959 100.162C180.082 100.013 180.168 99.8381 180.21 99.6502L187.313 67.8934C187.354 67.7086 187.352 67.5168 187.306 67.3331C187.26 67.1494 187.171 66.9791 187.048 66.8356C186.924 66.6922 186.769 66.5796 186.594 66.5068C186.419 66.4341 186.23 66.4032 186.041 66.4167L178.149 66.9804C177.889 66.9993 177.642 67.1014 177.444 67.2717C177.246 67.442 177.108 67.6714 177.051 67.9261Z" fill="white"/>
<path d="M161.766 154.126L165.19 137.752C165.19 137.752 169.953 143.855 174.419 144.599C178.885 145.343 183.351 144.006 186.477 130.904C189.429 118.532 187.867 92.3504 176.147 95.4989C175.177 95.76 174.278 94.887 174.48 93.9035L178.83 72.7946C178.903 72.4439 179.051 72.1131 179.263 71.8251C179.476 71.5371 179.749 71.2988 180.063 71.1265C181.488 70.3425 184.142 69.4406 186.436 71.8059C186.436 71.8059 204.936 94.4323 201.214 125.545C197.492 156.657 177.247 165.142 177.247 165.142L161.766 154.126Z" fill="#602D8A"/>
<g style="mix-blend-mode:multiply" opacity="0.3">
<path d="M195.261 127.483C198.63 96.4053 185.976 79.4462 178.895 72.5543C178.87 72.6342 178.849 72.7154 178.832 72.7976L174.482 93.9065C174.279 94.89 175.179 95.7607 176.149 95.5019C187.868 92.3534 189.431 118.535 186.479 130.907C183.352 144.006 178.887 145.347 174.421 144.602C169.955 143.857 165.191 137.755 165.191 137.755L161.766 154.126L173.732 162.641C183.025 158.436 192.942 148.884 195.261 127.483Z" fill="#602D8A"/>
</g>
<path d="M162.008 128.948L161.367 131.989C161.337 132.137 161.35 132.29 161.407 132.43C162.109 134.168 167.067 145.801 173.975 146.237C176.953 146.425 181.518 145.255 183.813 138.867C183.813 138.867 180.971 143.563 178.142 143.265C175.342 142.969 171.082 137.277 172.587 127.485C172.601 127.395 172.591 127.303 172.558 127.218C172.526 127.133 172.471 127.058 172.4 127.001L172.049 126.72C171.999 126.68 171.941 126.652 171.879 126.637C171.817 126.623 171.753 126.622 171.691 126.635L162.339 128.619C162.258 128.636 162.183 128.676 162.125 128.735C162.066 128.793 162.025 128.867 162.008 128.948Z" fill="url(#paint20_linear_1142_2618)"/>
<path d="M188.59 174.293L189.98 180.541L176.949 183.981L150.633 177.312C154.556 176.16 156.911 174.304 158.272 171.582C159.814 168.498 160.031 164.38 160.031 159.188C160.031 154.051 161.389 151.939 162.58 151.07C163.182 150.631 163.781 150.478 164.228 150.434C164.452 150.411 164.636 150.417 164.762 150.427C164.824 150.432 164.872 150.438 164.901 150.443C164.916 150.445 164.926 150.447 164.932 150.448L164.935 150.448L164.936 150.449L164.936 150.449L164.936 150.449L164.983 150.459L165.033 150.459C168.252 150.495 170.971 152.003 173.26 154.305C175.554 156.613 177.39 159.694 178.82 162.802C180.248 165.906 181.258 169.011 181.912 171.342C182.239 172.506 182.476 173.476 182.631 174.153C182.708 174.492 182.766 174.757 182.803 174.938C182.822 175.028 182.836 175.096 182.845 175.142L182.855 175.194L182.858 175.206L182.858 175.209L182.858 175.21L182.958 175.733L183.473 175.601L188.59 174.293Z" fill="white" stroke="#602D8A"/>
<path d="M175.375 161.846C170.5 152.598 165.406 150.688 162.512 150.517C161.065 151.432 159.534 153.698 159.534 159.191C159.534 169.611 158.628 175.182 148.586 177.309L176.937 184.494C179.89 179.234 180.15 170.902 175.375 161.846Z" fill="#602D8A"/>
<path d="M173.574 144.654C167.195 143.022 162.554 129.363 162.309 128.627C162.234 128.648 162.166 128.689 162.113 128.746C162.06 128.802 162.024 128.872 162.008 128.948L161.367 131.989C161.337 132.137 161.35 132.29 161.407 132.43C162.109 134.168 167.067 145.801 173.975 146.237C175.82 146.36 177.658 145.914 179.241 144.959C177.638 145.226 175.742 145.207 173.574 144.654Z" fill="url(#paint21_linear_1142_2618)"/>
<path style="mix-blend-mode:multiply" opacity="0.6" d="M150.978 115.429C149.428 114.835 149.41 114.487 148.184 114.286C146.668 114.037 144.823 114.309 144.649 115.001C144.563 115.343 144.906 115.702 145.136 115.937C146.211 117.034 147.386 116.743 148.73 117.266C150.868 118.099 150.452 119.834 152.33 120.477C154.315 121.157 157.026 119.985 157.2 118.731C157.317 117.887 156.276 117.086 155.93 116.825C154.436 115.696 153.451 116.379 150.978 115.429Z" fill="#AF2245"/>
<path d="M150.2 114.658C148.771 114.109 148.627 113.7 147.406 113.515C147.041 113.46 145.085 113.163 144.486 114.15C144.454 114.201 144.161 114.699 144.359 115.166C144.81 116.235 147.066 115.306 149.184 116.563C150.668 117.444 150.344 118.365 151.724 118.975C153.578 119.797 156.183 119.021 156.423 117.96C156.605 117.153 155.407 116.247 155.153 116.055C153.658 114.925 152.673 115.608 150.2 114.658Z" fill="#AF2245"/>
<path d="M146.512 113.743C147.117 113.717 147.575 113.865 148.199 114.067C148.709 114.231 149.373 114.501 149.35 114.586C149.333 114.646 148.968 114.593 148.701 114.553C147.54 114.382 147.518 114.159 147.03 114.182C146.24 114.218 145.961 114.823 145.376 114.627C145.215 114.573 144.984 114.442 144.988 114.297C144.994 114.022 145.819 113.771 146.512 113.743Z" fill="white"/>
<path d="M103.346 128.433C103.346 128.433 103.809 126.617 104.58 126.134C105.35 125.65 106.439 125.142 106.688 124.931C106.937 124.721 107.23 125.35 106.51 125.832L105.792 126.314C105.779 126.418 105.789 126.523 105.821 126.622C105.935 126.963 106.323 127.197 106.803 127.242C108.649 127.627 109.369 127.647 109.651 127.564C109.692 127.552 109.852 127.5 109.921 127.571C110.029 127.685 109.834 128.048 109.751 128.175C109.252 128.937 107.519 129.269 106.222 128.672C105.748 128.455 105.567 128.221 105.22 128.28C104.672 128.373 104.33 129.096 104.135 129.697L103.346 128.433Z" fill="url(#paint22_linear_1142_2618)"/>
<path d="M104.834 129.008L103.258 127.607C103.066 127.802 100.261 130.539 96.3415 129.709C93.6425 129.137 92.0849 126.921 91.088 125.506C88.093 121.257 89.8842 118.139 86.6593 115.251C85.7633 114.449 84.007 113.478 82.8581 113.774C80.1212 114.48 78.5458 122.71 81.1944 129.183C81.7292 130.49 84.673 137.685 91.3506 138.464C96.7428 139.093 102.46 135.294 104.834 129.008Z" fill="white"/>
<path style="mix-blend-mode:multiply" opacity="0.15" d="M83.4707 121.654C88.406 125.552 87.8572 133.029 90.8878 133.408C91.8149 133.524 91.7637 132.815 93.9747 132.095C97.2071 131.044 98.7261 132.105 101.001 131.307C101.942 130.976 103.167 130.269 104.374 128.603L104.831 129.008C102.458 135.294 96.7398 139.096 91.3476 138.464C84.6723 137.685 81.7262 130.49 81.1915 129.183C79.9484 126.142 79.6339 122.722 79.9365 119.87C81.2189 120.23 82.4192 120.836 83.4707 121.654Z" fill="white" fill-opacity="0.1"/>
<path d="M67.8593 197.893C67.5715 198.127 67.5181 198.709 67.484 199.094C67.4684 199.264 67.4602 199.349 67.4795 199.41C67.619 199.849 68.4712 199.895 69.8085 200.032C71.9216 200.248 72.5528 200.415 72.716 200.1C72.871 199.803 72.4934 199.323 72.4534 199.269C72.2264 198.984 71.9476 198.879 71.4091 198.702C70.4122 198.374 69.7388 198.195 69.5348 198.14C68.2613 197.8 68.0484 197.738 67.8593 197.893Z" fill="#AF2245"/>
<path d="M69.1158 195.962L69.3271 198.37C69.2671 198.487 68.5513 198.835 67.9832 198.537L67.4395 196.169L69.1158 195.962Z" fill="url(#paint23_linear_1142_2618)"/>
<path d="M86.3344 196.828C85.9895 197.209 85.9101 197.911 86.2105 198.256C86.5109 198.602 86.9522 198.341 88.2072 198.379C89.5541 198.419 89.9057 198.738 90.8217 198.485C91.1926 198.382 91.8445 198.135 91.8327 197.87C91.8238 197.684 91.4915 197.589 90.3804 197.216C88.8035 196.688 88.8102 196.659 88.4757 196.604C87.6324 196.465 86.7876 196.325 86.3344 196.828Z" fill="#AF2245"/>
<path d="M87.1955 194.63L87.8712 196.878C87.82 196.999 87.1295 197.397 86.5436 197.147L85.54 194.964L87.1955 194.63Z" fill="url(#paint24_linear_1142_2618)"/>
<path d="M81.1907 145.396C81.4061 162.232 83.64 178.981 87.8445 195.285L85.2582 195.981C83.0709 193.941 80.311 190.73 78.9797 186.19C78.1534 183.372 78.4286 181.927 77.9042 178.463C77.0698 172.948 75.3824 170.058 73.632 165.611C72.0618 161.614 70.2053 155.746 69.2107 147.909L81.1907 145.396Z" fill="#602D8A"/>
<path d="M71.6932 145.431C71.1661 155.04 70.7359 164.826 70.4026 174.788C70.1554 182.262 69.9724 189.641 69.8538 196.924L67.2118 197.25C66.0021 195.003 65.0765 192.614 64.4564 190.139C63.5159 186.367 63.7332 184.131 63.3208 180.22C62.858 175.837 62.186 174.88 60.9956 169.352C58.5784 158.129 57.3701 152.515 60.0662 149.029C60.9414 147.896 63.6842 145.052 71.6932 145.431Z" fill="#602D8A"/>
<path d="M61.1862 113.723C64.0534 112.916 67 112.424 69.9739 112.255C75.2541 111.958 77.8938 111.81 79.7644 113.065C84.0856 115.968 80.7397 122.671 82.5087 139.287C83.2608 146.349 83.5997 145.893 81.9057 148.41C78.4634 153.517 68.7946 153.935 64.3651 149.508C62.0243 147.168 61.7224 147.036 61.666 144.365C61.445 133.822 61.2774 123.87 61.1862 113.723Z" fill="#602D8A"/>
<path d="M83.9565 113.881C81.8678 112.815 79.5662 112.232 77.2219 112.175C75.375 116.722 74.1233 121.488 73.4978 126.355C72.7976 131.849 73.1269 135.483 73.4978 143.031C73.7344 147.799 73.9762 154.708 73.9035 163.218C75.015 163.582 76.1736 163.782 77.3428 163.811C80.1686 163.875 81.1128 162.854 83.9995 163.136C85.2604 163.26 85.572 163.503 85.9955 163.22C87.1763 162.433 86.2922 159.512 85.6988 156.342C84.7828 151.44 85.7804 152.449 84.8829 144.51C84.1412 137.928 83.1177 134.239 84.067 133.861C84.5862 133.655 85.0669 114.452 83.9565 113.881Z" fill="white"/>
<path style="mix-blend-mode:multiply" opacity="0.15" d="M81.1907 145.396C81.2278 140.445 83.8668 139.745 83.6005 135.484C83.3335 131.193 80.5981 130.96 80.6923 127.265C80.8073 122.775 84.8978 121.357 84.7383 117.277C84.6849 115.901 84.1627 114.688 83.4833 113.66C81.5205 112.74 79.3888 112.235 77.2219 112.176C75.375 116.723 74.1233 121.489 73.4978 126.356C72.7976 131.85 73.1269 135.484 73.4978 143.032C73.7344 147.799 73.9762 154.708 73.9035 163.219C75.015 163.582 76.1736 163.782 77.3428 163.812C80.1686 163.876 81.1128 162.855 83.9995 163.137C85.2604 163.261 85.572 163.504 85.9955 163.221C87.0272 162.533 86.4828 160.217 85.9332 157.528C85.0661 156.408 84.1716 155.331 83.2193 153.313C82.502 151.788 81.164 148.954 81.1907 145.396Z" fill="white"/>
<path d="M70.9114 127.276C71.5574 129.732 71.4981 131.686 71.4306 133.489C71.0501 143.423 70.8573 148.418 70.6889 149.832C69.8812 156.7 69.3108 156.273 69.5066 159.062C69.6112 160.555 69.856 161.833 69.0393 162.77C68.0647 163.891 66.6659 163.285 63.2147 163.729C60.0439 164.138 59.9609 164.814 56.5342 165.226C55.142 165.393 51.3423 165.85 50.9432 164.769C50.7311 164.19 51.5173 163.241 52.2783 162.772C53.5117 162.008 54.5635 162.584 54.9803 161.974C55.458 161.275 54.1689 160.382 54.1266 158.705C54.0843 157.027 55.3304 156.489 56.1033 154.435C56.8227 152.522 56.5327 150.894 56.4215 149.741C55.926 144.595 58.1912 140.526 58.6377 133.709C59.3341 123.093 54.7949 118.429 57.8759 115.028C59.5448 113.186 62.2898 112.991 64.0069 113.033C65.787 116.748 67.3267 119.672 68.4148 121.68C69.586 123.851 70.3566 125.171 70.9114 127.276Z" fill="white"/>
<path d="M77.8256 124.542C77.5727 123.67 76.7731 122.836 77.0839 121.806C77.2686 121.2 77.7514 120.807 78.129 120.572C80.5907 120.019 82.2469 117.716 82.0021 115.298C81.9024 114.344 81.519 113.441 80.9014 112.706C79.6993 112.385 78.4635 112.207 77.2196 112.175C75.3728 116.721 74.1211 121.487 73.4955 126.355C73.1901 128.723 73.0542 131.11 73.0891 133.498C73.5156 132.135 74.1149 131.118 74.7498 130.346C75.8274 129.037 78.4427 126.665 77.8256 124.542Z" fill="white"/>
<g style="mix-blend-mode:multiply" opacity="0.64">
<path style="mix-blend-mode:multiply" opacity="0.3" d="M70.9114 127.277C70.3566 125.169 69.586 123.85 68.4119 121.682C67.3238 119.674 65.7877 116.75 64.0039 113.035C63.5879 113.025 63.1139 113.029 62.6029 113.067C59.8875 116.817 59.7154 118.914 60.3466 120.158C60.9607 121.37 62.2461 121.606 62.4145 122.915C62.677 124.962 59.6984 125.66 58.9678 128.429C58.3299 130.846 59.8222 133.259 61.227 135.53C63.616 139.394 65.8033 139.871 65.7225 141.939C65.6394 144.09 63.2496 144.13 62.2765 146.765C60.7508 150.894 65.4911 153.864 64.0685 157.52C62.9663 160.351 59.6368 159.807 57.5889 163.447C57.2824 163.998 57.0383 164.581 56.8613 165.187C59.9617 164.773 60.1515 164.129 63.2155 163.734C66.6644 163.288 68.0655 163.895 69.0401 162.774C69.856 161.835 69.612 160.557 69.5074 159.066C69.3116 156.277 69.8782 156.704 70.6897 149.837C70.8558 148.423 71.0487 143.427 71.4314 133.493C71.5003 131.687 71.5575 129.733 70.9114 127.277Z" fill="#AF2245" fill-opacity="0.1"/>
</g>
<path d="M63.6642 121.547C65.0645 122.791 66.0777 123.212 66.2527 124.399C66.4456 125.707 65.3553 126.144 65.5407 127.417C65.7721 129.011 67.5774 129.014 68.5075 131.052C69.1165 132.387 68.5817 132.913 68.9525 134.639C69.1751 135.69 69.7269 137.155 71.2266 138.782C71.2874 137.201 71.3549 135.444 71.4298 133.493C71.4988 131.69 71.5582 129.735 70.9107 127.28C70.3559 125.173 69.5852 123.854 68.4111 121.686C67.323 119.678 65.787 116.754 64.0032 113.039C62.9974 113.014 61.6379 113.074 60.3495 113.496C59.9045 114.308 59.8303 114.954 59.8177 115.3C59.7183 118.039 62.7289 120.715 63.6642 121.547Z" fill="white"/>
<path d="M70.3685 106.486C70.3822 107.713 70.2726 108.938 70.0414 110.143C69.8522 111.117 69.7158 111.368 69.5415 111.573C69.2796 111.88 68.8828 112.138 66.6399 112.695C65.4191 112.997 65.2618 112.991 65.2351 113.11C65.1031 113.703 68.4319 115.715 71.8704 115.23C73.9754 114.933 75.8904 113.731 75.7725 113.101C75.6546 112.471 73.5519 112.804 72.9259 111.659C72.4897 110.86 72.9785 109.726 73.5556 108.787C72.9963 107.739 70.9277 107.534 70.3685 106.486Z" fill="white"/>
<path d="M74.2743 107.102C74.7712 106.442 74.8016 105.29 74.229 104.562C73.7365 103.935 72.9615 103.846 72.4979 103.793C71.1532 103.637 69.4569 104.198 68.8635 105.436C68.5142 106.169 69.2707 107.693 69.3887 107.967C69.5229 108.277 69.7662 108.383 69.9909 108.617C70.3032 108.942 70.7912 109.459 71.5878 110.323C71.6628 110.011 71.765 109.706 71.8934 109.411C72.0595 109.028 72.2738 108.668 72.5313 108.339C73.2352 107.486 73.8033 107.73 74.2743 107.102Z" fill="#AF2245"/>
<path d="M70.4545 109.599C70.4545 109.599 71.3379 111.049 73.0979 110.934C74.6733 110.831 74.9047 107.299 73.8982 106.548C73.5622 106.297 72.8895 106.194 72.3406 106.347C72.018 106.438 71.9082 106.57 71.3764 106.709C70.8869 106.837 70.749 106.783 70.6014 106.906C70.4167 107.062 70.2809 107.443 70.5895 108.476C70.2928 108.172 69.9279 108.054 69.672 108.179C69.5847 108.227 69.5124 108.298 69.4628 108.384C69.2463 108.784 69.6149 109.3 70.4545 109.599Z" fill="white"/>
<path d="M70.5361 106.696C70.6103 106.752 70.3796 107.036 70.3625 107.437C70.3284 108.216 71.1168 109.151 71.9201 109.23C72.3955 109.277 72.5268 108.991 73.3123 108.907C73.6956 108.868 74.0827 108.89 74.459 108.973C74.706 109.828 74.4738 110.679 73.9027 111.075C73.2878 111.5 72.5031 111.242 72.1745 111.134C71.952 111.06 71.2511 110.832 70.8832 110.187C70.5005 109.514 70.8765 109.108 70.4382 108.654C70.2157 108.425 69.9249 108.325 69.6416 107.881C69.5808 107.786 69.5273 107.687 69.4814 107.584C69.8849 107.151 70.4233 106.613 70.5361 106.696Z" fill="black"/>
<path d="M73.8857 109.29C73.8857 109.29 73.5452 109.468 72.9578 109.439C72.9289 109.439 72.897 109.445 72.894 109.46C72.8799 109.516 73.2574 109.766 73.6053 109.668C73.8515 109.599 74.0436 109.365 74.011 109.306C73.9969 109.278 73.9405 109.281 73.8857 109.29Z" fill="url(#paint25_linear_1142_2618)"/>
<path d="M64.8027 129.326C65.7017 131.234 61.5733 135.677 56.9844 137.787C56.0499 138.217 49.336 141.304 46.3439 138.336C43.8711 135.883 45.4672 130.811 46.0369 129C48.8338 120.109 56.75 115.125 60.3518 113.493C63.0382 120.212 62.1319 123.667 61.5081 124.601C60.8576 125.578 59.0419 127.629 57.1135 129.436C55.7562 130.707 54.9121 131.325 55.0256 131.524C55.1665 131.771 56.7567 131.301 62.9329 128.298C63.6479 128.414 64.4957 128.675 64.8027 129.326Z" fill="white"/>
<path d="M80.0774 118.175L69.1454 119.199C69.0334 119.209 68.9273 119.253 68.8407 119.325C68.7542 119.397 68.6913 119.493 68.6603 119.601L64.581 133.847C64.5561 133.934 64.5528 134.026 64.5713 134.115C64.5899 134.204 64.6298 134.287 64.6875 134.357C64.7452 134.427 64.8191 134.482 64.9028 134.517C64.9864 134.552 65.0773 134.566 65.1677 134.558L76.1894 133.585C76.3026 133.575 76.4101 133.531 76.4976 133.459C76.585 133.386 76.6483 133.288 76.6789 133.179L80.6685 118.882C80.6929 118.795 80.6956 118.703 80.6765 118.614C80.6574 118.525 80.617 118.443 80.5588 118.373C80.5006 118.303 80.4264 118.249 80.3425 118.215C80.2587 118.18 80.1677 118.167 80.0774 118.175Z" fill="#AF2245"/>
<path d="M63.2429 128.879C63.2429 128.879 67.0078 125.028 68.5401 124.458C70.0725 123.888 68.7159 127.952 67.8177 128.526C66.9195 129.099 66.5702 129.318 65.8693 129.405L65.1691 129.493L64.2501 129.983C64.2501 129.983 63.0679 129.843 63.2429 128.879Z" fill="url(#paint26_linear_1142_2618)"/>
<path style="mix-blend-mode:multiply" opacity="0.3" d="M72.8013 130.497C73.2137 128.245 71.9431 126.498 73.1603 124.388C74.413 122.217 76.6122 122.583 78.1913 120.794C78.6941 120.225 79.1451 119.418 79.3669 118.242L80.0774 118.175C80.1679 118.166 80.2591 118.179 80.3433 118.214C80.4275 118.248 80.502 118.302 80.5604 118.372C80.6189 118.442 80.6595 118.524 80.6787 118.613C80.6979 118.702 80.6952 118.794 80.6708 118.882L76.6811 133.179C76.6505 133.288 76.5873 133.386 76.4998 133.459C76.4124 133.531 76.3049 133.575 76.1916 133.585L70.5947 134.079C72.0195 132.801 72.6047 131.571 72.8013 130.497Z" fill="#AF2245"/>
</g>
<defs>
<linearGradient id="paint0_linear_1142_2618" x1="22.6341" y1="160.032" x2="97.3803" y2="244.022" gradientUnits="userSpaceOnUse">
<stop stop-color="#AF2245"/>
<stop offset="1" stop-color="#FF7194"/>
</linearGradient>
<linearGradient id="paint1_linear_1142_2618" x1="22.6331" y1="90.7857" x2="50.9619" y2="92.1769" gradientUnits="userSpaceOnUse">
<stop stop-color="#AF2245"/>
<stop offset="1" stop-color="#FF7194"/>
</linearGradient>
<linearGradient id="paint2_linear_1142_2618" x1="131.509" y1="85.2481" x2="170.514" y2="88.1139" gradientUnits="userSpaceOnUse">
<stop stop-color="#AF2245"/>
<stop offset="1" stop-color="#FF7194"/>
</linearGradient>
<linearGradient id="paint3_linear_1142_2618" x1="22.6335" y1="85.2516" x2="33.4163" y2="121.237" gradientUnits="userSpaceOnUse">
<stop stop-color="#AF2245"/>
<stop offset="1" stop-color="#FF7194"/>
</linearGradient>
<linearGradient id="paint4_linear_1142_2618" x1="140.793" y1="105.674" x2="101.419" y2="100.456" gradientUnits="userSpaceOnUse">
<stop offset="0.49" stop-color="#EBEFF2"/>
<stop offset="1" stop-color="white"/>
</linearGradient>
<linearGradient id="paint5_linear_1142_2618" x1="108.015" y1="31.8236" x2="132.062" y2="47.838" gradientUnits="userSpaceOnUse">
<stop stop-color="#AF2245"/>
<stop offset="1" stop-color="#FF7194"/>
</linearGradient>
<linearGradient id="paint6_linear_1142_2618" x1="122.561" y1="30.9409" x2="122.561" y2="37.2202" gradientUnits="userSpaceOnUse">
<stop stop-color="#EBEFF2"/>
<stop offset="1" stop-color="white"/>
</linearGradient>
<linearGradient id="paint7_linear_1142_2618" x1="109.37" y1="107.048" x2="69.9969" y2="101.829" gradientUnits="userSpaceOnUse">
<stop offset="0.49" stop-color="#EBEFF2"/>
<stop offset="1" stop-color="white"/>
</linearGradient>
<linearGradient id="paint8_linear_1142_2618" x1="76.5908" y1="33.1972" x2="100.638" y2="49.2122" gradientUnits="userSpaceOnUse">
<stop stop-color="#AF2245"/>
<stop offset="1" stop-color="#FF7194"/>
</linearGradient>
<linearGradient id="paint9_linear_1142_2618" x1="91.3921" y1="38.8809" x2="90.8692" y2="31.8169" gradientUnits="userSpaceOnUse">
<stop offset="0.49" stop-color="#EBEFF2"/>
<stop offset="1" stop-color="white"/>
</linearGradient>
<linearGradient id="paint10_linear_1142_2618" x1="49.9301" y1="91.0887" x2="77.7073" y2="92.6125" gradientUnits="userSpaceOnUse">
<stop stop-color="#AF2245"/>
<stop offset="1" stop-color="#FF7194"/>
</linearGradient>
<linearGradient id="paint11_linear_1142_2618" x1="47.0577" y1="34.177" x2="71.1054" y2="50.1932" gradientUnits="userSpaceOnUse">
<stop stop-color="#AF2245"/>
<stop offset="1" stop-color="#FF7194"/>
</linearGradient>
<linearGradient id="paint12_linear_1142_2618" x1="61.8604" y1="39.8629" x2="61.3367" y2="32.7982" gradientUnits="userSpaceOnUse">
<stop offset="0.49" stop-color="#EBEFF2"/>
<stop offset="1" stop-color="white"/>
</linearGradient>
<linearGradient id="paint13_linear_1142_2618" x1="45.6215" y1="86.9312" x2="66.3296" y2="136.985" gradientUnits="userSpaceOnUse">
<stop stop-color="#AF2245"/>
<stop offset="1" stop-color="#FF7194"/>
</linearGradient>
<linearGradient id="paint14_linear_1142_2618" x1="111.898" y1="186.805" x2="200.173" y2="186.805" gradientUnits="userSpaceOnUse">
<stop stop-color="white"/>
<stop offset="1" stop-color="#EBEFF2"/>
</linearGradient>
<linearGradient id="paint15_linear_1142_2618" x1="113.751" y1="109.024" x2="177.79" y2="141.895" gradientUnits="userSpaceOnUse">
<stop stop-color="#AF2245"/>
<stop offset="1" stop-color="#FF7194"/>
</linearGradient>
<linearGradient id="paint16_linear_1142_2618" x1="139.965" y1="86.8966" x2="150.321" y2="88.3965" gradientUnits="userSpaceOnUse">
<stop stop-color="#AF2245"/>
<stop offset="1" stop-color="#FF7194"/>
</linearGradient>
<linearGradient id="paint17_linear_1142_2618" x1="149.79" y1="91.3624" x2="162.706" y2="92.7275" gradientUnits="userSpaceOnUse">
<stop stop-color="#AF2245"/>
<stop offset="1" stop-color="#FF7194"/>
</linearGradient>
<linearGradient id="paint18_linear_1142_2618" x1="163.449" y1="26.6977" x2="181.388" y2="37.1194" gradientUnits="userSpaceOnUse">
<stop stop-color="white"/>
<stop offset="1" stop-color="#EBEFF2"/>
</linearGradient>
<linearGradient id="paint19_linear_1142_2618" x1="172.164" y1="69.3368" x2="33.8945" y2="43.4617" gradientUnits="userSpaceOnUse">
<stop stop-color="#D8DEE8"/>
<stop offset="1" stop-color="#97A6B7"/>
</linearGradient>
<linearGradient id="paint20_linear_1142_2618" x1="161.351" y1="126.626" x2="186.903" y2="132.273" gradientUnits="userSpaceOnUse">
<stop stop-color="#AF2245"/>
<stop offset="1" stop-color="#FF7194"/>
</linearGradient>
<linearGradient id="paint21_linear_1142_2618" x1="161.351" y1="128.627" x2="181.907" y2="132.656" gradientUnits="userSpaceOnUse">
<stop stop-color="#AF2245"/>
<stop offset="1" stop-color="#FF7194"/>
</linearGradient>
<linearGradient id="paint22_linear_1142_2618" x1="107.229" y1="125.631" x2="96.8788" y2="153.672" gradientUnits="userSpaceOnUse">
<stop stop-color="#FFC444"/>
<stop offset="1" stop-color="#F36F56"/>
</linearGradient>
<linearGradient id="paint23_linear_1142_2618" x1="69.3956" y1="198.23" x2="66.5354" y2="193.774" gradientUnits="userSpaceOnUse">
<stop stop-color="#FFC444"/>
<stop offset="1" stop-color="#F36F56"/>
</linearGradient>
<linearGradient id="paint24_linear_1142_2618" x1="88.6805" y1="197.782" x2="85.3918" y2="193.469" gradientUnits="userSpaceOnUse">
<stop stop-color="#FFC444"/>
<stop offset="1" stop-color="#F36F56"/>
</linearGradient>
<linearGradient id="paint25_linear_1142_2618" x1="73.0676" y1="108.619" x2="72.8599" y2="110.467" gradientUnits="userSpaceOnUse">
<stop stop-color="#FFC444"/>
<stop offset="1" stop-color="#F36F56"/>
</linearGradient>
<linearGradient id="paint26_linear_1142_2618" x1="66.4374" y1="125.885" x2="60.888" y2="159.82" gradientUnits="userSpaceOnUse">
<stop stop-color="#FFC444"/>
<stop offset="1" stop-color="#F36F56"/>
</linearGradient>
<clipPath id="clip0_1142_2618">
<rect width="221.102" height="228" fill="white"/>
</clipPath>
</defs>
</svg>
