<svg width="68" height="64" viewBox="0 0 68 64" fill="none" xmlns="http://www.w3.org/2000/svg">
<g clip-path="url(#clip0_1406_1345)">
<path d="M11.1064 51.2712L4.94666 61.271H10.7028V63.7746H0L6.15028 53.7699H0.87322V51.2712H11.1064Z" fill="#AF2245"/>
<path d="M17.8632 63.7746H16.0625L11.9159 55.9982H14.984L16.872 60.1961L18.7246 55.9982H20.5631L22.4157 60.1961L24.3038 55.9982H27.3718L23.23 63.7746H21.4222L19.6427 59.7642L17.8632 63.7746Z" fill="#AF2245"/>
<path d="M29.3637 62.8135C28.6633 62.0027 28.2777 60.965 28.2777 59.8911C28.2777 58.8173 28.6633 57.7795 29.3637 56.9688C29.7094 56.5795 30.1353 56.2707 30.6117 56.0637C31.0882 55.8568 31.6038 55.7567 32.1226 55.7704C32.5876 55.7538 33.0511 55.8309 33.486 55.9972C33.9209 56.1635 34.3184 56.4155 34.6549 56.7386V55.9982H37.3241V63.7746H34.6832V62.8942H34.6549C34.339 63.2536 33.9485 63.5389 33.5109 63.73C33.0734 63.9211 32.5994 64.0132 32.1226 64C31.6047 64.0147 31.0899 63.9162 30.6135 63.7114C30.1372 63.5065 29.7108 63.2002 29.3637 62.8135ZM31.6388 58.5777C31.4667 58.7493 31.3319 58.9549 31.2429 59.1816C31.1539 59.4083 31.1127 59.6511 31.1219 59.8947C31.1123 60.1352 31.151 60.3751 31.2358 60.6002C31.3205 60.8253 31.4496 61.0308 31.6152 61.2046C31.7873 61.3758 31.9926 61.5094 32.2184 61.5972C32.4442 61.685 32.6855 61.725 32.9274 61.7148C33.1661 61.7229 33.4038 61.6812 33.6257 61.5921C33.8475 61.5031 34.0485 61.3687 34.2159 61.1975C34.3829 61.0256 34.5137 60.8217 34.6005 60.5978C34.6872 60.374 34.7282 60.1348 34.721 59.8947C34.7231 59.5348 34.6193 59.1823 34.4227 58.8815C34.2261 58.5807 33.9454 58.3451 33.616 58.2044C33.2865 58.0636 32.923 58.0239 32.5712 58.0903C32.2194 58.1568 31.895 58.3263 31.6388 58.5777Z" fill="#AF2245"/>
<path d="M40.5196 62.8135C39.8193 62.0027 39.4337 60.965 39.4337 59.8911C39.4337 58.8173 39.8193 57.7795 40.5196 56.9688C40.8649 56.5796 41.2904 56.2708 41.7664 56.0638C42.2425 55.8568 42.7577 55.7567 43.2762 55.7704C43.7411 55.7538 44.2047 55.8309 44.6396 55.9972C45.0745 56.1635 45.4719 56.4155 45.8085 56.7386V55.9982H48.4777V63.7746H45.8392V62.8942H45.7991C45.4832 63.2536 45.0926 63.5389 44.6551 63.73C44.2175 63.9211 43.7436 64.0132 43.2667 64C42.7508 64.0133 42.2381 63.9141 41.7639 63.7093C41.2897 63.5045 40.8652 63.1989 40.5196 62.8135ZM42.7853 58.5777C42.6136 58.7496 42.4791 58.9553 42.3902 59.182C42.3013 59.4086 42.2598 59.6512 42.2684 59.8947C42.2591 60.1353 42.2982 60.3754 42.3834 60.6005C42.4685 60.8255 42.598 61.031 42.764 61.2046C42.9355 61.3759 43.1404 61.5097 43.3658 61.5975C43.5913 61.6853 43.8323 61.7252 44.0739 61.7148C44.3126 61.7229 44.5503 61.6812 44.7721 61.5921C44.994 61.5031 45.195 61.3687 45.3624 61.1975C45.6868 60.8402 45.8654 60.3732 45.8628 59.8895C45.8602 59.4058 45.6765 58.9408 45.3483 58.5872C45.0034 58.255 44.5443 58.0696 44.0668 58.0696C43.5892 58.0696 43.1301 58.255 42.7853 58.5872V58.5777Z" fill="#AF2245"/>
<path d="M51.1445 63.7746V55.9982H53.8232V57.123H53.8539C53.8804 57.0687 53.912 57.017 53.9483 56.9688C53.9955 56.9094 54.0946 56.8027 54.2456 56.6508C54.3914 56.5017 54.5493 56.3652 54.7176 56.2426C54.9236 56.1049 55.1465 55.9949 55.3808 55.9152C55.6478 55.8207 55.9285 55.7718 56.2115 55.7704C56.5015 55.77 56.79 55.8115 57.0682 55.8938C57.284 55.9472 57.4924 56.0269 57.6889 56.1311L57.899 56.2545L56.785 58.5255C56.387 58.2235 55.8951 58.0738 55.3973 58.1031C55.1071 58.0954 54.8205 58.1685 54.569 58.3143C54.3582 58.4343 54.1874 58.6143 54.0781 58.8316C53.9974 58.9978 53.9296 59.1699 53.8751 59.3465C53.841 59.455 53.8212 59.5675 53.8161 59.6811V63.7746H51.1445Z" fill="#AF2245"/>
<path d="M60.0396 62.8135C59.3392 62.0028 58.9536 60.965 58.9536 59.8912C58.9536 58.8173 59.3392 57.7795 60.0396 56.9688C60.3848 56.5796 60.8103 56.2708 61.2864 56.0638C61.7624 55.8569 62.2776 55.7567 62.7961 55.7704C63.2611 55.7537 63.7247 55.8308 64.1597 55.997C64.5946 56.1633 64.992 56.4155 65.3284 56.7386V55.9982H67.9977V63.7746H65.3591V62.8942H65.3284C65.0128 63.2539 64.6223 63.5394 64.1847 63.7305C63.7471 63.9216 63.273 64.0136 62.7961 64C62.2786 64.0147 61.7641 63.9162 61.2882 63.7114C60.8122 63.5065 60.3862 63.2002 60.0396 62.8135ZM62.3052 58.5777C62.1336 58.7497 61.9991 58.9554 61.9102 59.182C61.8212 59.4086 61.7798 59.6512 61.7884 59.8947C61.7791 60.1354 61.8182 60.3754 61.9033 60.6005C61.9885 60.8256 62.118 61.0311 62.284 61.2046C62.4557 61.3756 62.6607 61.5092 62.886 61.597C63.1114 61.6847 63.3523 61.7249 63.5938 61.7148C63.8325 61.723 64.0703 61.6812 64.2921 61.5921C64.5139 61.5031 64.7149 61.3687 64.8824 61.1975C65.2067 60.8402 65.3853 60.3733 65.3827 59.8896C65.3801 59.4059 65.1964 58.9409 64.8682 58.5872C64.7019 58.4184 64.5031 58.2855 64.284 58.1966C64.0649 58.1077 63.8301 58.0645 63.5938 58.0699C63.3561 58.0627 63.1193 58.104 62.8979 58.1913C62.6764 58.2786 62.4748 58.41 62.3052 58.5777Z" fill="#AF2245"/>
<path d="M49.5397 31.2881C49.5418 33.8697 48.9077 36.4115 47.6941 38.6865C46.4806 40.9615 44.7253 42.8988 42.5853 44.3251C40.4453 45.7514 37.9872 46.6224 35.4306 46.8603C32.874 47.0981 30.2987 46.6954 27.9348 45.688C25.5708 44.6807 23.4919 43.1001 21.8838 41.0877C20.2757 39.0752 19.1886 36.6934 18.7195 34.1553C18.2504 31.6171 18.4141 29.0017 19.1958 26.5427C19.9776 24.0837 21.353 21.8577 23.1993 20.0638L28.2875 25.18C27.0721 26.332 26.2284 27.8244 25.8657 29.4638C25.5031 31.1033 25.638 32.8145 26.2532 34.376C26.8684 35.9375 27.9355 37.2775 29.3164 38.2225C30.6973 39.1675 32.3285 39.674 33.9988 39.6766C39.4057 39.6766 43.7057 34.0289 41.9215 28.7608C41.1687 26.5421 39.4435 24.8216 37.7726 23.1843C33.5245 19.0173 29.326 14.8218 25.1322 10.6073L24.6908 10.1683L24.5115 9.98796L19.1612 4.60836C21.4537 3.31127 23.9055 2.322 26.4538 1.66583C30.716 5.95148 34.9665 10.23 39.2617 14.4801L40.3828 15.5883C42.6272 17.8118 44.8834 20.0471 46.7927 22.5768C48.6595 25.0542 49.5397 28.1723 49.5397 31.2881Z" fill="url(#paint0_linear_1406_1345)"/>
<path d="M33.5362 31.1908H30.7278V34.0147H33.5362V31.1908Z" fill="#BC1F38"/>
<path d="M37.2722 31.1908H34.4637V34.0147H37.2722V31.1908Z" fill="#BC1F38"/>
<path d="M33.5362 27.4581H30.7278V30.2819H33.5362V27.4581Z" fill="#BC1F38"/>
<path d="M37.2722 27.4581H34.4637V30.2819H37.2722V27.4581Z" fill="#BC1F38"/>
<path d="M40.0712 8.83233C42.4969 8.83233 44.4633 6.85515 44.4633 4.41617C44.4633 1.97718 42.4969 0 40.0712 0C37.6456 0 35.6792 1.97718 35.6792 4.41617C35.6792 6.85515 37.6456 8.83233 40.0712 8.83233Z" fill="#BC1F38"/>
<mask id="mask0_1406_1345" style="mask-type:luminance" maskUnits="userSpaceOnUse" x="35" y="0" width="10" height="9">
<path d="M40.0689 8.83233C42.4945 8.83233 44.4609 6.85515 44.4609 4.41617C44.4609 1.97719 42.4945 0 40.0689 0C37.6432 0 35.6768 1.97719 35.6768 4.41617C35.6768 6.85515 37.6432 8.83233 40.0689 8.83233Z" fill="white"/>
</mask>
<g mask="url(#mask0_1406_1345)">
<path d="M35.6768 0H44.4633V8.83471H35.6768V0Z" fill="#BC1F38"/>
</g>
</g>
<defs>
<linearGradient id="paint0_linear_1406_1345" x1="41.5864" y1="17.088" x2="15.8456" y2="34.607" gradientUnits="userSpaceOnUse">
<stop offset="0.0785412" stop-color="#602D8A"/>
<stop offset="1" stop-color="#BC1F38"/>
</linearGradient>
<clipPath id="clip0_1406_1345">
<rect width="68" height="64" fill="white"/>
</clipPath>
</defs>
</svg>
