<svg width="26" height="26" viewBox="0 0 26 26" fill="none" xmlns="http://www.w3.org/2000/svg">
<path d="M1 15.3998C1 10.8744 1 8.61158 2.40588 7.20569C3.81178 5.7998 6.07451 5.7998 10.6 5.7998H15.4C19.9254 5.7998 22.1883 5.7998 23.5941 7.20569C24.3779 7.9895 24.7247 9.03967 24.8782 10.5998M25 15.3998C25 19.9252 25 22.1881 23.5941 23.5939C22.1883 24.9998 19.9254 24.9998 15.4 24.9998H10.6C6.07454 24.9998 3.81177 24.9998 2.40588 23.5939C1.62207 22.81 1.27524 21.7599 1.12179 20.1998" stroke="white" stroke-width="1.8" stroke-linecap="round"/>
<path d="M17.7992 5.8C17.7992 3.53726 17.7992 2.40588 17.0963 1.70295C16.3933 1 15.2619 1 12.9992 1C10.7365 1 9.6051 1 8.90217 1.70295C8.19922 2.40588 8.19922 3.53726 8.19922 5.8" stroke="white" stroke-width="1.8"/>
<path d="M14.7992 15.3996H11.1992M12.9992 13.5996V17.1996" stroke="white" stroke-width="1.8" stroke-linecap="round"/>
<path d="M12.9992 20.1996C15.6502 20.1996 17.7992 18.0506 17.7992 15.3996C17.7992 12.7486 15.6502 10.5996 12.9992 10.5996C10.3483 10.5996 8.19922 12.7486 8.19922 15.3996C8.19922 18.0506 10.3483 20.1996 12.9992 20.1996Z" stroke="white" stroke-width="1.8"/>
</svg>
