<svg width="258" height="198" viewBox="0 0 258 198" fill="none" xmlns="http://www.w3.org/2000/svg">
<g clip-path="url(#clip0_1142_3184)">
<path d="M169.471 183.385H164.886V183.517H169.471V183.385Z" fill="url(#paint0_linear_1142_3184)"/>
<path d="M214.081 177.054H203.957V177.186H214.081V177.054Z" fill="url(#paint1_linear_1142_3184)"/>
<path d="M233.88 149.933H132.009C131.211 149.931 130.445 149.613 129.881 149.049C129.316 148.484 128.998 147.719 128.997 146.92V3.72661C129.005 2.93271 129.326 2.17407 129.89 1.61513C130.454 1.0562 131.215 0.74201 132.009 0.740665H233.88C234.672 0.743411 235.432 1.05838 235.994 1.61731C236.556 2.17625 236.874 2.9341 236.881 3.72661V146.92C236.881 147.717 236.566 148.482 236.003 149.047C235.44 149.611 234.677 149.93 233.88 149.933ZM132.009 0.846176C131.246 0.847571 130.514 1.15149 129.974 1.69138C129.434 2.23126 129.13 2.9631 129.129 3.72661V146.92C129.13 147.684 129.434 148.416 129.974 148.955C130.514 149.495 131.246 149.799 132.009 149.801H233.88C234.643 149.799 235.375 149.495 235.915 148.955C236.455 148.416 236.759 147.684 236.76 146.92V3.72661C236.759 2.9631 236.455 2.23126 235.915 1.69138C235.375 1.15149 234.643 0.847571 233.88 0.846176H132.009Z" fill="url(#paint2_linear_1142_3184)"/>
<path d="M221.572 22.2121H137.522C136.904 22.2121 136.404 22.7128 136.404 23.3305V24.528C136.404 25.1457 136.904 25.6464 137.522 25.6464H221.572C222.19 25.6464 222.69 25.1457 222.69 24.528V23.3305C222.69 22.7128 222.19 22.2121 221.572 22.2121Z" fill="#602D8A"/>
<path d="M217.562 24.9448H141.526V92.4188H217.562V24.9448Z" fill="#602D8A"/>
<path d="M215.563 26.7912H143.431V90.5987H215.563V26.7912Z" fill="#F0F0F0"/>
<path d="M160.36 26.7912L143.431 90.4616V60.544L152.367 26.7912H160.36Z" fill="white"/>
<path d="M166.353 26.7912L149.276 90.5987H146.554L163.631 26.7912H166.353Z" fill="white"/>
<path d="M215.563 67.054V77.2516L212.108 90.5987H209.38L215.563 67.054Z" fill="white"/>
<path d="M168.59 25.6464H167.376V92.0284H168.59V25.6464Z" fill="#602D8A"/>
<path d="M192.134 25.6464H190.921V92.0284H192.134V25.6464Z" fill="#602D8A"/>
<path d="M205.17 23.3094C205.17 23.3094 206.922 46.1366 216.982 57.7691C216.982 57.7691 209.654 87.1485 209.66 97.3936L223.276 94.8772L218.37 57.9485L220.717 23.3146L205.17 23.3094Z" fill="#602D8A"/>
<path d="M153.918 23.3094C153.918 23.3094 152.172 46.1366 142.112 57.7691C142.112 57.7691 149.44 87.1485 149.434 97.3936L135.813 94.8772L140.724 57.9485L138.377 23.3146L153.918 23.3094Z" fill="#602D8A"/>
<path d="M126.623 197.286C183.115 197.286 228.91 194.612 228.91 191.314C228.91 188.016 183.115 185.342 126.623 185.342C70.1312 185.342 24.3357 188.016 24.3357 191.314C24.3357 194.612 70.1312 197.286 126.623 197.286Z" fill="url(#paint3_linear_1142_3184)"/>
<path d="M37.5509 174.754C37.4717 174.226 35.6253 161.475 39.3234 157.076C39.6915 156.612 40.1577 156.236 40.6887 155.974C41.2196 155.712 41.8019 155.571 42.3938 155.562C49.8639 155.387 50.8821 161.365 50.8927 161.444L50.0117 161.581C49.98 161.365 49.0937 156.305 42.4149 156.453C41.9492 156.461 41.4911 156.572 41.074 156.779C40.6569 156.987 40.2914 157.284 40.004 157.651C36.5643 161.745 38.4213 174.495 38.4213 174.622L37.5509 174.754Z" fill="#AF2245"/>
<path d="M37.1024 174.174L36.2109 174.147C36.2109 174.026 36.5063 162.409 30.7824 160.004C25.1692 157.656 22.6422 162.488 22.542 162.694L21.7454 162.293C21.7454 162.235 24.7366 156.49 31.1253 159.186C37.4137 161.824 37.1183 173.667 37.1024 174.174Z" fill="#AF2245"/>
<path d="M37.1288 175.086C37.1288 174.902 37.0708 156.522 33.4887 151.146C30.0491 145.987 24.5203 148.413 24.2618 148.508L23.8978 147.701C23.9611 147.669 30.3656 144.842 34.2326 150.64C37.9624 156.247 37.994 174.306 37.994 175.086H37.1288Z" fill="#AF2245"/>
<path d="M43.4647 156.005C43.4647 156.005 40.2045 157.208 41.1593 160.062C42.1142 162.916 52.449 167.553 52.449 167.553C52.449 167.553 56.7696 163.591 52.8024 157.16C48.8352 150.729 43.5544 153.974 43.4647 156.005Z" fill="#AF2245"/>
<path d="M33.3304 150.175C33.3304 150.175 35.6411 149.927 35.4407 148.519C35.2402 147.11 26.4406 143.481 21.2442 149.347C21.2442 149.347 24.5731 155.066 29.3843 155.15C34.1956 155.235 33.3304 150.175 33.3304 150.175Z" fill="#AF2245"/>
<path d="M30.9512 159.597C30.9512 159.597 32.5338 158.305 30.8246 157.677C29.1153 157.049 20.6428 157.223 20.5584 165.59C20.5584 165.59 30.4078 167.226 31.637 164.034C32.8662 160.842 30.9512 159.597 30.9512 159.597Z" fill="#AF2245"/>
<path opacity="0.2" d="M43.4647 156.005C43.4647 156.005 40.2045 157.208 41.1593 160.062C42.1142 162.916 52.449 167.553 52.449 167.553C52.449 167.553 56.7696 163.591 52.8024 157.16C48.8352 150.729 43.5544 153.974 43.4647 156.005Z" fill="white"/>
<path opacity="0.2" d="M33.3304 150.175C33.3304 150.175 35.6411 149.927 35.4407 148.519C35.2402 147.11 26.4406 143.481 21.2442 149.347C21.2442 149.347 24.5731 155.066 29.3843 155.15C34.1956 155.235 33.3304 150.175 33.3304 150.175Z" fill="white"/>
<path opacity="0.2" d="M30.9512 159.597C30.9512 159.597 32.5338 158.305 30.8246 157.677C29.1153 157.049 20.6428 157.223 20.5584 165.59C20.5584 165.59 30.4078 167.226 31.637 164.034C32.8662 160.842 30.9512 159.597 30.9512 159.597Z" fill="white"/>
<path d="M45.2162 191.82H29.9277L28.2818 175.081H46.8622L45.2162 191.82Z" fill="#AF2245"/>
<path opacity="0.5" d="M45.2162 191.82H29.9277L28.2818 175.081H46.8622L45.2162 191.82Z" fill="white"/>
<path d="M47.6799 173.235H27.4641V176.927H47.6799V173.235Z" fill="#AF2245"/>
<path opacity="0.2" d="M47.6799 173.235H27.4641V176.927H47.6799V173.235Z" fill="white"/>
<path d="M201.831 109.417H149.888C149.276 109.416 148.669 109.536 148.104 109.77C147.538 110.003 147.024 110.346 146.591 110.779C146.158 111.212 145.814 111.725 145.58 112.291C145.345 112.856 145.224 113.463 145.224 114.075L138.894 154.417H200.153L206.484 114.075C206.484 112.84 205.994 111.656 205.121 110.783C204.249 109.909 203.065 109.418 201.831 109.417Z" fill="#602D8A"/>
<path opacity="0.4" d="M201.831 109.417H149.888C149.276 109.416 148.669 109.536 148.104 109.77C147.538 110.003 147.024 110.346 146.591 110.779C146.158 111.212 145.814 111.725 145.58 112.291C145.345 112.856 145.224 113.463 145.224 114.075L138.894 154.417H200.153L206.484 114.075C206.484 112.84 205.994 111.656 205.121 110.783C204.249 109.909 203.065 109.418 201.831 109.417Z" fill="white"/>
<path opacity="0.2" d="M190.837 155.029H200.153L206.484 114.091C206.484 112.855 205.993 111.67 205.119 110.797C204.246 109.923 203.061 109.432 201.826 109.432C200.59 109.432 199.405 109.923 198.532 110.797C197.658 111.67 197.167 112.855 197.167 114.091L190.837 155.029Z" fill="black"/>
<path d="M136.952 135.583H114.869H114.632C113.124 135.583 111.679 136.182 110.612 137.247C109.546 138.312 108.946 139.758 108.945 141.265V191.82H142.302V141.254C142.322 139.799 141.775 138.393 140.777 137.334C139.778 136.276 138.406 135.647 136.952 135.583Z" fill="#AF2245"/>
<path opacity="0.5" d="M136.952 135.583H114.869H114.632C113.124 135.583 111.679 136.182 110.612 137.247C109.546 138.312 108.946 139.758 108.945 141.265V191.82H142.302V141.254C142.322 139.799 141.775 138.393 140.777 137.334C139.778 136.276 138.406 135.647 136.952 135.583Z" fill="white"/>
<path opacity="0.6" d="M114.632 135.573C113.124 135.573 111.679 136.171 110.612 137.236C109.546 138.302 108.946 139.747 108.945 141.254V191.82H120.319V141.254C120.317 139.747 119.717 138.302 118.651 137.236C117.585 136.171 116.139 135.573 114.632 135.573Z" fill="white"/>
<path d="M167.508 149.88H124.033V191.82H167.508V149.88Z" fill="#AF2245"/>
<path opacity="0.4" d="M167.508 149.88H124.033V191.82H167.508V149.88Z" fill="white"/>
<path d="M127.203 146.319H176.793V158.3H127.203C125.614 158.3 124.089 157.668 122.966 156.544C121.842 155.42 121.21 153.896 121.21 152.307C121.212 150.718 121.844 149.195 122.967 148.072C124.091 146.95 125.615 146.319 127.203 146.319Z" fill="#AF2245"/>
<path opacity="0.6" d="M127.203 146.319H176.793V158.3H127.203C125.614 158.3 124.089 157.668 122.966 156.544C121.842 155.42 121.21 153.896 121.21 152.307C121.212 150.718 121.844 149.195 122.967 148.072C124.091 146.95 125.615 146.319 127.203 146.319Z" fill="white"/>
<path d="M195.511 135.583H173.427H173.19C171.683 135.583 170.237 136.182 169.171 137.247C168.104 138.312 167.504 139.758 167.503 141.265V191.82H200.86V141.254C200.881 139.799 200.334 138.393 199.335 137.334C198.336 136.276 196.965 135.647 195.511 135.583Z" fill="#602D8A"/>
<path opacity="0.5" d="M195.511 135.583H173.427H173.19C171.683 135.583 170.237 136.182 169.171 137.247C168.104 138.312 167.504 139.758 167.503 141.265V191.82H200.86V141.254C200.881 139.799 200.334 138.393 199.335 137.334C198.336 136.276 196.965 135.647 195.511 135.583Z" fill="white"/>
<path opacity="0.6" d="M173.19 135.573C171.683 135.573 170.237 136.171 169.171 137.236C168.104 138.302 167.504 139.747 167.503 141.254V191.82H178.877V141.254C178.876 139.747 178.276 138.302 177.209 137.236C176.143 136.171 174.697 135.573 173.19 135.573Z" fill="white"/>
<path d="M226.104 137.498H186.906V191.82H226.104V137.498Z" fill="#602D8A"/>
<path opacity="0.2" d="M226.109 137.498H214.081V191.82H226.109V137.498Z" fill="black"/>
<path opacity="0.2" d="M211.401 139.44H188.858V147.917H211.401V139.44Z" fill="white"/>
<path opacity="0.2" d="M211.401 149.991H188.858V158.468H211.401V149.991Z" fill="white"/>
<path opacity="0.2" d="M211.401 160.542H188.858V183.084H211.401V160.542Z" fill="white"/>
<path opacity="0.2" d="M199.552 141.967C200.044 141.967 200.443 141.567 200.443 141.075C200.443 140.583 200.044 140.183 199.552 140.183C199.059 140.183 198.66 140.583 198.66 141.075C198.66 141.567 199.059 141.967 199.552 141.967Z" fill="black"/>
<path opacity="0.2" d="M199.552 152.143C200.044 152.143 200.443 151.744 200.443 151.251C200.443 150.759 200.044 150.36 199.552 150.36C199.059 150.36 198.66 150.759 198.66 151.251C198.66 151.744 199.059 152.143 199.552 152.143Z" fill="black"/>
<path opacity="0.2" d="M190.837 171.81C190.846 171.933 190.83 172.056 190.79 172.172C190.749 172.288 190.685 172.394 190.602 172.484C190.518 172.575 190.417 172.647 190.305 172.696C190.192 172.745 190.071 172.77 189.948 172.77C189.825 172.77 189.703 172.745 189.591 172.696C189.478 172.647 189.377 172.575 189.293 172.484C189.21 172.394 189.146 172.288 189.106 172.172C189.065 172.056 189.049 171.933 189.059 171.81C189.076 171.586 189.177 171.377 189.342 171.225C189.507 171.072 189.723 170.987 189.948 170.987C190.172 170.987 190.389 171.072 190.553 171.225C190.718 171.377 190.819 171.586 190.837 171.81Z" fill="black"/>
<path d="M212.097 103.698H209.565V137.493H212.097V103.698Z" fill="#263238"/>
<path d="M197.304 115.315H224.363L222.173 96.1644H199.494L197.304 115.315Z" fill="#AF2245"/>
<g opacity="0.6">
<path d="M197.304 115.315H224.363L222.173 96.1644H199.494L197.304 115.315Z" fill="white"/>
</g>
<path opacity="0.2" d="M209.565 123.022V137.498H212.102V121.439L209.565 123.022Z" fill="white"/>
<path d="M215.268 136.01H206.399L204.817 137.498H216.85L215.268 136.01Z" fill="#AF2245"/>
<path opacity="0.2" d="M215.268 136.01H206.399L204.817 137.498H216.85L215.268 136.01Z" fill="white"/>
<path d="M68.0645 57.2838C67.3748 56.8576 66.5504 56.7052 65.7539 56.8564C63.4959 57.2838 62.9578 59.4942 63.2585 61.1349C63.3886 61.8001 63.6953 62.418 64.1464 62.9239C64.5975 63.4298 65.1764 63.8049 65.8224 64.0101C67.6003 64.4585 69.1671 62.8125 69.6261 61.578C69.9173 60.7933 69.9201 59.9307 69.6341 59.1441C69.348 58.3575 68.7918 57.6981 68.0645 57.2838Z" fill="#263238"/>
<path d="M107.868 81.5406L116.789 79.04C116.789 79.04 116.789 78.5125 118.177 77.526C119.564 76.5394 123.278 75.7639 123.278 75.7639C123.278 75.7639 124.987 80.7071 124.434 80.8443C123.88 80.9814 118.873 82.6538 118.594 82.0999L109.098 84.7851L107.868 81.5406Z" fill="#B97964"/>
<path d="M80.6889 71.2323C85.8958 72.9152 94.0043 82.0999 95.587 82.6538C97.1696 83.2077 112.321 79.9316 112.321 79.9316L114.431 83.8302C114.431 83.8302 100.525 88.8631 95.5711 88.4727C90.6174 88.0823 84.1549 80.7388 79.523 79.6784L80.6889 71.2323Z" fill="#AF2245"/>
<path opacity="0.5" d="M114.447 83.8302C114.447 83.8302 100.541 88.8631 95.587 88.4727C92.3847 88.2195 88.56 85.07 85.0359 82.5852C83.0787 81.2241 81.2059 80.0582 79.5652 79.6784L80.1666 75.2575L80.6942 71.2323C85.9011 72.9152 94.0096 82.0946 95.5922 82.6538C97.1749 83.213 112.326 79.9316 112.326 79.9316L114.447 83.8302Z" fill="#602D8A"/>
<path opacity="0.2" d="M85.0095 82.5852C83.0523 81.2241 81.1795 80.0582 79.5388 79.6784L80.1402 75.2575C81.6332 76.7083 83.9333 79.346 85.0095 82.5852Z" fill="black"/>
<path d="M88.3595 184.514L84.8407 185.131L83.4005 180.341L82.0869 175.941L86.1385 174.527L87.3149 179.813L88.3595 184.514Z" fill="#E4897B"/>
<path d="M84.0494 185.041C83.9914 184.651 88.7974 184.118 88.7974 184.118C88.7974 184.118 92.2528 186.576 95.2177 186.756C98.1825 186.935 96.89 188.908 93.7089 189.473L85.8483 190.86C83.5904 191.245 84.6666 189.077 84.0494 185.041Z" fill="#263238"/>
<path d="M91.1714 184.92C90.5871 184.893 90.0081 184.797 89.4463 184.635C89.4323 184.638 89.418 184.638 89.4041 184.635C89.3893 184.627 89.3781 184.614 89.3724 184.598C89.3724 184.598 89.3724 184.598 89.3724 184.566C89.3698 184.547 89.3698 184.528 89.3724 184.508C89.3724 184.456 89.5887 183.274 90.1848 182.894C90.2746 182.834 90.3766 182.795 90.4834 182.78C90.5901 182.764 90.699 182.773 90.8021 182.804C91.0395 182.868 91.1661 182.984 91.1872 183.147C91.2188 183.401 90.9234 183.712 90.5699 183.986C90.9182 183.86 91.2947 183.835 91.6567 183.912C91.7249 183.935 91.7877 183.972 91.8412 184.02C91.8948 184.068 91.9379 184.126 91.968 184.192C92.0201 184.27 92.048 184.362 92.048 184.456C92.048 184.55 92.0201 184.641 91.968 184.719C91.8562 184.806 91.7278 184.869 91.5907 184.903C91.4536 184.938 91.3108 184.943 91.1714 184.92ZM89.8683 184.482C90.6174 184.656 91.5354 184.762 91.7306 184.54C91.7306 184.54 91.7991 184.461 91.7306 184.282C91.7159 184.247 91.6935 184.216 91.6652 184.191C91.6369 184.167 91.6033 184.149 91.567 184.139C91.1766 184.002 90.38 184.266 89.8683 184.482ZM90.5699 183.01C90.4737 183.01 90.3797 183.039 90.3009 183.095C89.9681 183.404 89.7442 183.813 89.6626 184.26C90.322 183.87 90.9392 183.379 90.9129 183.163C90.9129 183.095 90.7862 183.052 90.7124 183.031C90.6658 183.019 90.6181 183.012 90.5699 183.01Z" fill="#AF2245"/>
<path opacity="0.2" d="M87.336 179.924L83.4163 180.436L82.0975 175.994L86.1438 174.553L87.336 179.924Z" fill="black"/>
<path d="M64.8992 186.017H61.3277L60.7421 181.048L60.2146 176.49L64.4508 175.798L64.6882 181.211L64.8992 186.017Z" fill="#E4897B"/>
<path d="M60.5627 185.79C60.5627 185.395 65.4057 185.706 65.4057 185.706C65.4057 185.706 68.3811 188.729 71.2668 189.399C74.1525 190.069 72.5435 191.81 69.3148 191.81H61.3277C59.0328 191.82 60.4678 189.868 60.5627 185.79Z" fill="#263238"/>
<path d="M67.9485 186.967C67.2514 186.881 66.5748 186.674 65.9491 186.355C65.9304 186.349 65.9138 186.338 65.9016 186.323V186.297C65.8884 186.265 65.8884 186.229 65.9016 186.197C65.9016 186.149 66.3236 185.02 66.9567 184.751C67.0541 184.705 67.1604 184.682 67.2679 184.682C67.3755 184.682 67.4818 184.705 67.5792 184.751C67.8008 184.857 67.9063 184.994 67.8957 185.157C67.8957 185.411 67.537 185.685 67.1466 185.875C67.5028 185.819 67.8675 185.861 68.2017 185.996C68.266 186.029 68.3224 186.075 68.367 186.131C68.4116 186.188 68.4434 186.253 68.4602 186.323C68.5 186.412 68.5101 186.511 68.4892 186.606C68.4683 186.701 68.4175 186.787 68.3441 186.851C68.2282 186.931 68.0894 186.972 67.9485 186.967ZM66.3658 186.276C67.078 186.576 67.9485 186.845 68.1912 186.656C68.1912 186.656 68.2756 186.592 68.2228 186.402C68.2147 186.365 68.198 186.331 68.1742 186.302C68.1504 186.272 68.1201 186.249 68.0856 186.233C67.7586 186.007 66.9303 186.128 66.3869 186.249L66.3658 186.276ZM67.231 184.946C67.1642 184.946 67.098 184.959 67.0358 184.983C66.6544 185.238 66.3642 185.607 66.2076 186.038C66.925 185.769 67.6161 185.389 67.6267 185.173C67.6267 185.11 67.5212 185.046 67.4526 185.015C67.394 184.968 67.3254 184.936 67.2521 184.92L67.231 184.946Z" fill="#AF2245"/>
<path opacity="0.2" d="M64.6882 181.322L60.7421 181.148L60.2146 176.537L64.4508 175.825L64.6882 181.322Z" fill="black"/>
<path d="M87.6631 177.133L81.86 178.151C76.057 163.628 71.884 151.505 68.9561 141.444C67.3735 136.016 66.1495 131.189 65.2052 126.905L65.469 142.731V178.631H59.6237C45.3534 110.577 55.4666 95.0249 55.4666 95.0249L72.5382 92.1075C73.2137 95.2592 73.6912 98.4501 73.9679 101.662L74.7381 107.306L81.4116 141.766L87.6631 177.133Z" fill="#AF2245"/>
<path opacity="0.5" d="M87.6631 177.133L81.86 178.151C76.057 163.628 71.884 151.505 68.9561 141.444C67.3735 136.016 66.1495 131.189 65.2052 126.905L65.469 142.731V178.631H59.6237C45.3534 110.577 55.4666 95.0249 55.4666 95.0249L72.5382 92.1075C73.2137 95.2592 73.6912 98.4501 73.9679 101.662L74.7381 107.306L81.4116 141.766L87.6631 177.133Z" fill="#602D8A"/>
<path d="M80.9843 177.439L88.1485 175.065L88.0482 178.109L82.1238 180.003L80.9843 177.439Z" fill="#AF2245"/>
<path d="M58.864 177.772L66.3342 176.674L65.7064 179.66L59.5446 180.494L58.864 177.772Z" fill="#AF2245"/>
<path opacity="0.2" d="M68.9825 141.444C67.3998 136.016 66.1759 131.189 65.2316 126.905C65.3118 121.834 65.6799 116.772 66.3342 111.743C66.3342 111.743 68.8348 131.299 68.9825 141.444Z" fill="black"/>
<path d="M75.3553 105.196L68.0645 107.665L66.714 103.228L65.2369 107.317L52.0006 104.236C53.1348 96.1116 57.6665 89.628 58.3787 87.1696C59.3599 83.7722 60.1301 77.2727 59.4602 73.0682V73.0154C59.3934 72.5911 59.4149 72.1577 59.5232 71.7421C59.6315 71.3265 59.8244 70.9378 60.0898 70.6001C60.3552 70.2625 60.6873 69.9832 61.0655 69.7797C61.4437 69.5762 61.8598 69.4529 62.2878 69.4175C63.5645 69.3172 64.8517 69.2698 66.139 69.2645C68.6909 69.2345 71.2418 69.3844 73.7727 69.7129C77.0224 70.2405 80.6994 71.2112 80.6994 71.2112C80.6994 71.2112 81.227 71.4275 80.9738 74.904C80.7575 77.9586 80.1719 87.4492 73.9257 95.4786L75.3553 105.196Z" fill="#AF2245"/>
<path opacity="0.6" d="M75.3553 105.196L68.0645 107.665L66.714 103.228L65.2369 107.317L52.0006 104.236C53.1348 96.1116 57.6665 89.628 58.3787 87.1696C59.3599 83.7722 60.1301 77.2727 59.4602 73.0682V73.0154C59.3934 72.5911 59.4149 72.1577 59.5232 71.7421C59.6315 71.3265 59.8244 70.9378 60.0898 70.6001C60.3552 70.2625 60.6873 69.9832 61.0655 69.7797C61.4437 69.5762 61.8598 69.4529 62.2878 69.4175C63.5645 69.3172 64.8517 69.2698 66.139 69.2645C68.6909 69.2345 71.2418 69.3844 73.7727 69.7129C77.0224 70.2405 80.6994 71.2112 80.6994 71.2112C80.6994 71.2112 81.227 71.4275 80.9738 74.904C80.7575 77.9586 80.1719 87.4492 73.9257 95.4786L75.3553 105.196Z" fill="#602D8A"/>
<path d="M67.9327 75.764C67.9327 75.764 70.8448 78.2909 71.6941 84.7851L74.9808 75.7059L77.2387 76.397C77.2387 76.397 75.4978 68.1619 69.8529 68.0089C64.2081 67.8559 64.6302 76.397 64.6302 76.397L67.9327 75.764Z" fill="#AF2245"/>
<path opacity="0.5" d="M67.9327 75.764C67.9327 75.764 70.8448 78.2909 71.6941 84.7851L74.9808 75.7059L77.2387 76.397C77.2387 76.397 75.4978 68.1619 69.8529 68.0089C64.2081 67.8559 64.6302 76.397 64.6302 76.397L67.9327 75.764Z" fill="white"/>
<path d="M76.1203 66.5054C76.1203 66.5054 74.0523 67.8401 73.6935 68.7264C73.6713 68.7811 73.6536 68.8376 73.6408 68.8952C73.542 69.3989 73.4733 69.908 73.435 70.4198C75.0177 73.8226 71.9843 79.6784 71.9843 79.6784C70.7495 76.2185 69.0013 72.964 66.7984 70.0242C70.1167 68.7264 70.7498 62.3641 70.7498 62.3641L72.3324 63.6039L76.1203 66.5054Z" fill="#B97964"/>
<path opacity="0.2" d="M76.1203 66.5054C76.1203 66.5054 74.0523 67.8401 73.6935 68.7264C73.6712 68.7811 73.6536 68.8376 73.6408 68.8952C72.7647 68.2264 72.0661 67.3529 71.6062 66.3513C71.1463 65.3497 70.9392 64.2505 71.003 63.1502L72.3483 63.6039L76.1203 66.5054Z" fill="black"/>
<path d="M78.4151 51.5915C78.4151 51.5915 82.5986 50.4203 84.6244 53.7967C86.6502 57.173 85.0306 59.7316 83.6221 60.9503" stroke="#263238" stroke-width="0.49" stroke-linecap="round" stroke-linejoin="round"/>
<path d="M80.0822 51.3857C80.0822 51.3857 83.4902 51.4912 84.4345 54.3717C85.3788 57.2521 84.6772 60.486 79.6179 63.9679C77.1437 65.6719 70.9977 62.343 70.9977 62.343L70.5071 63.8307C69.6858 63.2358 68.94 62.5431 68.2861 61.768C66.2972 59.4362 66.809 51.7128 72.3272 50.1987C78.088 48.6425 80.0822 51.3857 80.0822 51.3857Z" fill="#263238"/>
<path d="M76.8325 52.3723C81.1637 52.9578 82.2452 55.469 81.955 59.9796C81.591 65.6085 79.8131 69.4069 74.5693 67.4761C67.4209 64.8542 69.6472 51.3857 76.8325 52.3723Z" fill="#B97964"/>
<path d="M79.1854 59.3518C79.445 60.046 79.7868 60.7066 80.2035 61.3195C80.0522 61.4825 79.8588 61.6003 79.6446 61.6599C79.4304 61.7195 79.2039 61.7185 78.9902 61.6572L79.1854 59.3518Z" fill="#A24E3F"/>
<path d="M76.5845 58.6396C76.5423 58.993 76.3155 59.2621 76.057 59.2357C75.7985 59.2093 75.6613 58.8981 75.6982 58.5393C75.7352 58.1806 75.9673 57.9168 76.2258 57.9432C76.4843 57.9696 76.6214 58.2808 76.5845 58.6396Z" fill="#263238"/>
<path d="M76.1255 57.9485L76.9327 57.7322C76.9327 57.7322 76.4737 58.3442 76.1255 57.9485Z" fill="#263238"/>
<path d="M81.0265 59.0616C80.9896 59.4204 80.7627 59.6894 80.5253 59.663C80.2879 59.6367 80.1244 59.3254 80.1666 58.9667C80.2088 58.6079 80.4304 58.3389 80.6942 58.3705C80.9579 58.4022 81.0687 58.7082 81.0265 59.0616Z" fill="#263238"/>
<path d="M80.5675 58.3758L81.38 58.1595C81.38 58.1595 80.921 58.7715 80.5675 58.3758Z" fill="#263238"/>
<path d="M76.9485 55.6431C76.6122 55.5537 76.2597 55.5428 75.9185 55.6114C75.5773 55.68 75.2564 55.8263 74.9808 56.0387" stroke="#263238" stroke-width="0.71" stroke-linecap="round" stroke-linejoin="round"/>
<path d="M80.1191 55.8858C80.4252 55.8509 80.7353 55.886 81.0259 55.9883C81.3164 56.0907 81.58 56.2576 81.7967 56.4766" stroke="#263238" stroke-width="0.71" stroke-linecap="round" stroke-linejoin="round"/>
<path d="M71.1032 59.0247C71.1032 59.0247 73.6144 55.7433 73.683 52.9526C73.683 52.9526 82.7463 50.6155 81.9814 59.3887C81.9814 59.3887 83.8753 51.7656 76.4526 50.5786C69.03 49.3916 67.3154 59.6156 70.7023 63.3876C70.7023 63.3876 69.547 61.0822 71.1032 59.0247Z" fill="#263238"/>
<path d="M71.6888 60.0376C71.7133 59.5311 71.5371 59.0354 71.1983 58.6581C70.8595 58.2808 70.3855 58.0523 69.8793 58.0223C68.5182 57.9854 67.5001 60.6601 70.7498 61.7732C71.2299 61.9368 71.5517 61.4989 71.6888 60.0376Z" fill="#B97964"/>
<path d="M78.758 62.9497C78.5761 63.4662 78.4316 63.9951 78.3254 64.5323H78.0353C76.727 64.469 76.1414 64.0048 75.8882 63.5194C75.7674 63.2772 75.7076 63.0092 75.7141 62.7387C75.713 62.5855 75.7325 62.4329 75.7721 62.285C76.5638 62.6798 77.4308 62.901 78.3149 62.9339C78.6156 62.9497 78.758 62.9497 78.758 62.9497Z" fill="#263238"/>
<path d="M78.3149 62.9233L78.1725 63.3876C76.9433 63.3243 76.0622 63.1185 75.7141 62.7281C75.713 62.575 75.7325 62.4224 75.7721 62.2744C76.5638 62.6693 77.4308 62.8905 78.3149 62.9233Z" fill="white"/>
<path d="M78.0353 64.5218C76.727 64.4585 76.1414 63.9942 75.8882 63.5089C76.3837 63.5405 76.8696 63.6602 77.3231 63.8623C77.6237 64.0021 77.8728 64.2328 78.0353 64.5218Z" fill="#DE5753"/>
<path d="M67.2205 56.4766L67.537 49.7345L66.35 47.8722C69.4304 46.7424 72.7655 46.4975 75.9778 47.1653L80.098 51.3857C80.098 51.3857 72.132 49.4285 67.2205 56.4766Z" fill="#AF2245"/>
<path opacity="0.6" d="M80.0822 51.3857C77.081 50.7838 73.9637 51.2523 71.2721 52.7099C69.6528 53.6321 68.2667 54.9135 67.2205 56.4555L67.537 49.7134L66.35 47.8511C69.4324 46.7283 72.7675 46.4908 75.9778 47.1653L80.0822 51.3857Z" fill="white"/>
<path opacity="0.1" d="M71.2721 52.731C69.6528 53.6532 68.2667 54.9346 67.2205 56.4766L67.537 49.7345L66.35 47.8722L71.2721 52.731Z" fill="black"/>
<path d="M87.584 100.016L93.3871 101.356C94.8355 101.442 96.2701 101.686 97.6655 102.084C99.8602 102.727 102.234 103.666 101.886 104.236C101.538 104.806 97.7394 107.86 96.526 107.665C95.3126 107.47 91.8994 105.555 92.3056 104.605L86.6397 103.228L87.584 100.016Z" fill="#B97964"/>
<path d="M61.0481 69.7973C63.1266 69.1906 67.1624 88.7892 70.1378 92.1075C73.1132 95.4258 91.05 100.311 91.05 100.311L90.1426 104.236C90.1426 104.236 68.1542 101.561 65.2316 97.3778C62.3089 93.1943 58.2415 81.9838 57.7245 76.397C57.2075 70.8102 59.8242 70.1613 61.0481 69.7973Z" fill="#AF2245"/>
<path opacity="0.5" d="M61.0481 69.7973C63.1266 69.1906 67.1624 88.7892 70.1378 92.1075C73.1132 95.4258 91.05 100.311 91.05 100.311L90.1426 104.236C90.1426 104.236 68.1542 101.561 65.2316 97.3778C62.3089 93.1943 58.2415 81.9838 57.7245 76.397C57.2075 70.8102 59.8242 70.1613 61.0481 69.7973Z" fill="#602D8A"/>
<path d="M79.8606 86.3572L74.0681 85.9668L74.4796 82.7329L80.2774 83.1286L79.8606 86.3572Z" fill="#AF2245"/>
<path opacity="0.5" d="M79.5546 86.1092L74.564 85.7716L74.9227 82.9861L79.9081 83.3238L79.5546 86.1092Z" fill="white"/>
<path d="M77.5499 81.8572L76.9907 83.4187H77.9245V81.8572H77.5499Z" fill="#263238"/>
<path d="M95.0964 104.6L89.6942 105.618C89.6942 105.618 84.0441 104.384 83.0629 104.6C82.0816 104.816 79.5388 109.802 79.5388 109.802C79.5388 109.802 88.2171 111.696 89.3249 111.326C90.4328 110.957 91.3507 109.517 91.3507 109.517L95.5712 108.736L95.0964 104.6Z" fill="#E4897B"/>
<path d="M106.122 79.0295C103.569 82.8648 107.278 98.4223 107.51 99.4089C107.742 100.395 92.2951 104.574 92.2951 104.574L94.5213 111.384C94.5213 111.384 113.772 109.163 115.908 106.868C118.045 104.574 115.639 85.7083 115.639 85.7083L106.143 79.0295H106.122Z" fill="#AF2245"/>
<path opacity="0.1" d="M95.6608 111.247L94.5213 111.384L92.2951 104.574L93.308 104.294L95.6608 111.247Z" fill="black"/>
<path opacity="0.2" d="M116.758 99.1134C113.592 94.0437 113.281 88.4885 113.239 83.883L115.639 85.7083C115.639 85.7083 116.599 93.0624 116.758 99.1134Z" fill="black"/>
<path d="M71.4778 191.81L75.1707 131.6H105.067L108.76 191.81H111.398L106.618 114.412C106.503 112.653 105.729 111.001 104.45 109.787C103.171 108.572 101.481 107.884 99.7177 107.86H80.6203C78.8418 107.864 77.1312 108.544 75.8345 109.761C74.5378 110.979 73.7519 112.643 73.6355 114.418L68.8875 191.81H71.4778ZM76.2258 114.581C76.2981 113.476 76.7878 112.439 77.5959 111.681C78.404 110.922 79.4701 110.5 80.5781 110.498H99.7177C100.824 110.501 101.888 110.923 102.695 111.68C103.502 112.437 103.991 113.472 104.065 114.576L104.951 128.962H75.3553L76.2258 114.581Z" fill="#AF2245"/>
<path d="M126.676 187.811L122.55 189.019L120.118 180.088L124.244 178.879L126.676 187.811Z" fill="#B97964"/>
<path d="M122.102 187.104H127.15C127.233 187.104 127.313 187.133 127.377 187.185C127.441 187.236 127.486 187.308 127.504 187.389L128.322 191.082C128.355 191.24 128.324 191.406 128.236 191.542C128.148 191.678 128.01 191.774 127.852 191.81C127.807 191.815 127.761 191.815 127.715 191.81C126.085 191.783 124.903 191.683 122.856 191.683C121.595 191.683 117.797 191.815 116.056 191.815C114.315 191.815 114.088 190.1 114.8 189.942C117.997 189.246 120.398 188.28 121.421 187.362C121.607 187.194 121.85 187.101 122.102 187.104Z" fill="#263238"/>
<path opacity="0.2" d="M124.244 178.879L120.118 180.088L121.374 184.693L125.505 183.485L124.244 178.879Z" fill="black"/>
<path d="M140.091 102.332C141.218 108.016 141.687 113.812 141.489 119.604C141.12 128.894 120.123 140.426 119.723 143.671C119.322 146.915 126.185 180.842 126.185 180.842L118.942 183.416C118.942 183.416 104.629 152.702 104.466 145.185C104.302 137.667 120.123 119.604 124.439 114.623C126.116 112.687 124.465 104.895 124.465 104.895L140.091 102.332Z" fill="#602D8A"/>
<path d="M118.493 184.682L127.314 181.691L126.586 179.233L117.375 182.177L118.493 184.682Z" fill="#AF2245"/>
<path opacity="0.6" d="M118.493 184.682L127.314 181.691L126.586 179.233L117.375 182.177L118.493 184.682Z" fill="white"/>
<path opacity="0.2" d="M134.942 130.065C129.261 135.562 121.627 140.542 120.023 142.979C120.329 132.054 133.518 120.427 133.518 120.427L134.942 130.065Z" fill="black"/>
<path d="M146.654 187.811L142.529 189.019L140.091 180.088L144.222 178.879L146.654 187.811Z" fill="#B97964"/>
<path d="M142.08 187.104H147.113C147.196 187.104 147.275 187.133 147.34 187.185C147.404 187.236 147.449 187.308 147.467 187.389L148.284 191.082C148.317 191.241 148.286 191.407 148.197 191.543C148.108 191.68 147.969 191.775 147.809 191.81C147.766 191.815 147.721 191.815 147.678 191.81C146.047 191.783 144.86 191.683 142.819 191.683C141.558 191.683 137.754 191.815 136.019 191.815C134.283 191.815 134.051 190.1 134.763 189.942C137.955 189.246 140.36 188.28 141.384 187.362C141.574 187.19 141.823 187.097 142.08 187.104Z" fill="#263238"/>
<path opacity="0.2" d="M144.222 178.879L140.091 180.088L141.352 184.693L145.478 183.485L144.222 178.879Z" fill="black"/>
<path d="M148.295 100.448C150.638 105.781 151.774 111.565 151.624 117.388C151.254 126.673 140.102 140.421 139.701 143.665C139.3 146.91 146.142 180.842 146.142 180.842L138.894 183.416C138.894 183.416 124.581 152.702 124.412 145.185C124.244 137.667 133.497 120.427 133.497 120.427L131.571 103.334L148.295 100.448Z" fill="#602D8A"/>
<path d="M138.466 184.682L147.292 181.691L146.559 179.233L137.353 182.177L138.466 184.682Z" fill="#AF2245"/>
<path opacity="0.6" d="M138.466 184.682L147.292 181.691L146.559 179.233L137.353 182.177L138.466 184.682Z" fill="white"/>
<path d="M151.65 111.374C151.65 111.374 126.475 115.172 123.975 113.152C120.282 110.176 116.204 85.2863 106.122 79.0295C107.159 77.3669 108.42 75.8546 109.868 74.5348C112.993 71.5854 116.771 69.4163 120.894 68.2041C124.03 67.2967 127.29 66.8855 130.553 66.9855C130.553 66.9855 150.315 81.0289 151.65 111.374Z" fill="#AF2245"/>
<path opacity="0.1" d="M151.65 111.374C151.65 111.374 126.475 115.172 123.975 113.152C123.703 112.919 123.468 112.647 123.278 112.344C132.796 112.585 142.3 111.466 151.502 109.021C151.566 109.796 151.613 110.577 151.65 111.374Z" fill="black"/>
<path d="M120.292 68.5892C118.762 74.1707 116.541 75.1309 114.8 74.8038C113.769 74.5446 112.834 73.9954 112.105 73.2211C112.285 72.8885 112.369 72.5121 112.347 72.1344C112.313 71.7214 112.186 71.3214 111.977 70.9636C111.768 70.6058 111.482 70.2993 111.139 70.0664C110.804 69.808 110.452 69.5735 110.084 69.3647L110.195 67.9298L110.722 61.1191C111.692 62.6028 112.77 64.0134 113.946 65.3395C114.341 65.7721 114.758 66.1941 115.186 66.5793C116.784 68.0406 118.567 69.0165 120.292 68.5892Z" fill="#E4897B"/>
<path opacity="0.2" d="M114.795 74.8038C113.764 74.5446 112.828 73.9954 112.099 73.2211C112.28 72.8885 112.364 72.5121 112.342 72.1344C112.308 71.7214 112.181 71.3214 111.972 70.9636C111.763 70.6058 111.477 70.2993 111.134 70.0664C110.799 69.808 110.447 69.5735 110.079 69.3647L110.19 67.9298L115.186 66.5687C115.186 66.5687 116.436 71.5699 114.795 74.8038Z" fill="black"/>
<path d="M102.313 60.8448C102.313 60.8448 100.82 60.6865 100.578 62.6279C100.335 64.5693 100.994 64.6062 100.994 64.6062C100.994 64.6062 100.467 66.2311 101.121 66.69C101.775 67.149 102.313 69.0904 102.313 69.0904L103.79 66.3788L102.313 60.8448Z" fill="#263238"/>
<path opacity="0.6" d="M102.313 60.8448C102.313 60.8448 100.82 60.6865 100.578 62.6279C100.335 64.5693 100.994 64.6062 100.994 64.6062C100.994 64.6062 100.467 66.2311 101.121 66.69C101.775 67.149 102.313 69.0904 102.313 69.0904L103.79 66.3788L102.313 60.8448Z" fill="white"/>
<path d="M113.846 70.8155C113.741 71.0337 113.623 71.2451 113.492 71.4486C112.864 72.5108 111.904 73.3366 110.76 73.7981C109.615 74.2597 108.351 74.3313 107.161 74.0019C105.613 73.6113 104.273 72.643 103.416 71.2956C103.291 71.1114 103.178 70.9193 103.078 70.7205C102.883 70.3196 102.688 69.8817 102.514 69.4122C101.1 65.6297 99.6333 60.4438 104.207 57.7111C107.088 55.9754 111.925 55.7591 113.65 58.6554C114.282 59.7118 114.69 60.887 114.848 62.1077C115.006 63.3284 114.91 64.5686 114.568 65.751C114.832 67.2387 115.091 68.3149 113.846 70.8155Z" fill="#E4897B"/>
<path d="M115.739 62.2058C115.739 62.2058 116.504 62.1689 116.193 61.1507C115.882 60.1326 114.574 59.4679 114.574 59.4679C114.574 59.4679 115.629 58.7715 114.247 58.112C113.54 57.789 112.739 57.7401 111.999 57.9749C111.54 57.5898 107.51 54.3559 104.772 56.2814C104.747 56.3027 104.732 56.3321 104.728 56.3641C104.724 56.3961 104.731 56.4285 104.75 56.4552C104.768 56.4818 104.795 56.5009 104.826 56.5087C104.858 56.5166 104.891 56.5126 104.919 56.4977C107.309 54.8201 110.912 57.4526 111.704 58.0804L111.503 58.1753C110.68 57.8061 104.619 55.2052 102.582 58.2598C102.572 58.2742 102.566 58.2906 102.562 58.3077C102.559 58.3249 102.559 58.3426 102.562 58.3598C102.565 58.377 102.572 58.3934 102.582 58.4079C102.592 58.4224 102.605 58.4348 102.619 58.4444C102.633 58.4541 102.649 58.4609 102.666 58.4643C102.683 58.4678 102.7 58.4677 102.717 58.4643C102.734 58.4608 102.75 58.454 102.764 58.4443C102.778 58.4345 102.79 58.422 102.799 58.4075C104.587 55.7275 109.963 57.8061 111.213 58.3389C111.077 58.4231 110.948 58.5184 110.828 58.6238C109.572 58.2809 105.595 57.3418 103.21 58.6238C102.804 58.8356 102.447 59.1307 102.162 59.4897C101.878 59.8488 101.672 60.2637 101.559 60.7076C101.554 60.7239 101.553 60.741 101.555 60.7578C101.557 60.7747 101.562 60.791 101.57 60.8057C101.579 60.8205 101.59 60.8334 101.603 60.8438C101.617 60.8541 101.632 60.8616 101.649 60.8659H101.685C101.714 60.8659 101.742 60.8566 101.765 60.8395C101.787 60.8224 101.804 60.7983 101.812 60.7709C101.918 60.3621 102.108 59.98 102.371 59.6492C102.634 59.3185 102.963 59.0464 103.337 58.8506C105.516 57.6636 109.235 58.4602 110.606 58.819C110.386 59.0682 110.208 59.3515 110.079 59.6578C109.356 61.3987 110.527 62.0581 111.292 62.9339C112.057 63.8096 111.704 65.2551 111.693 65.3026C111.33 66.1537 110.778 66.9113 110.079 67.5183C109.59 67.3192 109.043 67.3192 108.554 67.5183C107.892 67.8208 107.361 68.3531 107.061 69.0166C104.745 68.7739 104.371 70.6678 104.371 70.6678C103.357 69.9263 102.549 68.9386 102.023 67.7979C101.791 69.9081 102.551 72.1133 103.295 73.0154C104.038 73.9175 104.408 73.0154 104.408 73.0154C104.408 73.0154 104.582 74.788 105.574 75.4527C106.565 76.1174 106.914 75.3103 106.914 75.3103C106.914 75.3103 107.441 76.4234 109.314 76.8929C111.187 77.3624 111.783 74.6666 111.783 74.6666C113.835 76.2493 113.661 72.5089 113.661 72.5089C113.661 72.5089 114.669 72.7886 114.574 70.9632C114.494 69.5388 113.228 66.785 112.669 65.6297C113.503 65.4978 114.779 67.4022 114.779 67.4022C118.383 67.7399 115.739 62.2058 115.739 62.2058Z" fill="#263238"/>
<path opacity="0.6" d="M115.739 62.2058C115.739 62.2058 116.504 62.1689 116.193 61.1507C115.882 60.1326 114.574 59.4679 114.574 59.4679C114.574 59.4679 115.629 58.7715 114.247 58.112C113.54 57.789 112.739 57.7401 111.999 57.9749C111.54 57.5898 107.51 54.3559 104.772 56.2814C104.747 56.3027 104.732 56.3321 104.728 56.3641C104.724 56.3961 104.731 56.4285 104.75 56.4552C104.768 56.4818 104.795 56.5009 104.826 56.5087C104.858 56.5166 104.891 56.5126 104.919 56.4977C107.309 54.8201 110.912 57.4526 111.704 58.0804L111.503 58.1753C110.68 57.8061 104.619 55.2052 102.582 58.2598C102.572 58.2742 102.566 58.2906 102.562 58.3077C102.559 58.3249 102.559 58.3426 102.562 58.3598C102.565 58.377 102.572 58.3934 102.582 58.4079C102.592 58.4224 102.605 58.4348 102.619 58.4444C102.633 58.4541 102.649 58.4609 102.666 58.4643C102.683 58.4678 102.7 58.4677 102.717 58.4643C102.734 58.4608 102.75 58.454 102.764 58.4443C102.778 58.4345 102.79 58.422 102.799 58.4075C104.587 55.7275 109.963 57.8061 111.213 58.3389C111.077 58.4231 110.948 58.5184 110.828 58.6238C109.572 58.2809 105.595 57.3418 103.21 58.6238C102.804 58.8356 102.447 59.1307 102.162 59.4897C101.878 59.8488 101.672 60.2637 101.559 60.7076C101.554 60.7239 101.553 60.741 101.555 60.7578C101.557 60.7747 101.562 60.791 101.57 60.8057C101.579 60.8205 101.59 60.8334 101.603 60.8438C101.617 60.8541 101.632 60.8616 101.649 60.8659H101.685C101.714 60.8659 101.742 60.8566 101.765 60.8395C101.787 60.8224 101.804 60.7983 101.812 60.7709C101.918 60.3621 102.108 59.98 102.371 59.6492C102.634 59.3185 102.963 59.0464 103.337 58.8506C105.516 57.6636 109.235 58.4602 110.606 58.819C110.386 59.0682 110.208 59.3515 110.079 59.6578C109.356 61.3987 110.527 62.0581 111.292 62.9339C112.057 63.8096 111.704 65.2551 111.693 65.3026C111.33 66.1537 110.778 66.9113 110.079 67.5183C109.59 67.3192 109.043 67.3192 108.554 67.5183C107.892 67.8208 107.361 68.3531 107.061 69.0166C104.745 68.7739 104.371 70.6678 104.371 70.6678C103.357 69.9263 102.549 68.9386 102.023 67.7979C101.791 69.9081 102.551 72.1133 103.295 73.0154C104.038 73.9175 104.408 73.0154 104.408 73.0154C104.408 73.0154 104.582 74.788 105.574 75.4527C106.565 76.1174 106.914 75.3103 106.914 75.3103C106.914 75.3103 107.441 76.4234 109.314 76.8929C111.187 77.3624 111.783 74.6666 111.783 74.6666C113.835 76.2493 113.661 72.5089 113.661 72.5089C113.661 72.5089 114.669 72.7886 114.574 70.9632C114.494 69.5388 113.228 66.785 112.669 65.6297C113.503 65.4978 114.779 67.4022 114.779 67.4022C118.383 67.7399 115.739 62.2058 115.739 62.2058Z" fill="white"/>
<path d="M107.473 64.5113C107.578 64.8542 107.436 65.1918 107.204 65.2446C106.972 65.2973 106.718 65.0546 106.634 64.717C106.55 64.3794 106.676 64.0312 106.908 63.9784C107.14 63.9257 107.388 64.1525 107.473 64.5113Z" fill="#263238"/>
<path d="M103.474 65.4345C103.532 65.5684 103.536 65.7197 103.485 65.8564C103.433 65.9931 103.331 66.1047 103.2 66.1678C102.967 66.2205 102.714 65.9778 102.63 65.6402C102.545 65.3026 102.672 64.9544 102.904 64.9016C103.136 64.8489 103.411 65.1021 103.474 65.4345Z" fill="#263238"/>
<path d="M104.782 65.3131C104.612 66.4932 104.278 67.6437 103.79 68.7317C104.074 68.8496 104.38 68.9041 104.688 68.8913C104.995 68.8785 105.295 68.7989 105.568 68.6578L104.782 65.3131Z" fill="#DE5753"/>
<path d="M108.417 62.9286C108.38 62.9422 108.34 62.9459 108.301 62.9395C108.263 62.933 108.226 62.9165 108.195 62.8917C107.994 62.7151 107.754 62.588 107.495 62.5202C107.236 62.4524 106.965 62.446 106.703 62.5013C106.649 62.5178 106.592 62.5127 106.542 62.487C106.493 62.4613 106.456 62.4171 106.439 62.3641C106.424 62.3102 106.43 62.2527 106.457 62.2035C106.483 62.1544 106.528 62.1174 106.581 62.1003C106.911 62.0213 107.254 62.0226 107.583 62.1044C107.912 62.1861 108.216 62.3457 108.47 62.5698C108.513 62.605 108.541 62.6557 108.546 62.711C108.552 62.7664 108.536 62.8218 108.501 62.8653C108.477 62.8909 108.448 62.9123 108.417 62.9286Z" fill="#263238"/>
<path d="M101.432 64.4479C101.398 64.4751 101.355 64.4883 101.311 64.4849C101.257 64.4722 101.21 64.4395 101.18 64.3934C101.149 64.3473 101.138 64.2913 101.147 64.2369C101.215 63.9048 101.361 63.5938 101.574 63.3303C101.787 63.0668 102.061 62.8584 102.371 62.7228C102.398 62.7128 102.426 62.7081 102.454 62.709C102.482 62.71 102.51 62.7165 102.535 62.7283C102.561 62.7401 102.584 62.7569 102.603 62.7777C102.622 62.7985 102.636 62.8229 102.646 62.8494C102.662 62.9027 102.658 62.9602 102.635 63.0108C102.611 63.0614 102.57 63.1016 102.519 63.1238C102.276 63.2376 102.064 63.4066 101.898 63.6173C101.732 63.828 101.618 64.0745 101.564 64.3372C101.552 64.3643 101.534 64.3883 101.511 64.4074C101.488 64.4266 101.461 64.4404 101.432 64.4479Z" fill="#263238"/>
<path opacity="0.6" d="M108.417 62.9286C108.38 62.9422 108.34 62.9459 108.301 62.9395C108.263 62.933 108.226 62.9165 108.195 62.8917C107.994 62.7151 107.754 62.588 107.495 62.5202C107.236 62.4524 106.965 62.446 106.703 62.5013C106.649 62.5178 106.592 62.5127 106.542 62.487C106.493 62.4613 106.456 62.4171 106.439 62.3641C106.424 62.3102 106.43 62.2527 106.457 62.2035C106.483 62.1544 106.528 62.1174 106.581 62.1003C106.911 62.0213 107.254 62.0226 107.583 62.1044C107.912 62.1861 108.216 62.3457 108.47 62.5698C108.513 62.605 108.541 62.6557 108.546 62.711C108.552 62.7664 108.536 62.8218 108.501 62.8653C108.477 62.8909 108.448 62.9123 108.417 62.9286Z" fill="white"/>
<path opacity="0.6" d="M101.432 64.4479C101.398 64.4751 101.355 64.4883 101.311 64.4849C101.257 64.4722 101.21 64.4395 101.18 64.3934C101.149 64.3473 101.138 64.2913 101.147 64.2369C101.215 63.9048 101.361 63.5938 101.574 63.3303C101.787 63.0668 102.061 62.8584 102.371 62.7228C102.398 62.7128 102.426 62.7081 102.454 62.709C102.482 62.71 102.51 62.7165 102.535 62.7283C102.561 62.7401 102.584 62.7569 102.603 62.7777C102.622 62.7985 102.636 62.8229 102.646 62.8494C102.662 62.9027 102.658 62.9602 102.635 63.0108C102.611 63.0614 102.57 63.1016 102.519 63.1238C102.276 63.2376 102.064 63.4066 101.898 63.6173C101.732 63.828 101.618 64.0745 101.564 64.3372C101.552 64.3643 101.534 64.3883 101.511 64.4074C101.488 64.4266 101.461 64.4404 101.432 64.4479Z" fill="white"/>
<path opacity="0.2" d="M104.819 71.2798C104.819 71.2798 105.204 71.6649 105.721 71.074C105.721 71.074 106.455 72.2188 107.22 69.6813C107.22 69.6813 109.266 70.0928 109.826 69.6813C110.211 69.4017 109.826 68.8952 109.826 68.8952C109.826 68.8952 110.664 68.8108 110.881 68.1883C110.881 68.1883 111.545 70.6731 107.715 70.2035C107.705 70.2035 106.476 72.8835 104.819 71.2798Z" fill="black"/>
<path d="M116.515 64.8964C116.39 65.4389 116.158 65.9513 115.834 66.404C115.51 66.8567 115.1 67.2408 114.626 67.5341C113.36 68.3149 112.316 67.2756 112.321 65.8671C112.321 64.6115 113.007 62.6543 114.431 62.4643C115.856 62.2744 116.81 63.5511 116.515 64.8964Z" fill="#E4897B"/>
<path opacity="0.2" d="M106.608 65.1021C106.608 65.1021 106.808 66.115 108.021 65.7985" stroke="black" stroke-width="0.5" stroke-linecap="round" stroke-linejoin="round"/>
<path opacity="0.2" d="M103.659 65.8829C103.659 65.8829 103.632 67.0857 102.799 66.9907" stroke="black" stroke-width="0.5" stroke-linecap="round" stroke-linejoin="round"/>
<path opacity="0.2" d="M102.155 62.037C103.364 61.3639 104.741 61.0526 106.122 61.1402" stroke="black" stroke-width="0.5" stroke-linecap="round" stroke-linejoin="round"/>
<path opacity="0.2" d="M102.155 61.4092C102.678 60.9216 103.319 60.5785 104.014 60.4139C104.71 60.2492 105.436 60.2686 106.122 60.4702" stroke="black" stroke-width="0.5" stroke-linecap="round" stroke-linejoin="round"/>
<path opacity="0.2" d="M102.661 60.2908C103.173 59.908 103.77 59.6567 104.401 59.5592C105.032 59.4617 105.678 59.5209 106.28 59.7316" stroke="black" stroke-width="0.5" stroke-linecap="round" stroke-linejoin="round"/>
<path d="M153.254 96.4915L150.616 99.4089C150.616 99.4089 148.748 100.538 148.638 101.181C148.527 101.825 150.959 110.176 150.959 110.176C150.959 110.176 154.267 107.633 154.161 106.868C154.056 106.104 152.494 102.326 152.494 102.326L155.401 99.6199L153.254 96.4915Z" fill="#E4897B"/>
<path d="M130.553 67.0013C130.553 67.0013 153.723 68.584 162.28 78.4756C170.837 88.3672 154.14 102.326 154.14 102.326L151.128 97.2037C151.128 97.2037 157.902 90.3455 155.396 85.7083C152.89 81.0711 140.097 81.4615 140.097 81.4615C140.097 81.4615 127.631 76.3232 130.553 67.0013Z" fill="#AF2245"/>
<path opacity="0.1" d="M155.38 101.208C154.62 101.925 154.14 102.326 154.14 102.326L151.128 97.2037C151.128 97.2037 151.386 96.9452 151.782 96.4915L155.38 101.208Z" fill="black"/>
<path d="M105.595 120.717H75.234C74.8842 120.717 74.5487 120.578 74.3014 120.33C74.0541 120.083 73.9151 119.748 73.9151 119.398C73.9151 119.048 74.0541 118.713 74.3014 118.465C74.5487 118.218 74.8842 118.079 75.234 118.079H105.595C105.944 118.079 106.28 118.218 106.527 118.465C106.775 118.713 106.914 119.048 106.914 119.398C106.914 119.748 106.775 120.083 106.527 120.33C106.28 120.578 105.944 120.717 105.595 120.717Z" fill="#AF2245"/>
<g opacity="0.2">
<path d="M105.595 120.717H75.234C74.8842 120.717 74.5487 120.578 74.3014 120.33C74.0541 120.083 73.9151 119.748 73.9151 119.398C73.9151 119.048 74.0541 118.713 74.3014 118.465C74.5487 118.218 74.8842 118.079 75.234 118.079H105.595C105.944 118.079 106.28 118.218 106.527 118.465C106.775 118.713 106.914 119.048 106.914 119.398C106.914 119.748 106.775 120.083 106.527 120.33C106.28 120.578 105.944 120.717 105.595 120.717Z" fill="white"/>
</g>
<path d="M102.957 160.784H72.5962C72.2464 160.784 71.911 160.645 71.6636 160.398C71.4163 160.151 71.2774 159.815 71.2774 159.465C71.2774 159.116 71.4163 158.78 71.6636 158.533C71.911 158.286 72.2464 158.147 72.5962 158.147H102.957C103.307 158.147 103.642 158.286 103.889 158.533C104.137 158.78 104.276 159.116 104.276 159.465C104.276 159.815 104.137 160.151 103.889 160.398C103.642 160.645 103.307 160.784 102.957 160.784Z" fill="#AF2245"/>
<g opacity="0.2">
<path d="M102.957 160.784H72.5962C72.2464 160.784 71.911 160.645 71.6636 160.398C71.4163 160.151 71.2774 159.815 71.2774 159.465C71.2774 159.116 71.4163 158.78 71.6636 158.533C71.911 158.286 72.2464 158.147 72.5962 158.147H102.957C103.307 158.147 103.642 158.286 103.889 158.533C104.137 158.78 104.276 159.116 104.276 159.465C104.276 159.815 104.137 160.151 103.889 160.398C103.642 160.645 103.307 160.784 102.957 160.784Z" fill="white"/>
</g>
<path d="M102.603 191.81L106.296 131.6H136.193L139.912 191.81H142.55L137.77 114.412C137.654 112.648 136.876 110.993 135.592 109.778C134.307 108.563 132.611 107.878 130.843 107.86H111.746C109.967 107.864 108.257 108.544 106.96 109.761C105.663 110.979 104.877 112.643 104.761 114.418L100.013 191.81H102.603ZM107.351 114.581C107.424 113.476 107.913 112.439 108.722 111.681C109.53 110.922 110.596 110.5 111.704 110.498H130.843C131.95 110.501 133.014 110.923 133.82 111.68C134.627 112.437 135.117 113.472 135.19 114.576L136.077 128.962H106.481L107.351 114.581Z" fill="#AF2245"/>
<path opacity="0.2" d="M102.603 191.81L106.296 131.6H136.193L139.912 191.81H142.55L137.77 114.412C137.654 112.648 136.876 110.993 135.592 109.778C134.307 108.563 132.611 107.878 130.843 107.86H111.746C109.967 107.864 108.257 108.544 106.96 109.761C105.663 110.979 104.877 112.643 104.761 114.418L100.013 191.81H102.603ZM107.351 114.581C107.424 113.476 107.913 112.439 108.722 111.681C109.53 110.922 110.596 110.5 111.704 110.498H130.843C131.95 110.501 133.014 110.923 133.82 111.68C134.627 112.437 135.117 113.472 135.19 114.576L136.077 128.962H106.481L107.351 114.581Z" fill="white"/>
</g>
<defs>
<linearGradient id="paint0_linear_1142_3184" x1="164.886" y1="183.385" x2="165.005" y2="184.182" gradientUnits="userSpaceOnUse">
<stop stop-color="#AF2245"/>
<stop offset="1" stop-color="#FF7194"/>
</linearGradient>
<linearGradient id="paint1_linear_1142_3184" x1="203.957" y1="177.054" x2="204.012" y2="177.865" gradientUnits="userSpaceOnUse">
<stop stop-color="#AF2245"/>
<stop offset="1" stop-color="#FF7194"/>
</linearGradient>
<linearGradient id="paint2_linear_1142_3184" x1="128.997" y1="0.740665" x2="255.258" y2="18.3771" gradientUnits="userSpaceOnUse">
<stop stop-color="#AF2245"/>
<stop offset="1" stop-color="#FF7194"/>
</linearGradient>
<linearGradient id="paint3_linear_1142_3184" x1="24.3357" y1="185.342" x2="44.7676" y2="252.942" gradientUnits="userSpaceOnUse">
<stop stop-color="#4D246E"/>
<stop offset="1" stop-color="#FF7194"/>
</linearGradient>
<clipPath id="clip0_1142_3184">
<rect width="258" height="196.571" fill="white" transform="translate(0 0.714287)"/>
</clipPath>
</defs>
</svg>
