<svg width="18" height="20" viewBox="0 0 18 20" fill="none" xmlns="http://www.w3.org/2000/svg">
<path d="M1 16.5185C1 15.3922 1.42143 14.312 2.17157 13.5155C2.92172 12.719 3.93913 12.2716 5 12.2716H13C14.0609 12.2716 15.0783 12.719 15.8284 13.5155C16.5786 14.312 17 15.3922 17 16.5185C17 17.0817 16.7893 17.6218 16.4142 18.02C16.0391 18.4183 15.5304 18.642 15 18.642H3C2.46957 18.642 1.96086 18.4183 1.58579 18.02C1.21071 17.6218 1 17.0817 1 16.5185Z" stroke="#111535" stroke-width="1.5" stroke-linejoin="round"/>
<path d="M9 8.02468C10.6569 8.02468 12 6.59862 12 4.83949C12 3.08036 10.6569 1.6543 9 1.6543C7.34315 1.6543 6 3.08036 6 4.83949C6 6.59862 7.34315 8.02468 9 8.02468Z" stroke="#111535" stroke-width="1.5"/>
</svg>
