<svg width="24" height="24" viewBox="0 0 24 24" fill="none" xmlns="http://www.w3.org/2000/svg">
<path fill-rule="evenodd" clip-rule="evenodd" d="M0.949475 23.9989L1.0005 23.9999L1.04352 23.9959C1.23462 23.9719 2.001 23.825 2.001 23.0004C2.001 18.0318 6.03202 14.0049 11.0055 14.0049C11.6668 14.0049 12.3332 14.0049 12.9945 14.0049C17.967 14.0049 21.999 18.0318 21.999 23.0004C21.999 23.0214 21.999 23.0413 22.001 23.0613C22.016 23.3862 22.1541 23.5981 22.3242 23.737C22.5023 23.9009 22.7394 23.9999 22.9995 23.9999C22.9995 23.9999 24 23.9429 24 23.0004C24 16.9284 19.0725 12.0059 12.9945 12.0059C12.3332 12.0059 11.6668 12.0059 11.0055 12.0059C4.92746 12.0059 0 16.9284 0 23.0004C0 22.9504 0.0030014 22.9084 0.0080039 22.8734C0.0030014 22.9144 0 22.9574 0 23.0004C0 23.5351 0.42021 23.9719 0.949475 23.9989Z" fill="white"/>
<path fill-rule="evenodd" clip-rule="evenodd" d="M11.989 0C9.22459 0 6.98047 2.24188 6.98047 5.0035C6.98047 7.76512 9.22459 10.007 11.989 10.007C14.7534 10.007 16.9975 7.76512 16.9975 5.0035C16.9975 2.24188 14.7534 0 11.989 0ZM11.989 1.999C13.6488 1.999 14.9965 3.34533 14.9965 5.0035C14.9965 6.66167 13.6488 8.008 11.989 8.008C10.3291 8.008 8.98147 6.66167 8.98147 5.0035C8.98147 3.34533 10.3291 1.999 11.989 1.999Z" fill="white"/>
</svg>
