<svg width="227" height="227" viewBox="0 0 227 227" fill="none" xmlns="http://www.w3.org/2000/svg">
<g clip-path="url(#clip0_1142_3603)">
<path d="M227 0H0V227H227V0Z" fill="white"/>
<path d="M68.7991 47.9152H64.6269V117.087H68.7991V47.9152Z" fill="white"/>
<path d="M160.802 47.9152H156.63V117.087H160.802V47.9152Z" fill="white"/>
<path d="M80.6667 35.7888H37.8182C36.9633 35.7888 36.1434 35.4492 35.5389 34.8447C34.9344 34.2402 34.5948 33.4203 34.5948 32.5654V30.0593C34.5948 29.7583 34.7144 29.4696 34.9272 29.2568C35.1401 29.0439 35.4288 28.9243 35.7298 28.9243L82.7551 28.9243C83.0562 28.9243 83.3448 29.0439 83.5577 29.2568C83.7706 29.4696 83.8901 29.7583 83.8901 30.0593V32.5609C83.8907 32.9846 83.8078 33.4042 83.6461 33.7958C83.4843 34.1874 83.247 34.5433 82.9476 34.8431C82.6482 35.1429 82.2927 35.3807 81.9013 35.543C81.5099 35.7053 81.0904 35.7888 80.6667 35.7888Z" fill="#602D8A"/>
<path d="M80.5896 21.8192H76.0813C75.8558 21.8204 75.6398 21.9109 75.4807 22.0708C75.3217 22.2308 75.2324 22.4472 75.2324 22.6728V29.1877H81.4385V22.6728C81.4385 22.4472 81.3492 22.2308 81.1902 22.0708C81.0311 21.9109 80.8151 21.8204 80.5896 21.8192Z" fill="#99ADCC"/>
<path d="M42.3991 21.8192H37.8954C37.7833 21.8192 37.6723 21.8413 37.5688 21.8842C37.4652 21.9271 37.3711 21.99 37.2919 22.0692C37.2126 22.1485 37.1497 22.2426 37.1068 22.3461C37.0639 22.4497 37.0419 22.5607 37.0419 22.6728V29.1877H43.2526V22.6728C43.2526 22.4464 43.1627 22.2293 43.0026 22.0692C42.8425 21.9092 42.6254 21.8192 42.3991 21.8192Z" fill="#99ADCC"/>
<path d="M85.4882 24.8928H32.9967C31.9511 24.8964 30.9495 25.314 30.211 26.0542C29.4725 26.7944 29.0572 27.797 29.056 28.8426V31.9162C29.0571 32.2796 29.2001 32.6283 29.4545 32.8878C29.7089 33.1473 30.0547 33.2972 30.418 33.3054H88.0442C88.227 33.306 88.4082 33.2705 88.5773 33.201C88.7463 33.1315 88.9 33.0292 89.0295 32.9002C89.159 32.7711 89.2617 32.6177 89.3318 32.4489C89.4019 32.28 89.438 32.099 89.438 31.9162V28.8426C89.438 27.7951 89.0219 26.7904 88.2811 26.0497C87.5404 25.309 86.5358 24.8928 85.4882 24.8928Z" fill="#B0C0D9"/>
<path d="M40.1472 21.8192V0" stroke="#B0C0D9" stroke-width="1.5" stroke-miterlimit="10"/>
<path d="M78.3332 21.8192V0" stroke="#B0C0D9" stroke-width="1.5" stroke-miterlimit="10"/>
<path d="M189.182 35.7888H146.333C145.478 35.7888 144.658 35.4492 144.054 34.8447C143.449 34.2402 143.11 33.4203 143.11 32.5654V30.0593C143.11 29.7583 143.229 29.4696 143.442 29.2568C143.655 29.0439 143.944 28.9243 144.245 28.9243L191.27 28.9243C191.571 28.9243 191.86 29.0439 192.073 29.2568C192.286 29.4696 192.405 29.7583 192.405 30.0593V32.5609C192.406 32.9846 192.323 33.4042 192.161 33.7958C191.999 34.1874 191.762 34.5433 191.463 34.8431C191.163 35.1429 190.808 35.3807 190.416 35.543C190.025 35.7053 189.605 35.7888 189.182 35.7888Z" fill="#602D8A"/>
<path d="M189.105 21.8192H184.601C184.489 21.8192 184.378 21.8413 184.274 21.8842C184.171 21.9271 184.077 21.99 183.997 22.0692C183.918 22.1485 183.855 22.2426 183.812 22.3461C183.769 22.4497 183.747 22.5607 183.747 22.6728V29.1877H189.958V22.6728C189.958 22.4464 189.868 22.2293 189.708 22.0692C189.548 21.9092 189.331 21.8192 189.105 21.8192Z" fill="#99ADCC"/>
<path d="M150.919 21.8192H146.41C146.185 21.8204 145.969 21.9109 145.81 22.0708C145.651 22.2308 145.561 22.4472 145.561 22.6728V29.1877H151.768V22.6728C151.768 22.4472 151.678 22.2308 151.519 22.0708C151.36 21.9109 151.144 21.8204 150.919 21.8192Z" fill="#99ADCC"/>
<path d="M194.003 24.8928H141.512C140.464 24.8928 139.46 25.309 138.719 26.0497C137.978 26.7904 137.562 27.7951 137.562 28.8426V31.9162C137.562 32.099 137.598 32.28 137.668 32.4489C137.738 32.6177 137.841 32.7711 137.971 32.9002C138.1 33.0292 138.254 33.1315 138.423 33.201C138.592 33.2705 138.773 33.306 138.956 33.3054H196.582C196.945 33.2972 197.291 33.1473 197.546 32.8878C197.8 32.6283 197.943 32.2796 197.944 31.9162V28.8426C197.943 27.797 197.528 26.7944 196.789 26.0542C196.051 25.314 195.049 24.8964 194.003 24.8928Z" fill="#B0C0D9"/>
<path d="M148.667 21.8192V0" stroke="#B0C0D9" stroke-width="1.5" stroke-miterlimit="10"/>
<path d="M186.853 21.8192V0" stroke="#B0C0D9" stroke-width="1.5" stroke-miterlimit="10"/>
<path d="M210.801 204.927C210.801 203.36 167.249 202.094 113.523 202.094C59.7963 202.094 16.2441 203.36 16.2441 204.927C16.2441 206.493 59.7963 207.759 113.523 207.759C167.249 207.759 210.801 206.488 210.801 204.927Z" fill="url(#paint0_linear_1142_3603)"/>
<path d="M211.564 119.956C182.917 139.11 192.841 155.268 192.841 155.268C192.805 155.475 192.75 155.679 192.678 155.876C189.722 167.154 189.708 193.799 189.708 194.071H190.058C190.058 193.799 190.512 167.907 193.463 156.684C193.504 156.53 193.731 155.84 193.772 155.686C210.343 155.372 211.564 119.956 211.564 119.956Z" fill="#AF2245"/>
<path d="M187.793 126.807C187.793 126.693 187.793 126.58 187.793 126.462C187.793 126.462 179.493 112.551 194.53 90.2552C194.53 90.2552 199.025 123.851 188.941 126.625C188.941 126.77 188.941 126.916 188.941 127.079C188.651 138.179 190.067 181.718 190.09 182.158L189.74 182.181C189.704 181.732 187.502 137.925 187.793 126.807Z" fill="#AF2245"/>
<path d="M184.873 161.515L184.819 161.37C184.819 161.37 190.961 152.362 171.34 141.435C171.34 141.435 173.006 161.456 183.993 161.806C184.029 161.91 184.07 162.005 184.106 162.11C186.376 168.416 187.738 183.035 187.738 183.189L188.088 183.162C188.083 183.007 187.175 167.88 184.873 161.515Z" fill="#AF2245"/>
<path d="M185.795 145.793C185.772 145.675 185.745 145.566 185.722 145.448C185.722 145.448 191.747 130.289 172.125 111.589C172.125 111.589 168.911 140.354 184.837 145.82C184.878 146.006 184.955 146.297 184.996 146.488C187.266 157.311 188.505 182.749 188.514 183.007H188.869C188.864 182.744 188.088 156.63 185.795 145.793Z" fill="#AF2245"/>
<path d="M193.903 174.25H182.839V204.822H193.903V174.25Z" fill="#602D8A"/>
<path d="M155.531 192.909C157.361 192.487 159.168 191.969 160.943 191.356C160.943 191.356 162.695 197.39 162.786 198.766C162.877 200.141 162.922 201.036 162.922 201.036L156.081 200.99C156.233 200.118 156.315 199.234 156.326 198.348C156.312 197.086 155.531 192.909 155.531 192.909Z" fill="#BD8368"/>
<path d="M163.989 203.846C163.712 204.645 161.438 204.522 156.208 204.79C150.978 205.058 147.836 204.999 147.931 204.159C147.95 203.796 148.039 203.44 148.195 203.111C148.422 202.716 150.238 201.077 151.3 200.318C152.362 199.56 154.328 196.995 154.887 196.514C155.795 195.747 157.856 196.546 159.713 196.927C161.57 197.308 161.406 196.927 162.205 196.591C162.523 196.45 163.417 197.304 163.685 199.433C163.894 201.231 164.271 203.024 163.989 203.846Z" fill="#313858"/>
<path d="M147.005 122.126C146.606 122.444 150.433 149.484 150.919 160.466C151.055 163.499 151.191 165.71 151.309 166.418C151.868 169.701 153.892 193.036 153.892 193.036C153.892 193.036 157.161 194.371 162.228 193.259L163.34 166.618C163.34 166.618 165.07 139.986 165.115 135.978C165.128 130.692 163.934 125.473 161.624 120.719L147.005 122.126Z" fill="#428FB0"/>
<path d="M136.777 192.909C136.777 192.909 140.835 192.001 142.497 191.356C142.497 191.356 143.051 197.39 142.869 198.766C142.688 200.141 142.561 201.036 142.561 201.036L135.723 200.99C136.046 200.13 136.302 199.247 136.491 198.348C136.731 197.086 136.777 192.909 136.777 192.909Z" fill="#BD8368"/>
<path d="M143.741 203.814C143.432 204.572 140.377 204.518 135.115 204.786C129.853 205.054 126.702 204.995 126.943 204.155C127.032 203.781 127.186 203.427 127.397 203.106C128.534 202.071 129.758 201.137 131.056 200.314C132.277 199.565 134.747 196.991 135.396 196.509C136.441 195.742 138.361 196.541 140.145 196.922C141.929 197.304 141.961 196.85 142.869 196.555C143.21 196.441 143.55 197.858 143.777 200.346C143.954 202.171 144.172 202.747 143.741 203.814Z" fill="#313858"/>
<path d="M137.108 120.719C136.654 121.046 136.377 136.568 135.465 151.345C135.274 154.41 135.065 165.742 135.047 166.45C134.951 169.728 134.788 192.718 134.788 192.718C137.78 193.407 140.877 193.512 143.909 193.027L145.911 169.124C145.911 169.124 151.468 139.982 152.312 135.982C154.101 127.47 151.986 122.317 151.986 122.317L137.108 120.719Z" fill="#428FB0"/>
<path d="M139.805 73.6933C140.209 76.2402 141.412 77.9972 142.197 78.4875C143.346 79.2003 146.987 79.8132 146.987 79.8132C146.987 79.8132 136.509 96.366 131.506 97.1242C126.503 97.8824 131.206 83.8538 131.206 83.8538C131.206 83.8538 133.081 82.2285 133.303 80.7848C133.526 79.341 133.272 76.2039 133.272 76.2039L137.843 67.7232L139.805 73.6933Z" fill="#E59178"/>
<path d="M133.399 79.45C133.944 79.2003 134.466 78.9279 134.956 78.6555C136.257 78.0047 137.398 77.0745 138.297 75.9315C138.887 75.0546 139.324 74.0846 139.591 73.0622L137.853 67.7504L133.281 76.2312C133.281 76.2312 133.422 77.9518 133.399 79.45Z" fill="#D4806A"/>
<path d="M127.801 61.0812C127.047 61.7712 125.79 63.1696 125.871 64.0276C125.953 64.8857 126.076 67.4235 126.448 68.8582C126.82 70.2928 127.274 72.5719 127.81 74.229C128.346 75.8861 130.629 78.4921 131.088 78.7236C131.546 78.9551 133.589 78.9007 134.366 78.3332C135.142 77.7657 139.215 73.4799 138.411 69.8751C138.411 69.8751 140.145 70.3609 140.863 66.8697C141.049 65.9617 137.644 60.7134 137.122 59.7736C135.855 57.5036 131.052 61.4625 129.69 61.5079C128.328 61.5533 127.801 61.0812 127.801 61.0812Z" fill="#E59178"/>
<path d="M139.896 59.583C139.896 59.583 137.38 56.4367 133.449 56.405C131.996 56.405 128.609 57.1314 128.609 57.1314C126.253 57.2131 124.809 57.1677 124.46 61.2174C124.397 61.7729 124.497 62.3348 124.747 62.8346C124.998 63.3344 125.389 63.7504 125.871 64.0322C125.871 64.0322 126.162 62.7973 127.233 63.1242C128.305 63.451 129.313 63.4238 130.915 63.392C133.226 63.3466 135.56 61.408 136.205 61.7939C138.021 62.879 135.932 64.972 137.626 66.2795C137.767 66.3959 137.868 66.5552 137.912 66.7335C138.003 66.4676 138.173 66.2352 138.398 66.0661C138.622 65.8971 138.893 65.799 139.174 65.7846C140.009 65.8436 140.508 67.8594 139.823 68.5994C139.389 69.0659 138.922 69.4998 138.425 69.8979C138.533 70.5079 138.697 71.1067 138.915 71.6866C139.233 72.4402 139.823 73.716 139.823 73.716C139.823 73.716 140.731 68.8173 141.811 66.7017C142.892 64.586 142.869 60.5727 139.896 59.583Z" fill="#6B2F21"/>
<path d="M107.734 117.586C108.427 117.487 109.109 117.324 109.773 117.1C113.245 115.365 116.81 113.821 120.451 112.474C120.643 111.327 120.916 110.195 121.268 109.087C122.031 106.985 123.361 102.554 124.446 98.7995C127.17 99.8301 129.844 100.983 132.536 102.086C130.965 105.718 129.267 112.374 127.029 116.397C126.716 116.964 124.696 118.971 121.49 119.575C117.118 120.378 110.694 120.841 107.666 121.241L107.625 121.291H107.598C107.657 120.038 107.693 118.807 107.734 117.586Z" fill="#E59178"/>
<path d="M129.69 106.286C130.53 106.313 130.802 105.146 131.719 105.101C132.49 102.457 133.435 99.8665 134.547 97.3467C134.547 97.3467 133.294 85.5427 130.316 84.1807C128.743 85.8079 127.276 87.5352 125.926 89.3518C123.819 92.2801 122.335 99.8936 122.466 104.788C125.159 105.573 126.902 106.2 129.69 106.286Z" fill="#602D8A"/>
<path d="M122.58 101.269C122.417 102.781 122.294 103.993 122.194 105.319C123.747 105.905 127.869 107.258 131.469 106.681C131.873 105.115 132.5 102.876 132.5 102.876C128.727 103.244 125.758 102.4 122.58 101.269Z" fill="#273C54"/>
<path d="M130.843 99.8074C130.843 99.8074 133.807 111.135 134.071 113.051C134.257 114.413 135.701 128.391 135.701 128.391C139.701 129.274 143.815 129.535 147.895 129.163C157.765 128.296 163.399 125.15 163.399 125.15C163.399 125.15 162.346 119.361 160.589 113.432C159.94 111.225 158.46 102.318 158.056 99.8119C156.526 90.3505 157.27 92.8475 156.943 91.1859C156.294 87.9216 153.493 82.9095 151.427 81.2342C149.13 79.3683 142.265 78.5102 142.265 78.5102C142.284 80.1269 142.088 81.739 141.684 83.3045C140.967 85.9876 139.047 87.8445 138.234 87.9035C133.989 88.2531 132.999 81.602 132.999 81.602L130.298 84.1988C130.298 84.1988 128.546 98.0186 130.843 99.8074Z" fill="#602D8A"/>
<path d="M149.059 93.0447L143.361 94.6507L143.815 96.2631L149.513 94.6572L149.059 93.0447Z" fill="white"/>
<path d="M147.895 123.411C147.548 123.26 147.217 123.076 146.905 122.861C138.883 117.495 123.125 108.392 120.237 107.003C117.904 105.877 115.979 107.752 113.854 109.273C111.729 110.794 100.125 119.402 100.125 119.402C100.125 122.734 103.948 139.469 103.948 139.469C109.9 132.895 121.726 118.993 121.726 118.993C121.726 118.993 128.795 122.457 134.411 124.192C138.552 125.415 142.6 126.932 146.524 128.732C146.889 126.936 147.347 125.16 147.895 123.411Z" fill="#EAAD96"/>
<path d="M84.7527 131.142C84.7527 131.142 102.055 116.941 106.431 114.708C106.431 114.708 109.646 119.08 112.538 122.312C114.354 124.328 116.083 126.398 117.949 128.391C117.949 128.391 106.89 138.379 104.093 141.957C100.556 146.46 93.8554 150.369 88.0669 146.27C88.0465 143.306 88.2012 140.344 88.53 137.399C89.1111 131.978 84.7527 131.142 84.7527 131.142Z" fill="#602D8A"/>
<path d="M170.609 137.762C170.146 137.63 169.655 137.63 169.192 137.762C168.561 137.993 167.712 137.975 166.745 138.334C165.778 138.692 162.019 140.536 159.935 140.785C158.394 140.925 156.846 140.966 155.3 140.908C154.75 140.908 151.214 140.381 150.669 140.331C143.478 139.26 134.289 137.844 131.124 137.299C125.871 136.391 120.65 135.251 117.709 135.106C114.767 134.961 104.316 134.466 104.316 134.466C100.716 134.456 97.1265 134.085 93.6012 133.358L94.827 148.739C94.827 148.739 111.543 145.23 119.447 146.342C123.633 146.933 133.163 146.987 141.189 145.997C142.76 145.807 144.318 145.67 145.816 145.575C146.27 145.575 146.687 145.539 147.055 145.502C148.213 145.448 153.202 145.725 153.411 145.757C155.009 145.993 156.385 146.492 157.252 147.305C158.301 148.29 159.259 148.213 160.53 147.409C161.801 146.606 163.39 144.322 165.946 142.556C168.502 140.79 170.877 139.378 171.344 138.611C171.812 137.843 171.158 137.358 170.609 137.762Z" fill="#EAAD96"/>
<path d="M84.8571 129.79C84.8571 129.79 104.969 133.635 112.156 134.584C112.156 134.584 114.948 142.756 110.145 149.339C110.145 149.339 90.8272 147.677 84.7527 147.741C76.0087 147.836 74.7647 147.809 71.9136 142.956L84.8571 129.79Z" fill="#602D8A"/>
<path d="M67.0921 114.376L58.4071 109.064C58.4071 109.064 55.052 107.702 53.9397 107.248C51.7832 106.34 49.8537 102.114 50.167 101.065L39.498 99.8301C39.498 99.8301 41.2096 100.811 42.8621 104.683C43.1345 105.319 45.2547 110.245 45.4181 110.962C45.6497 111.97 47.7608 117.318 47.7608 117.318C56.4912 124.178 63.3784 136.028 66.8288 134.743C70.2792 133.458 67.0921 114.376 67.0921 114.376Z" fill="#EAAD96"/>
<path d="M42.8485 104.683L43.3025 105.714C44.2335 105.971 45.1818 106.161 46.14 106.281C47.8399 106.515 49.5603 106.561 51.2702 106.418C51.7242 106.372 52.1782 106.304 52.6004 106.222C51.0614 104.62 49.9354 101.869 50.1806 101.047L39.498 99.8301C39.498 99.8301 41.1959 100.811 42.8485 104.683Z" fill="#D69E89"/>
<path d="M44.946 116.451C44.946 116.451 44.4103 109.06 50.394 108.601C55.842 108.184 61.2446 116.319 59.3877 121.713C58.1438 125.309 56.0418 125.163 56.0418 125.163C56.0418 125.163 62.8064 134.697 65.8709 137.875C68.1649 140.214 70.3048 142.7 72.2768 145.316C75.2323 143.677 79.4182 143.323 84.2942 138.098C88.0578 134.071 86.4144 129.794 86.4144 129.794C86.4144 129.794 83.0411 129.172 79.7496 125.785C76.4581 122.398 70.9647 114.812 67.0376 111.997C64.5997 110.258 58.5932 108.184 57.3447 108.111C53.7127 107.907 51.5335 106.79 48.292 108.347C45.0504 109.904 43.1981 114.499 44.946 116.451Z" fill="#AF2245"/>
<path d="M49.0047 87.7855C49.94 89.7876 50.966 91.5355 51.3655 92.9701C51.7651 94.4048 53.9261 95.6941 54.934 96.2208C55.9419 96.7474 54.2257 98.3591 54.2257 98.3591C54.2106 99.9914 54.3935 101.62 54.7705 103.208C55.0611 104.524 52.5868 105.024 51.6198 105.278C49.2063 105.828 46.7401 106.112 44.265 106.127C43.2435 106.127 40.0201 102.722 40.0201 102.722L35.5573 95.7532L40.9008 88.4619L49.0047 87.7855Z" fill="#EAAD96"/>
<path d="M50.1715 87.8581C50.1715 87.8581 47.4475 85.9104 45.0322 85.402C41.2822 84.612 38.7307 85.8287 36.1111 87.672C34.1317 89.0703 32.184 91.6672 33.1965 93.5059C33.1965 93.5059 31.3033 97.0652 34.2997 101.088C36.6605 104.266 42.2129 104.515 43.4569 106.127L44.038 101.841C44.038 101.841 43.08 101.419 42.281 101.042C41.593 100.644 41.0361 100.054 40.6784 99.3443C39.7295 97.2196 42.113 95.5897 43.6067 97.2332C43.8655 97.5238 44.0607 98.4408 44.2559 98.6542C45.0686 99.6394 45.4 99.426 45.4 99.426C45.4 99.426 44.946 97.7598 44.7508 97.0153C44.6373 96.5159 44.4511 95.5716 44.9914 93.7737C45.3364 92.6024 44.4239 91.4674 44.7462 91.1541C45.2729 90.6593 48.6779 89.7286 50.1715 87.8581Z" fill="#40201D"/>
<path d="M162.205 121.795C162.659 120.914 161.964 120.433 161.429 120.887C160.958 120.755 160.458 120.767 159.994 120.923C159.354 121.218 158.51 121.218 157.538 121.672C156.566 122.126 154.878 123.034 152.78 123.384C150.683 123.733 147.95 122.966 146.942 122.802L145.18 121.894C145.044 121.804 144.449 121.477 143.577 121.014C142.579 122.671 141.53 124.296 140.468 125.912L142.179 126.702V126.748C142.819 127.034 143.373 127.27 143.873 127.479C144.699 127.865 145.266 128.128 145.453 128.223C145.738 128.374 146.007 128.554 146.256 128.759C147.123 129.481 147.269 131.083 148.372 132.128C149.475 133.172 150.506 132.75 151.754 131.805C153.003 130.861 154.424 128.364 156.93 126.33C159.436 124.296 161.769 122.68 162.205 121.795Z" fill="#EAAD96"/>
<path d="M55.5469 204.886V161.538C55.5469 158.873 53.9079 156.707 51.8831 156.707H36.6423C34.622 156.707 32.9785 158.873 32.9785 161.538V204.886" stroke="#602D8A" stroke-width="4.91" stroke-miterlimit="10"/>
<path d="M171.185 204.927V161.579C171.185 158.914 169.546 156.753 167.521 156.753H152.281C150.26 156.753 148.617 158.914 148.617 161.579V204.927" stroke="#602D8A" stroke-width="4.91" stroke-miterlimit="10"/>
<path d="M25.1289 146.56H168.97V156.131H28.5067C27.6108 156.131 26.7517 155.775 26.1182 155.141C25.4848 154.508 25.1289 153.649 25.1289 152.753V146.56Z" fill="#BEC1CB"/>
<path d="M168.579 146.56H181.496V154.401C181.496 154.857 181.316 155.294 180.995 155.618C180.675 155.941 180.24 156.126 179.784 156.131H168.579V146.56Z" fill="#A2A5AD"/>
<path d="M40.4877 108.011H30.0457C28.7357 108.011 27.4793 108.532 26.553 109.458C25.6266 110.384 25.1062 111.641 25.1062 112.951V147.001H75.4684L61.0766 131.519L44.4012 109.932C43.9393 109.333 43.3462 108.849 42.6678 108.516C41.9893 108.183 41.2435 108.011 40.4877 108.011Z" fill="#BEC1CB"/>
<path d="M44.1833 113.359C59.7736 139.451 67.4281 147.019 67.4281 147.019H75.4684L61.0766 131.537L44.4012 109.932C43.9393 109.333 43.3462 108.849 42.6678 108.516C41.9893 108.183 41.2435 108.011 40.4877 108.011H39.5797C41.3612 109.565 42.9113 111.366 44.1833 113.359Z" fill="#A2A5AD"/>
<path d="M160.167 93.524C159.853 91.5269 159.398 89.5546 158.805 87.622C156.623 89.4037 154.185 90.8455 151.572 91.8987C152.912 95.7304 155.073 106.095 155.073 106.095C155 106.172 154.138 106.976 154.138 106.976C150.506 110.081 148.385 115.815 146.138 118.639C145.824 119.003 145.408 119.266 144.944 119.393C144.186 119.393 143.482 119.284 142.788 119.575C142.093 119.865 142.293 119.856 142.293 119.856C142.293 119.856 143.092 120.446 143.173 120.887C143.314 121.64 142.424 122.367 141.462 123.275C141.271 123.429 138.702 125.004 138.343 125.181C138.222 125.184 138.108 125.235 138.025 125.322C137.942 125.41 137.897 125.526 137.9 125.647C137.903 125.767 137.954 125.881 138.041 125.964C138.128 126.047 138.245 126.092 138.366 126.089C138.584 126.231 138.841 126.301 139.101 126.289C139.123 126.447 139.191 126.594 139.295 126.714C139.4 126.833 139.538 126.919 139.691 126.961C140.014 127.077 140.357 127.128 140.699 127.111C140.678 127.188 140.674 127.27 140.689 127.349C140.704 127.428 140.736 127.502 140.784 127.567C140.831 127.632 140.893 127.685 140.964 127.722C141.035 127.759 141.114 127.78 141.194 127.783C141.495 127.826 141.799 127.837 142.102 127.815C142.102 127.815 142.211 128.341 142.674 128.405C143.137 128.468 145.226 127.043 145.462 126.807C145.944 126.374 146.376 125.886 146.746 125.354C147.055 124.9 147.654 123.592 148.299 122.716C148.599 122.308 148.93 121.904 149.252 121.531C151.068 119.833 153.438 117.559 156.23 114.871C156.834 114.285 159.617 111.33 160.071 110.83C160.803 110.051 161.486 109.227 162.119 108.365C163.136 106.804 161.37 100.161 160.167 93.524Z" fill="#E59178"/>
<path d="M161.106 95.2401C160.853 93.6767 160.504 92.1303 160.062 90.6093C158.5 85.3929 156.553 83.3953 154.687 82.0514C152.453 80.4488 149.357 80.3898 149.357 80.3898L149.321 88.589C150.056 90.455 151.645 94.7317 152.385 97.156C155.204 97.4965 158.469 96.1663 161.106 95.2401Z" fill="#602D8A"/>
<path d="M152.208 97.1152C152.208 97.1152 158.328 96.3161 161.07 94.6499L161.787 98.4136C161.787 98.4136 157.116 100.961 153.003 100.411L152.208 97.1152Z" fill="#273C54"/>
<path d="M112.978 110.245C112.473 110.735 112.059 111.312 111.757 111.947C111.534 112.592 111.648 113.718 111.171 114.054C110.694 114.39 110.467 114.054 110.467 114.054C110.467 114.054 110.722 115.175 109.936 115.416C109.748 115.498 109.536 115.509 109.34 115.447C109.144 115.385 108.977 115.255 108.869 115.08C108.857 115.166 108.827 115.248 108.781 115.322C108.736 115.396 108.676 115.46 108.605 115.511C108.534 115.561 108.454 115.596 108.369 115.614C108.284 115.632 108.196 115.633 108.111 115.616C107.439 115.529 107.321 115.203 107.321 115.203C107.286 115.252 107.242 115.294 107.191 115.326C107.14 115.358 107.083 115.38 107.023 115.389C106.963 115.399 106.902 115.397 106.844 115.383C106.785 115.368 106.73 115.343 106.681 115.307C106.259 115.084 106.122 114.957 106.318 113.841C106.513 112.724 106.772 112.479 107.18 112.256C107.274 112.203 107.378 112.17 107.485 112.159C107.592 112.148 107.7 112.159 107.802 112.193C107.802 112.193 107.802 111.194 108.415 110.98C108.658 110.907 108.917 110.907 109.16 110.98C109.231 110.778 109.351 110.595 109.509 110.451C109.668 110.306 109.859 110.202 110.068 110.15C110.208 110.095 110.358 110.073 110.508 110.085C110.657 110.098 110.802 110.145 110.93 110.222C110.93 110.222 111.017 109.845 111.743 109.705C111.978 109.684 112.214 109.722 112.43 109.817C112.645 109.911 112.834 110.058 112.978 110.245Z" fill="#E59178"/>
<path d="M45.4 115.434C45.4 118.993 50.5983 125.713 52.664 129.145C54.7297 132.577 59.2515 138.225 62.9244 140.313C65.494 141.766 72.7399 143.614 77.3253 145.117C79.2911 145.761 81.0208 146.647 81.6246 146.71C83.6404 146.923 86.487 146.56 88.0306 146.56H92.9656C94.096 146.56 93.0836 145.561 92.1529 145.312C91.2222 145.062 90.4005 143.518 88.8569 143.105C87.19 142.733 85.4843 142.562 83.7766 142.597C82.4146 142.597 81.2297 141.975 79.786 141.457C78.3422 140.94 72.3676 136.654 70.202 135.514C68.0364 134.375 64.3817 132.336 63.678 130.974C62.8518 129.413 59.1744 121.963 57.6625 117.654C56.1507 113.346 54.2348 110.041 50.9297 110.009C47.6246 109.977 45.4 111.947 45.4 115.434Z" fill="#EAAD96"/>
</g>
<defs>
<linearGradient id="paint0_linear_1142_3603" x1="16.2441" y1="202.094" x2="21.4032" y2="236.314" gradientUnits="userSpaceOnUse">
<stop stop-color="#AF2245"/>
<stop offset="1" stop-color="#FF7194"/>
</linearGradient>
<clipPath id="clip0_1142_3603">
<rect width="227" height="227" fill="white"/>
</clipPath>
</defs>
</svg>
