<svg width="205" height="221" viewBox="0 0 205 221" fill="none" xmlns="http://www.w3.org/2000/svg">
<path d="M176.163 74.4049C181.794 64.4477 185.907 54.9738 183.088 43.6666C180.124 31.7866 170.249 28.5222 157.927 29.0544C146.08 29.5613 134.728 31.8998 123.024 33.4762C109.802 35.2588 96.4014 34.9969 83.0618 36.1087C59.3483 38.0958 37.8183 46.7451 38.1721 72.2674C38.3704 86.6887 36.6141 99.2209 30.1926 112.704C27.2284 118.927 21.795 124.583 21.1089 131.471C20.5103 137.397 22.4489 143.723 25.2362 148.968C30.775 159.385 39.6551 167.806 40.3001 180.1C40.9111 191.72 35.7546 209.059 25.3827 216L170.847 215.493C168.703 212.219 171.358 202.483 171.941 198.36C172.9 191.571 175.634 184.88 177.242 178.204C181.53 160.38 170.274 150.348 160.295 136.997C143.809 114.955 165.142 93.89 176.163 74.4049Z" fill="#AF2245" fill-opacity="0.1"/>
<path d="M204.366 216.426C204.366 218.295 160.407 219.802 106.183 219.802C51.9589 219.802 8 218.29 8 216.426C8 214.563 51.9589 213.05 106.183 213.05C160.407 213.05 204.366 214.563 204.366 216.426Z" fill="url(#paint0_linear_1180_2670)"/>
<path d="M58.686 199.746C58.8729 201.28 59.8748 203.88 60.4075 205.727C60.7813 206.994 60.9963 211.521 61.9028 212.297C65.2505 215.166 64.6617 202.35 64.5383 200.957L58.686 199.746Z" fill="#FF916C"/>
<path d="M64.7813 208.806L61.8953 208.632C60.4504 207.064 59.9233 209.006 59.385 209.828C58.7439 210.804 57.4374 211.57 56.4654 212.166C54.7532 213.221 50.4336 214.17 51.1626 216.882C54.7009 217.037 61.3308 217.576 64.9589 216.927C66.5215 216.647 65.8934 214.63 65.4243 212.471C65.1009 210.987 65.1813 210.247 64.7813 208.806Z" fill="white"/>
<path d="M90.6672 203.647C90.7158 205.191 91.4859 207.869 91.8523 209.748C92.1065 211.045 91.9271 215.574 92.7607 216.426C95.8411 219.578 96.3869 206.759 96.3869 205.363L90.6672 203.647Z" fill="#FF916C"/>
<path d="M94.0467 208.021C92.0187 207.819 91.643 209.516 91.2822 210.308C90.8561 211.264 90.1608 211.553 89.4972 212.116C88.329 213.108 85.3514 213.907 85.9028 216.639C88.357 216.916 94.5009 217.123 97.0037 216.602C98.0804 216.378 97.3776 215.647 96.4318 213.264C95.8692 211.858 95.9533 208.211 94.0467 208.021Z" fill="white"/>
<path d="M71.1645 164.968C70.4729 170.449 72.0281 177.636 71.314 183.262C70.6299 188.662 66.886 200.884 64.9589 206.658L57.5552 205.366C58.0075 199.346 58.1776 190.953 58.1888 181.712C58.2281 155.533 57.0056 122.538 57.3907 117.323L79.3813 108.127C79.8654 110.114 78.1963 121.368 76.2224 133.561C74.2 146.019 71.8617 159.445 71.1645 164.968Z" fill="#602D8A"/>
<path d="M71.3233 183.262C70.6392 188.662 66.8953 200.884 64.9682 206.658L57.5645 205.366C58.0168 199.346 58.1869 190.953 58.1981 181.712C60.8149 182.628 63.7495 182.703 65.7458 181.525C68.9644 179.611 69.1102 164.766 69.3869 162.858C70.3925 156.06 70.871 148.856 71.5364 142.045C71.9271 138.067 72.4411 134.007 73.0317 130.03C73.2953 128.271 75.2747 119.497 74.3233 118.873H76.0411C75.4691 122.168 76.2168 125.725 76.0411 129.17C75.9634 130.639 76.026 132.113 76.228 133.57C74.2074 146.024 71.8691 159.454 71.1719 164.972C70.4729 170.449 72.028 177.636 71.3233 183.262Z" fill="#602D8A"/>
<path d="M97.1178 205.271L89.6037 205.366C88.9906 199.85 87.772 192.422 86.2766 184.207C81.5065 158.14 73.8168 124.207 73.2187 118.867L93.1383 105.783C93.5963 106.798 93.9346 110.643 94.1981 115.918C94.9065 130.228 95.0561 155.133 95.5383 163.164C95.8692 168.68 98.7159 175.456 99.0579 181.118C99.3738 186.542 97.9458 199.247 97.1178 205.271Z" fill="#602D8A"/>
<path d="M97.1177 205.271L89.6037 205.366C88.9906 199.85 87.7719 192.422 86.2766 184.207C90.0355 184.093 93.9794 182.374 94.6878 178.716C95.7383 173.35 92.7906 160.673 92.7402 156.507C92.6916 152.477 92.4187 148.25 92.4187 143.959V115.628L94.1906 115.908C94.899 130.219 95.0486 155.123 95.5308 163.155C95.8617 168.671 98.7084 175.447 99.0504 181.108C99.3738 186.542 97.9458 199.247 97.1177 205.271Z" fill="#602D8A"/>
<path d="M90.2841 119.123C93.972 108.708 99.443 81.9981 103.477 71.5701C105.258 66.9663 108.785 59.4841 108.622 54.7196C108.424 48.8448 95.4692 38.6336 95.5495 38.8318L82.415 36.3794C80.2 37.3776 74.6037 36.3252 70.1178 39.286C65.6953 42.1981 60.8561 107.677 62.215 113.946L90.2841 119.123Z" fill="#602D8A"/>
<path d="M73.8635 53.9383C73.0561 59.0542 66.2355 72.5776 61.6934 76.4056C59.0037 78.671 51.4467 83.9664 48.8598 79.5365C48.6682 79.2043 48.514 78.852 48.4 78.486C47.5402 75.7981 50.8299 69.7551 52.1383 67.1159C53.4037 64.5701 55.0355 61.9608 57.0392 56.7196C59.1925 51.0879 63.0336 39.0056 69.1439 37.8411L72.899 50.6411L73.8635 53.9383Z" fill="white"/>
<path d="M73.8635 53.9383C73.0561 59.0542 66.2355 72.5776 61.6934 76.4056C59.0037 78.671 51.4467 83.9663 48.8598 79.5364C50.3629 79.1199 51.8074 78.5151 53.1589 77.7364C57.9981 74.8822 63.8467 59.1028 65.757 51.8131C67.1364 46.5439 70.8953 56.3832 72.8972 50.6467L73.8635 53.9383Z" fill="#B0B4B6"/>
<path d="M58.1271 86.1495C55.7065 87.3458 51.585 87.2392 46.9551 81.2448C44.9514 78.6542 42.8579 75.0766 41.314 72.0187L41.028 71.4392C40.2187 69.8075 39.3196 68.1981 38.6224 66.5327C38.1794 65.4766 37.5495 62.3888 37.0449 62.1682L42.1664 59.1776C44.671 61.1888 45.5682 61.8654 48.0075 64.1719C51.0636 67.0617 54.4 69.914 56.3981 73.7364C56.5065 73.9439 56.6299 74.1906 56.772 74.4673C58.2523 77.6075 60.9439 84.757 58.1271 86.1495Z" fill="white"/>
<path d="M35.2299 50.2411C32.8691 50.471 30.5944 53.2841 29.4056 55.1196C31.3439 56.729 33.0523 58.8 35.443 59.7832C36.6467 60.2785 37.5738 62.0486 38.8392 61.8393C39.8467 61.6748 41.0635 61.5682 42.1663 59.1888L35.2299 50.2411Z" fill="#E07F4F"/>
<path d="M41.2804 70.7009L41.2654 70.1215C41.2249 70.3131 41.23 70.5116 41.2804 70.7009Z" fill="#B0B4B6"/>
<path d="M58.1271 86.1495C55.7066 87.3458 51.5851 87.2393 46.9552 81.2449C44.9514 78.6542 42.858 75.0766 41.314 72.0187L41.2804 70.6991C41.6056 72.0673 43.7327 73.9514 44.6449 74.9981C46.2729 76.8579 47.9739 77.9084 50.4598 77.9383C53.6467 77.9776 55.3309 76.443 56.7533 74.4748C58.2524 77.6075 60.9439 84.757 58.1271 86.1495Z" fill="#B0B4B6"/>
<path d="M25.0916 28.3103L10.9981 31.6486L15.2822 59.4636L22.157 78.7925L43.1402 72.2523L35.7813 53.9944L32.2392 26.7439L25.0916 28.3103Z" fill="#3A4950"/>
<g style="mix-blend-mode:color-dodge">
<g style="mix-blend-mode:saturation">
<path d="M24.1794 61.4617C23.9047 64.2654 19.4318 60.8542 17.7869 57.686C16.142 54.5178 15.357 53.714 15.8878 45.972C15.9227 45.4611 15.962 44.9801 16.0056 44.529C16.6224 38.1309 18.0617 37.5178 19.6691 39.6094C21.3888 41.8524 21.8168 45.3047 21.8168 45.3047C21.8168 45.3047 22.4972 47.957 22.6504 50.0561C22.714 50.9271 23.0355 52.557 23.3701 54.3664C23.8467 56.9178 24.3402 59.8243 24.1794 61.4617Z" fill="#5B6B73"/>
</g>
<g style="mix-blend-mode:saturation">
<path d="M35.0617 53.572C35.0205 57.1402 32.5626 62.1944 31.0561 59.8225C29.9888 58.1402 28.9439 54.3533 28.1364 51.5982C27.8056 50.4767 27.5159 49.514 27.2804 48.9496C26.471 47.0056 25.8841 44.3327 25.8841 44.3327C25.8841 44.3327 24.7065 41.0524 25.2336 38.2785C25.7607 35.5047 27.5121 35.5851 31.4766 42.2542C31.5177 42.3234 31.557 42.3925 31.5981 42.4598C35.4355 48.9533 35.1065 50.0411 35.0617 53.572Z" fill="#5B6B73"/>
</g>
<g style="mix-blend-mode:saturation">
<path d="M25.6149 42.0337C24.9103 41.6243 24.4766 40.486 24.0804 39.5552C23.587 38.4501 23.1765 37.3099 22.8523 36.1439C22.5196 34.9159 22.2953 33.4953 21.7906 32.3738C21.4056 32.4318 20.9533 32.4785 20.6336 32.7327C21.1458 35.2131 21.7719 37.4393 21.7832 39.9234C21.7832 41.0561 21.8149 42.3103 21.3906 43.1327C21.1233 43.6542 20.4018 44.4206 19.9084 44.0935L20.5832 45.8692C21.3701 45.9944 22.0654 45.4355 22.5738 44.7215C23.2411 43.7869 23.628 43.4337 24.6037 44.1608C25.2774 44.6151 26.0927 44.8103 26.899 44.7103C27.9103 44.5514 27.5252 43.2337 27.3981 41.9271C27.0056 42.3458 26.157 42.3495 25.6149 42.0337Z" fill="#5B6B73"/>
</g>
</g>
<g style="mix-blend-mode:color-dodge" opacity="0.6">
<path d="M24.1794 61.4617C23.9047 64.2654 19.4318 60.8542 17.7869 57.686C16.142 54.5178 15.357 53.714 15.8878 45.972C15.9227 45.461 15.962 44.9801 16.0056 44.529C18.2205 43.3477 17.8747 49.3701 18.9962 50.2168C23.0056 47.6 20.2504 52.071 22.0392 53.8822C22.4131 54.2673 22.8804 54.3477 23.3607 54.3663C23.8467 56.9177 24.3402 59.8243 24.1794 61.4617Z" fill="#5B6B73"/>
</g>
<g style="mix-blend-mode:color-dodge" opacity="0.6">
<path d="M35.0617 53.572C35.0206 57.1402 32.5626 62.1944 31.0561 59.8224C29.9888 58.1402 28.944 54.3533 28.1365 51.5981C28.1952 51.4172 28.2836 51.2472 28.3982 51.0953C29.3327 49.8841 30.7477 50.6598 30.6411 48.5607C30.557 46.9514 29.3645 46.6262 30.1327 44.9327C30.3683 44.4168 31.0542 44.2598 31.3197 43.6617C31.4708 43.2765 31.5664 42.8719 31.6038 42.4598C35.4355 48.9533 35.1066 50.0411 35.0617 53.572Z" fill="#5B6B73"/>
</g>
<path d="M37.8112 51.6934C36.5364 49.6131 35.4 48.7776 34.385 47.7794C32.5047 45.9364 33.5981 51.6598 35.5065 52.0897C35.1047 54.5065 37.3757 58.9271 40.086 56.4673L37.8112 51.6934Z" fill="#FFA471"/>
<path d="M77.7477 36.5533L77.2037 49.9066C74.8878 57.0243 74.2131 65.058 73.3271 72.7963C72.4318 80.6636 71.2355 88.5234 70.1327 96.4972C68.7645 106.385 63.7308 143.277 62.4878 144.738C60.8355 146.679 52.9551 145.011 49.6804 142.832C49.8505 141.28 51.4561 131.004 53.3346 119.079L55.0336 108.286C56.8187 96.9477 58.1906 85.9215 59.2785 80.9739C61.671 70.071 64.6299 61.9626 65.757 51.815C66.1906 47.9215 64.729 40.1832 68.4822 38.1907C71.6972 36.486 76.6579 37.0991 77.7477 36.5533Z" fill="white"/>
<path d="M99.7346 27.471C99.2617 29.2523 98.1495 33.3514 97.2598 36.443C96.9159 37.6393 96.6018 38.686 96.3738 39.3776C95.4018 42.3421 85.2037 50.6411 81.5701 52.6393C80.8224 50.9981 80.4673 48.7271 80.3233 46.5365C80.086 42.9066 80.3233 40.671 80.3233 40.671C80.3233 40.671 84.2131 30.8374 85.4112 27.6823L97.3738 27.6187L99.7346 27.471Z" fill="#FFA471"/>
<path d="M106.34 68.3645C104.525 75.5215 103.475 79.2393 101.729 86.4224C100.31 92.2542 100.652 100.333 100.366 106.314C100.307 107.555 103.413 144.686 102.546 145.555C101.611 146.49 91.0318 148.486 89.7383 148.546C84.899 148.794 76.9196 148.282 72.2972 146.91C73.2729 144.071 76.6523 105.415 76.9514 102.372C77.1944 99.8879 77.4934 97.4449 77.8318 95.0019C78.0523 93.4056 78.2934 91.8094 78.5476 90.2C78.6635 89.466 78.7944 88.7327 78.9402 88C79.5862 84.772 80.515 81.6072 81.7159 78.5421C83.3981 74.2299 84.3514 69.4094 86.5402 65.2823C88.5663 61.4598 89.985 57.2449 91.8075 53.2879C92.4691 51.8523 96.2934 45.9533 96.0261 45.3009L97.4785 39.1327C99.8411 42.4019 104.981 46.3757 107.469 50.9383C110.445 56.3794 107.74 62.8411 106.34 68.3645Z" fill="white"/>
<path d="M94.9532 48.4206C95.5663 49.5421 96.7346 50.5028 97.2747 51.6524C91.9233 55.7159 84.9925 72.8748 81.357 84.8C80.4392 87.8056 79.7327 90.4767 79.314 92.5252C79.286 92.6598 79.2579 92.7944 79.2317 92.9309C77.8673 99.6972 77.0691 106.598 76.5327 112.602C75.9532 119.06 74.2897 130.462 73.9327 133.564C74.2299 125.871 74.9308 108.568 76.3738 94.9645C76.628 92.5832 76.9458 90.129 77.3458 87.6131C78.4501 80.5846 80.1381 73.6603 82.3925 66.9122C88.7831 47.9028 97.3046 36.3944 97.3046 36.3944C97.5177 37.6673 98.314 39.3159 98.8654 40.8038C99.0426 41.2613 99.1887 41.7303 99.3028 42.2075C99.6766 43.8897 100.97 46.5066 100.938 48.2019C99.2729 48.3589 96.5383 48.1645 94.9532 48.4206Z" fill="white"/>
<path d="M82.5832 35.1215L82.514 35.3981L82.7271 35.4486C83.0337 35.2505 82.714 35.314 82.5832 35.1215Z" fill="#E6E8EA"/>
<path d="M75.8617 37.2972C74.0729 38.4991 71.5888 40.0112 70.2542 41.6168C71.3439 42.2804 74.7925 42.6654 75.6748 43.486C74.2748 45.0785 70.5832 46.6075 69.1178 48.2093C69.6505 48.7439 71.8598 51.2972 71.1346 62.1963C69.9514 79.9346 66.3888 120.267 66.0243 122.944C67.4411 120.467 77.4262 56.4262 78.2149 50.7495C78.8206 46.3495 79.7626 40.843 81.8505 36.9439L82.5084 35.4037C79.9626 34.8299 77.9906 35.8673 75.8617 37.2972Z" fill="white"/>
<g style="mix-blend-mode:multiply" opacity="0.8">
<path d="M103.936 64.3365C102.441 67.3626 104.06 69.114 102.243 72C100.063 75.4486 91.5102 92.114 85.3775 93.5065C79.3831 94.8692 76.6112 94.8019 76.3738 94.9645C76.628 92.5832 76.9457 90.129 77.3457 87.6131C78.0467 87.1869 78.714 86.7402 79.3046 86.3196C79.6504 86.0748 79.97 85.8374 80.256 85.6224C80.6299 85.3439 80.9887 85.0617 81.357 84.8C84.5495 82.4542 87.8149 80.314 90.7327 77.6486C93.4168 75.1888 95.9383 72.7252 98.4691 70.172C100.364 68.2617 102.538 66.658 103.936 64.3365Z" fill="#B0B4B6"/>
</g>
<path d="M55.7757 75.3346C54.8 73.8392 52.1608 72.2673 50.7122 70.8822C49.1795 69.4187 48.7907 66.3551 46.7346 66.0878C44.129 65.7514 41.5869 63.2841 41.2281 64.0617C41.2242 64.0688 41.221 64.0763 41.2187 64.0841C40.5309 65.6673 44.1907 67.6804 44.8561 68.2766C44.1084 69.1944 40.0131 68.2654 38.7327 68.1364C37.2112 67.9832 34.2673 65.6916 33.3365 66.0598C33.2698 66.0869 33.2108 66.1299 33.1645 66.185C32.6187 67.0056 37.3309 69.7047 37.6281 70.0206C36.9813 69.5047 32.1888 66.4692 31.658 67.2168L31.643 67.2392C31.4449 67.6131 31.615 67.9869 31.9907 68.3776C32.4056 68.8019 33.0729 69.2206 33.7739 69.6C32.6879 69.0972 31.7047 68.6972 31.7178 68.8841C31.6983 68.9167 31.6861 68.9531 31.6819 68.9908C31.6777 69.0285 31.6817 69.0667 31.6935 69.1028C31.7795 69.4318 32.3028 69.9047 32.9589 70.3907C32.9029 70.3765 32.8437 70.3844 32.7933 70.4125C32.7429 70.4407 32.7052 70.487 32.6879 70.5421C32.6869 70.552 32.6869 70.562 32.6879 70.572C32.8748 72.4953 40.8075 76.3495 42.4823 76.7271C42.7291 76.7704 42.9794 76.7905 43.2299 76.7869C44.9664 76.8075 48.4879 76.4598 50.0767 77.4187C50.7645 77.8318 51.6804 79.1121 52.5383 80.2224C53.3215 81.2318 54.0542 82.0916 54.5196 82.0149L54.6804 81.2673L55.9028 75.5514C55.8636 75.4766 55.8206 75.4056 55.7757 75.3346ZM36.557 70.985L36.3215 70.8561L36.0916 70.7364C36.2038 70.7906 36.301 70.8411 36.3832 70.8841C36.4654 70.9271 36.5084 70.9551 36.557 70.985ZM35.7888 72.2374L35.9084 72.314C35.8652 72.292 35.824 72.2664 35.7851 72.2374H35.7888Z" fill="#FFA471"/>
<path d="M55.9028 75.5514L54.6878 81.2635C54.0012 80.8824 53.2942 80.5392 52.5701 80.2355L52.5458 80.2243C51.6878 79.1215 50.7719 77.8411 50.0841 77.4206C48.4953 76.4617 44.9738 76.8093 43.2374 76.7888C44.5794 76.3047 45.8766 75.6673 47.2392 75.2523C48.7346 74.785 50.3776 74.5944 51.9663 74.5047C52.8411 74.4579 53.8112 74.2729 54.6579 74.6056C55.0598 74.7645 55.4056 75.1047 55.7794 75.3234C55.8205 75.4056 55.8635 75.4766 55.9028 75.5514Z" fill="#E07F4F"/>
<path d="M45.529 69.6374C44.5738 69.9981 43.4168 69.7009 42.4598 69.6149C40.4916 69.4392 38.8262 69.2692 37.0897 68.2056C36.4486 67.8112 34.7084 66.7906 33.329 66.0598C34.2636 65.686 37.2037 67.9832 38.7252 68.1364C40.0056 68.2654 44.1065 69.1944 44.8486 68.2766C44.1832 67.6804 40.5234 65.6598 41.2112 64.0841C41.7042 64.7992 42.2678 65.463 42.8935 66.0654C43.6019 66.7477 44.5757 66.9682 45.3365 67.5607C46.0318 68.1065 46.5944 69.2355 45.529 69.6374Z" fill="#E07F4F"/>
<path d="M37.9233 71.542C37.4262 71.3327 36.9047 71.1159 36.3757 70.8822L36.3177 70.8561C34.8224 70.1944 33.2673 69.4131 31.9944 68.3888C31.6205 68.0037 31.4486 67.6168 31.6467 67.2505L31.6617 67.228C33.0654 68.7551 37.2486 71.2037 37.9233 71.542Z" fill="#E07F4F"/>
<path d="M32.957 70.4C32.3009 69.914 31.7776 69.4411 31.6916 69.1122C33.5346 70.6617 37.0056 72.6636 37.6 72.9664C36.1047 72.3383 34.286 71.5738 32.6879 70.5813C32.6869 70.5714 32.6869 70.5614 32.6879 70.5514C32.7052 70.4968 32.7426 70.4507 32.7926 70.4226C32.8425 70.3945 32.9013 70.3864 32.957 70.4Z" fill="#E07F4F"/>
<path d="M106.611 47.1776C103.277 43.8131 99.2243 45.9271 95.9888 51.3065C95.4523 52.1981 93.9794 53.2037 92.6692 54.929C87.4598 61.7944 79.7346 75.2374 77.6785 75.9925C77.6785 75.9925 63.9271 73.3458 55.7776 71.8187C54.4449 71.5701 53.2635 71.3495 52.314 71.1757C52.2411 71.4243 52.1645 71.671 52.086 71.9234C51.785 72.871 51.4561 73.8093 51.1514 74.7551C50.9234 75.4692 50.7196 76.4748 50.5383 77.3421C50.1963 78.972 49.9065 80.6112 49.6168 82.2505C60.2953 87.2617 81.071 91.5776 83.3963 90.1776C85.243 89.0561 91.5738 84.086 94.1682 81.4991C100.118 75.572 105.944 67.3664 108.781 59.3271C109.94 56.0206 109.363 49.9589 106.611 47.1776Z" fill="white"/>
<path d="M54.3271 71.7458C54.2766 71.7458 54.2262 71.7458 54.1794 71.7551L54.3271 71.7458Z" fill="#B0B4B6"/>
<path d="M85.6692 73.9215C83.2393 74.4823 81.1832 74.8766 79.0636 75.8542C80.4598 76.3626 84.7757 77.9103 85.2206 80.0262C82.8467 78.828 80.2486 77.8374 77.6 77.9944C78.7907 79.0823 83.1851 81.2449 82.9533 82.7028C80.9888 81.2299 75.9757 78.3215 73.6785 77.1346C71.6393 76.0823 56.6336 71.9813 54.4579 71.7533L55.7664 71.8187C63.9196 73.3458 77.6785 75.9925 77.6785 75.9925C79.7346 75.2449 87.4673 61.7869 92.6748 54.9308C90.2804 60.7383 84.486 69.5103 80.5252 74.1832C81.9159 73.5869 84.314 73.5869 85.6692 73.9215Z" fill="#B0B4B6"/>
<g style="mix-blend-mode:multiply" opacity="0.8">
<path d="M87.557 112.037H87.2859C86.6841 114.598 89.0448 122.622 92.9944 122.951C97.9551 123.364 98.2785 115.002 98.6878 111.806C94.9252 111.615 91.299 112.037 87.557 112.037Z" fill="#B0B4B6"/>
</g>
<g style="mix-blend-mode:multiply" opacity="0.8">
<path d="M58.7888 108.822C58.0542 111.535 56.8505 118.148 53.3346 119.077L55.0337 108.284C56.2804 108.421 57.5327 108.587 58.7888 108.822Z" fill="#B0B4B6"/>
</g>
<path d="M93.2635 54.2617C93.3293 54.6755 93.476 55.0724 93.6951 55.4295C93.9143 55.7867 94.2016 56.0972 94.5408 56.3433C94.8799 56.5895 95.2642 56.7664 95.6717 56.864C96.0793 56.9616 96.502 56.9779 96.9159 56.9122C97.3297 56.8464 97.7265 56.6997 98.0837 56.4806C98.4409 56.2614 98.7514 55.9741 98.9975 55.6349C99.2436 55.2958 99.4205 54.9115 99.5181 54.5039C99.6157 54.0964 99.6321 53.6737 99.5663 53.2598C99.5486 53.1496 99.5249 53.0404 99.4953 52.9327C99.2904 52.1719 98.8113 51.5138 98.1501 51.0852C97.489 50.6565 96.6926 50.4877 95.9144 50.6112C95.1362 50.7346 94.4312 51.1417 93.9353 51.7539C93.4393 52.3661 93.1873 53.1402 93.228 53.9271C93.2335 54.0392 93.2453 54.1509 93.2635 54.2617Z" fill="#006695"/>
<path d="M93.228 53.9271C93.4329 54.6877 93.912 55.3455 94.5729 55.7741C95.2338 56.2026 96.0299 56.3716 96.8079 56.2483C97.5858 56.1251 98.2908 55.7185 98.7869 55.1067C99.2831 54.4949 99.5354 53.7212 99.4953 52.9346C99.2904 52.1738 98.8113 51.5157 98.1501 51.087C97.489 50.6584 96.6926 50.4896 95.9144 50.613C95.1362 50.7365 94.4312 51.1436 93.9353 51.7558C93.4393 52.368 93.1873 53.1421 93.228 53.929V53.9271Z" fill="white"/>
<path d="M93.9402 53.3701C94.0067 53.7838 94.1944 54.1685 94.4794 54.4756C94.7645 54.7828 95.1342 54.9985 95.5418 55.0956C95.9495 55.1927 96.3767 55.1668 96.7696 55.0211C97.1625 54.8755 97.5035 54.6167 97.7493 54.2774C97.9952 53.938 98.135 53.5335 98.151 53.1147C98.1671 52.696 98.0586 52.2819 97.8394 51.9248C97.6202 51.5677 97.3001 51.2835 96.9195 51.1083C96.5388 50.933 96.1148 50.8745 95.7009 50.9402C95.4257 50.9838 95.1617 51.0814 94.9241 51.2272C94.6866 51.373 94.4801 51.5642 94.3166 51.7899C94.153 52.0156 94.0356 52.2714 93.971 52.5425C93.9064 52.8137 93.896 53.0949 93.9402 53.3701Z" fill="#584F4F"/>
<path d="M94.8392 53.228C94.8769 53.4645 94.9838 53.6845 95.1465 53.8603C95.3092 54.036 95.5203 54.1596 95.7532 54.2154C95.9861 54.2712 96.2303 54.2567 96.4549 54.1738C96.6796 54.0908 96.8746 53.9431 97.0153 53.7494C97.1561 53.5556 97.2362 53.3245 97.2456 53.0852C97.2551 52.8459 97.1934 52.6092 97.0683 52.405C96.9432 52.2008 96.7604 52.0382 96.543 51.9378C96.3256 51.8375 96.0833 51.8038 95.8467 51.8411C95.6894 51.8659 95.5386 51.9215 95.4028 52.0046C95.267 52.0878 95.149 52.1969 95.0554 52.3257C94.9618 52.4545 94.8946 52.6005 94.8575 52.7553C94.8204 52.9102 94.8142 53.0708 94.8392 53.228Z" fill="#393333"/>
<path d="M98.3626 37.2823C98.1188 36.7623 97.7918 36.2856 97.3944 35.871C97.2633 36.1739 97.0776 36.4502 96.8467 36.686L96.8262 36.7047C97.1842 37.076 97.4729 37.5083 97.6785 37.9813C98.6131 40.3439 97.9907 43.1009 97.3851 45.458C96.7084 48.1028 95.7626 50.7439 95.5477 53.4804C95.5009 54.0598 96.3963 54.1608 96.443 53.5813C96.5645 52.0262 96.9477 50.5028 97.3533 49C98.0692 46.357 98.9944 43.6467 99.0355 40.8822C99.0542 39.6636 98.9028 38.4 98.3626 37.2823Z" fill="#393333"/>
<path d="M73.4878 55.1776C74.1514 55.9253 74.7402 56.0094 75.142 55.9253C76.0579 55.7383 76.8542 54.6168 77.443 52.6505C77.8 51.4636 78.0934 49.5795 78.3084 48.2038C78.4131 47.5327 78.5234 46.8374 78.5682 46.729C78.5557 46.7541 78.5369 46.7756 78.5137 46.7913C78.4904 46.807 78.4635 46.8165 78.4355 46.8187L78.4131 46.4094C78.2392 46.4224 78.2037 46.6206 78.1327 47.015C78.0822 47.2935 78.0224 47.6841 77.9458 48.1365C77.7327 49.4991 77.4411 51.3645 77.0934 52.5215C76.5589 54.3047 75.8411 55.3701 75.0766 55.5215C74.5383 55.6262 73.9551 55.2598 73.4112 54.4598L73.1234 54.714C73.2348 54.8762 73.3565 55.031 73.4878 55.1776Z" fill="white"/>
<path d="M72.5252 53.7944C72.2766 54.0767 72.3514 54.6187 72.6935 55.0038C73.0355 55.3888 73.5159 55.471 73.7645 55.1907C74.0131 54.9103 73.9383 54.3664 73.5963 53.9813C73.2542 53.5963 72.7738 53.5122 72.5252 53.7944Z" fill="#171111"/>
<path d="M70.3626 53.2523C69.428 53.1589 68.9925 52.7065 68.7888 52.3084C68.3252 51.4019 68.5888 49.9925 69.5533 48.228C70.1364 47.1589 71.2355 45.6972 72.0374 44.6318C72.4299 44.1103 72.8355 43.5701 72.8822 43.4617C72.8734 43.4903 72.8708 43.5204 72.8746 43.5501C72.8785 43.5798 72.8887 43.6083 72.9047 43.6336L73.2 43.3907C73.3028 43.5495 73.1888 43.7065 72.9645 44.0224C72.8056 44.243 72.5794 44.5458 72.314 44.8953C71.5196 45.9533 70.4299 47.4 69.8617 48.4467C68.985 50.0505 68.7159 51.3514 69.1028 52.1065C69.3757 52.6393 69.9944 52.8991 70.8953 52.8542L70.9065 53.2636C70.7252 53.2733 70.5434 53.2696 70.3626 53.2523Z" fill="white"/>
<path d="M71.9233 53.1981C71.8897 53.5944 71.471 53.8748 70.9888 53.8262C70.5065 53.7776 70.142 53.4187 70.1757 53.0224C70.2093 52.6262 70.628 52.3458 71.1103 52.3944C71.5925 52.443 71.957 52.8019 71.9233 53.1981Z" fill="#171111"/>
<path d="M71.6673 44.7271C71.686 44.7439 71.7122 44.7533 71.7234 44.7776C71.957 45.2561 72.129 45.2542 72.2991 45.5439C72.5238 45.216 72.7704 44.9038 73.0374 44.6093C75.3981 42.0505 77.8 43.3009 77.8617 46.7514C77.8688 47.2905 77.8269 47.8292 77.7365 48.3607C78.2019 48.4262 78.1103 48.4262 78.5701 48.5103C79.0673 46.3084 79.2037 40.514 77.9626 39.5981C76.4318 38.471 73.0953 43.028 71.6673 44.7271Z" fill="#393333"/>
<g style="mix-blend-mode:color-dodge" opacity="0.5">
<path d="M73.0374 44.6112C75.3981 42.0523 77.8 43.3028 77.8617 46.7533C78.1252 44.7776 78.2617 40.9047 77.5402 40.372C76.514 39.615 73.2991 44.071 73.0374 44.6112Z" fill="#006695"/>
<path d="M72.7439 45.215C72.7276 45.2278 72.7148 45.2445 72.7065 45.2636C72.5271 45.6449 72.5907 45.5271 72.7439 45.215Z" fill="#FF9800"/>
</g>
<path d="M78.5944 37.8617C79.1356 37.2276 79.7283 36.6393 80.3664 36.1028C80.892 35.6411 81.4646 35.2358 82.0748 34.8934C82.4685 34.7227 82.8779 34.5906 83.2972 34.4991C83.2168 34.7308 82.9551 35.071 82.9028 35.3103C82.7097 35.378 82.5248 35.467 82.3514 35.5757C81.7817 35.9131 81.2448 36.3029 80.7477 36.7402C80.1765 37.2266 79.6458 37.7585 79.1607 38.3308C78.7261 38.8145 78.371 39.364 78.1084 39.9589C77.9215 40.3962 77.2635 40.0878 77.443 39.6486C77.7316 38.9967 78.1201 38.3939 78.5944 37.8617Z" fill="#393333"/>
<path d="M79.1626 18.6093L79.0206 18.2561L84.6879 15.557L84.8299 15.9103L79.1626 18.6093Z" fill="#473239"/>
<path d="M86.2953 6.15701C84.8 9.38879 83.0318 13.5757 82.9532 17.4299C83.0617 15.914 84.4336 14.2187 85.2953 13.0019C86.5682 11.2075 88.5551 8.83178 90.2804 7.82804L86.2953 6.15701Z" fill="#2F191F"/>
<path d="M104.536 18.9719C103.817 20.5364 102.944 22.5233 101.92 24.5962C101.89 24.6598 101.858 24.7215 101.828 24.7832C101.55 25.3439 101.267 25.9047 100.959 26.4804C97.0729 33.8149 91.3234 41.2766 83.4729 35.9794C80.871 34.2205 80.5196 32.9776 80.6131 30.9607C80.6486 30.1869 80.7514 29.2991 80.8168 28.2243C81.0037 25.1906 80.6299 22.2972 81.5402 19.3514C82.3383 16.7738 84.2243 14.6505 85.0112 12.1794C85.8916 9.40933 87.6392 6.37195 88.529 3.9327L92.385 3.54765C96.8243 2.1383 101.146 4.22989 104.198 7.73456C107.25 11.2392 106.342 15.0579 104.536 18.9719Z" fill="#FFA471"/>
<path d="M101.935 24.6243C101.897 24.6766 101.86 24.7308 101.824 24.7851C101.479 25.3208 101.188 25.8893 100.955 26.4822C97.0729 33.815 91.3234 41.2766 83.4729 35.9794C80.871 34.2206 80.5196 32.9776 80.6131 30.9608C81.4692 31.3813 82.1757 31.4785 82.7738 29.5084C82.9364 28.9776 83.886 29.6953 84.4878 29.9365C84.5888 34.5103 91.1103 34.5402 93.929 32.8187C95.6112 31.7944 96.7963 30.1458 97.8542 28.5645C98.7121 27.2897 100.357 23.8168 100.338 22.2243L101.907 24.5963L101.935 24.6243Z" fill="#1B0C11"/>
<path d="M96.4281 22.0224C96.1867 22.2867 95.8932 22.4981 95.566 22.6432C95.2388 22.7883 94.885 22.8639 94.5271 22.8654C92.9234 22.9402 91.1907 21.9308 91.6355 20.4355C91.6355 20.4355 92.7383 19.5234 93.901 19.8916C94.0748 19.9477 94.2486 20.0037 94.415 20.0635C95.3066 20.3907 96.058 20.8299 96.4281 22.0224Z" fill="#EEEEEE"/>
<path d="M94.4149 20.071C94.2486 20.0112 94.0748 19.9552 93.9009 19.8991C93.3397 19.7477 92.742 19.8144 92.228 20.086C92.1918 20.5795 91.9903 21.0464 91.6561 21.4112C92.0019 22.3458 93.3009 22.9271 94.5271 22.871C94.6098 22.4808 94.6511 22.083 94.6505 21.6841C94.6548 21.1376 94.5754 20.5936 94.4149 20.071Z" fill="#20181A"/>
<path d="M94.0729 19.2149C92.9102 18.8411 91.6429 20.443 91.6429 20.443C91.8691 21.886 95.643 22.4748 96.4336 22.0224C95.9962 20.5981 95.1831 19.5663 94.0729 19.2149Z" fill="#E07F4F"/>
<path d="M86.7869 19.0336C86.6129 19.2856 86.3823 19.4933 86.1135 19.6401C85.8447 19.7868 85.5453 19.8685 85.2393 19.8785C83.9308 19.9514 82.5196 18.9439 82.8822 17.4486C82.8822 17.4486 83.7813 16.5365 84.729 16.9047C84.871 16.9608 85.0112 17.0168 85.1477 17.0766C85.8748 17.4019 86.486 17.8411 86.7869 19.0336Z" fill="#EEEEEE"/>
<path d="M85.1551 17.0823C85.0186 17.0224 84.8785 16.9664 84.7364 16.9103C84.5098 16.8353 84.269 16.8131 84.0325 16.8455C83.796 16.8779 83.57 16.964 83.3719 17.0972C83.3487 17.5742 83.187 18.0341 82.9065 18.4206C83.1887 19.3552 84.2467 19.9365 85.2467 19.8823C85.3135 19.4895 85.3466 19.0918 85.3457 18.6935C85.3497 18.1505 85.2856 17.6093 85.1551 17.0823Z" fill="#20181A"/>
<path d="M84.8691 16.2262C83.9215 15.8523 82.8822 17.4542 82.8822 17.4542C83.0691 18.8972 86.1439 19.486 86.7887 19.0336C86.4299 17.6168 85.7738 16.5776 84.8691 16.2262Z" fill="#E07F4F"/>
<path d="M91.7645 18.5065C92.7632 18.6204 93.7481 18.8333 94.7047 19.1421C95.6418 19.4543 96.5489 19.8503 97.415 20.3252L98.0636 19.2037C97.1383 18.3944 94.4542 17.0542 93.5028 16.8953C92.2579 16.686 92.0187 17.3103 91.6823 18.4953L91.7645 18.5065Z" fill="#1B0C11"/>
<path d="M86.7551 17.1944C86.2209 16.6736 85.6193 16.2266 84.9664 15.8654C84.3156 15.5175 83.6253 15.2496 82.9103 15.0673C83.0635 14.671 83.2162 14.2748 83.3682 13.8785C84.3439 13.8617 86.4935 14.5327 87.0411 15C87.7589 15.6056 87.4467 16.1963 86.7981 17.243C86.7849 17.2259 86.7705 17.2096 86.7551 17.1944Z" fill="#1B0C11"/>
<path d="M85.0377 8.77396C85.0404 8.76868 85.0436 8.76363 85.0472 8.75888H85.0264C84.9799 8.8104 84.9837 8.81542 85.0377 8.77396Z" fill="#2F191F"/>
<path d="M110.409 15.4243C109.897 15.0886 109.278 14.9554 108.673 15.0505C109.864 17.7439 107.127 21.3551 105.286 23.2187C104.393 24.1252 103.708 25.0766 102.905 25.9832C102.269 26.6991 102.307 26.6579 101.234 26.7495C100.708 26.7944 98.8916 26.6785 98.8916 26.6785C99.5738 25.8636 100.047 24.4075 100.049 22.4804C100.049 21.4299 98.4654 19.7907 99.1495 18.7533C102.112 14.2542 100.019 13.8355 98.5065 13.6112C96.3533 13.2916 88.3346 11.2262 86.4243 10.2692C85.3346 9.72336 82.6019 7.65234 83.2112 6.66916C83.4878 6.22056 84.3327 5.76449 85.2673 5.37383C86.3888 4.90093 87.6392 4.52149 88.1738 4.35701C87.5906 3.71402 86.7925 3.3028 86.3495 2.55514C88.0318 1.91028 90.714 1.82804 92.4449 2.28224C92.4149 1.48785 92.0318 0.773832 91.8467 0C92.7813 0.246729 104.452 -1.37944 107.626 11.1813C107.673 11.3682 107.72 11.5551 107.763 11.7589C108.092 11.2059 108.35 10.6137 108.531 9.99626C108.871 11.0393 108.593 11.8654 108.561 12.9551C109.164 12.6075 109.921 12.671 110.551 12.8393C109.836 12.8991 108.983 13.2879 108.548 13.843C109.641 13.8056 110.163 14.4411 110.409 15.4243Z" fill="#2F191F"/>
<path d="M110.409 15.4243C109.897 15.0886 109.278 14.9554 108.673 15.0505C109.864 17.7439 107.127 21.3551 105.286 23.2187C104.393 24.1252 103.708 25.0766 102.905 25.9832C102.269 26.6991 102.307 26.658 101.234 26.7495C100.708 26.7944 98.8916 26.6785 98.8916 26.6785C99.342 25.3701 100.047 24.4075 100.049 22.4804C100.049 21.4299 98.4654 19.7907 99.1495 18.7533C102.112 14.2542 100.019 13.8355 98.5065 13.6112C96.3533 13.2916 88.3346 11.2262 86.4243 10.2692C85.3346 9.72337 82.6019 7.65235 83.2112 6.66917C83.4878 6.22057 84.3327 5.76449 85.2673 5.37384C85.4621 5.89339 85.7454 6.37528 86.1047 6.79814C87.3009 8.20935 89.0635 8.76636 90.7963 9.28973C92.2847 9.72535 93.8133 10.0097 95.3589 10.1383C96.6 10.2561 97.843 10.4075 98.9589 10.9907C100.075 11.5738 101.202 12.372 101.675 13.6075C102.161 14.8935 101.89 16.1514 101.809 17.4561C103.075 17.0823 103.492 14.6523 103.598 13.5495C104.213 14.0486 104.428 15.0449 104.497 15.7925C104.918 15.6449 105.228 14.8131 105.333 14.3925C106.282 15.1963 105.65 17.4056 105.282 18.3178C106.778 16.8935 107.093 14.7234 107.378 12.8449C107.462 12.2841 107.564 11.7458 107.626 11.1869C107.673 11.3738 107.72 11.5608 107.763 11.7645C108.092 11.2115 108.35 10.6193 108.531 10.0019C108.871 11.0449 108.593 11.871 108.561 12.9608C109.164 12.6131 109.921 12.6766 110.551 12.8449C109.836 12.9047 108.983 13.2935 108.548 13.8486C109.641 13.8056 110.163 14.4411 110.409 15.4243Z" fill="#1B0C11"/>
<path d="M82.1832 25.5663L82.4392 27.6878C83.7252 31.0299 87.5383 28.8093 88.2878 27.7514C87.1738 27.4934 83.1906 26.1271 82.1832 25.5663Z" fill="#EE6E46"/>
<path d="M85.8448 25.6093L83.3514 25.0093C82.9271 25.1121 78.8654 25.6262 80.3607 26.2972C80.8561 26.5196 89.2168 29.6766 90.2 30.3458C91.0729 30.9402 89.6411 27.3663 85.8448 25.6093Z" fill="#1B0C11"/>
<path d="M84.9794 25.0953C86.5775 23.5551 88.1383 19.6748 88.1383 19.6748C87.3906 20.7215 86.6617 21.7757 85.8205 22.7421C85.086 23.5813 84.1663 24.228 83.3514 25.0094C84.099 26.1626 86.6617 27.1159 87.8374 26.4654C87.0248 25.7607 86.0377 25.2874 84.9794 25.0953Z" fill="#E07F4F"/>
<path d="M83.0505 22.9308C82.2434 22.9308 81.4545 22.6915 80.7835 22.2432C80.1125 21.7948 79.5895 21.1575 79.2807 20.4119C78.9719 19.6664 78.8911 18.8459 79.0485 18.0544C79.2059 17.2629 79.5946 16.5358 80.1652 15.9652C80.7359 15.3945 81.4629 15.0059 82.2544 14.8485C83.0459 14.691 83.8664 14.7718 84.612 15.0807C85.3576 15.3895 85.9948 15.9125 86.4432 16.5835C86.8915 17.2545 87.1308 18.0434 87.1308 18.8505C87.1294 19.9322 86.699 20.9692 85.9341 21.7341C85.1692 22.499 84.1322 22.9293 83.0505 22.9308ZM83.0505 15.1551C82.3196 15.1551 81.6051 15.3719 80.9975 15.7779C80.3898 16.184 79.9161 16.7611 79.6364 17.4363C79.3567 18.1115 79.2836 18.8546 79.4261 19.5714C79.5687 20.2882 79.9207 20.9466 80.4375 21.4634C80.9543 21.9802 81.6127 22.3322 82.3295 22.4748C83.0464 22.6174 83.7894 22.5442 84.4646 22.2645C85.1398 21.9848 85.717 21.5112 86.123 20.9035C86.5291 20.2958 86.7458 19.5813 86.7458 18.8505C86.7448 17.8707 86.3552 16.9314 85.6624 16.2386C84.9696 15.5458 84.0302 15.1561 83.0505 15.1551Z" fill="#473239"/>
<path d="M93.0747 26.4654C92.2678 26.4651 91.4791 26.2254 90.8083 25.7769C90.1375 25.3283 89.6148 24.6909 89.3063 23.9453C88.9977 23.1996 88.9172 22.3793 89.0748 21.5879C89.2325 20.7965 89.6213 20.0696 90.192 19.4991C90.7627 18.9287 91.4898 18.5402 92.2812 18.383C93.0727 18.2257 93.893 18.3066 94.6385 18.6155C95.384 18.9244 96.0212 19.4473 96.4694 20.1183C96.9177 20.7893 97.157 21.5781 97.157 22.3851C97.1555 23.4671 96.7249 24.5044 95.9596 25.2693C95.1943 26.0343 94.1568 26.4644 93.0747 26.4654ZM93.0747 18.6897C92.3439 18.6901 91.6297 18.9071 91.0222 19.3134C90.4148 19.7197 89.9414 20.297 89.662 20.9722C89.3826 21.6475 89.3097 22.3904 89.4525 23.1071C89.5953 23.8238 89.9474 24.4821 90.4643 24.9987C90.9811 25.5153 91.6396 25.8671 92.3564 26.0095C93.0731 26.152 93.816 26.0787 94.4912 25.7989C95.1663 25.5192 95.7433 25.0455 96.1493 24.4379C96.5552 23.8302 96.7719 23.1158 96.7719 22.3851C96.7709 21.405 96.381 20.4654 95.6878 19.7725C94.9946 19.0797 94.0548 18.6902 93.0747 18.6897Z" fill="#473239"/>
<path d="M89.4766 20.8542C88.7701 19.7925 87.5869 19.7888 86.7215 19.9719L86.6411 19.5981C88.0318 19.3047 89.1533 19.6748 89.7981 20.643L89.4766 20.8542Z" fill="#473239"/>
<path d="M105.318 26.2748H104.944C104.944 26.172 104.944 23.7682 103.271 23.6393C101.507 23.5047 96.8766 23.5122 96.8299 23.5122V23.1271C96.8766 23.1271 101.52 23.1271 103.297 23.2561C104.914 23.3776 105.325 25.2841 105.318 26.2748Z" fill="#473239"/>
<path d="M100.755 25.2449C100.417 25.6187 99.7177 27.0037 99.7177 27.0037C98.5047 28.1252 98.1047 31.2598 100.295 31.4486C101.604 31.5607 103.4 29.7047 104.2 28.7869C107.441 25.0654 103.417 22.243 100.755 25.2449Z" fill="#FFA471"/>
<path d="M100.716 26.9047C101.617 26.6654 102.006 27.6131 101.527 28.3308C101.133 28.9196 99.7439 28.3308 99.7439 28.3308C100.009 29.3084 101.497 29.9234 102.492 28.8916C103.239 28.1103 103.221 25.7757 101.677 26.2579C102.097 25.4056 104.05 24.7084 104.437 25.929C103.921 23.7065 100.716 24.9832 100.716 26.9047Z" fill="#E07F4F"/>
<path d="M150.32 41.9065C148.701 39.5963 146.394 38.6822 143.88 37.5028C141.802 36.5252 139.744 34.7327 140.078 32.5551L138.396 36.5439C137.892 39.3832 137.835 42.6972 138.972 45.4112C139.907 47.6636 141.667 48.3682 143.761 49.3159C146.378 50.5009 151.933 52.4935 151.35 56.1234C151.785 53.8355 151.35 51.1589 151.589 48.8168C151.832 46.3346 151.83 44.0579 150.32 41.9065Z" fill="#672D23"/>
<path d="M131.351 158.4C131.832 154.505 132.51 150.671 133.176 146.878C133.237 146.531 133.297 146.187 133.363 145.839C133.4 145.63 133.435 145.419 133.471 145.207C133.614 144.389 133.754 143.571 133.89 142.755C134.121 141.384 134.336 140.018 134.533 138.656C134.568 138.402 134.796 136.078 135.125 132.615H118.613C120.155 151.32 122.538 179.022 123.598 189.437C123.763 191.08 123.897 192.29 123.991 192.968C125.149 201.497 126.764 209.129 126.654 211.615L130.643 213.297C130.643 209.308 130.796 206.241 130.796 206.241C131.095 202.705 131.643 200.766 132.432 197.258C133.527 192.387 134.538 187.187 133.914 180.671C133.742 178.884 132.606 174.445 131.768 170.325C131.194 167.499 130.759 164.822 130.871 163.258C130.989 161.626 131.153 160.007 131.351 158.4Z" fill="#E995AA"/>
<path d="M130.744 210.447L128.245 210.221C127.041 208.86 126.525 210.48 126.032 211.155C125.445 211.961 124.288 212.57 123.426 213.047C121.908 213.888 118.131 214.57 118.68 216.875C121.746 217.101 128.105 217.047 131.273 216.6C132.637 216.413 131.538 215.378 131.191 213.548C130.95 212.292 131.043 211.669 130.744 210.447Z" fill="white"/>
<path d="M140.383 163.484C140.269 165.047 140.705 167.723 141.28 170.551C142.118 174.664 143.252 179.108 143.426 180.895C144.05 187.413 143.039 192.611 141.942 197.484C141.153 200.991 140.607 202.929 140.308 206.465C140.308 206.465 140.155 209.535 140.155 213.521L136.166 211.839C136.277 209.353 134.671 201.721 133.501 193.194C132.546 186.181 127.146 121.908 126.729 115.09C126.729 115.019 126.729 114.946 126.716 114.873H146.331C145.26 126.275 144.125 138.292 144.041 138.888C143.845 140.25 143.631 141.616 143.398 142.987C143.264 143.802 143.121 144.621 142.979 145.439C142.942 145.65 142.907 145.862 142.869 146.073C142.809 146.417 142.747 146.763 142.682 147.11C142.017 150.903 141.338 154.738 140.858 158.634C140.669 160.239 140.499 161.856 140.383 163.484Z" fill="#E995AA"/>
<path d="M140.256 210.677L137.757 210.45C136.553 209.09 136.036 210.71 135.542 211.385C134.957 212.191 133.8 212.8 132.938 213.277C131.421 214.118 127.643 214.8 128.193 217.105C131.256 217.331 137.617 217.277 140.785 216.83C142.148 216.643 141.05 215.609 140.701 213.778C140.462 212.521 140.553 211.901 140.256 210.677Z" fill="white"/>
<path d="M116.394 134.684C115.576 131.43 116.14 127.987 115.705 124.791L112.714 120.879C111.733 125.279 108.312 135.864 112.434 139.108C113.978 140.323 114.415 139.744 115.643 138.548C117.239 136.968 116.908 136.731 116.394 134.684Z" fill="#FFA471"/>
<path d="M125.684 55.6131C124.071 55.6131 120.379 59.2224 119.385 63.8131C118.284 68.8953 116.394 84.0617 115.705 90.9645C114.667 101.333 112.948 101.553 112.022 113.054C111.723 116.761 111.348 123.572 110.871 127.092L115.021 127.322C115.837 125.338 116.245 122.873 116.907 120.931C118.763 115.488 119.946 109.849 120.996 104.307C121.852 99.7925 122.658 95.015 124.277 90.7365C125.772 86.7608 125.864 82.4281 126.52 78.3103C126.583 77.914 126.692 77.5626 126.755 77.1608L125.684 55.6131Z" fill="#FEFFFE"/>
<path d="M135.093 103.912C134.772 112.656 132.873 121.206 132.398 129.912C132.241 132.817 132.082 135.688 131.957 138.587C131.927 139.234 132.763 145.064 132.331 145.563C131.652 146.344 118.439 145.888 113.903 145.14C112.953 144.983 112.383 144.815 112.387 144.641C112.516 139.002 113.286 128.753 114.207 117.693C115.492 102.264 117.929 83.2542 118.465 74.858C118.732 70.0296 119.821 65.2821 121.686 60.8206C123.409 56.5832 127.695 54.2187 130.49 51.6748L136.931 83.8916C134.527 89.5103 135.316 97.8337 135.093 103.912Z" fill="white"/>
<path d="M146.621 116.129C146.277 111.301 146.525 106.85 146.465 102.05L120.536 102.931C118.088 119.379 115.809 141.138 116.854 158.155C122.378 159.536 126.641 159.551 132.041 159.766C135.804 159.916 146.808 160.514 148.286 157.221C149.234 155.103 147.054 122.258 146.621 116.129Z" fill="#602D8A"/>
<path d="M140.308 46.1514L131.581 49.086C124.082 58.157 122.699 64.7981 122.002 72.2318C121.181 80.9551 118.824 113.652 118.824 113.652C118.824 113.652 130.654 115.508 133.245 115.8C140.607 115.493 143.151 116.804 145.518 109.05C151.071 90.8897 140.892 63.1664 147.849 53.5084C145.68 52.286 139.735 48.8019 140.308 46.1514Z" fill="#602D8A"/>
<path d="M138.865 42.3308C138.118 39.6131 137.009 36.9196 137.662 34.0841L130.538 40.8841C130.621 41.1701 130.695 41.4449 130.763 41.7234C131.234 43.6187 132.138 45.6486 131.579 47.5271C129.979 52.9028 126.807 62.5159 126.907 65.1757C126.936 65.9551 138.966 50.7925 139.617 50.4505C140.329 50.0766 141.036 49.6897 141.727 49.2748C140.72 47 139.536 44.7963 138.865 42.3308Z" fill="#FFA471"/>
<path d="M135.654 39.4636C134.871 40.4262 133.832 41.2467 132.923 42.0953C132.617 42.3813 131.903 42.6561 131.054 43C131.374 44.4888 131.551 46.0047 131.581 47.5271C131.581 47.8729 131.219 48.671 131.207 49.0224C132.336 47.6652 133.356 46.2215 134.258 44.7047C135.458 42.6131 137.062 39.5533 137.211 37.101C136.637 37.8038 136.25 38.729 135.654 39.4636Z" fill="#E07F4F"/>
<path d="M139.292 23.9626C137.525 21.0392 134.168 19.185 130.72 19.6486L125.568 20.6953C125.596 21.428 124.508 22.4486 124.045 23.3121C123.456 24.4168 122.832 25.8149 122.723 27.1551C122.464 30.3103 121.585 30.757 121.314 33.2561C121.049 35.7121 122.697 44.2299 123.637 44.7327C124.277 45.0748 126.129 45.2523 126.961 45.3047C129.219 45.4449 130.138 44.671 132.178 43.9234C134.695 43.0037 136.594 40.643 137.729 38.3813C140.135 33.5888 142.37 29.0561 139.292 23.9626Z" fill="#FFA471"/>
<path d="M147.105 29.8337C146.544 33.4019 144.57 35.9383 142.892 38.4841C142.751 38.6972 142.613 38.9084 142.479 39.1215C141.12 41.2692 140.065 43.4841 140.325 46.3888C139.445 45.1103 138.417 42.4318 138.03 40.8935C137.574 39.0766 139.899 35.5495 140.022 33.6449C138.779 34.1009 138.095 33.9103 137.307 31.714C136.804 30.3178 137.419 28.7028 135.654 26.8094C133.89 24.9159 131.25 30.615 127.084 23.215C127.058 22.5944 127.06 22.0206 127.084 21.4916C127.312 16.7346 129.477 15.5103 131.57 15.0617C133.751 14.5944 138.398 13.8056 144.039 18.4523C146.351 20.3589 146.793 23.1103 147.142 26.0019C147.308 27.2747 147.295 28.5644 147.105 29.8337Z" fill="#8F4534"/>
<path d="M128.037 15.8598C126.077 16.0168 124.398 16.6729 123.234 18.058C122.234 19.2467 121.925 20.4692 121.957 21.9495C121.981 23.0112 122.376 24.2112 123.017 25.6299C123.391 24.9589 123.643 23.957 124.178 23.4056C125.013 22.5439 126.166 22.0131 127.084 23.2187C128.514 21.0355 131.895 22.0262 134.48 23.7234L133.359 17.5215C131.684 16.4692 130.123 15.6935 128.037 15.8598Z" fill="#8F4534"/>
<path d="M147.105 29.8337C146.544 33.4019 144.57 35.9383 142.892 38.4841C142.677 38.6355 142.529 38.8638 142.478 39.1215C141.12 41.2692 140.065 43.4841 140.325 46.3888C139.445 45.1103 137.854 41.9327 137.729 38.3851C137.664 36.5159 139.897 35.5495 140.022 33.6449C138.779 34.1009 138.095 33.9103 137.307 31.714C136.804 30.3178 137.419 28.7028 135.654 26.8094C133.89 24.9159 131.25 30.615 127.084 23.215C127.058 22.5944 125.544 21.228 125.568 20.6991C126.877 20.4187 129.886 21.4187 131.11 21.2355C130.736 20.415 129.757 19.8355 128.899 19.6991C129.46 18.8953 131.568 18.8505 132.484 18.8037C133.779 18.7365 135.034 18.9421 136.321 19.0318C136.135 18.0486 134.935 17.6972 134.452 16.9196C135.456 16.3309 138.092 16.9776 139.179 17.3346C140.731 17.8467 147.772 21.3252 147.105 29.8337Z" fill="#672D23"/>
<path d="M142.148 35.6879C141.191 37.6561 139.564 38.8393 138.514 38.329C137.464 37.8187 137.393 35.8093 138.348 33.843C139.303 31.8766 140.931 30.6916 141.978 31.1981C143.024 31.7047 143.099 33.7178 142.148 35.6879Z" fill="#FFA471"/>
<path d="M141.946 34.3159C143.036 32.2037 140.213 31.1495 139.181 33.4299C140.742 33.1028 139.662 35.9103 138.344 35.7421L138.12 35.6337C138.46 38.4953 142.832 34.3495 140.527 33.0561C141.335 32.8374 142.021 33.4505 141.946 34.3159Z" fill="#E07F4F"/>
<path d="M131.826 30.5047C129.396 28.7084 128.964 32.9757 128.964 32.9757C129.664 33.4972 132.312 34.0075 133.161 33.3495C132.892 32.0766 132.878 31.2785 131.826 30.5047Z" fill="#E07F4F"/>
<path d="M133.161 33.3495C132.864 33.5383 132.521 33.6406 132.17 33.6449C132.065 33.6449 131.957 33.6561 131.849 33.6561C130.992 33.6506 130.143 33.4884 129.344 33.1776C129.234 33.132 129.128 33.0769 129.028 33.0131L128.964 32.9701C128.973 32.8489 128.99 32.7283 129.015 32.6093C129.072 32.3957 129.165 32.1934 129.29 32.0112C129.798 31.2318 130.94 30.3589 132.333 32.0635C132.651 32.4636 132.928 32.8944 133.161 33.3495Z" fill="white"/>
<path d="M132.333 32.0635C132.254 32.616 132.09 33.1531 131.849 33.6561C130.992 33.6506 130.143 33.4884 129.344 33.1776C129.284 32.7918 129.266 32.4008 129.29 32.0112C129.798 31.2318 130.95 30.3589 132.333 32.0635Z" fill="#322927"/>
<path d="M131.611 32.7047C131.578 32.9645 131.443 33.1607 131.314 33.1439C131.185 33.1271 131.107 32.9009 131.14 32.6411C131.174 32.3813 131.308 32.185 131.439 32.2019C131.57 32.2187 131.647 32.4449 131.611 32.7047Z" fill="white"/>
<path d="M123.798 29.1103C121.86 27.3794 121.404 31.643 121.404 31.643C121.964 32.1458 124.108 32.5906 124.817 31.9177C124.628 30.6561 124.637 29.8598 123.798 29.1103Z" fill="#E07F4F"/>
<path d="M124.817 31.9177C124.585 32.1072 124.3 32.219 124.002 32.2374C123.914 32.2484 123.826 32.2546 123.738 32.2561C123.039 32.272 122.345 32.1295 121.708 31.8392C121.619 31.7963 121.534 31.745 121.454 31.686L121.404 31.643C121.404 31.643 121.415 31.4991 121.454 31.2841C121.505 31.0719 121.585 30.8679 121.693 30.6785C122.127 29.8897 123.08 28.9963 124.174 30.6579C124.427 31.0566 124.643 31.4784 124.817 31.9177Z" fill="white"/>
<path d="M124.174 30.6579C124.097 31.2069 123.95 31.7439 123.738 32.2561C123.039 32.272 122.345 32.1295 121.708 31.8392C121.669 31.4535 121.664 31.0651 121.693 30.6785C122.127 29.8897 123.08 28.9925 124.174 30.6579Z" fill="#322927"/>
<path d="M123.57 31.314C123.535 31.5738 123.421 31.7719 123.316 31.7589C123.211 31.7458 123.153 31.5215 123.187 31.2617C123.221 31.0019 123.336 30.8037 123.441 30.8168C123.546 30.8299 123.604 31.0542 123.57 31.314Z" fill="white"/>
<path d="M134.034 29.9439C132.725 29.114 131.157 28.3084 129.703 29.1458C127.86 30.2075 130.45 29.8935 131.164 29.9065C132.148 29.9479 133.124 30.1054 134.071 30.3757L134.034 29.9439Z" fill="#55241C"/>
<path d="M121.344 27.4037C122.52 27.0486 123.847 26.7925 124.482 28.0206C125.288 29.5757 123.703 28.4785 123.236 28.2673C122.561 27.9607 121.873 27.871 121.155 27.7925L121.344 27.4037Z" fill="#55241C"/>
<path d="M126.464 31.9028C125.503 33.1701 124.079 35.0991 122.877 36.1776C123.465 36.7514 124.91 37.0449 125.701 37.0878C125.286 36.7009 124.406 36.4299 124.052 35.9308C125.518 34.1794 126.464 31.9028 126.464 31.9028Z" fill="#E07F4F"/>
<path d="M123.032 38.9738C123.032 38.9738 123.112 38.9738 123.245 39.0075C123.378 39.0411 123.559 39.0804 123.766 39.1346L124.092 39.2187L124.264 39.2617C124.323 39.2729 124.381 39.2878 124.45 39.3028C124.572 39.3252 124.693 39.3551 124.824 39.3757C124.955 39.3962 125.082 39.4187 125.211 39.443L125.998 39.5626L126.372 39.6243L126.714 39.6897C126.821 39.7121 126.918 39.7402 127.007 39.7607C127.097 39.7813 127.172 39.8037 127.237 39.8243C127.366 39.8635 127.441 39.8953 127.441 39.8953C127.441 39.8953 127.372 39.9364 127.254 39.9944C127.192 40.0243 127.118 40.0561 127.03 40.0916C126.942 40.1271 126.843 40.1551 126.735 40.1869C126.618 40.2219 126.499 40.2493 126.379 40.2691C126.246 40.2949 126.111 40.3124 125.976 40.3215C125.83 40.3337 125.683 40.3375 125.536 40.3327C125.383 40.3265 125.23 40.3122 125.078 40.2897C124.925 40.2638 124.773 40.2275 124.624 40.1813C124.55 40.1602 124.478 40.1346 124.407 40.1047C124.337 40.0786 124.267 40.0487 124.2 40.0149C124.135 39.9813 124.069 39.9495 124.013 39.914C123.957 39.8785 123.893 39.8392 123.839 39.8019C123.583 39.6229 123.359 39.4031 123.174 39.1514C123.073 39.043 123.032 38.9738 123.032 38.9738Z" fill="#FF2420"/>
<path d="M151.6 143.322C151.852 144.092 149.323 144.607 145.574 144.908C137.093 145.591 122.364 145.185 119.387 144.187C119.158 133.13 119.711 122.071 121.043 111.092C125.217 76.6337 135.809 52.6542 138.858 46.2972C139.391 45.1907 139.693 44.615 139.693 44.615C139.714 44.6598 139.736 44.7084 139.763 44.757C140.202 45.6131 142.379 47.271 143.989 47.8355C147.465 49.0542 149.744 49.5888 151.505 50.443C158.794 53.9757 151.589 82.2879 148.837 91.2C148.662 91.7839 148.521 92.3774 148.415 92.9776C146.307 104.359 149.28 136.239 151.6 143.322Z" fill="#FEFFFE"/>
<path d="M138.529 53.9757C139.662 55.3234 140.864 56.9215 142.08 58.1178C132.871 66.0823 122.778 105.034 121.037 111.092C125.211 76.6337 138.869 43.6972 138.869 43.6972C138.869 43.6972 143.473 47.1402 143.991 47.8393C142.888 49.7701 140.166 52.6935 138.529 53.9757Z" fill="#F5E9E7"/>
<path d="M124.66 55.3645C125.153 55.7196 125.817 55.9122 126.398 56.2841C125.464 57.3888 123.434 58.4318 123.434 58.4318C123.434 58.4318 119.445 77.6598 119.847 98.8056C119.873 100.239 119.034 109.679 119.036 111.112C121.664 94.5365 122.041 69.3514 129.108 53.757C129.828 52.1701 130.746 50.7196 131.579 47.5439C131.579 47.5271 126.576 52.1103 124.66 55.3645Z" fill="#F5E9E7"/>
<path d="M146.768 115.817L143.316 114.206C141.746 119.736 137.578 124.626 137.828 130.507C139.376 130.198 141.505 130.774 143.086 130.32C144.581 129.884 145.142 128.346 145.783 126.637C146.484 124.768 146.073 123.297 146.077 121.346C146.08 119.394 146.669 117.647 146.768 115.817Z" fill="#FFA471"/>
<path d="M155.206 58.4243C154.757 53.7514 151.51 46.8206 146.675 52.6561C143.396 56.6112 145.464 77.2337 146.077 92.5757C146.264 97.4355 145.826 101.254 144.237 105.921C143.942 106.787 139.564 116.09 139.174 117.656C141.258 118.2 144.781 119.536 146.867 120.049C149.31 114.929 154.054 106.331 155.512 102.009C157.467 96.215 156.417 93.1495 156.723 86.9589C157.25 76.3215 156.217 69.0094 155.206 58.4243Z" fill="#FEFFFE"/>
<path d="M141.06 123.525C138.357 123.721 135.288 123.727 132.594 122.723C133.099 127.656 135.622 133.751 140.002 133.993C144.529 134.239 146.357 127.564 147.092 122.778C145.088 123.093 143.077 123.379 141.06 123.525Z" fill="#F5E9E7"/>
<path d="M147.308 96.7065C148.727 96.828 149.925 96.3084 151.288 96.2673C150.204 95.3645 149.017 95.0635 147.723 94.8411C147.424 89.6355 147.333 65.1776 146.538 63.5495C146.538 71.0093 146.456 78.7514 146.082 86.2991C145.895 90.0822 145.742 94 145.148 97.6374C144.673 100.587 141.707 111.439 141.707 111.439C142.981 109.701 146.536 100.877 147.269 98.5944C148.25 98.4075 149.286 98.6411 150.196 98.7383C149.477 97.8318 148.217 97.5159 147.308 96.7065Z" fill="#F5E9E7"/>
<path d="M118.925 81.9907C118.841 82.6972 117.723 98.7514 117.596 99.4785C116.383 106.413 114.219 134.088 113.903 145.14C112.953 144.983 112.383 144.815 112.387 144.641C112.516 139.002 113.286 128.753 114.207 117.693C115.193 111.043 117.776 91.6542 118.925 81.9907Z" fill="#F5E9E7"/>
<path d="M118.077 97.3327C118.116 97.215 118.155 97.0953 118.196 96.9776C118.153 97.0935 118.114 97.2131 118.077 97.3327Z" fill="#F5E9E7"/>
<defs>
<linearGradient id="paint0_linear_1180_2670" x1="8" y1="213.05" x2="15.1948" y2="253.473" gradientUnits="userSpaceOnUse">
<stop stop-color="#AF2245"/>
<stop offset="1" stop-color="#FF7194"/>
</linearGradient>
</defs>
</svg>
