<svg width="24" height="24" viewBox="0 0 24 24" fill="none" xmlns="http://www.w3.org/2000/svg">
<path d="M17.92 24L14.4 20L15.8848 18.4533L17.92 20.5733L22.5152 15.7867L24 17.6667M12.544 24H2.56C1.1392 24 0 22.8133 0 21.3333V2.66667C0 1.18667 1.1392 0 2.56 0H20.48C21.9008 0 23.04 1.18667 23.04 2.66667V13.0667C22.2592 12.6 21.4016 12.2667 20.48 12.1067V2.66667H2.56V21.3333H11.6224C11.776 22.2933 12.096 23.1867 12.544 24ZM11.52 18.6667H5.12V16H11.52M14.9504 13.3333H5.12V10.6667H17.92V12.1067C16.832 12.2933 15.8336 12.72 14.9504 13.3333ZM17.92 8H5.12V5.33333H17.92" fill="#111535"/>
</svg>
