<svg width="29" height="26" viewBox="0 0 29 26" fill="none" xmlns="http://www.w3.org/2000/svg">
<path d="M23.5289 2.36364V0H0.826172V21.2727C0.826172 23.8834 2.8592 26 5.36671 26H23.5289C26.0364 26 28.0694 23.8834 28.0694 21.2727V2.36364H23.5289ZM25.7991 21.2727C25.7991 22.5786 24.7832 23.6364 23.5289 23.6364H5.36671C4.11239 23.6364 3.09644 22.5786 3.09644 21.2727V2.36364H21.2586V21.2727H23.5289V4.72727H25.7991V21.2727ZM12.1775 4.72727H5.36671V11.8182H12.1775V4.72727ZM9.90725 9.45455H7.63698V7.09091H9.90725V9.45455ZM14.4478 4.72727H18.9883V7.09091H14.4478V4.72727ZM14.4478 9.45455H18.9883V11.8182H14.4478V9.45455ZM5.36671 14.1818H18.9883V16.5455H5.36671V14.1818ZM5.36671 18.9091H18.9883V21.2727H5.36671V18.9091Z" fill="#AF2245"/>
</svg>
