<svg width="17" height="18" viewBox="0 0 17 18" fill="none" xmlns="http://www.w3.org/2000/svg">
<mask id="path-1-inside-1_5283_120940" fill="white">
<path d="M8.26172 17.8457C6.67947 17.8457 5.13275 17.3476 3.81716 16.4142C2.50157 15.4809 1.47619 14.1544 0.870686 12.6023C0.265185 11.0503 0.106758 9.34245 0.41544 7.69481C0.724122 6.04717 1.48605 4.53371 2.60487 3.34582C3.72369 2.15794 5.14915 1.34898 6.701 1.02124C8.25285 0.693506 9.86138 0.861712 11.3232 1.50459C12.785 2.14747 14.0344 3.23615 14.9135 4.63295C15.7925 6.02976 16.2617 7.67195 16.2617 9.35188C16.2617 11.6046 15.4189 13.765 13.9186 15.3579C12.4183 16.9508 10.3835 17.8457 8.26172 17.8457ZM8.26172 2.07144C6.90551 2.07144 5.57975 2.49843 4.4521 3.29842C3.32445 4.0984 2.44555 5.23545 1.92655 6.56578C1.40755 7.8961 1.27175 9.35995 1.53634 10.7722C1.80092 12.1845 2.454 13.4817 3.41299 14.4999C4.37198 15.5181 5.5938 16.2115 6.92396 16.4924C8.25411 16.7733 9.63286 16.6292 10.8858 16.0781C12.1388 15.5271 13.2098 14.5939 13.9632 13.3967C14.7167 12.1994 15.1189 10.7918 15.1189 9.35188C15.1189 7.42099 14.3964 5.56918 13.1105 4.20383C11.8245 2.83849 10.0803 2.07144 8.26172 2.07144Z"/>
</mask>
<path d="M8.26172 17.8457C6.67947 17.8457 5.13275 17.3476 3.81716 16.4142C2.50157 15.4809 1.47619 14.1544 0.870686 12.6023C0.265185 11.0503 0.106758 9.34245 0.41544 7.69481C0.724122 6.04717 1.48605 4.53371 2.60487 3.34582C3.72369 2.15794 5.14915 1.34898 6.701 1.02124C8.25285 0.693506 9.86138 0.861712 11.3232 1.50459C12.785 2.14747 14.0344 3.23615 14.9135 4.63295C15.7925 6.02976 16.2617 7.67195 16.2617 9.35188C16.2617 11.6046 15.4189 13.765 13.9186 15.3579C12.4183 16.9508 10.3835 17.8457 8.26172 17.8457ZM8.26172 2.07144C6.90551 2.07144 5.57975 2.49843 4.4521 3.29842C3.32445 4.0984 2.44555 5.23545 1.92655 6.56578C1.40755 7.8961 1.27175 9.35995 1.53634 10.7722C1.80092 12.1845 2.454 13.4817 3.41299 14.4999C4.37198 15.5181 5.5938 16.2115 6.92396 16.4924C8.25411 16.7733 9.63286 16.6292 10.8858 16.0781C12.1388 15.5271 13.2098 14.5939 13.9632 13.3967C14.7167 12.1994 15.1189 10.7918 15.1189 9.35188C15.1189 7.42099 14.3964 5.56918 13.1105 4.20383C11.8245 2.83849 10.0803 2.07144 8.26172 2.07144Z" fill="#898B9F"/>
<path d="M8.26172 17.8457V16.4457V17.8457ZM15.1189 9.35188H16.5189H15.1189ZM8.26172 16.4457C6.97571 16.4457 5.71101 16.0413 4.62721 15.2724L3.00711 17.5561C4.5545 18.6539 6.38324 19.2457 8.26172 19.2457V16.4457ZM4.62721 15.2724C3.54226 14.5027 2.68452 13.3997 2.17494 12.0935L-0.433573 13.1112C0.267858 14.9091 1.46087 16.4592 3.00711 17.5561L4.62721 15.2724ZM2.17494 12.0935C1.66518 10.7869 1.53069 9.34471 1.7915 7.95261L-0.960619 7.43701C-1.31718 9.3402 -1.13481 11.3137 -0.433573 13.1112L2.17494 12.0935ZM1.7915 7.95261C2.05226 6.56074 2.69411 5.29299 3.624 4.3057L1.58573 2.38595C0.277984 3.77442 -0.604019 5.5336 -0.960619 7.43701L1.7915 7.95261ZM3.624 4.3057C4.55305 3.3193 5.72629 2.65797 6.99029 2.39103L6.41171 -0.348543C4.57201 0.0399861 2.89432 0.996575 1.58573 2.38595L3.624 4.3057ZM6.99029 2.39103C8.25351 2.12425 9.56388 2.26028 10.7596 2.78613L11.8868 0.223048C10.1589 -0.536856 8.25219 -0.737235 6.41171 -0.348543L6.99029 2.39103ZM10.7596 2.78613C11.9565 3.31251 12.9932 4.21008 13.7286 5.37864L16.0984 3.88727C15.0757 2.26221 13.6135 0.982427 11.8868 0.223048L10.7596 2.78613ZM13.7286 5.37864C14.4645 6.54793 14.8617 7.93083 14.8617 9.35188H17.6617C17.6617 7.41308 17.1206 5.51158 16.0984 3.88727L13.7286 5.37864ZM14.8617 9.35188C14.8617 11.2594 14.1472 13.0732 12.8994 14.398L14.9377 16.3178C16.6905 14.4568 17.6617 11.9497 17.6617 9.35188H14.8617ZM12.8994 14.398C11.6543 15.72 9.98417 16.4457 8.26172 16.4457V19.2457C10.7827 19.2457 13.1822 18.1817 14.9377 16.3178L12.8994 14.398ZM8.26172 0.671442C6.60927 0.671442 5.00149 1.19214 3.64204 2.15657L5.26215 4.44026C6.158 3.80472 7.20174 3.47144 8.26172 3.47144V0.671442ZM3.64204 2.15657C2.28375 3.12018 1.23722 4.48073 0.622289 6.05694L3.23081 7.07461C3.65388 5.99017 4.36514 5.07663 5.26215 4.44026L3.64204 2.15657ZM0.622289 6.05694C0.00754789 7.63268 -0.152181 9.36221 0.160278 11.03L2.9124 10.5144C2.69569 9.35769 2.80755 8.15953 3.23081 7.07461L0.622289 6.05694ZM0.160278 11.03C0.472781 12.6981 1.24594 14.241 2.39386 15.4598L4.43212 13.54C3.66206 12.7224 3.12906 11.6709 2.9124 10.5144L0.160278 11.03ZM2.39386 15.4598C3.54262 16.6795 5.01666 17.5205 6.63467 17.8622L7.21325 15.1226C6.17095 14.9025 5.20134 14.3567 4.43212 13.54L2.39386 15.4598ZM6.63467 17.8622C8.25346 18.2041 9.93036 18.0277 11.4494 17.3597L10.3222 14.7966C9.33535 15.2306 8.25477 15.3426 7.21325 15.1226L6.63467 17.8622ZM11.4494 17.3597C12.9673 16.6921 14.251 15.5679 15.1481 14.1424L12.7783 12.651C12.1685 13.62 11.3103 14.362 10.3222 14.7966L11.4494 17.3597ZM15.1481 14.1424C16.0448 12.7176 16.5189 11.0507 16.5189 9.35188H13.7189C13.7189 10.5329 13.3886 11.6812 12.7783 12.651L15.1481 14.1424ZM16.5189 9.35188C16.5189 7.07584 15.6681 4.8774 14.1296 3.24395L12.0913 5.16371C13.1248 6.26096 13.7189 7.76613 13.7189 9.35188H16.5189ZM14.1296 3.24395C12.5884 1.60766 10.4796 0.671442 8.26172 0.671442V3.47144C9.68106 3.47144 11.0605 4.06931 12.0913 5.16371L14.1296 3.24395Z" fill="#111535" mask="url(#path-1-inside-1_5283_120940)"/>
<mask id="path-3-inside-2_5283_120940" fill="white">
<path d="M10.8857 12.9918L7.69141 9.60031V3.89124H8.83426V9.09675L11.6914 12.1363L10.8857 12.9918Z"/>
</mask>
<path d="M10.8857 12.9918L7.69141 9.60031V3.89124H8.83426V9.09675L11.6914 12.1363L10.8857 12.9918Z" fill="#898B9F"/>
<path d="M10.8857 12.9918L9.86656 13.9517L10.8857 15.0337L11.9048 13.9517L10.8857 12.9918ZM7.69141 9.60031H6.29141V10.1558L6.67227 10.5602L7.69141 9.60031ZM7.69141 3.89124V2.49124H6.29141V3.89124H7.69141ZM8.83426 3.89124H10.2343V2.49124H8.83426V3.89124ZM8.83426 9.09675H7.43426V9.65144L7.81417 10.0556L8.83426 9.09675ZM11.6914 12.1363L12.7105 13.0962L13.6137 12.1373L12.7115 11.1775L11.6914 12.1363ZM11.9048 12.0319L8.71054 8.64043L6.67227 10.5602L9.86656 13.9517L11.9048 12.0319ZM9.09141 9.60031V3.89124H6.29141V9.60031H9.09141ZM7.69141 5.29124H8.83426V2.49124H7.69141V5.29124ZM7.43426 3.89124V9.09675H10.2343V3.89124H7.43426ZM7.81417 10.0556L10.6713 13.0952L12.7115 11.1775L9.85435 8.13788L7.81417 10.0556ZM10.6723 11.1764L9.86656 12.0319L11.9048 13.9517L12.7105 13.0962L10.6723 11.1764Z" fill="#111535" mask="url(#path-3-inside-2_5283_120940)"/>
</svg>
