<svg width="185" height="46" viewBox="0 0 185 46" fill="none" xmlns="http://www.w3.org/2000/svg">
<path d="M0.333333 37.5001C0.333333 38.9728 1.52724 40.1667 3 40.1667C4.47276 40.1667 5.66667 38.9728 5.66667 37.5001C5.66667 36.0273 4.47276 34.8334 3 34.8334C1.52724 34.8334 0.333333 36.0273 0.333333 37.5001ZM184.5 7.50008L180.845 3.03119L178.802 8.43135L184.5 7.50008ZM5.07414 38.9162C5.33042 39.019 5.62155 38.8946 5.7244 38.6384C5.82725 38.3821 5.70288 38.091 5.4466 37.9881L5.07414 38.9162ZM10.0421 39.6741C9.78033 39.5863 9.49692 39.7274 9.40913 39.9892C9.32134 40.251 9.46242 40.5344 9.72423 40.6222L10.0421 39.6741ZM14.46 42.0765C14.726 42.151 15.0019 41.9958 15.0764 41.7299C15.1509 41.464 14.9957 41.1881 14.7298 41.1136L14.46 42.0765ZM19.4848 42.3249C19.2157 42.263 18.9474 42.431 18.8855 42.7001C18.8236 42.9692 18.9916 43.2375 19.2607 43.2994L19.4848 42.3249ZM24.1158 44.2984C24.3874 44.3478 24.6477 44.1676 24.6971 43.896C24.7466 43.6243 24.5664 43.364 24.2947 43.3146L24.1158 44.2984ZM29.1342 44.0793C28.8605 44.0426 28.6089 44.2347 28.5721 44.5084C28.5354 44.7821 28.7275 45.0337 29.0011 45.0705L29.1342 44.0793ZM33.9225 45.6124C34.1976 45.6361 34.4398 45.4322 34.4635 45.157C34.4871 44.8819 34.2832 44.6397 34.0081 44.6161L33.9225 45.6124ZM38.9058 44.9147C38.6298 44.9049 38.3981 45.1206 38.3883 45.3965C38.3784 45.6725 38.5941 45.9042 38.8701 45.9141L38.9058 44.9147ZM43.8196 45.9625C44.0957 45.9579 44.3158 45.7303 44.3112 45.4542C44.3066 45.1781 44.0791 44.958 43.803 44.9626L43.8196 45.9625ZM48.7005 44.7459C48.425 44.7658 48.2179 45.0053 48.2379 45.2807C48.2579 45.5561 48.4973 45.7632 48.7727 45.7433L48.7005 44.7459ZM53.7015 45.2409C53.9753 45.2047 54.1679 44.9535 54.1317 44.6797C54.0955 44.4059 53.8443 44.2133 53.5705 44.2495L53.7015 45.2409ZM58.4033 43.4569C58.1324 43.5102 57.956 43.7731 58.0093 44.0441C58.0626 44.315 58.3255 44.4914 58.5965 44.4381L58.4033 43.4569ZM63.427 43.3203C63.6937 43.249 63.8522 42.975 63.781 42.7082C63.7097 42.4414 63.4356 42.2829 63.1688 42.3542L63.427 43.3203ZM67.8497 40.9263C67.5886 41.0163 67.4498 41.3008 67.5397 41.5619C67.6297 41.823 67.9142 41.9618 68.1753 41.8718L67.8497 40.9263ZM72.8027 40.0859C73.0564 39.9769 73.1738 39.6829 73.0648 39.4292C72.9559 39.1754 72.6619 39.058 72.4081 39.167L72.8027 40.0859ZM76.8257 37.0672C76.5811 37.1953 76.4866 37.4974 76.6147 37.7421C76.7427 37.9867 77.0449 38.0812 77.2895 37.9531L76.8257 37.0672ZM81.5915 35.4821C81.8254 35.3353 81.8959 35.0267 81.7491 34.7928C81.6022 34.5589 81.2936 34.4884 81.0597 34.6352L81.5915 35.4821ZM85.0919 31.875C84.8704 32.0399 84.8245 32.3531 84.9894 32.5746C85.1543 32.7961 85.4675 32.842 85.6891 32.6771L85.0919 31.875ZM89.556 29.5543C89.7639 29.3725 89.785 29.0566 89.6032 28.8488C89.4214 28.6409 89.1055 28.6198 88.8977 28.8016L89.556 29.5543ZM92.4438 25.4501C92.2505 25.6473 92.2537 25.9639 92.4509 26.1572C92.6481 26.3505 92.9646 26.3473 93.158 26.1501L92.4438 25.4501ZM96.5298 22.5735C96.7226 22.3758 96.7186 22.0592 96.521 21.8664C96.3233 21.6736 96.0067 21.6776 95.8139 21.8753L96.5298 22.5735ZM99.3448 18.5029C99.1384 18.6864 99.1198 19.0024 99.3032 19.2088C99.4867 19.4152 99.8027 19.4338 100.009 19.2504L99.3448 18.5029ZM103.726 16.181C103.946 16.013 103.987 15.6992 103.819 15.48C103.651 15.2608 103.338 15.2192 103.118 15.3871L103.726 16.181ZM107.109 12.5567C106.878 12.7081 106.813 13.018 106.965 13.249C107.116 13.48 107.426 13.5445 107.657 13.3931L107.109 12.5567ZM111.775 10.904C112.017 10.7699 112.104 10.4655 111.97 10.2241C111.835 9.98275 111.531 9.89582 111.29 10.03L111.775 10.904ZM115.65 7.80814C115.4 7.92463 115.292 8.22203 115.408 8.4724C115.525 8.72277 115.822 8.8313 116.072 8.71482L115.65 7.80814ZM120.509 6.83658C120.767 6.73779 120.896 6.44866 120.797 6.19079C120.698 5.93293 120.409 5.80397 120.151 5.90276L120.509 6.83658ZM124.773 4.30888C124.509 4.39019 124.361 4.67003 124.442 4.93394C124.523 5.19784 124.803 5.34586 125.067 5.26455L124.773 4.30888ZM129.719 3.99399C129.988 3.92972 130.153 3.65992 130.089 3.39136C130.025 3.12279 129.755 2.95718 129.487 3.02144L129.719 3.99399ZM134.27 2.0309C133.998 2.07872 133.816 2.33795 133.864 2.60993C133.912 2.8819 134.171 3.06361 134.443 3.01579L134.27 2.0309ZM139.219 2.31882C139.493 2.28677 139.69 2.03845 139.658 1.76417C139.626 1.48989 139.377 1.29353 139.103 1.32558L139.219 2.31882ZM143.967 0.89305C143.691 0.910035 143.481 1.14724 143.498 1.42286C143.515 1.69848 143.752 1.90814 144.028 1.89116L143.967 0.89305ZM148.853 1.7208C149.129 1.71819 149.351 1.49223 149.348 1.2161C149.345 0.939969 149.119 0.718238 148.843 0.720848L148.853 1.7208ZM153.726 0.797327C153.45 0.786162 153.217 1.00078 153.206 1.2767C153.195 1.55262 153.41 1.78534 153.686 1.79651L153.726 0.797327ZM158.503 2.10821C158.778 2.13263 159.02 1.92944 159.045 1.65438C159.069 1.37932 158.866 1.13655 158.591 1.11212L158.503 2.10821ZM163.442 1.65857C163.168 1.62121 162.916 1.81272 162.879 2.08633C162.841 2.35993 163.033 2.61202 163.306 2.64937L163.442 1.65857ZM168.081 3.41592C168.353 3.46611 168.613 3.28667 168.664 3.01513C168.714 2.74358 168.534 2.48277 168.263 2.43258L168.081 3.41592ZM173.04 3.43453C172.771 3.37128 172.502 3.53791 172.438 3.80671C172.375 4.07551 172.542 4.34469 172.811 4.40794L173.04 3.43453ZM177.483 5.63424C177.748 5.71139 178.026 5.55898 178.103 5.29384C178.18 5.02869 178.028 4.7512 177.762 4.67406L177.483 5.63424ZM182.409 6.17473C182.149 6.08167 181.863 6.21699 181.77 6.47698C181.677 6.73697 181.812 7.02317 182.072 7.11623L182.409 6.17473ZM2.79768 37.9573C3.52004 38.2769 4.27965 38.5973 5.07414 38.9162L5.4466 37.9881C4.66246 37.6734 3.91359 37.3576 3.20232 37.0428L2.79768 37.9573ZM9.72423 40.6222C11.2233 41.1249 12.8053 41.6129 14.46 42.0765L14.7298 41.1136C13.0912 40.6545 11.5252 40.1714 10.0421 39.6741L9.72423 40.6222ZM19.2607 43.2994C20.8322 43.6608 22.4529 43.9961 24.1158 44.2984L24.2947 43.3146C22.6473 43.015 21.0416 42.6829 19.4848 42.3249L19.2607 43.2994ZM29.0011 45.0705C30.613 45.2868 32.2553 45.4693 33.9225 45.6124L34.0081 44.6161C32.3572 44.4744 30.7307 44.2937 29.1342 44.0793L29.0011 45.0705ZM38.8701 45.9141C40.5039 45.9725 42.1554 45.9903 43.8196 45.9625L43.803 44.9626C42.1568 44.9901 40.5228 44.9726 38.9058 44.9147L38.8701 45.9141ZM48.7727 45.7433C50.4097 45.6247 52.0542 45.4587 53.7015 45.2409L53.5705 44.2495C51.9434 44.4646 50.3185 44.6286 48.7005 44.7459L48.7727 45.7433ZM58.5965 44.4381C60.2096 44.1206 61.8212 43.7494 63.427 43.3203L63.1688 42.3542C61.5853 42.7773 59.9954 43.1436 58.4033 43.4569L58.5965 44.4381ZM68.1753 41.8718C69.7287 41.3369 71.2725 40.7428 72.8027 40.0859L72.4081 39.167C70.9013 39.8139 69.3805 40.3992 67.8497 40.9263L68.1753 41.8718ZM77.2895 37.9531C78.7414 37.1931 80.1766 36.3706 81.5915 35.4821L81.0597 34.6352C79.6673 35.5095 78.2548 36.3191 76.8257 37.0672L77.2895 37.9531ZM85.6891 32.6771C87.0011 31.7005 88.2911 30.6606 89.556 29.5543L88.8977 28.8016C87.6526 29.8905 86.383 30.9139 85.0919 31.875L85.6891 32.6771ZM93.158 26.1501C93.7352 25.5613 94.3059 24.9568 94.87 24.3364L94.13 23.6637C93.5744 24.2749 93.0122 24.8703 92.4438 25.4501L93.158 26.1501ZM94.87 24.3364C95.4174 23.7343 95.9707 23.1467 96.5298 22.5735L95.8139 21.8753C95.2467 22.4569 94.6853 23.053 94.13 23.6637L94.87 24.3364ZM100.009 19.2504C101.227 18.168 102.467 17.1457 103.726 16.181L103.118 15.3871C101.84 16.3665 100.581 17.4043 99.3448 18.5029L100.009 19.2504ZM107.657 13.3931C109.013 12.5045 110.387 11.6758 111.775 10.904L111.29 10.03C109.88 10.8134 108.485 11.6546 107.109 12.5567L107.657 13.3931ZM116.072 8.71482C117.54 8.03201 119.02 7.40703 120.509 6.83658L120.151 5.90276C118.641 6.48131 117.14 7.11531 115.65 7.80814L116.072 8.71482ZM125.067 5.26455C126.614 4.78808 128.166 4.36576 129.719 3.99399L129.487 3.02144C127.913 3.39802 126.34 3.82594 124.773 4.30888L125.067 5.26455ZM134.443 3.01579C136.039 2.73521 137.633 2.50418 139.219 2.31882L139.103 1.32558C137.498 1.5131 135.886 1.74687 134.27 2.0309L134.443 3.01579ZM144.028 1.89116C145.65 1.7912 147.26 1.73586 148.853 1.7208L148.843 0.720848C147.234 0.736065 145.606 0.79199 143.967 0.89305L144.028 1.89116ZM153.686 1.79651C155.317 1.86254 156.925 1.96812 158.503 2.10821L158.591 1.11212C156.998 0.970663 155.374 0.864025 153.726 0.797327L153.686 1.79651ZM163.306 2.64937C164.942 2.87271 166.536 3.13037 168.081 3.41592L168.263 2.43258C166.703 2.14423 165.093 1.88407 163.442 1.65857L163.306 2.64937ZM172.811 4.40794C174.445 4.79257 176.006 5.20453 177.483 5.63424L177.762 4.67406C176.269 4.23946 174.691 3.82309 173.04 3.43453L172.811 4.40794ZM0.333333 37.5001C0.333333 38.9728 1.52724 40.1667 3 40.1667C4.47276 40.1667 5.66667 38.9728 5.66667 37.5001C5.66667 36.0273 4.47276 34.8334 3 34.8334C1.52724 34.8334 0.333333 36.0273 0.333333 37.5001ZM184.5 7.50008L180.845 3.03119L178.802 8.43135L184.5 7.50008ZM5.07414 38.9162C5.33042 39.019 5.62155 38.8946 5.7244 38.6384C5.82725 38.3821 5.70288 38.091 5.4466 37.9881L5.07414 38.9162ZM10.0421 39.6741C9.78033 39.5863 9.49692 39.7274 9.40913 39.9892C9.32134 40.251 9.46242 40.5344 9.72423 40.6222L10.0421 39.6741ZM14.46 42.0765C14.726 42.151 15.0019 41.9958 15.0764 41.7299C15.1509 41.464 14.9957 41.1881 14.7298 41.1136L14.46 42.0765ZM19.4848 42.3249C19.2157 42.263 18.9474 42.431 18.8855 42.7001C18.8236 42.9692 18.9916 43.2375 19.2607 43.2994L19.4848 42.3249ZM24.1158 44.2984C24.3874 44.3478 24.6477 44.1676 24.6971 43.896C24.7466 43.6243 24.5664 43.364 24.2947 43.3146L24.1158 44.2984ZM29.1342 44.0793C28.8605 44.0426 28.6089 44.2347 28.5721 44.5084C28.5354 44.7821 28.7275 45.0337 29.0011 45.0705L29.1342 44.0793ZM33.9225 45.6124C34.1976 45.6361 34.4398 45.4322 34.4635 45.157C34.4871 44.8819 34.2832 44.6397 34.0081 44.6161L33.9225 45.6124ZM38.9058 44.9147C38.6298 44.9049 38.3981 45.1206 38.3883 45.3965C38.3784 45.6725 38.5941 45.9042 38.8701 45.9141L38.9058 44.9147ZM43.8196 45.9625C44.0957 45.9579 44.3158 45.7303 44.3112 45.4542C44.3066 45.1781 44.0791 44.958 43.803 44.9626L43.8196 45.9625ZM48.7005 44.7459C48.425 44.7658 48.2179 45.0053 48.2379 45.2807C48.2579 45.5561 48.4973 45.7632 48.7727 45.7433L48.7005 44.7459ZM53.7015 45.2409C53.9753 45.2047 54.1679 44.9535 54.1317 44.6797C54.0955 44.4059 53.8443 44.2133 53.5705 44.2495L53.7015 45.2409ZM58.4033 43.4569C58.1324 43.5102 57.956 43.7731 58.0093 44.0441C58.0626 44.315 58.3255 44.4914 58.5965 44.4381L58.4033 43.4569ZM63.427 43.3203C63.6937 43.249 63.8522 42.975 63.781 42.7082C63.7097 42.4414 63.4356 42.2829 63.1688 42.3542L63.427 43.3203ZM67.8497 40.9263C67.5886 41.0163 67.4498 41.3008 67.5397 41.5619C67.6297 41.823 67.9142 41.9618 68.1753 41.8718L67.8497 40.9263ZM72.8027 40.0859C73.0564 39.9769 73.1738 39.6829 73.0648 39.4292C72.9559 39.1754 72.6619 39.058 72.4081 39.167L72.8027 40.0859ZM76.8257 37.0672C76.5811 37.1953 76.4866 37.4974 76.6147 37.7421C76.7427 37.9867 77.0449 38.0812 77.2895 37.9531L76.8257 37.0672ZM81.5915 35.4821C81.8254 35.3353 81.8959 35.0267 81.7491 34.7928C81.6022 34.5589 81.2936 34.4884 81.0597 34.6352L81.5915 35.4821ZM85.0919 31.875C84.8704 32.0399 84.8245 32.3531 84.9894 32.5746C85.1543 32.7961 85.4675 32.842 85.6891 32.6771L85.0919 31.875ZM89.556 29.5543C89.7639 29.3725 89.785 29.0566 89.6032 28.8488C89.4214 28.6409 89.1055 28.6198 88.8977 28.8016L89.556 29.5543ZM92.4438 25.4501C92.2505 25.6473 92.2537 25.9639 92.4509 26.1572C92.6481 26.3505 92.9646 26.3473 93.158 26.1501L92.4438 25.4501ZM96.5298 22.5735C96.7226 22.3758 96.7186 22.0592 96.521 21.8664C96.3233 21.6736 96.0067 21.6776 95.8139 21.8753L96.5298 22.5735ZM99.3448 18.5029C99.1384 18.6864 99.1198 19.0024 99.3032 19.2088C99.4867 19.4152 99.8027 19.4338 100.009 19.2504L99.3448 18.5029ZM103.726 16.181C103.946 16.013 103.987 15.6992 103.819 15.48C103.651 15.2608 103.338 15.2192 103.118 15.3871L103.726 16.181ZM107.109 12.5567C106.878 12.7081 106.813 13.018 106.965 13.249C107.116 13.48 107.426 13.5445 107.657 13.3931L107.109 12.5567ZM111.775 10.904C112.017 10.7699 112.104 10.4655 111.97 10.2241C111.835 9.98275 111.531 9.89582 111.29 10.03L111.775 10.904ZM115.65 7.80814C115.4 7.92463 115.292 8.22203 115.408 8.4724C115.525 8.72277 115.822 8.8313 116.072 8.71482L115.65 7.80814ZM120.509 6.83658C120.767 6.73779 120.896 6.44866 120.797 6.19079C120.698 5.93293 120.409 5.80397 120.151 5.90276L120.509 6.83658ZM124.773 4.30888C124.509 4.39019 124.361 4.67003 124.442 4.93394C124.523 5.19784 124.803 5.34586 125.067 5.26455L124.773 4.30888ZM129.719 3.99399C129.988 3.92972 130.153 3.65992 130.089 3.39136C130.025 3.12279 129.755 2.95718 129.487 3.02144L129.719 3.99399ZM134.27 2.0309C133.998 2.07872 133.816 2.33795 133.864 2.60993C133.912 2.8819 134.171 3.06361 134.443 3.01579L134.27 2.0309ZM139.219 2.31882C139.493 2.28677 139.69 2.03845 139.658 1.76417C139.626 1.48989 139.377 1.29353 139.103 1.32558L139.219 2.31882ZM143.967 0.89305C143.691 0.910035 143.481 1.14724 143.498 1.42286C143.515 1.69848 143.752 1.90814 144.028 1.89116L143.967 0.89305ZM148.853 1.7208C149.129 1.71819 149.351 1.49223 149.348 1.2161C149.345 0.939969 149.119 0.718238 148.843 0.720848L148.853 1.7208ZM153.726 0.797327C153.45 0.786162 153.217 1.00078 153.206 1.2767C153.195 1.55262 153.41 1.78534 153.686 1.79651L153.726 0.797327ZM158.503 2.10821C158.778 2.13263 159.02 1.92944 159.045 1.65438C159.069 1.37932 158.866 1.13655 158.591 1.11212L158.503 2.10821ZM163.442 1.65857C163.168 1.62121 162.916 1.81272 162.879 2.08633C162.841 2.35993 163.033 2.61202 163.306 2.64937L163.442 1.65857ZM168.081 3.41592C168.353 3.46611 168.613 3.28667 168.664 3.01513C168.714 2.74358 168.534 2.48277 168.263 2.43258L168.081 3.41592ZM173.04 3.43453C172.771 3.37128 172.502 3.53791 172.438 3.80671C172.375 4.07551 172.542 4.34469 172.811 4.40794L173.04 3.43453ZM177.483 5.63424C177.748 5.71139 178.026 5.55898 178.103 5.29384C178.18 5.02869 178.028 4.7512 177.762 4.67406L177.483 5.63424ZM182.409 6.17473C182.149 6.08167 181.863 6.21699 181.77 6.47698C181.677 6.73697 181.812 7.02317 182.072 7.11623L182.409 6.17473ZM2.79768 37.9573C3.52004 38.2769 4.27965 38.5973 5.07414 38.9162L5.4466 37.9881C4.66246 37.6734 3.91359 37.3576 3.20232 37.0428L2.79768 37.9573ZM9.72423 40.6222C11.2233 41.1249 12.8053 41.6129 14.46 42.0765L14.7298 41.1136C13.0912 40.6545 11.5252 40.1714 10.0421 39.6741L9.72423 40.6222ZM19.2607 43.2994C20.8322 43.6608 22.4529 43.9961 24.1158 44.2984L24.2947 43.3146C22.6473 43.015 21.0416 42.6829 19.4848 42.3249L19.2607 43.2994ZM29.0011 45.0705C30.613 45.2868 32.2553 45.4693 33.9225 45.6124L34.0081 44.6161C32.3572 44.4744 30.7307 44.2937 29.1342 44.0793L29.0011 45.0705ZM38.8701 45.9141C40.5039 45.9725 42.1554 45.9903 43.8196 45.9625L43.803 44.9626C42.1568 44.9901 40.5228 44.9726 38.9058 44.9147L38.8701 45.9141ZM48.7727 45.7433C50.4097 45.6247 52.0542 45.4587 53.7015 45.2409L53.5705 44.2495C51.9434 44.4646 50.3185 44.6286 48.7005 44.7459L48.7727 45.7433ZM58.5965 44.4381C60.2096 44.1206 61.8212 43.7494 63.427 43.3203L63.1688 42.3542C61.5853 42.7773 59.9954 43.1436 58.4033 43.4569L58.5965 44.4381ZM68.1753 41.8718C69.7287 41.3369 71.2725 40.7428 72.8027 40.0859L72.4081 39.167C70.9013 39.8139 69.3805 40.3992 67.8497 40.9263L68.1753 41.8718ZM77.2895 37.9531C78.7414 37.1931 80.1766 36.3706 81.5915 35.4821L81.0597 34.6352C79.6673 35.5095 78.2548 36.3191 76.8257 37.0672L77.2895 37.9531ZM85.6891 32.6771C87.0011 31.7005 88.2911 30.6606 89.556 29.5543L88.8977 28.8016C87.6526 29.8905 86.383 30.9139 85.0919 31.875L85.6891 32.6771ZM93.158 26.1501C93.7352 25.5613 94.3059 24.9568 94.87 24.3364L94.13 23.6637C93.5744 24.2749 93.0122 24.8703 92.4438 25.4501L93.158 26.1501ZM94.87 24.3364C95.4174 23.7343 95.9707 23.1467 96.5298 22.5735L95.8139 21.8753C95.2467 22.4569 94.6853 23.053 94.13 23.6637L94.87 24.3364ZM100.009 19.2504C101.227 18.168 102.467 17.1457 103.726 16.181L103.118 15.3871C101.84 16.3665 100.581 17.4043 99.3448 18.5029L100.009 19.2504ZM107.657 13.3931C109.013 12.5045 110.387 11.6758 111.775 10.904L111.29 10.03C109.88 10.8134 108.485 11.6546 107.109 12.5567L107.657 13.3931ZM116.072 8.71482C117.54 8.03201 119.02 7.40703 120.509 6.83658L120.151 5.90276C118.641 6.48131 117.14 7.11531 115.65 7.80814L116.072 8.71482ZM125.067 5.26455C126.614 4.78808 128.166 4.36576 129.719 3.99399L129.487 3.02144C127.913 3.39802 126.34 3.82594 124.773 4.30888L125.067 5.26455ZM134.443 3.01579C136.039 2.73521 137.633 2.50418 139.219 2.31882L139.103 1.32558C137.498 1.5131 135.886 1.74687 134.27 2.0309L134.443 3.01579ZM144.028 1.89116C145.65 1.7912 147.26 1.73586 148.853 1.7208L148.843 0.720848C147.234 0.736065 145.606 0.79199 143.967 0.89305L144.028 1.89116ZM153.686 1.79651C155.317 1.86254 156.925 1.96812 158.503 2.10821L158.591 1.11212C156.998 0.970663 155.374 0.864025 153.726 0.797327L153.686 1.79651ZM163.306 2.64937C164.942 2.87271 166.536 3.13037 168.081 3.41592L168.263 2.43258C166.703 2.14423 165.093 1.88407 163.442 1.65857L163.306 2.64937ZM172.811 4.40794C174.445 4.79257 176.006 5.20453 177.483 5.63424L177.762 4.67406C176.269 4.23946 174.691 3.82309 173.04 3.43453L172.811 4.40794Z" fill="#AF2245"/>
</svg>
