<svg width="16" height="21" viewBox="0 0 16 21" fill="none" xmlns="http://www.w3.org/2000/svg">
<path d="M2.72 14.659C2.97461 14.5848 3.24829 14.6147 3.48083 14.7422C3.71338 14.8698 3.88574 15.0844 3.96 15.339C4.03426 15.5937 4.00434 15.8673 3.87681 16.0999C3.74929 16.3324 3.53461 16.5048 3.28 16.579C2.78 16.725 2.42 16.879 2.189 17.019C2.427 17.162 2.803 17.322 3.325 17.471C4.48 17.801 6.133 18.019 8 18.019C9.867 18.019 11.52 17.801 12.675 17.471C13.198 17.322 13.573 17.162 13.811 17.019C13.581 16.879 13.221 16.725 12.721 16.579C12.4704 16.5015 12.2603 16.3286 12.136 16.0976C12.0117 15.8666 11.9831 15.596 12.0564 15.3442C12.1298 15.0923 12.2991 14.8794 12.528 14.7512C12.7569 14.623 13.0269 14.5899 13.28 14.659C13.948 14.854 14.56 15.104 15.03 15.425C15.465 15.724 16 16.245 16 17.019C16 17.802 15.452 18.327 15.01 18.626C14.532 18.948 13.907 19.199 13.224 19.394C11.846 19.789 10 20.019 8 20.019C6 20.019 4.154 19.789 2.776 19.394C2.093 19.199 1.468 18.948 0.99 18.626C0.548 18.326 0 17.802 0 17.019C0 16.245 0.535 15.724 0.97 15.425C1.44 15.104 2.052 14.854 2.72 14.659ZM8 0.019043C9.98912 0.019043 11.8968 0.809219 13.3033 2.21574C14.7098 3.62226 15.5 5.52992 15.5 7.51904C15.5 10.087 14.1 12.175 12.65 13.659C12.0736 14.243 11.4542 14.7828 10.797 15.274C10.203 15.72 8.845 16.556 8.845 16.556C8.58744 16.7024 8.29626 16.7794 8 16.7794C7.70374 16.7794 7.41256 16.7024 7.155 16.556C6.48077 16.1657 5.82907 15.7377 5.203 15.274C4.54554 14.7831 3.92611 14.2433 3.35 13.659C1.9 12.175 0.5 10.087 0.5 7.51904C0.5 5.52992 1.29018 3.62226 2.6967 2.21574C4.10322 0.809219 6.01088 0.019043 8 0.019043ZM8 2.01904C6.54131 2.01904 5.14236 2.59851 4.11091 3.62996C3.07946 4.66141 2.5 6.06035 2.5 7.51904C2.5 9.33504 3.496 10.947 4.78 12.259C5.746 13.247 6.81 13.999 7.547 14.461L8 14.735L8.453 14.461C9.189 13.999 10.254 13.247 11.22 12.26C12.504 10.947 13.5 9.33604 13.5 7.51904C13.5 6.06035 12.9205 4.66141 11.8891 3.62996C10.8576 2.59851 9.45869 2.01904 8 2.01904ZM8 4.51904C8.39397 4.51904 8.78407 4.59664 9.14805 4.7474C9.51203 4.89817 9.84274 5.11915 10.1213 5.39772C10.3999 5.6763 10.6209 6.00702 10.7716 6.37099C10.9224 6.73497 11 7.12508 11 7.51904C11 7.91301 10.9224 8.30312 10.7716 8.66709C10.6209 9.03107 10.3999 9.36179 10.1213 9.64036C9.84274 9.91894 9.51203 10.1399 9.14805 10.2907C8.78407 10.4414 8.39397 10.519 8 10.519C7.20435 10.519 6.44129 10.203 5.87868 9.64036C5.31607 9.07775 5 8.31469 5 7.51904C5 6.72339 5.31607 5.96033 5.87868 5.39772C6.44129 4.83511 7.20435 4.51904 8 4.51904ZM8 6.51904C7.73478 6.51904 7.48043 6.6244 7.29289 6.81194C7.10536 6.99947 7 7.25383 7 7.51904C7 7.78426 7.10536 8.03861 7.29289 8.22615C7.48043 8.41369 7.73478 8.51904 8 8.51904C8.26522 8.51904 8.51957 8.41369 8.70711 8.22615C8.89464 8.03861 9 7.78426 9 7.51904C9 7.25383 8.89464 6.99947 8.70711 6.81194C8.51957 6.6244 8.26522 6.51904 8 6.51904Z" fill="#AF2245"/>
</svg>
