<svg width="63" height="85" viewBox="0 0 63 85" fill="none" xmlns="http://www.w3.org/2000/svg">
<path d="M20.5703 11.908C20.5778 14.0251 21.1927 15.9964 22.2477 17.6613H17.5938C16.1662 17.6613 15.0078 18.8196 15.0078 20.2472C15.0078 21.6748 16.1662 22.8332 17.5938 22.8332H45.4062C46.8338 22.8332 47.9922 21.6748 47.9922 20.2472C47.9922 18.8196 46.8338 17.6613 45.4062 17.6613H40.7528C41.8038 16.0084 42.4222 14.0315 42.4297 11.9108V11.909C42.4297 5.87309 37.5363 0.976562 31.5 0.976562C25.4639 0.976562 20.5703 5.87014 20.5703 11.9062L20.5703 11.908ZM35.6719 63.9039H36.1719V63.4039V52.7344H46.8414H47.3414V52.2344V43.8906V43.3906H46.8414H36.1719V32.7267V32.2267H35.6719H27.3281H26.8281V32.7267V43.3906H16.1642H15.6642V43.8906V52.2344V52.7344H16.1642H26.8281V63.4039V63.9039H27.3281H35.6719ZM59.3125 12.1016H53.75C52.3224 12.1016 51.1641 13.2599 51.1641 14.6875C51.1641 16.1151 52.3224 17.2734 53.75 17.2734H56.7266V78.8516H6.27344V17.2734H9.25C10.6776 17.2734 11.8359 16.1151 11.8359 14.6875C11.8359 13.2599 10.6776 12.1016 9.25 12.1016H3.6875C2.25992 12.1016 1.10156 13.2599 1.10156 14.6875V81.4375C1.10156 82.8651 2.25992 84.0234 3.6875 84.0234H59.3125C60.7401 84.0234 61.8984 82.8651 61.8984 81.4375V14.6875C61.8984 13.2599 60.7401 12.1016 59.3125 12.1016ZM25.7422 11.9054C25.7426 8.72457 28.3196 6.14566 31.5 6.14566C34.681 6.14566 37.2578 8.72252 37.2578 11.9035C37.2578 15.0842 34.6814 17.6608 31.5008 17.6613C28.3219 17.6562 25.7473 15.0813 25.7422 11.9054Z" fill="#AF2245" stroke="#AF2245"/>
</svg>
