<svg width="185" height="46" viewBox="0 0 185 46" fill="none" xmlns="http://www.w3.org/2000/svg">
<path d="M0.333333 9.19181C0.333333 7.71906 1.52724 6.52515 3 6.52515C4.47276 6.52515 5.66667 7.71906 5.66667 9.19181C5.66667 10.6646 4.47276 11.8585 3 11.8585C1.52724 11.8585 0.333333 10.6646 0.333333 9.19181ZM184.5 39.1918L180.845 43.6607L178.802 38.2605L184.5 39.1918ZM5.07414 7.77574C5.33042 7.67289 5.62155 7.79726 5.7244 8.05354C5.82725 8.30981 5.70288 8.60094 5.4466 8.70379L5.07414 7.77574ZM10.0421 7.01779C9.78033 7.10558 9.49692 6.9645 9.40913 6.70269C9.32134 6.44087 9.46242 6.15746 9.72423 6.06967L10.0421 7.01779ZM14.46 4.61541C14.726 4.54091 15.0019 4.69608 15.0764 4.96199C15.1509 5.22789 14.9957 5.50384 14.7298 5.57833L14.46 4.61541ZM19.4848 4.36703C19.2157 4.42892 18.9474 4.26092 18.8855 3.99181C18.8236 3.72269 18.9916 3.45435 19.2607 3.39247L19.4848 4.36703ZM24.1158 2.39346C24.3874 2.34406 24.6477 2.52425 24.6971 2.79594C24.7466 3.06763 24.5664 3.32792 24.2947 3.37732L24.1158 2.39346ZM29.1342 2.61255C28.8605 2.64928 28.6089 2.4572 28.5721 2.18351C28.5354 1.90982 28.7275 1.65818 29.0011 1.62144L29.1342 2.61255ZM33.9225 1.07946C34.1976 1.05584 34.4398 1.25973 34.4635 1.53486C34.4871 1.80999 34.2832 2.05217 34.0081 2.0758L33.9225 1.07946ZM38.9058 1.77716C38.6298 1.78703 38.3981 1.57132 38.3883 1.29535C38.3784 1.01939 38.5941 0.787666 38.8701 0.777798L38.9058 1.77716ZM43.8196 0.729408C44.0957 0.734016 44.3158 0.961578 44.3112 1.23768C44.3066 1.51379 44.0791 1.73388 43.803 1.72927L43.8196 0.729408ZM48.7005 1.94601C48.425 1.92606 48.2179 1.68661 48.2379 1.41119C48.2579 1.13577 48.4973 0.928669 48.7727 0.948624L48.7005 1.94601ZM53.7015 1.45098C53.9753 1.48717 54.1679 1.73843 54.1317 2.01219C54.0955 2.28595 53.8443 2.47855 53.5705 2.44236L53.7015 1.45098ZM58.4033 3.23498C58.1324 3.18165 57.956 2.91877 58.0093 2.64783C58.0626 2.37688 58.3255 2.20047 58.5965 2.2538L58.4033 3.23498ZM63.427 3.3716C63.6937 3.44288 63.8522 3.71693 63.781 3.98372C63.7097 4.2505 63.4356 4.40899 63.1688 4.3377L63.427 3.3716ZM67.8497 5.76555C67.5886 5.67564 67.4498 5.39109 67.5397 5.12999C67.6297 4.8689 67.9142 4.73013 68.1753 4.82005L67.8497 5.76555ZM72.8027 6.60603C73.0564 6.71497 73.1738 7.00899 73.0648 7.26273C72.9559 7.51648 72.6619 7.63386 72.4081 7.52492L72.8027 6.60603ZM76.8257 9.6247C76.5811 9.49663 76.4866 9.19448 76.6147 8.94983C76.7427 8.70519 77.0449 8.61068 77.2895 8.73876L76.8257 9.6247ZM81.5915 11.2098C81.8254 11.3566 81.8959 11.6652 81.7491 11.8991C81.6022 12.133 81.2936 12.2035 81.0597 12.0567L81.5915 11.2098ZM85.0919 14.8169C84.8704 14.652 84.8245 14.3388 84.9894 14.1173C85.1543 13.8958 85.4675 13.8499 85.6891 14.0148L85.0919 14.8169ZM89.556 17.1376C89.7639 17.3194 89.785 17.6353 89.6032 17.8431C89.4214 18.051 89.1055 18.0721 88.8977 17.8903L89.556 17.1376ZM92.4438 21.2418C92.2505 21.0446 92.2537 20.728 92.4509 20.5347C92.6481 20.3414 92.9646 20.3446 93.158 20.5418L92.4438 21.2418ZM96.5298 24.1184C96.7226 24.3161 96.7186 24.6327 96.521 24.8255C96.3233 25.0183 96.0067 25.0143 95.8139 24.8166L96.5298 24.1184ZM99.3448 28.189C99.1384 28.0055 99.1198 27.6895 99.3032 27.4831C99.4867 27.2767 99.8027 27.2581 100.009 27.4415L99.3448 28.189ZM103.726 30.5109C103.946 30.6789 103.987 30.9927 103.819 31.2119C103.651 31.4311 103.338 31.4727 103.118 31.3048L103.726 30.5109ZM107.109 34.1352C106.878 33.9838 106.813 33.6739 106.965 33.4429C107.116 33.2119 107.426 33.1474 107.657 33.2988L107.109 34.1352ZM111.775 35.7878C112.017 35.922 112.104 36.2264 111.97 36.4678C111.835 36.7091 111.531 36.7961 111.29 36.6619L111.775 35.7878ZM115.65 38.8838C115.4 38.7673 115.292 38.4699 115.408 38.2195C115.525 37.9691 115.822 37.8606 116.072 37.9771L115.65 38.8838ZM120.509 39.8553C120.767 39.9541 120.896 40.2432 120.797 40.5011C120.698 40.759 120.409 40.8879 120.151 40.7891L120.509 39.8553ZM124.773 42.383C124.509 42.3017 124.361 42.0219 124.442 41.758C124.523 41.4941 124.803 41.346 125.067 41.4273L124.773 42.383ZM129.719 42.6979C129.988 42.7622 130.153 43.032 130.089 43.3005C130.025 43.5691 129.755 43.7347 129.487 43.6705L129.719 42.6979ZM134.27 44.661C133.998 44.6132 133.816 44.3539 133.864 44.082C133.912 43.81 134.171 43.6283 134.443 43.6761L134.27 44.661ZM139.219 44.3731C139.493 44.4051 139.69 44.6534 139.658 44.9277C139.626 45.202 139.377 45.3984 139.103 45.3663L139.219 44.3731ZM143.967 45.7988C143.691 45.7819 143.481 45.5447 143.498 45.269C143.515 44.9934 143.752 44.7838 144.028 44.8007L143.967 45.7988ZM148.853 44.9711C149.129 44.9737 149.351 45.1997 149.348 45.4758C149.345 45.7519 149.119 45.9737 148.843 45.971L148.853 44.9711ZM153.726 45.8946C153.45 45.9057 153.217 45.6911 153.206 45.4152C153.195 45.1393 153.41 44.9066 153.686 44.8954L153.726 45.8946ZM158.503 44.5837C158.778 44.5593 159.02 44.7624 159.045 45.0375C159.069 45.3126 158.866 45.5553 158.591 45.5798L158.503 44.5837ZM163.442 45.0333C163.168 45.0707 162.916 44.8792 162.879 44.6056C162.841 44.332 163.033 44.0799 163.306 44.0425L163.442 45.0333ZM168.081 43.276C168.353 43.2258 168.613 43.4052 168.664 43.6768C168.714 43.9483 168.534 44.2091 168.263 44.2593L168.081 43.276ZM173.04 43.2574C172.771 43.3206 172.502 43.154 172.438 42.8852C172.375 42.6164 172.542 42.3472 172.811 42.284L173.04 43.2574ZM177.483 41.0577C177.748 40.9805 178.026 41.1329 178.103 41.3981C178.18 41.6632 178.028 41.9407 177.762 42.0178L177.483 41.0577ZM182.409 40.5172C182.149 40.6102 181.863 40.4749 181.77 40.2149C181.677 39.9549 181.812 39.6687 182.072 39.5757L182.409 40.5172ZM2.79768 8.73458C3.52004 8.41495 4.27965 8.0946 5.07414 7.77574L5.4466 8.70379C4.66246 9.01849 3.91359 9.33433 3.20232 9.64905L2.79768 8.73458ZM9.72423 6.06967C11.2233 5.56702 12.8053 5.07899 14.46 4.61541L14.7298 5.57833C13.0912 6.03742 11.5252 6.52052 10.0421 7.01779L9.72423 6.06967ZM19.2607 3.39247C20.8322 3.03109 22.4529 2.69583 24.1158 2.39346L24.2947 3.37732C22.6473 3.67688 21.0416 4.00903 19.4848 4.36703L19.2607 3.39247ZM29.0011 1.62144C30.613 1.40507 32.2553 1.2226 33.9225 1.07946L34.0081 2.0758C32.3572 2.21753 30.7307 2.39823 29.1342 2.61255L29.0011 1.62144ZM38.8701 0.777798C40.5039 0.719353 42.1554 0.701637 43.8196 0.729408L43.803 1.72927C42.1568 1.7018 40.5228 1.71931 38.9058 1.77716L38.8701 0.777798ZM48.7727 0.948624C50.4097 1.06723 52.0542 1.23322 53.7015 1.45098L53.5705 2.44236C51.9434 2.22728 50.3185 2.06325 48.7005 1.94601L48.7727 0.948624ZM58.5965 2.2538C60.2096 2.57132 61.8212 2.94254 63.427 3.3716L63.1688 4.3377C61.5853 3.91459 59.9954 3.54834 58.4033 3.23498L58.5965 2.2538ZM68.1753 4.82005C69.7287 5.35503 71.2725 5.94908 72.8027 6.60603L72.4081 7.52492C70.9013 6.87795 69.3805 6.29273 67.8497 5.76555L68.1753 4.82005ZM77.2895 8.73876C78.7414 9.49879 80.1766 10.3213 81.5915 11.2098L81.0597 12.0567C79.6673 11.1823 78.2548 10.3728 76.8257 9.6247L77.2895 8.73876ZM85.6891 14.0148C87.0011 14.9914 88.2911 16.0313 89.556 17.1376L88.8977 17.8903C87.6526 16.8014 86.383 15.778 85.0919 14.8169L85.6891 14.0148ZM93.158 20.5418C93.7352 21.1306 94.3059 21.735 94.87 22.3555L94.13 23.0282C93.5744 22.417 93.0122 21.8216 92.4438 21.2418L93.158 20.5418ZM94.87 22.3555C95.4174 22.9576 95.9707 23.5452 96.5298 24.1184L95.8139 24.8166C95.2467 24.235 94.6853 23.6389 94.13 23.0282L94.87 22.3555ZM100.009 27.4415C101.227 28.5239 102.467 29.5462 103.726 30.5109L103.118 31.3048C101.84 30.3254 100.581 29.2876 99.3448 28.189L100.009 27.4415ZM107.657 33.2988C109.013 34.1874 110.387 35.0161 111.775 35.7878L111.29 36.6619C109.88 35.8785 108.485 35.0373 107.109 34.1352L107.657 33.2988ZM116.072 37.9771C117.54 38.6599 119.02 39.2849 120.509 39.8553L120.151 40.7891C118.641 40.2106 117.14 39.5766 115.65 38.8838L116.072 37.9771ZM125.067 41.4273C126.614 41.9038 128.166 42.3261 129.719 42.6979L129.487 43.6705C127.913 43.2939 126.34 42.866 124.773 42.383L125.067 41.4273ZM134.443 43.6761C136.039 43.9567 137.633 44.1877 139.219 44.3731L139.103 45.3663C137.498 45.1788 135.886 44.945 134.27 44.661L134.443 43.6761ZM144.028 44.8007C145.65 44.9007 147.26 44.956 148.853 44.9711L148.843 45.971C147.234 45.9558 145.606 45.8999 143.967 45.7988L144.028 44.8007ZM153.686 44.8954C155.317 44.8294 156.925 44.7238 158.503 44.5837L158.591 45.5798C156.998 45.7212 155.374 45.8279 153.726 45.8946L153.686 44.8954ZM163.306 44.0425C164.942 43.8192 166.536 43.5615 168.081 43.276L168.263 44.2593C166.703 44.5477 165.093 44.8078 163.442 45.0333L163.306 44.0425ZM172.811 42.284C174.445 41.8993 176.006 41.4874 177.483 41.0577L177.762 42.0178C176.269 42.4524 174.691 42.8688 173.04 43.2574L172.811 42.284ZM0.333333 9.19181C0.333333 7.71906 1.52724 6.52515 3 6.52515C4.47276 6.52515 5.66667 7.71906 5.66667 9.19181C5.66667 10.6646 4.47276 11.8585 3 11.8585C1.52724 11.8585 0.333333 10.6646 0.333333 9.19181ZM184.5 39.1918L180.845 43.6607L178.802 38.2605L184.5 39.1918ZM5.07414 7.77574C5.33042 7.67289 5.62155 7.79726 5.7244 8.05354C5.82725 8.30981 5.70288 8.60094 5.4466 8.70379L5.07414 7.77574ZM10.0421 7.01779C9.78033 7.10558 9.49692 6.9645 9.40913 6.70269C9.32134 6.44087 9.46242 6.15746 9.72423 6.06967L10.0421 7.01779ZM14.46 4.61541C14.726 4.54091 15.0019 4.69608 15.0764 4.96199C15.1509 5.22789 14.9957 5.50384 14.7298 5.57833L14.46 4.61541ZM19.4848 4.36703C19.2157 4.42892 18.9474 4.26092 18.8855 3.99181C18.8236 3.72269 18.9916 3.45435 19.2607 3.39247L19.4848 4.36703ZM24.1158 2.39346C24.3874 2.34406 24.6477 2.52425 24.6971 2.79594C24.7466 3.06763 24.5664 3.32792 24.2947 3.37732L24.1158 2.39346ZM29.1342 2.61255C28.8605 2.64928 28.6089 2.4572 28.5721 2.18351C28.5354 1.90982 28.7275 1.65818 29.0011 1.62144L29.1342 2.61255ZM33.9225 1.07946C34.1976 1.05584 34.4398 1.25973 34.4635 1.53486C34.4871 1.80999 34.2832 2.05217 34.0081 2.0758L33.9225 1.07946ZM38.9058 1.77716C38.6298 1.78703 38.3981 1.57132 38.3883 1.29535C38.3784 1.01939 38.5941 0.787666 38.8701 0.777798L38.9058 1.77716ZM43.8196 0.729408C44.0957 0.734016 44.3158 0.961578 44.3112 1.23768C44.3066 1.51379 44.0791 1.73388 43.803 1.72927L43.8196 0.729408ZM48.7005 1.94601C48.425 1.92606 48.2179 1.68661 48.2379 1.41119C48.2579 1.13577 48.4973 0.928669 48.7727 0.948624L48.7005 1.94601ZM53.7015 1.45098C53.9753 1.48717 54.1679 1.73843 54.1317 2.01219C54.0955 2.28595 53.8443 2.47855 53.5705 2.44236L53.7015 1.45098ZM58.4033 3.23498C58.1324 3.18165 57.956 2.91877 58.0093 2.64783C58.0626 2.37688 58.3255 2.20047 58.5965 2.2538L58.4033 3.23498ZM63.427 3.3716C63.6937 3.44288 63.8522 3.71693 63.781 3.98372C63.7097 4.2505 63.4356 4.40899 63.1688 4.3377L63.427 3.3716ZM67.8497 5.76555C67.5886 5.67564 67.4498 5.39109 67.5397 5.12999C67.6297 4.8689 67.9142 4.73013 68.1753 4.82005L67.8497 5.76555ZM72.8027 6.60603C73.0564 6.71497 73.1738 7.00899 73.0648 7.26273C72.9559 7.51648 72.6619 7.63386 72.4081 7.52492L72.8027 6.60603ZM76.8257 9.6247C76.5811 9.49663 76.4866 9.19448 76.6147 8.94983C76.7427 8.70519 77.0449 8.61068 77.2895 8.73876L76.8257 9.6247ZM81.5915 11.2098C81.8254 11.3566 81.8959 11.6652 81.7491 11.8991C81.6022 12.133 81.2936 12.2035 81.0597 12.0567L81.5915 11.2098ZM85.0919 14.8169C84.8704 14.652 84.8245 14.3388 84.9894 14.1173C85.1543 13.8958 85.4675 13.8499 85.6891 14.0148L85.0919 14.8169ZM89.556 17.1376C89.7639 17.3194 89.785 17.6353 89.6032 17.8431C89.4214 18.051 89.1055 18.0721 88.8977 17.8903L89.556 17.1376ZM92.4438 21.2418C92.2505 21.0446 92.2537 20.728 92.4509 20.5347C92.6481 20.3414 92.9646 20.3446 93.158 20.5418L92.4438 21.2418ZM96.5298 24.1184C96.7226 24.3161 96.7186 24.6327 96.521 24.8255C96.3233 25.0183 96.0067 25.0143 95.8139 24.8166L96.5298 24.1184ZM99.3448 28.189C99.1384 28.0055 99.1198 27.6895 99.3032 27.4831C99.4867 27.2767 99.8027 27.2581 100.009 27.4415L99.3448 28.189ZM103.726 30.5109C103.946 30.6789 103.987 30.9927 103.819 31.2119C103.651 31.4311 103.338 31.4727 103.118 31.3048L103.726 30.5109ZM107.109 34.1352C106.878 33.9838 106.813 33.6739 106.965 33.4429C107.116 33.2119 107.426 33.1474 107.657 33.2988L107.109 34.1352ZM111.775 35.7878C112.017 35.922 112.104 36.2264 111.97 36.4678C111.835 36.7091 111.531 36.7961 111.29 36.6619L111.775 35.7878ZM115.65 38.8838C115.4 38.7673 115.292 38.4699 115.408 38.2195C115.525 37.9691 115.822 37.8606 116.072 37.9771L115.65 38.8838ZM120.509 39.8553C120.767 39.9541 120.896 40.2432 120.797 40.5011C120.698 40.759 120.409 40.8879 120.151 40.7891L120.509 39.8553ZM124.773 42.383C124.509 42.3017 124.361 42.0219 124.442 41.758C124.523 41.4941 124.803 41.346 125.067 41.4273L124.773 42.383ZM129.719 42.6979C129.988 42.7622 130.153 43.032 130.089 43.3005C130.025 43.5691 129.755 43.7347 129.487 43.6705L129.719 42.6979ZM134.27 44.661C133.998 44.6132 133.816 44.3539 133.864 44.082C133.912 43.81 134.171 43.6283 134.443 43.6761L134.27 44.661ZM139.219 44.3731C139.493 44.4051 139.69 44.6534 139.658 44.9277C139.626 45.202 139.377 45.3984 139.103 45.3663L139.219 44.3731ZM143.967 45.7988C143.691 45.7819 143.481 45.5447 143.498 45.269C143.515 44.9934 143.752 44.7838 144.028 44.8007L143.967 45.7988ZM148.853 44.9711C149.129 44.9737 149.351 45.1997 149.348 45.4758C149.345 45.7519 149.119 45.9737 148.843 45.971L148.853 44.9711ZM153.726 45.8946C153.45 45.9057 153.217 45.6911 153.206 45.4152C153.195 45.1393 153.41 44.9066 153.686 44.8954L153.726 45.8946ZM158.503 44.5837C158.778 44.5593 159.02 44.7624 159.045 45.0375C159.069 45.3126 158.866 45.5553 158.591 45.5798L158.503 44.5837ZM163.442 45.0333C163.168 45.0707 162.916 44.8792 162.879 44.6056C162.841 44.332 163.033 44.0799 163.306 44.0425L163.442 45.0333ZM168.081 43.276C168.353 43.2258 168.613 43.4052 168.664 43.6768C168.714 43.9483 168.534 44.2091 168.263 44.2593L168.081 43.276ZM173.04 43.2574C172.771 43.3206 172.502 43.154 172.438 42.8852C172.375 42.6164 172.542 42.3472 172.811 42.284L173.04 43.2574ZM177.483 41.0577C177.748 40.9805 178.026 41.1329 178.103 41.3981C178.18 41.6632 178.028 41.9407 177.762 42.0178L177.483 41.0577ZM182.409 40.5172C182.149 40.6102 181.863 40.4749 181.77 40.2149C181.677 39.9549 181.812 39.6687 182.072 39.5757L182.409 40.5172ZM2.79768 8.73458C3.52004 8.41495 4.27965 8.0946 5.07414 7.77574L5.4466 8.70379C4.66246 9.01849 3.91359 9.33433 3.20232 9.64905L2.79768 8.73458ZM9.72423 6.06967C11.2233 5.56702 12.8053 5.07899 14.46 4.61541L14.7298 5.57833C13.0912 6.03742 11.5252 6.52052 10.0421 7.01779L9.72423 6.06967ZM19.2607 3.39247C20.8322 3.03109 22.4529 2.69583 24.1158 2.39346L24.2947 3.37732C22.6473 3.67688 21.0416 4.00903 19.4848 4.36703L19.2607 3.39247ZM29.0011 1.62144C30.613 1.40507 32.2553 1.2226 33.9225 1.07946L34.0081 2.0758C32.3572 2.21753 30.7307 2.39823 29.1342 2.61255L29.0011 1.62144ZM38.8701 0.777798C40.5039 0.719353 42.1554 0.701637 43.8196 0.729408L43.803 1.72927C42.1568 1.7018 40.5228 1.71931 38.9058 1.77716L38.8701 0.777798ZM48.7727 0.948624C50.4097 1.06723 52.0542 1.23322 53.7015 1.45098L53.5705 2.44236C51.9434 2.22728 50.3185 2.06325 48.7005 1.94601L48.7727 0.948624ZM58.5965 2.2538C60.2096 2.57132 61.8212 2.94254 63.427 3.3716L63.1688 4.3377C61.5853 3.91459 59.9954 3.54834 58.4033 3.23498L58.5965 2.2538ZM68.1753 4.82005C69.7287 5.35503 71.2725 5.94908 72.8027 6.60603L72.4081 7.52492C70.9013 6.87795 69.3805 6.29273 67.8497 5.76555L68.1753 4.82005ZM77.2895 8.73876C78.7414 9.49879 80.1766 10.3213 81.5915 11.2098L81.0597 12.0567C79.6673 11.1823 78.2548 10.3728 76.8257 9.6247L77.2895 8.73876ZM85.6891 14.0148C87.0011 14.9914 88.2911 16.0313 89.556 17.1376L88.8977 17.8903C87.6526 16.8014 86.383 15.778 85.0919 14.8169L85.6891 14.0148ZM93.158 20.5418C93.7352 21.1306 94.3059 21.735 94.87 22.3555L94.13 23.0282C93.5744 22.417 93.0122 21.8216 92.4438 21.2418L93.158 20.5418ZM94.87 22.3555C95.4174 22.9576 95.9707 23.5452 96.5298 24.1184L95.8139 24.8166C95.2467 24.235 94.6853 23.6389 94.13 23.0282L94.87 22.3555ZM100.009 27.4415C101.227 28.5239 102.467 29.5462 103.726 30.5109L103.118 31.3048C101.84 30.3254 100.581 29.2876 99.3448 28.189L100.009 27.4415ZM107.657 33.2988C109.013 34.1874 110.387 35.0161 111.775 35.7878L111.29 36.6619C109.88 35.8785 108.485 35.0373 107.109 34.1352L107.657 33.2988ZM116.072 37.9771C117.54 38.6599 119.02 39.2849 120.509 39.8553L120.151 40.7891C118.641 40.2106 117.14 39.5766 115.65 38.8838L116.072 37.9771ZM125.067 41.4273C126.614 41.9038 128.166 42.3261 129.719 42.6979L129.487 43.6705C127.913 43.2939 126.34 42.866 124.773 42.383L125.067 41.4273ZM134.443 43.6761C136.039 43.9567 137.633 44.1877 139.219 44.3731L139.103 45.3663C137.498 45.1788 135.886 44.945 134.27 44.661L134.443 43.6761ZM144.028 44.8007C145.65 44.9007 147.26 44.956 148.853 44.9711L148.843 45.971C147.234 45.9558 145.606 45.8999 143.967 45.7988L144.028 44.8007ZM153.686 44.8954C155.317 44.8294 156.925 44.7238 158.503 44.5837L158.591 45.5798C156.998 45.7212 155.374 45.8279 153.726 45.8946L153.686 44.8954ZM163.306 44.0425C164.942 43.8192 166.536 43.5615 168.081 43.276L168.263 44.2593C166.703 44.5477 165.093 44.8078 163.442 45.0333L163.306 44.0425ZM172.811 42.284C174.445 41.8993 176.006 41.4874 177.483 41.0577L177.762 42.0178C176.269 42.4524 174.691 42.8688 173.04 43.2574L172.811 42.284Z" fill="#AF2245"/>
</svg>
