<svg width="20" height="18" viewBox="0 0 20 18" fill="none" xmlns="http://www.w3.org/2000/svg">
<path d="M12.25 1H7.75C4.56802 1 2.97703 1 1.98851 2.00421C1 3.00841 1 4.62465 1 7.8571V10.1429C1 13.3753 1 14.9916 1.98851 15.9958C2.97703 17 4.56802 17 7.75 17H12.25C15.432 17 17.023 17 18.0115 15.9958C19 14.9916 19 13.3753 19 10.1429V7.8571C19 4.62465 19 3.00841 18.0115 2.00421C17.023 1 15.432 1 12.25 1Z" stroke="#111535" stroke-width="1.55556"/>
<path d="M5 5H8" stroke="#111535" stroke-width="1.55556" stroke-linecap="round"/>
<path d="M17 13H15C14.0572 13 13.5858 13 13.2929 12.7071C13 12.4142 13 11.9428 13 11C13 10.0572 13 9.5858 13.2929 9.2929C13.5858 9 14.0572 9 15 9H17C17.9428 9 18.4142 9 18.7071 9.2929C19 9.5858 19 10.0572 19 11C19 11.9428 19 12.4142 18.7071 12.7071C18.4142 13 17.9428 13 17 13Z" stroke="#111535" stroke-width="1.55556"/>
</svg>
