<svg width="226" height="172" viewBox="0 0 226 172" fill="none" xmlns="http://www.w3.org/2000/svg">
<path d="M224.374 172H16.913C16.6446 172 16.3871 171.893 16.1973 171.704C16.0074 171.514 15.9008 171.256 15.9008 170.988C15.9008 170.719 16.0074 170.462 16.1973 170.272C16.3871 170.082 16.6446 169.976 16.913 169.976H224.374C224.643 169.976 224.9 170.082 225.09 170.272C225.28 170.462 225.386 170.719 225.386 170.988C225.386 171.256 225.28 171.514 225.09 171.704C224.9 171.893 224.643 172 224.374 172Z" fill="#602D8A"/>
<path d="M61.0903 152.236C61.0903 151.331 61.1412 150.426 61.1638 149.521C61.2317 147.15 61.2977 144.777 61.3618 142.401C61.4523 139.008 61.5446 135.615 61.6389 132.222L61.9612 120.471C62.0668 116.513 62.1761 112.554 62.2892 108.596C62.3834 105.025 62.4815 101.455 62.5833 97.8849L62.8038 89.9056C62.8377 88.5936 62.8736 87.2854 62.9113 85.981C62.9196 85.8907 62.9196 85.7998 62.9113 85.7096C62.9113 85.7378 62.8434 86.0602 62.9113 85.8C62.9269 85.7066 62.9476 85.6141 62.9735 85.5229C62.9735 85.5229 62.8321 85.8509 62.9452 85.6078C62.9848 85.5229 63.0244 85.4381 63.0696 85.3589C63.1657 85.161 63.0413 85.4551 63.0187 85.4325C63.0604 85.3716 63.1078 85.3148 63.1601 85.2628C63.3297 85.0366 63.1601 85.3137 63.1261 85.2628C63.0922 85.2119 63.3015 85.1327 63.3297 85.1158C63.0752 85.178 63.5503 84.9461 63.3297 85.1158L63.4881 85.0649C63.2166 85.0649 63.7425 84.9688 63.4881 85.0649H63.6012C64.1271 85.0649 64.6587 85.0649 65.1846 85.0649H82.7831C84.4344 85.0649 86.08 85.0366 87.7256 85.0649C87.8083 85.056 87.8917 85.056 87.9744 85.0649C87.9744 85.0649 87.6577 84.9801 87.8953 85.0649L88.0932 85.1271L88.2063 85.1723C88.3307 85.2289 88.3081 85.2176 88.1384 85.1384C88.2589 85.2086 88.3725 85.29 88.4777 85.3816C88.4777 85.3816 88.2459 85.1327 88.4155 85.325C88.4721 85.3929 88.5343 85.4551 88.5852 85.5229L88.6926 85.6643L88.5965 85.5173C88.6304 85.5682 88.6587 85.6247 88.687 85.6756L88.7661 85.8453C88.8159 85.9982 88.8519 86.1553 88.8736 86.3147V86.1224C88.8736 86.1902 88.8736 86.2581 88.8736 86.326V86.4447C88.8736 86.8689 88.9075 87.2873 88.9188 87.7058L89.1394 93.6888C89.2525 96.8368 89.3675 99.9848 89.4843 103.133C89.6276 106.944 89.7671 110.76 89.9028 114.579L90.3439 126.545L90.7511 137.708L91.0734 146.484C91.1356 148.181 91.1978 149.877 91.2544 151.534C91.2544 151.755 91.2544 151.975 91.2544 152.196C91.2826 152.959 91.8199 153.7 92.4702 153.666C92.8222 153.624 93.1443 153.447 93.3696 153.173C93.5949 152.9 93.7062 152.55 93.6804 152.196C93.6465 151.274 93.6182 150.352 93.5842 149.436C93.4938 147.016 93.4052 144.596 93.3185 142.175C93.1903 138.741 93.064 135.31 92.9396 131.883C92.7925 127.921 92.6474 123.962 92.5041 120.007C92.3609 116.053 92.2157 112.081 92.0687 108.092L91.6785 97.4947C91.588 94.9197 91.4938 92.3486 91.3957 89.7812C91.3562 88.6502 91.3222 87.5192 91.2713 86.3882C91.1752 84.0187 89.6483 82.1638 87.6691 82.1299H68.4362C66.8189 82.1299 65.2016 82.096 63.5842 82.1299C62.2157 82.1638 61.0112 83.227 60.6096 84.8217C60.5266 85.1816 60.483 85.5495 60.4796 85.9188L60.4457 87.1968C60.3891 89.21 60.3325 91.2289 60.2817 93.2421C60.1912 96.4127 60.1045 99.5833 60.0215 102.754L59.6992 114.318C59.5936 118.334 59.4843 122.351 59.3712 126.369C59.2694 130.113 59.1657 133.859 59.0602 137.606C58.981 140.558 58.8999 143.512 58.817 146.467L58.6813 151.557C58.6813 151.777 58.6813 151.998 58.6813 152.224C58.6813 152.993 59.2468 153.728 59.8971 153.695C60.249 153.651 60.5708 153.474 60.7968 153.201C61.0228 152.927 61.1359 152.578 61.1129 152.224L61.0903 152.236Z" fill="#602D8A"/>
<path d="M178.647 152.236C178.647 151.331 178.698 150.426 178.721 149.521C178.789 147.15 178.855 144.777 178.919 142.401C179.009 139.008 179.102 135.615 179.196 132.222L179.518 120.471C179.624 116.513 179.733 112.554 179.846 108.596C179.944 105.025 180.042 101.455 180.14 97.8849C180.212 95.227 180.284 92.5673 180.355 89.9056C180.397 88.5936 180.433 87.2854 180.463 85.981C180.474 85.8908 180.474 85.7997 180.463 85.7096C180.463 85.7378 180.395 86.0602 180.463 85.8C180.478 85.7066 180.499 85.6141 180.525 85.5229C180.525 85.5229 180.378 85.8509 180.525 85.6078L180.644 85.3589C180.74 85.161 180.644 85.4551 180.598 85.4325C180.64 85.3729 180.685 85.3163 180.734 85.2628C180.909 85.0366 180.734 85.3137 180.706 85.2628C180.678 85.2119 180.881 85.1327 180.909 85.1158C180.655 85.178 181.124 84.9461 180.909 85.1158L181.068 85.0649C180.796 85.0649 181.322 84.9688 181.068 85.0649H181.181C181.707 85.0649 182.233 85.0649 182.759 85.0649H200.363C202.008 85.0649 203.66 85.0366 205.305 85.0649C205.388 85.0562 205.471 85.0562 205.554 85.0649C205.554 85.0649 205.237 84.9801 205.475 85.0649L205.667 85.1271L205.786 85.1723L205.712 85.1384C205.834 85.2072 205.948 85.2887 206.052 85.3816C206.052 85.3816 205.826 85.1327 205.995 85.325L206.165 85.5229C206.202 85.5679 206.236 85.6151 206.267 85.6643L206.176 85.5173C206.204 85.5682 206.238 85.6247 206.261 85.6756L206.346 85.8453C206.396 85.9982 206.432 86.1553 206.453 86.3146V86.1224C206.453 86.1902 206.453 86.2581 206.453 86.326C206.456 86.3598 206.456 86.3939 206.453 86.4278C206.453 86.8519 206.482 87.2703 206.499 87.6888L206.719 93.6719C206.832 96.8198 206.947 99.9678 207.064 103.116C207.207 106.927 207.347 110.743 207.483 114.562L207.924 126.528L208.331 137.691L208.653 146.467C208.715 148.164 208.772 149.86 208.834 151.517C208.834 151.738 208.834 151.958 208.862 152.179C208.891 152.942 209.4 153.683 210.073 153.649C210.426 153.608 210.749 153.432 210.976 153.158C211.202 152.884 211.314 152.534 211.288 152.179L211.187 149.419C211.104 146.999 211.015 144.579 210.921 142.158L210.548 131.866C210.401 127.904 210.255 123.945 210.112 119.99C209.969 116.036 209.824 112.064 209.677 108.075L209.286 97.4777C209.192 94.9028 209.098 92.3316 209.004 89.7642C208.964 88.6332 208.925 87.5022 208.879 86.3712C208.783 84.0017 207.251 82.1469 205.271 82.113H185.988C184.37 82.113 182.753 82.079 181.136 82.113C179.761 82.1469 178.563 83.21 178.161 84.8048C178.078 85.1646 178.034 85.5325 178.031 85.9018L177.997 87.1799C177.941 89.1931 177.884 91.2119 177.833 93.2251C177.743 96.3957 177.654 99.5663 177.567 102.737C177.466 106.594 177.36 110.449 177.251 114.301C177.145 118.317 177.036 122.334 176.923 126.352C176.817 130.096 176.713 133.842 176.612 137.589C176.532 140.541 176.451 143.495 176.368 146.45C176.323 148.147 176.278 149.843 176.227 151.54V152.207C176.227 152.976 176.793 153.712 177.443 153.678C177.795 153.634 178.117 153.457 178.343 153.184C178.569 152.91 178.682 152.561 178.659 152.207L178.647 152.236Z" fill="#602D8A"/>
<path d="M210.966 79.6304H57.8782C57.0911 79.6304 56.4531 80.2684 56.4531 81.0554V81.4004C56.4531 82.1874 57.0911 82.8255 57.8782 82.8255H210.966C211.753 82.8255 212.391 82.1874 212.391 81.4004V81.0554C212.391 80.2684 211.753 79.6304 210.966 79.6304Z" fill="#602D8A"/>
<path d="M153.143 70.0338H140.25V79.6304H153.143V70.0338Z" fill="#38191C"/>
<path d="M176.668 27.9037H118.308C116.581 27.9037 115.181 29.3038 115.181 31.0309V66.9066C115.181 68.6337 116.581 70.0338 118.308 70.0338H176.668C178.395 70.0338 179.795 68.6337 179.795 66.9066V31.0309C179.795 29.3038 178.395 27.9037 176.668 27.9037Z" fill="#38191C"/>
<path d="M119.371 28.9046H175.922C176.543 28.9046 177.138 29.1513 177.577 29.5903C178.016 30.0294 178.263 30.6249 178.263 31.2458V62.1337H116.725V31.5512C116.725 30.8493 117.003 30.1761 117.5 29.6798C117.996 29.1834 118.669 28.9046 119.371 28.9046Z" fill="white"/>
<path d="M134.702 43.6926C146.244 38.2863 158.453 34.2712 170.04 28.9046H119.513C118.781 28.9046 118.079 29.1954 117.561 29.7129C117.044 30.2304 116.753 30.9324 116.753 31.6643V51.7849C122.762 49.1761 128.745 46.4786 134.702 43.6926Z" fill="#FCF5ED"/>
<path d="M178.257 47.8547V31.4268C164.877 38.3316 150.299 42.8386 136.676 49.2402C130.078 52.3467 123.428 55.3212 116.725 58.1638V62.1224H136.195C150.163 57.2138 164.131 52.2939 178.257 47.8547Z" fill="#FCF5ED"/>
<path d="M148.766 65.521C148.767 65.774 148.693 66.0217 148.554 66.2326C148.414 66.4435 148.215 66.6082 147.981 66.7058C147.748 66.8034 147.491 66.8295 147.242 66.7809C146.994 66.7322 146.766 66.6109 146.586 66.4324C146.407 66.2539 146.285 66.0262 146.235 65.7781C146.185 65.53 146.21 65.2728 146.307 65.0389C146.403 64.805 146.567 64.6051 146.778 64.4644C146.988 64.3237 147.235 64.2486 147.488 64.2486C147.656 64.2479 147.822 64.2803 147.977 64.3439C148.132 64.4075 148.273 64.5011 148.392 64.6193C148.51 64.7375 148.604 64.8781 148.669 65.0328C148.733 65.1875 148.766 65.3535 148.766 65.521Z" fill="#D9E0F2"/>
<path d="M157.639 78.4937H135.697C135.547 78.4937 135.404 78.5533 135.297 78.6593C135.191 78.7654 135.132 78.9092 135.132 79.0592C135.132 79.2092 135.191 79.353 135.297 79.4591C135.404 79.5651 135.547 79.6247 135.697 79.6247H157.639C157.789 79.6247 157.933 79.5651 158.039 79.4591C158.145 79.353 158.204 79.2092 158.204 79.0592C158.204 78.9092 158.145 78.7654 158.039 78.6593C157.933 78.5533 157.789 78.4937 157.639 78.4937Z" fill="#38191C"/>
<path d="M81.522 77.9056C81.4202 77.5041 81.3127 77.1083 81.2109 76.7068C80.9319 75.6248 80.653 74.5409 80.374 73.4551C79.9668 71.8604 79.554 70.26 79.1412 68.6653L77.6652 62.818L75.9687 56.4221C75.4107 54.2619 74.8547 52.0998 74.3005 49.9358C73.7802 47.9226 73.2618 45.9094 72.7453 43.8962C72.3042 42.1997 71.8669 40.5031 71.4333 38.8066C71.1167 37.5908 70.8056 36.3693 70.4889 35.1478C70.3419 34.5823 70.2062 33.9885 70.0422 33.4117V33.3382C70.0066 33.2212 69.9268 33.1227 69.8196 33.0637C69.7125 33.0047 69.5866 32.9898 69.4687 33.0222C69.3508 33.0547 69.2502 33.1318 69.1883 33.2373C69.1264 33.3428 69.1082 33.4683 69.1374 33.587L69.4428 34.7859C69.7255 35.8679 70.0045 36.9518 70.2797 38.0375L71.5182 42.8274C72.0158 44.7802 72.5172 46.7294 73.0224 48.6747L74.668 55.0705L76.3363 61.5569L77.8971 67.6191C78.3344 69.3156 78.7717 71.0121 79.209 72.7086C79.5201 73.9245 79.8367 75.146 80.1478 76.3675C80.3005 76.933 80.4362 77.4985 80.5945 78.1036C80.5921 78.128 80.5921 78.1526 80.5945 78.1771C80.6301 78.2941 80.71 78.3926 80.8171 78.4516C80.9242 78.5106 81.0501 78.5255 81.168 78.493C81.2859 78.4606 81.3866 78.3834 81.4484 78.278C81.5103 78.1725 81.5286 78.047 81.4993 77.9282L81.522 77.9056Z" fill="#602D8A"/>
<path d="M68.6172 43.5908L69.1827 42.833L70.7378 40.7745L72.9998 37.7265L75.8273 33.9998C76.8528 32.6464 77.8745 31.291 78.8924 29.9338L81.9857 25.8282L84.8811 21.9885L87.3127 18.7538L89.0658 16.4296C89.3429 16.062 89.6313 15.7001 89.8971 15.3268L89.931 15.2759C89.9933 15.1693 90.0109 15.0424 89.9802 14.9227C89.9495 14.8031 89.8729 14.7004 89.767 14.6369C89.6585 14.5763 89.5307 14.5602 89.4105 14.5918C89.2903 14.6234 89.187 14.7004 89.1224 14.8066C88.9301 15.0554 88.7378 15.3099 88.5569 15.5643L87.0017 17.6228L84.7397 20.6822L81.9122 24.4088L78.8471 28.4805L75.7764 32.5578C74.8151 33.8414 73.8481 35.1195 72.8811 36.4032L70.4494 39.6379L68.6963 41.9621C68.4192 42.3297 68.1308 42.6859 67.865 43.0931L67.8311 43.1384C67.7686 43.2459 67.7508 43.3736 67.7814 43.4942C67.8121 43.6147 67.8888 43.7184 67.9951 43.783C68.1036 43.8436 68.2314 43.8597 68.3516 43.8281C68.4718 43.7965 68.5751 43.7195 68.6398 43.6134L68.6172 43.5908Z" fill="#602D8A"/>
<path d="M72.5021 39.6662C72.5021 39.9413 72.4205 40.2103 72.2677 40.439C72.1148 40.6678 71.8976 40.8461 71.6434 40.9514C71.3892 41.0567 71.1095 41.0843 70.8396 41.0306C70.5697 40.9769 70.3219 40.8444 70.1273 40.6498C69.9328 40.4553 69.8003 40.2074 69.7466 39.9376C69.6929 39.6677 69.7204 39.388 69.8257 39.1338C69.931 38.8796 70.1093 38.6623 70.3381 38.5095C70.5669 38.3566 70.8359 38.275 71.111 38.275C71.4795 38.2765 71.8325 38.4236 72.093 38.6841C72.3536 38.9447 72.5006 39.2977 72.5021 39.6662Z" fill="#602D8A"/>
<path d="M87.6294 76.7859H73.0677C71.6991 76.7859 70.5908 78.0583 70.5908 79.6134H90.1063C90.1063 78.0583 89.0036 76.7859 87.6294 76.7859Z" fill="#602D8A"/>
<path d="M100.359 25.3419C102.464 25.3419 104.17 23.6354 104.17 21.5304C104.17 19.4253 102.464 17.7189 100.359 17.7189C98.2539 17.7189 96.5475 19.4253 96.5475 21.5304C96.5475 23.6354 98.2539 25.3419 100.359 25.3419Z" fill="#F6CB75"/>
<path d="M97.1016 19.5512C96.8092 20.0388 96.6298 20.5856 96.5765 21.1517C96.5232 21.7177 96.5974 22.2884 96.7936 22.822C96.9898 23.3556 97.3031 23.8385 97.7104 24.2351C98.1177 24.6317 98.6087 24.9321 99.1473 25.114C99.6859 25.296 100.258 25.355 100.823 25.2867C101.387 25.2184 101.929 25.0245 102.409 24.7193C102.888 24.4141 103.294 24.0053 103.595 23.5229C103.895 23.0406 104.085 22.4969 104.148 21.932C101.49 22.5823 98.6398 22.0733 97.1016 19.5512Z" fill="#EEBD66"/>
<path d="M92.9339 16.5313C92.8128 16.6798 92.6637 16.8031 92.495 16.894C92.3263 16.9849 92.1414 17.0417 91.9508 17.0611C91.7602 17.0805 91.5676 17.0622 91.3841 17.0072C91.2005 16.9522 91.0296 16.8616 90.8811 16.7405L88.9753 15.1967C88.6758 14.9522 88.4851 14.5992 88.4449 14.2146C88.4046 13.8301 88.518 13.4452 88.7604 13.1439C88.8815 12.9954 89.0306 12.8722 89.1993 12.7813C89.3679 12.6904 89.5529 12.6336 89.7435 12.6142C89.9341 12.5947 90.1267 12.613 90.3102 12.668C90.4938 12.723 90.6647 12.8136 90.8132 12.9347L92.7077 14.4785C93.0089 14.7214 93.2017 15.0736 93.2441 15.4583C93.2865 15.8429 93.175 16.2287 92.9339 16.5313Z" fill="#602D8A"/>
<path d="M89.4447 17.1025L92.7189 12.9291L106.331 14.0884L94.9414 29.0912L89.4447 17.1025Z" fill="#602D8A"/>
<path d="M90.0441 16.3843L89.4786 17.1194L94.9753 29.1081L100.896 21.2476C96.8359 20.7952 92.4419 18.4201 90.0441 16.3843Z" fill="#602D8A"/>
<path d="M47.6482 45.7001C46.9134 40.6576 47.625 35.5102 49.7002 30.8563C51.7755 26.2023 55.129 22.233 59.3711 19.4097C58.6354 24.2399 57.4541 28.9915 55.8424 33.6039C54.1459 38.1788 51.1034 42.2505 47.6482 45.7001Z" fill="#602D8A"/>
<path d="M36.9489 114.324C36.6944 108.743 36.7114 103.144 37.0111 97.5625C37.3108 91.981 37.8876 86.4277 38.7076 80.9084C39.5276 75.3891 40.6869 69.898 42.1006 64.5088C43.5144 59.1195 45.1261 53.7981 47.0262 48.5728C48.9473 43.2956 51.133 38.1185 53.5747 33.061C53.8744 32.439 54.1798 31.8113 54.4908 31.1892C54.7057 30.7651 54.0667 30.3919 53.8575 30.816C51.3692 35.8113 49.1261 40.9272 47.128 46.1638C45.1298 51.4004 43.3994 56.7425 41.9366 62.1902C40.4701 67.6153 39.275 73.1026 38.3513 78.652C37.4277 84.2015 36.7773 89.7831 36.4003 95.3966C36.0253 101.004 35.9328 106.626 36.1232 112.243C36.1232 112.939 36.1741 113.634 36.2024 114.324C36.2024 114.799 36.9658 114.799 36.9432 114.324H36.9489Z" fill="#602D8A"/>
<path d="M36.864 97.8736C36.1259 89.2809 34.8873 80.7385 33.1543 72.2901C31.4123 63.7891 29.1728 55.3977 26.4474 47.1591C24.9206 42.5333 23.2391 37.964 21.4031 33.4512C21.2278 33.0158 20.5153 33.2024 20.6906 33.6435C23.9323 41.6318 26.7061 49.8021 28.9979 58.1129C31.2857 66.4235 33.0889 74.86 34.3984 83.3797C35.1524 88.1902 35.7292 93.0215 36.1289 97.8736C36.1685 98.3429 36.9093 98.3486 36.864 97.8736Z" fill="#602D8A"/>
<path d="M36.8697 113.199C37.2611 104.455 40.1258 96.0013 45.1311 88.8208C50.1363 81.6403 57.0764 76.0277 65.1449 72.6351C62.1873 80.4786 58.964 88.2713 54.6096 95.4362C50.2552 102.601 43.8367 108.494 36.898 113.199" fill="#602D8A"/>
<path d="M35.422 112.905C29.8146 109.801 25.2692 105.084 22.3752 99.3657C19.4812 93.6473 18.3722 87.1912 19.192 80.8349C24.536 84.375 28.6359 89.5946 31.4182 95.3684C34.2005 101.142 35.7047 107.459 36.5078 113.815" fill="#602D8A"/>
<path d="M28.4663 81.9885C27.7464 80.3897 27.5232 78.6114 27.8257 76.8842C28.1282 75.157 28.9424 73.5605 30.1628 72.3014C30.7216 73.9749 30.8212 75.7677 30.4513 77.4928C30.0804 79.2107 29.4329 80.857 28.5342 82.3674" fill="#602D8A"/>
<path d="M23.0771 76.0564C20.3599 76.2656 17.6426 75.6547 15.2764 74.3027C12.9102 72.9508 11.0042 70.92 9.80466 68.473C12.5471 68.5307 15.2241 69.3215 17.5577 70.7633C19.8718 72.2013 21.9381 74.004 23.6765 76.1017" fill="#602D8A"/>
<path d="M40.8 67.308C43.3674 62.0375 46.5738 56.9706 50.9791 53.1308C55.3843 49.2911 61.1921 46.7746 67.0394 47.1535C60.3488 56.2017 51.2483 63.1858 40.7773 67.308" fill="#602D8A"/>
<path d="M37.8367 80.8349C39.0388 78.1494 40.7698 75.7338 42.9263 73.7322C45.1487 71.8095 48.0441 70.5484 50.9734 70.735C47.6223 75.2681 43.0644 78.7679 37.8198 80.8349" fill="#602D8A"/>
<path d="M34.6416 36.4032C35.2246 44.3608 36.5864 52.2421 38.7076 59.9339C39.307 62.1054 39.9743 64.26 40.6925 66.3976C40.8452 66.85 41.5577 66.6577 41.405 66.2053C38.8611 58.6816 37.0673 50.9247 36.0497 43.0479C35.767 40.8424 35.5445 38.6276 35.3824 36.4032C35.3485 35.9339 34.6077 35.9339 34.6416 36.4032Z" fill="#602D8A"/>
<path d="M35.292 87.8415C28.4934 82.29 22.9891 75.3209 19.1638 67.4211C18.0776 65.1926 17.1333 62.8977 16.3362 60.5502C16.1836 60.1035 15.471 60.2958 15.6237 60.7482C19.2713 71.5716 25.9007 81.1453 34.7491 88.3674C35.111 88.6615 35.6369 88.1412 35.2693 87.8415H35.292Z" fill="#602D8A"/>
<path d="M17.9932 66.2109C14.2707 63.6002 11.418 59.9317 9.80475 55.6808C8.1915 51.4298 7.89201 46.7924 8.94509 42.3693C12.4107 45.354 15.0136 49.2125 16.4833 53.5436C17.9373 57.8587 18.6803 62.3814 18.6831 66.9348" fill="#602D8A"/>
<path d="M26.0403 49.0592C22.3178 46.4484 19.4651 42.7799 17.8519 38.529C16.2386 34.2781 15.9391 29.6406 16.9922 25.2175C20.4497 28.2025 23.0448 32.059 24.5078 36.3862C25.9641 40.7028 26.709 45.2274 26.7132 49.783" fill="#602D8A"/>
<path d="M31.1412 65.7133C30.4098 60.6705 31.1235 55.5237 33.1995 50.8702C35.2755 46.2167 38.6286 42.2474 42.8698 39.423C42.0385 44.2354 41.0432 49.0366 39.3354 53.6172C37.6275 58.1977 34.5964 62.2637 31.1412 65.7133Z" fill="#602D8A"/>
<path d="M35.6086 42.3692C33.9996 39.9084 32.9032 37.1484 32.3852 34.2542C31.9611 31.3475 32.4588 28.226 34.2005 25.8622C36.209 31.1294 36.6969 36.8551 35.6086 42.3862" fill="#602D8A"/>
<path d="M44.9677 134.009H28.0026L26.4701 113.634H46.455L44.9677 134.009Z" fill="#602D8A"/>
<path d="M180.887 158.252C180.765 159.512 180.765 160.781 180.887 162.041C180.913 162.655 181.075 163.256 181.362 163.8C181.911 164.516 182.658 165.054 183.511 165.35C185.518 166.26 187.52 167.759 189.522 168.675C190.353 169.048 191.219 168.85 191.875 169.461C191.947 169.513 192.003 169.586 192.033 169.67C192.112 169.93 191.778 170.111 191.513 170.168C188.838 170.733 186.09 169.913 183.364 169.704C180.972 169.523 178.551 169.823 176.165 169.563C175.8 169.553 175.445 169.446 175.136 169.252C174.965 169.094 174.827 168.903 174.73 168.692C174.633 168.48 174.578 168.251 174.57 168.019C174.429 166.82 174.819 165.632 174.994 164.439C175.17 162.702 175.124 160.95 174.859 159.225L174.248 152.761L181.413 151.523L180.887 158.252Z" fill="#F59074"/>
<path d="M167.524 29.5436C168.178 30.816 168.355 32.2805 168.022 33.6718C167.687 35.051 167.09 36.3528 166.263 37.506C168.943 39.0158 171.918 39.6605 175.073 37.4042C174.369 36.2541 173.921 34.9661 173.758 33.6275C173.595 32.2889 173.721 30.9308 174.129 29.6454" fill="#F59074"/>
<g opacity="0.43">
<path d="M171.007 32.9876C171.98 33.1176 173.1 33.0837 173.688 32.6992C173.704 31.6666 173.852 30.6403 174.129 29.6454L167.524 29.5436C167.769 30.0889 167.958 30.6572 168.089 31.2402C168.798 32.18 169.845 32.8068 171.007 32.9876Z" fill="#602D8A"/>
</g>
<path d="M164.091 122.513C164.827 122.892 165.33 123.186 166.037 123.078C166.729 122.913 167.446 122.877 168.152 122.971C169.351 123.282 169.984 124.667 169.978 125.894C169.973 127.122 169.515 128.32 169.311 129.542C169.179 130.478 169.124 131.424 169.147 132.369C169.147 134.405 169.147 136.441 169.147 138.477C169.19 139.675 169.082 140.874 168.825 142.045C168.757 142.305 168.548 142.611 168.293 142.532C168.18 142.462 168.098 142.353 168.061 142.226C166.975 139.614 165.884 136.973 165.449 134.179C165.188 132.483 165.132 130.712 164.176 129.321C163.468 128.418 162.588 127.665 161.586 127.105L152.312 121.947L156.423 116.812L164.091 122.513Z" fill="#F59074"/>
<path d="M182.498 68.7897C182.498 68.7897 186.248 77.2723 187.153 86.507C188.057 95.7417 183.669 153.802 183.669 153.802C183.669 153.802 175.237 155.346 172.195 153.893L167.773 90.4768L145.401 101.549C145.401 101.549 156.994 114.946 159.675 118.328L155.586 125.951C155.586 125.951 137.818 115.059 130.138 104.23C128.838 102.398 128.142 99.3722 129.454 97.5513C132.966 92.654 140.889 81.6549 161.637 68.7897" fill="url(#paint0_linear_1172_1323)"/>
<path d="M166.551 91.0536C160.489 91.7944 154.761 92.5861 148.851 94.3844C145.034 95.5437 139.492 97.1837 141.607 102.149C145.09 110.315 154.693 114.81 156.875 123.531L159.669 118.328C156.989 114.935 145.396 101.549 145.396 101.549L166.551 91.0536Z" fill="url(#paint1_linear_1172_1323)"/>
<path d="M184.342 73.1667C183.324 70.4975 182.499 68.7897 182.499 68.7897H161.631C159.143 70.3335 156.949 71.8208 154.783 73.3137C164.674 74.2242 174.779 76.4184 184.342 73.1667Z" fill="#230A0E"/>
<path d="M176.73 146.959C174.587 141.576 174.994 135.084 174.197 129.429C172.636 118.356 170.046 107.47 168.191 96.4485L172.195 153.87C175.237 155.323 183.669 153.779 183.669 153.779C183.669 153.779 183.669 153.581 183.72 153.214C180.728 151.936 178.048 150.268 176.73 146.959Z" fill="url(#paint2_linear_1172_1323)"/>
<path d="M169.871 14.4107C168.889 14.6047 167.96 15.0083 167.148 15.5938C166.336 16.1794 165.66 16.9331 165.166 17.8037C164.188 19.5633 163.746 21.5701 163.893 23.5775C164.052 26.5917 165.364 29.6907 167.903 31.325C169.049 32.109 170.446 32.4395 171.822 32.2524C173.196 31.9374 174.429 31.1781 175.328 30.0922C176.429 28.8501 177.238 27.3781 177.698 25.7835C178.158 24.1889 178.256 22.5118 177.986 20.8744C177.7 19.0011 176.808 17.2731 175.447 15.9545C174.764 15.3052 173.942 14.8221 173.042 14.5425C172.143 14.263 171.191 14.1947 170.261 14.3428" fill="#F59074"/>
<path d="M177.533 24.211C177.589 23.7776 177.792 23.3765 178.108 23.0749C178.424 22.7733 178.834 22.5894 179.27 22.554C179.442 22.5333 179.617 22.5567 179.778 22.6219C179.94 22.6872 180.082 22.7922 180.191 22.9273C180.291 23.089 180.346 23.2745 180.35 23.4645C180.324 24.392 179.97 25.2802 179.349 25.9697C179.203 26.1772 179.009 26.346 178.783 26.4617C178.576 26.5343 178.351 26.5377 178.142 26.4714C177.933 26.4051 177.751 26.2727 177.624 26.0941C177.379 25.7259 177.271 25.2838 177.319 24.8443" fill="#F59074"/>
<path d="M164.787 23.6567C164.738 23.2621 164.554 22.8965 164.266 22.6215C163.979 22.3465 163.606 22.1788 163.209 22.1468C163.051 22.1258 162.89 22.1454 162.742 22.2038C162.593 22.2622 162.462 22.3574 162.361 22.4805C162.272 22.6297 162.224 22.7991 162.22 22.9725C162.247 23.8113 162.571 24.6132 163.136 25.2345C163.259 25.421 163.426 25.5744 163.622 25.6812C163.811 25.7489 164.016 25.7528 164.207 25.6926C164.398 25.6323 164.564 25.5111 164.679 25.3476C164.904 25.0158 165.005 24.6151 164.962 24.2166" fill="#F59074"/>
<path d="M168.146 23.3004C167.759 23.4913 167.313 23.5274 166.9 23.4013C166.487 23.2752 166.138 22.9965 165.924 22.6218C165.827 22.4352 165.539 22.6218 165.641 22.7915C165.9 23.2412 166.322 23.5742 166.82 23.7215C167.318 23.8689 167.853 23.8193 168.316 23.5832C168.502 23.4814 168.316 23.1986 168.146 23.3004Z" fill="#602D8A"/>
<path d="M173.631 23.2326C174.019 23.4235 174.464 23.4596 174.877 23.3335C175.29 23.2075 175.639 22.9287 175.854 22.554C175.956 22.3674 176.238 22.554 176.137 22.718C175.879 23.1683 175.459 23.5024 174.962 23.6508C174.465 23.7993 173.93 23.7508 173.467 23.5154C173.281 23.4136 173.467 23.1308 173.631 23.2326Z" fill="#602D8A"/>
<path d="M170.578 22.8367C170.628 23.3264 170.57 23.8212 170.406 24.2856C170.243 24.75 169.979 25.1725 169.633 25.5229C169.61 25.5471 169.597 25.5796 169.597 25.6134C169.597 25.6471 169.61 25.6796 169.633 25.7038C169.81 25.9039 170.025 26.0657 170.266 26.1795C170.507 26.2933 170.769 26.3566 171.036 26.3655C171.065 26.3593 171.091 26.3433 171.11 26.3201C171.129 26.297 171.139 26.268 171.139 26.2382C171.139 26.2084 171.129 26.1795 171.11 26.1564C171.091 26.1332 171.065 26.1172 171.036 26.111C170.804 26.1051 170.577 26.0518 170.366 25.9546C170.156 25.8573 169.968 25.7181 169.814 25.5455V25.7265C170.184 25.3527 170.467 24.902 170.643 24.4064C170.819 23.9109 170.883 23.3827 170.832 22.8594C170.832 22.701 170.561 22.6954 170.578 22.8594V22.8367Z" fill="#602D8A"/>
<path d="M170.335 28.5992C170.826 28.7216 171.343 28.69 171.816 28.5087C172.048 28.4409 172.257 28.226 172.218 28.1072C172.178 27.9885 172.059 27.9828 171.912 28.0111C171.357 28.1412 170.784 28.1794 170.216 28.1242C170.074 28.1242 169.843 28.0507 169.809 28.1864C169.775 28.3221 169.809 28.3561 170.057 28.4918L170.335 28.5992Z" fill="#602D8A"/>
<path opacity="0.24" d="M168.01 26.439C167.886 27.0045 167.111 27.2703 166.274 27.078C165.437 26.8857 164.86 26.292 164.985 25.7491C165.109 25.2062 165.89 24.9178 166.727 25.11C167.564 25.3023 168.146 25.8961 168.01 26.439Z" fill="#602D8A"/>
<path opacity="0.24" d="M176.951 25.7717C177.058 26.3372 176.465 26.9027 175.622 27.061C174.779 27.2194 174.01 26.9197 173.925 26.3711C173.841 25.8226 174.412 25.2401 175.254 25.0818C176.097 24.9234 176.843 25.2458 176.951 25.7717Z" fill="#602D8A"/>
<path d="M172.67 21.0272C172.67 21.0272 174.367 20.3655 175.356 20.6483C175.835 20.7391 176.279 20.9602 176.64 21.2873C176.135 21.1787 175.617 21.1445 175.102 21.1855C174.706 21.3043 172.953 21.6719 172.727 21.5135C172.5 21.3552 172.534 21.2081 172.67 21.0272Z" fill="#400E09"/>
<path d="M169.039 21.0272C169.039 21.0272 167.343 20.3655 166.359 20.6483C165.88 20.7391 165.436 20.9602 165.075 21.2873C165.58 21.1787 166.098 21.1445 166.613 21.1855C167.009 21.3043 168.762 21.6719 168.983 21.5135C169.203 21.3552 169.186 21.2081 169.039 21.0272Z" fill="#400E09"/>
<path d="M169.662 13.2967C169.004 13.2941 168.355 13.1396 167.767 12.8454C167.178 12.5511 166.665 12.125 166.269 11.6002C165.539 10.5087 165.635 8.83485 166.687 8.04314C166.947 7.84522 167.253 7.7095 167.496 7.47764C167.903 7.00011 168.24 6.46694 168.497 5.89422C169.13 4.88763 170.493 4.26557 171.567 4.76321C171.867 4.91025 172.133 5.12514 172.41 5.32872C173.45 5.95077 174.825 5.93947 175.741 6.73117C176.657 7.52288 176.815 8.69347 176.979 9.81317C177.109 10.4408 177.121 11.0871 177.013 11.7189C176.76 12.567 176.21 13.2956 175.464 13.7717C175.101 14.0676 174.679 14.2822 174.226 14.4012C173.774 14.5202 173.301 14.5408 172.84 14.4616" fill="#400E09"/>
<path d="M169.571 13.5851C169.318 13.5352 169.083 13.4178 168.892 13.2454C168.7 13.073 168.558 12.852 168.482 12.6058C168.405 12.3596 168.397 12.0972 168.457 11.8465C168.517 11.5959 168.644 11.3661 168.825 11.1817C169.273 10.8021 169.838 10.5885 170.425 10.5766C171.128 10.5031 171.835 10.4918 172.54 10.5427C173.247 10.5936 174.061 10.7858 174.344 11.4362C174.421 11.6641 174.446 11.9066 174.417 12.1455C174.387 12.3844 174.305 12.6136 174.174 12.816C173.937 13.2345 173.609 13.5907 173.332 13.9866" fill="#602D8A"/>
<path d="M178.546 25.2684C178.5 24.4202 178.896 23.6115 179.06 22.7745C179.571 21.9501 179.847 21.0017 179.858 20.0319C179.858 18.4711 179.202 17.0064 178.467 15.6548C178.281 15.2672 178.037 14.9105 177.743 14.5974C177.104 13.981 176.216 13.8452 175.356 13.636C175.118 13.4336 174.869 13.2448 174.61 13.0705C173.728 12.3601 172.626 11.9801 171.494 11.996C170.761 12.1242 170.04 12.3134 169.339 12.5615C168.169 12.8726 166.908 12.8104 165.811 13.3306C164.873 13.8167 164.113 14.5866 163.639 15.5304C163.158 16.4868 162.804 17.502 162.587 18.5502C162.402 19.2099 162.333 19.897 162.384 20.5804C162.435 21.01 162.597 21.419 162.853 21.7679C162.836 21.9872 162.848 22.2076 162.887 22.4239C163.04 23.2156 163.588 23.9056 163.628 24.686C163.69 25.8566 162.678 26.7953 162.389 27.932C162.212 28.7159 162.325 29.5373 162.706 30.2449C163.087 30.9472 163.606 31.5648 164.233 32.0601C163.667 30.7821 163.939 29.3118 164.284 27.9602C164.629 26.6087 165.053 25.2175 164.81 23.849C164.727 23.4432 164.613 23.0444 164.47 22.6558C165.191 22.4834 165.846 22.104 166.353 21.5644C167.094 20.8518 167.807 20.0036 168.785 19.7774C169.984 19.5059 171.222 20.2581 172.433 20.0545C173.812 19.8226 174.87 18.3919 176.272 18.3975C176.35 18.5806 176.412 18.7697 176.459 18.963C176.574 19.5536 176.655 20.1502 176.702 20.75C176.776 21.3191 176.969 21.8663 177.268 22.3561C177.098 23.4871 176.77 24.6633 176.974 25.783C177.177 26.9027 177.991 27.9998 178.189 29.1761C178.316 29.994 178.152 30.8305 177.726 31.5399C178.574 31.3872 179.094 30.4993 179.258 29.6511C179.394 28.9377 179.365 28.2026 179.173 27.5022C178.881 26.7834 178.671 26.0341 178.546 25.2684Z" fill="#400E09"/>
<path d="M178.676 15.6718C178.676 15.6718 174.581 13.5229 173.908 13.2797C173.318 13.1115 172.798 12.7556 172.428 12.2659C172.058 11.7762 171.857 11.1793 171.856 10.5653C171.856 8.78394 172.184 7.08743 171.969 5.5436C171.754 3.99977 171.629 1.291 171.482 0.74812C171.335 0.205235 172.167 0.0242739 172.613 1.09308C173.06 2.16188 174.468 4.41825 174.983 7.91306C175.498 11.4079 180.174 13.0365 180.174 13.0365" fill="#F59074"/>
<path d="M165.013 15.6718C165.013 15.6718 168.791 13.5229 169.458 13.2797C170.05 13.1125 170.57 12.7571 170.942 12.2673C171.313 11.7775 171.515 11.18 171.516 10.5653C171.516 8.78394 171.188 7.08743 171.403 5.5436C171.618 3.99977 171.743 1.291 171.884 0.74812C172.025 0.205235 171.2 0.0242739 170.753 1.09308C170.306 2.16188 168.898 4.41825 168.384 7.91306C167.869 11.4079 163.356 12.9517 163.356 12.9517" fill="#F59074"/>
<path d="M202.845 28.8368C199.707 25.4041 190.676 16.7123 180.429 11.5945L177.76 15.8641L192.553 30.4598C192.553 30.4598 187.401 33.6888 181.718 36.833C180.925 37.2653 180.031 37.4762 179.128 37.4437C176.985 37.3646 175.096 37.4042 175.096 37.4042C169.724 40.9046 166.925 37.1271 166.925 37.1271L164.81 37.2345C163.445 37.3313 162.081 37.0349 160.879 36.3806C155.518 33.4682 151.085 30.9009 151.085 30.9009L165.884 16.3108L163.215 12.0356C152.968 17.1252 143.937 25.8509 140.798 29.2779C140.412 29.7014 140.169 30.236 140.104 30.8056C140.039 31.3751 140.155 31.9506 140.436 32.4503C146.527 43.2345 154.67 50.2524 157.243 52.1638V52.5088L158.515 70.7859C169.277 74.9707 184.416 72.7086 184.416 72.7086C184.416 72.7086 183.2 63.5305 184.099 58.6898C184.738 55.2458 185.072 53.0347 185.23 52.0281C188.272 49.7209 197.4 42.2958 203.224 31.9866C203.498 31.4877 203.608 30.9158 203.54 30.3509C203.472 29.786 203.229 29.2566 202.845 28.8368Z" fill="#602D8A"/>
<path d="M184.099 58.7123C184.41 57.0158 184.664 55.6416 184.828 54.5389C183.924 56.5238 183.251 58.6049 182.334 60.5955C181.633 61.9315 181.065 63.3331 180.638 64.7802C180.321 66.0752 180.231 67.3702 179.507 68.5295C178.376 70.3391 176.504 71.1874 174.417 71.3118C172.252 71.4419 170.001 71.5041 167.829 71.5663C164.498 71.6624 159.567 71.1252 158.487 67.3928C157.984 65.6454 158.131 63.7566 157.854 61.9753L158.47 70.7859C169.277 74.9706 184.416 72.7086 184.416 72.7086C184.416 72.7086 183.2 63.5531 184.099 58.7123Z" fill="#602D8A"/>
<path d="M170.668 38.9084L171.918 39.0837L173.354 42.4597L176.776 37.3928L174.129 35.34L170.668 38.9084Z" fill="white"/>
<path d="M170.668 38.9084L169.345 39.1911L167.428 42.2166L164.187 37.2515L167.501 35.1252L170.668 38.9084Z" fill="white"/>
<path d="M170.629 39.9093C169.922 43.8678 170.063 47.8773 170.329 51.8641C170.595 55.8509 171.041 59.9225 170.894 63.9659C170.815 65.9734 170.465 68.111 171.42 69.9772C171.562 70.2543 171.986 70.0111 171.839 69.7284C171.002 68.0997 171.273 66.1883 171.364 64.4296C171.447 62.4525 171.428 60.4725 171.307 58.4974C171.087 54.5389 170.623 50.6426 170.6 46.701C170.563 44.4676 170.734 42.2356 171.109 40.0337C171.166 39.7283 170.696 39.5983 170.64 39.9093H170.629Z" fill="white"/>
<path d="M185.055 51.6492C184.455 47.5207 184.647 43.3158 185.62 39.259C185.694 38.9593 185.224 38.8292 185.151 39.1289C184.158 43.2712 183.966 47.565 184.585 51.7793C184.63 52.0903 185.094 51.9546 185.049 51.6492H185.055Z" fill="#602D8A"/>
<path d="M181.803 47.046C182.839 47.693 183.685 48.6046 184.252 49.6869C184.399 49.964 184.817 49.7152 184.676 49.4381C184.064 48.2802 183.157 47.3047 182.046 46.6106C181.78 46.4466 181.537 46.8651 181.803 47.0291V47.046Z" fill="#602D8A"/>
<path d="M158.351 50.8518C158.27 48.3319 158.534 45.8126 159.138 43.3645C159.211 43.0592 158.742 42.9348 158.668 43.2345C158.051 45.7245 157.781 48.2879 157.865 50.8518C157.865 51.1629 158.363 51.1629 158.351 50.8518Z" fill="#602D8A"/>
<path d="M158.408 50.5408C158.797 49.5736 159.4 48.7073 160.172 48.0073C160.404 47.7981 160.059 47.4418 159.827 47.6624C158.998 48.4241 158.353 49.3637 157.939 50.4107C157.923 50.4729 157.932 50.5388 157.963 50.5947C157.995 50.6505 158.047 50.692 158.108 50.7105C158.17 50.7263 158.236 50.7175 158.292 50.6859C158.348 50.6542 158.39 50.6023 158.408 50.5408Z" fill="#602D8A"/>
<path d="M180.932 17.685C181.641 16.5429 182.258 15.3459 182.776 14.1053C182.788 14.0445 182.777 13.9811 182.744 13.9283C182.712 13.8754 182.66 13.8371 182.6 13.8212C182.54 13.8053 182.476 13.813 182.421 13.8427C182.367 13.8724 182.326 13.9218 182.306 13.9809C181.801 15.1781 181.201 16.3334 180.514 17.4362C180.481 17.4917 180.471 17.558 180.487 17.6206C180.503 17.6831 180.543 17.7368 180.598 17.7698C180.654 17.8028 180.72 17.8124 180.783 17.7965C180.845 17.7806 180.899 17.7405 180.932 17.685Z" fill="#602D8A"/>
<path d="M161.207 14.3542C161.765 15.6384 162.529 16.8227 163.469 17.8603C163.678 18.0922 164.035 17.7472 163.814 17.5153C162.906 16.5104 162.167 15.3644 161.626 14.1223C161.609 14.0948 161.588 14.0708 161.562 14.0516C161.537 14.0325 161.507 14.0186 161.476 14.0107C161.445 14.0028 161.413 14.0011 161.382 14.0057C161.35 14.0103 161.32 14.0211 161.292 14.0375C161.239 14.0724 161.2 14.126 161.185 14.1878C161.169 14.2496 161.177 14.315 161.207 14.3711V14.3542Z" fill="#602D8A"/>
<path d="M169.661 41.6454C169.79 41.6454 169.914 41.5942 170.005 41.503C170.097 41.4117 170.148 41.288 170.148 41.1591C170.148 41.0301 170.097 40.9064 170.005 40.8152C169.914 40.724 169.79 40.6727 169.661 40.6727C169.533 40.6727 169.409 40.724 169.318 40.8152C169.226 40.9064 169.175 41.0301 169.175 41.1591C169.175 41.288 169.226 41.4117 169.318 41.503C169.409 41.5942 169.533 41.6454 169.661 41.6454Z" fill="white"/>
<path d="M169.407 46.6954C169.536 46.6954 169.66 46.6441 169.751 46.5529C169.842 46.4617 169.893 46.338 169.893 46.2091C169.893 46.0801 169.842 45.9564 169.751 45.8652C169.66 45.774 169.536 45.7227 169.407 45.7227C169.278 45.7227 169.154 45.774 169.063 45.8652C168.972 45.9564 168.921 46.0801 168.921 46.2091C168.921 46.338 168.972 46.4617 169.063 46.5529C169.154 46.6441 169.278 46.6954 169.407 46.6954Z" fill="white"/>
<path d="M169.622 53.21C169.751 53.21 169.875 53.1588 169.966 53.0676C170.057 52.9764 170.108 52.8527 170.108 52.7237C170.108 52.5947 170.057 52.471 169.966 52.3798C169.875 52.2886 169.751 52.2373 169.622 52.2373C169.493 52.2373 169.369 52.2886 169.278 52.3798C169.187 52.471 169.136 52.5947 169.136 52.7237C169.136 52.8527 169.187 52.9764 169.278 53.0676C169.369 53.1588 169.493 53.21 169.622 53.21Z" fill="white"/>
<path d="M170.176 59.8547C170.305 59.8547 170.429 59.8034 170.52 59.7122C170.611 59.621 170.662 59.4973 170.662 59.3684C170.662 59.2394 170.611 59.1157 170.52 59.0245C170.429 58.9333 170.305 58.882 170.176 58.882C170.047 58.882 169.923 58.9333 169.832 59.0245C169.741 59.1157 169.69 59.2394 169.69 59.3684C169.69 59.4973 169.741 59.621 169.832 59.7122C169.923 59.8034 170.047 59.8547 170.176 59.8547Z" fill="white"/>
<path d="M170.159 64.6615C170.278 64.6486 170.389 64.5921 170.469 64.5028C170.549 64.4136 170.593 64.2979 170.593 64.178C170.593 64.0581 170.549 63.9424 170.469 63.8531C170.389 63.7639 170.278 63.7074 170.159 63.6945C170.04 63.7074 169.93 63.7639 169.85 63.8531C169.77 63.9424 169.725 64.0581 169.725 64.178C169.725 64.2979 169.77 64.4136 169.85 64.5028C169.93 64.5921 170.04 64.6486 170.159 64.6615Z" fill="white"/>
<path d="M170.408 70.096C170.527 70.0831 170.637 70.0266 170.718 69.9373C170.798 69.8481 170.842 69.7324 170.842 69.6125C170.842 69.4926 170.798 69.3769 170.718 69.2876C170.637 69.1984 170.527 69.1419 170.408 69.129C170.289 69.1419 170.179 69.1984 170.098 69.2876C170.018 69.3769 169.974 69.4926 169.974 69.6125C169.974 69.7324 170.018 69.8481 170.098 69.9373C170.179 70.0266 170.289 70.0831 170.408 70.096Z" fill="white"/>
<path d="M111.471 138.567C112.593 138.165 113.765 137.92 114.955 137.838C116.481 137.798 118.138 138.273 119.479 137.498C120.28 136.925 120.908 136.143 121.294 135.236C121.444 134.989 121.55 134.717 121.605 134.433C121.628 133.911 121.49 133.394 121.209 132.952C120.753 131.91 120.122 130.953 119.343 130.124C118.884 129.767 118.463 129.363 118.088 128.92C117.974 128.756 117.85 128.564 117.652 128.547C117.454 128.53 117.279 128.767 117.251 128.988C117.154 129.683 117.816 130.209 118.161 130.831C118.331 131.244 118.399 131.693 118.359 132.138C118.319 132.583 118.171 133.011 117.929 133.387C117.816 133.591 117.827 133.602 117.624 133.71C117.542 133.762 117.451 133.798 117.355 133.814C117.259 133.829 117.161 133.826 117.067 133.802C116.973 133.779 116.884 133.737 116.807 133.678C116.729 133.619 116.665 133.545 116.617 133.461C116.374 132.906 116.241 132.308 116.227 131.702C116.227 130.99 116.086 130.741 116.442 130.13C116.593 129.933 116.699 129.705 116.753 129.463C116.753 129.219 116.572 128.931 116.334 128.999C116.257 129.024 116.187 129.069 116.131 129.129C115.596 129.627 115.17 130.231 114.878 130.901C114.586 131.571 114.435 132.294 114.434 133.025C114.498 133.415 114.424 133.815 114.225 134.156C114.059 134.331 113.851 134.46 113.62 134.53C112.711 134.892 111.777 135.19 110.826 135.423" fill="#F59074"/>
<path d="M12.8414 133.783H11.8348C10.7038 133.783 9.41444 133.783 8.39653 133.252C7.98925 131.749 7.21151 130.372 6.13451 129.248C6.09996 129.216 6.05704 129.195 6.01088 129.188C5.96473 129.18 5.91731 129.185 5.87432 129.204C5.83133 129.222 5.7946 129.253 5.76853 129.292C5.74246 129.331 5.72816 129.376 5.72735 129.423C5.58032 130.452 6.43989 131.94 6.225 132.946C6.20839 133.057 6.15454 133.159 6.07231 133.235C5.91962 133.331 5.73301 133.235 5.59163 133.093C5.37104 132.944 5.18756 132.746 5.05524 132.514C4.92292 132.283 4.84526 132.025 4.8282 131.759C4.86778 130.944 5.85742 130.469 5.65949 129.565C5.61722 129.382 5.52904 129.214 5.40334 129.075C5.27764 128.937 5.11859 128.833 4.9413 128.773C4.63318 128.704 4.31353 128.704 4.00547 128.773C3.6974 128.843 3.40861 128.98 3.15996 129.174C2.62936 129.488 2.1159 129.83 1.62179 130.198C1.18698 130.473 0.838209 130.865 0.615188 131.329C0.464894 131.815 0.424336 132.329 0.496433 132.833C0.537903 133.455 0.588799 134.077 0.649119 134.699C0.662544 135.053 0.73915 135.402 0.87532 135.729C1.07203 136.03 1.33781 136.28 1.65057 136.458C1.96334 136.636 2.31407 136.737 2.67363 136.752C4.1609 136.973 6.00445 136.792 7.50304 136.792C9.16939 137.21 10.8207 137.572 12.4569 137.877C12.0997 136.51 12.2359 135.06 12.8414 133.783Z" fill="#F59074"/>
<path d="M56.4532 98.5126C57.3488 100.256 57.5895 102.262 57.1318 104.168C56.7303 106.056 55.2091 107.86 54.1459 108.918C57.8104 110.976 64.0818 110.456 67.718 108.313C65.128 106.667 64.3589 102.16 65.4956 98.6709" fill="#F59074"/>
<g opacity="0.43">
<path d="M60.9602 102.584C62.1308 102.709 64.0761 102.465 64.8848 101.94C64.8943 100.821 65.0853 99.7113 65.4503 98.6539L56.4305 98.5126C56.7268 99.0569 56.9474 99.6391 57.0865 100.243C57.5346 100.88 58.1104 101.418 58.7773 101.821C59.4441 102.224 60.1875 102.484 60.9602 102.584Z" fill="#602D8A"/>
</g>
<path d="M59.9366 81.4174C58.8029 81.6432 57.7312 82.1107 56.7944 82.7879C55.8576 83.4652 55.0777 84.3363 54.5078 85.342C53.3812 87.3725 52.8721 89.6878 53.0431 92.0036C53.2241 95.4815 54.7396 99.0498 57.6633 100.939C58.9874 101.842 60.5997 102.22 62.1873 102.002C63.7732 101.642 65.1952 100.767 66.2307 99.5135C68.7811 96.686 69.3297 92.7275 68.6737 88.9612C68.3061 86.8236 67.9668 84.6747 66.3721 83.2044C65.5835 82.4558 64.633 81.899 63.5944 81.5773C62.5558 81.2557 61.457 81.1777 60.3834 81.3495" fill="#F59074"/>
<path d="M68.2665 91.9866C68.3336 91.4473 68.5845 90.9476 68.977 90.5717C69.3694 90.1957 69.8794 89.9665 70.4211 89.9225C70.6333 89.8997 70.8478 89.9301 71.0453 90.0111C71.2428 90.0921 71.417 90.221 71.5521 90.3862C71.6782 90.5859 71.7449 90.8174 71.7443 91.0535C71.8179 92.1845 71.1788 93.2703 70.5002 94.1751C70.3308 94.432 70.0993 94.642 69.8273 94.7859C69.5698 94.8767 69.2897 94.8811 69.0295 94.7985C68.7693 94.7158 68.5431 94.5506 68.3852 94.3278C68.0782 93.8708 67.942 93.3201 68.0007 92.7727" fill="#F59074"/>
<path d="M68.7698 92.2355C68.7963 92.0246 68.8944 91.8291 69.0478 91.6819C69.2012 91.5347 69.4005 91.4447 69.6124 91.4269C69.6969 91.4173 69.7824 91.4288 69.8614 91.4604C69.9403 91.492 70.0102 91.5427 70.0648 91.6078C70.1113 91.6868 70.1367 91.7764 70.1383 91.868C70.1263 92.3199 69.9539 92.7529 69.652 93.0895C69.5871 93.1896 69.4975 93.2714 69.3919 93.327C69.2914 93.3631 69.1818 93.3655 69.0798 93.3339C68.9778 93.3023 68.8888 93.2383 68.8264 93.1517C68.7046 92.9728 68.6523 92.7556 68.6793 92.5409" fill="#602D8A"/>
<path d="M53.5917 92.1563C53.5223 91.617 53.2699 91.1177 52.8768 90.742C52.4836 90.3664 51.9734 90.137 51.4314 90.0922C51.2193 90.0699 51.0049 90.1006 50.8075 90.1815C50.6101 90.2625 50.4359 90.3911 50.3004 90.5559C50.18 90.7581 50.1138 90.988 50.1082 91.2232C50.0403 92.3542 50.6737 93.44 51.3579 94.3448C51.5274 94.6017 51.7588 94.8117 52.0309 94.9556C52.2883 95.0464 52.5684 95.0508 52.8286 94.9682C53.0889 94.8855 53.3151 94.7203 53.4729 94.4975C53.7782 94.0418 53.9143 93.4936 53.8574 92.948" fill="#F59074"/>
<path d="M53.0884 92.4052C53.0597 92.1957 52.9607 92.0021 52.8076 91.8562C52.6545 91.7103 52.4564 91.6207 52.2458 91.6022C52.1617 91.5914 52.0763 91.6019 51.9973 91.6325C51.9183 91.6631 51.8482 91.7129 51.7934 91.7775C51.7473 91.8587 51.722 91.95 51.7198 92.0433C51.7282 92.4943 51.9012 92.9267 52.2062 93.2591C52.2711 93.3593 52.3607 93.4411 52.4663 93.4966C52.5667 93.5337 52.6766 93.5366 52.7788 93.5049C52.8811 93.4732 52.97 93.4087 53.0318 93.3213C53.1532 93.1444 53.2056 92.9291 53.1789 92.7162" fill="#602D8A"/>
<path d="M68.9112 91.0593C70.7265 90.0414 70.8735 89.0856 70.8678 87.8641C70.8622 86.6427 70.8678 85.342 69.7368 84.539C70.947 82.8425 70.3419 80.62 69.1713 78.8839C68.5628 78.0316 67.7592 77.3374 66.8275 76.8592C65.8958 76.3811 64.8632 76.133 63.816 76.1356C62.323 76.1356 60.8697 76.5654 59.3881 76.7576C58.0309 76.9386 56.6114 76.9103 55.3447 77.4419C54.546 77.828 53.8336 78.3718 53.2505 79.0404C52.6674 79.709 52.2256 80.4887 51.9517 81.3326C51.3409 82.9895 50.5436 84.7256 50.3966 86.49C50.3266 87.3383 50.3512 88.1918 50.4701 89.0347C50.5744 89.3856 50.7226 89.7219 50.9112 90.0357C51.0055 90.1854 51.1285 90.3149 51.2731 90.4168C51.4177 90.5187 51.5811 90.591 51.7538 90.6295C52.7458 90.9328 53.8157 90.8521 54.7509 90.4033C56.0968 89.7529 57.013 88.3957 58.4154 87.8359C59.6312 87.3439 61.0054 87.5418 62.2948 87.3043C63.9065 87.0046 65.3033 86.0489 66.6492 85.1158C66.9432 87.6662 68.1308 88.6106 68.9112 91.0593Z" fill="#400E09"/>
<path d="M58.0422 90.9744C57.6538 91.2859 57.1611 91.4372 56.6649 91.3972C56.1687 91.3573 55.7065 91.1292 55.373 90.7596C55.2147 90.5673 54.9376 90.8274 55.0959 91.014C55.4975 91.4576 56.054 91.7301 56.6506 91.7753C57.2472 91.8205 57.8384 91.6351 58.3023 91.2572C58.4889 91.0988 58.2288 90.8161 58.0422 90.9744Z" fill="#602D8A"/>
<path d="M63.4484 90.8047C63.8357 91.1193 64.3289 91.2735 64.8264 91.2356C65.3239 91.1977 65.788 90.9707 66.1233 90.6012C66.2816 90.4202 66.5587 90.6747 66.4004 90.8613C65.9962 91.304 65.4374 91.5743 64.8395 91.6164C64.2416 91.6585 63.6504 91.4691 63.1883 91.0875C63.0073 90.9235 63.2675 90.6464 63.4484 90.8047Z" fill="#602D8A"/>
<path d="M60.3325 90.505C60.3885 91.0473 60.3238 91.5953 60.1429 92.1096C59.962 92.6239 59.6695 93.0917 59.2863 93.4796C59.2601 93.5069 59.2454 93.5434 59.2454 93.5814C59.2454 93.6193 59.2601 93.6558 59.2863 93.6831C59.481 93.9057 59.7197 94.0854 59.9874 94.211C60.2551 94.3365 60.5459 94.4052 60.8415 94.4126C60.8734 94.4062 60.9022 94.3888 60.9228 94.3636C60.9434 94.3383 60.9547 94.3067 60.9547 94.2741C60.9547 94.2415 60.9434 94.2099 60.9228 94.1846C60.9022 94.1594 60.8734 94.142 60.8415 94.1356C60.5823 94.1256 60.3279 94.0622 60.0944 93.9493C59.8608 93.8364 59.6531 93.6765 59.4843 93.4796V93.6831C59.8952 93.2694 60.2097 92.77 60.4052 92.2206C60.6008 91.6712 60.6725 91.0854 60.6153 90.505C60.6153 90.3297 60.3155 90.324 60.3382 90.505H60.3325Z" fill="#602D8A"/>
<path d="M60.1346 97.7492C60.6969 97.8923 61.2899 97.8567 61.8311 97.6474C62.1026 97.5683 62.3457 97.3251 62.3005 97.1837C62.2552 97.0423 62.1139 97.0423 61.9442 97.0763C61.3018 97.2278 60.6383 97.2698 59.9819 97.2007C59.8179 97.2007 59.5521 97.1215 59.5125 97.2742C59.4729 97.4269 59.5125 97.4721 59.8009 97.6248L60.1346 97.7492Z" fill="#602D8A"/>
<path opacity="0.15" d="M67.9951 93.768C68.1647 94.5767 67.2938 95.4363 66.0554 95.6964C64.8169 95.9565 63.669 95.5098 63.505 94.7011C63.341 93.8925 64.2062 93.0329 65.4446 92.7728C66.6831 92.5126 67.8311 92.965 67.9951 93.768Z" fill="#602D8A"/>
<path opacity="0.15" d="M58.489 94.6388C58.3419 95.4532 57.2166 95.9282 55.9668 95.702C54.717 95.4758 53.8235 94.6445 53.9706 93.8302C54.1176 93.0158 55.2486 92.5465 56.4927 92.767C57.7368 92.9876 58.636 93.8302 58.489 94.6388Z" fill="#602D8A"/>
<path d="M62.9621 88.3731C62.9621 88.3731 64.8509 87.6266 65.9706 87.9433C66.5098 88.044 67.0097 88.2949 67.4126 88.6671C66.8559 88.5449 66.2844 88.5049 65.7161 88.5484C65.275 88.6785 63.307 89.1139 63.0526 88.916C62.7981 88.718 62.8094 88.5767 62.9621 88.3731Z" fill="#400E09"/>
<path d="M59.0997 88.3731C59.0997 88.3731 57.2109 87.6266 56.0912 87.9433C55.552 88.044 55.0521 88.2949 54.6492 88.6671C55.2059 88.5449 55.7774 88.5049 56.3457 88.5484C56.7868 88.6785 58.7548 89.1139 59.0092 88.916C59.2637 88.718 59.2581 88.5767 59.0997 88.3731Z" fill="#400E09"/>
<path d="M74.1817 143.776C80.5323 147.57 91.2317 144.782 98.6229 144.505C106.014 144.228 104.713 141.678 111.579 144.454C112.924 145.02 114.468 147.802 114.774 149.221C115.107 150.777 113.891 154.628 112.687 155.674C104.25 163.025 101.117 161.465 90.0668 163.263C75.8443 165.582 61.226 170.049 47.3316 166.204C42.406 164.841 37.8198 162.477 32.9564 160.905C23.569 157.862 12.8414 157.585 5.24668 151.319C4.9904 151.117 4.79659 150.846 4.68754 150.537C4.5785 150.229 4.55865 149.897 4.63028 149.578C4.63683 149.3 4.70765 149.028 4.83718 148.783C4.96672 148.538 5.15141 148.326 5.37675 148.164C9.33528 145.523 13.5257 142.797 18.2646 142.469C20.685 142.3 23.0997 142.769 25.52 142.978C30.7057 143.425 41.7161 143.991 46.5455 142.04" fill="#602D8A"/>
<path d="M50.6567 161.742C63.8726 155.928 77.948 149.646 91.6106 145.144C95.4843 143.797 99.4395 142.695 103.452 141.847C105.714 141.406 108.078 141.118 110.34 141.649C111.702 141.978 112.975 142.6 114.071 143.473C115.167 144.345 116.059 145.446 116.685 146.699C117.322 148.002 117.636 149.439 117.602 150.888C117.568 152.338 117.185 153.758 116.487 155.029C115.17 157.263 112.896 158.614 110.64 159.7C103.22 163.28 95.111 164.92 87.0583 166.226C75.4344 168.11 63.7169 169.362 51.9574 169.975C51.52 167.227 51.0865 164.479 50.6567 161.73" fill="#602D8A"/>
<path d="M93.3467 161.137C83.9763 162.754 71.456 165.44 63.9857 157.744C63.589 157.338 63.2623 156.87 63.0187 156.358C58.8396 158.162 54.7057 159.983 50.6567 161.764C51.0865 164.513 51.52 167.261 51.9574 170.009C63.719 169.392 75.4384 168.137 87.0639 166.249C95.1167 164.942 103.226 163.302 110.645 159.723C112.907 158.637 115.17 157.285 116.493 155.052C116.732 154.63 116.933 154.187 117.092 153.728C110.747 158.942 101.354 159.751 93.3467 161.137Z" fill="#602D8A"/>
<path d="M69.7029 165.757C71.0102 165.28 72.2265 164.584 73.2996 163.698C74.1817 162.975 75.0413 162.092 76.1667 161.928C76.7102 161.889 77.2555 161.976 77.7591 162.184C78.2627 162.393 78.7108 162.715 79.0677 163.127C79.5653 163.636 79.9612 164.258 80.4815 164.728C81.522 165.712 82.9471 166.124 84.3043 166.588C86.4362 167.313 88.5022 168.219 90.4796 169.297C90.5088 169.307 90.5355 169.324 90.5579 169.345C90.5803 169.367 90.5979 169.393 90.6097 169.421C90.6492 169.523 90.5475 169.619 90.457 169.676C89.5818 170.11 88.6011 170.287 87.6294 170.185C84.7849 170.123 81.9492 169.845 79.1469 169.353C78.3497 169.185 77.5403 169.081 76.7265 169.042C75.855 169.062 74.9859 169.142 74.1252 169.28C72.1099 169.518 70.0712 169.472 68.0686 169.144" fill="#F59074"/>
<path d="M47.9819 165.378C46.6764 164.898 45.4606 164.202 44.3853 163.319C43.5031 162.596 42.6435 161.708 41.5182 161.549C40.9751 161.509 40.4299 161.595 39.9263 161.802C39.4226 162.009 38.9743 162.331 38.6171 162.743C38.1195 163.252 37.7236 163.874 37.209 164.349C36.1685 165.327 34.7378 165.745 33.3806 166.204C31.2484 166.93 29.1824 167.838 27.2052 168.918C27.1767 168.928 27.1505 168.944 27.1282 168.964C27.1058 168.985 27.0878 169.009 27.0752 169.037C27.0356 169.138 27.1374 169.235 27.2335 169.291C28.1076 169.729 29.0887 169.908 30.061 169.806C32.9057 169.743 35.7414 169.463 38.5436 168.969C39.3408 168.801 40.1502 168.697 40.964 168.658C41.8354 168.682 42.7044 168.764 43.5653 168.901C45.5808 169.137 47.6195 169.089 49.6219 168.76" fill="#F59074"/>
<path d="M71.0092 162.873C57.963 156.692 44.0686 150.019 30.5361 145.133C26.7034 143.676 22.7822 142.463 18.7962 141.502C16.5341 140.999 14.1873 140.643 11.914 141.112C10.5423 141.401 9.2505 141.987 8.12905 142.828C7.0076 143.669 6.08366 144.745 5.42198 145.981C4.74945 147.265 4.39532 148.692 4.38942 150.142C4.38351 151.591 4.726 153.021 5.38805 154.311C6.63781 156.573 8.87721 158.004 11.0996 159.152C18.4173 162.935 26.4757 164.807 34.4946 166.334C46.061 168.545 57.7389 170.126 69.4767 171.072C69.9894 168.343 70.5003 165.61 71.0092 162.873Z" fill="#602D8A"/>
<path d="M61.3051 158.281C61.5644 159.329 61.5741 160.423 61.3334 161.476C59.1675 171.338 42.4116 165.231 36.2702 163.828C25.6444 161.402 12.5643 160.865 4.75464 152.733C4.90403 153.282 5.11657 153.811 5.388 154.311C6.63777 156.573 8.87717 158.004 11.0996 159.152C18.4172 162.935 26.4757 164.807 34.4945 166.334C46.061 168.545 57.7389 170.127 69.4767 171.073C69.9894 168.343 70.5002 165.61 71.0092 162.873C67.8197 161.363 64.5794 159.796 61.3051 158.281Z" fill="#602D8A"/>
<path d="M91.8368 130.39L81.1883 111.977C80.7656 111.242 80.1961 110.601 79.515 110.095C78.834 109.589 78.0561 109.229 77.2298 109.037L66.2364 106.52C62.9678 108.471 60.6153 108.499 59.0658 108.024C57.9103 107.534 56.8801 106.79 56.0516 105.847L45.177 108.335C44.3076 108.535 43.4897 108.914 42.7758 109.449C42.0619 109.984 41.4678 110.662 41.0318 111.44L30.2533 130.667L10.2344 132.398L10.4437 139.099L33.7481 141.842C35.0887 142.001 36.4461 141.749 37.6393 141.117C38.8325 140.486 39.8049 139.506 40.4267 138.307L45.488 129.683L44.0912 143.035C44.0912 143.035 48.3268 145.704 50.3683 146.021C56.2269 147.717 65.3146 147.548 68.521 147.565C73.1469 147.565 76.619 144.369 76.619 144.369L76.2119 127.715L82.5625 138.081C83.3665 139.393 84.5243 140.451 85.9027 141.134C87.2812 141.817 88.8245 142.098 90.3552 141.943L111.799 139.794L112.008 133.093L91.8368 130.39Z" fill="white"/>
<path d="M44.0347 132.087C42.827 132.932 41.7923 134.002 40.9866 135.236C39.0922 137.911 36.9489 139.885 33.5502 140.145C29.9649 140.422 26.3683 139.042 22.8056 138.686C19.1242 138.313 15.5728 138.884 11.9479 139.308L33.7368 141.875C35.0829 142.035 36.4454 141.778 37.6413 141.14C38.8372 140.502 39.8092 139.514 40.4268 138.307L44.1252 132.007L44.0347 132.087Z" fill="#AF2245" fill-opacity="0.1"/>
<path d="M103.113 140.089C99.1544 140.089 95.0092 140.569 91.0564 140.043C87.5333 139.574 85.3052 137.431 82.9753 134.925C81.0073 132.816 78.7001 130.967 76.8565 128.733L82.5908 138.087C83.3948 139.398 84.5525 140.457 85.931 141.14C87.3095 141.823 88.8527 142.104 90.3834 141.949L107.784 140.207C106.144 140.247 104.487 140.089 103.113 140.089Z" fill="#AF2245" fill-opacity="0.1"/>
<path d="M73.7633 131.521C72.8217 132.493 71.7411 133.32 70.5568 133.975C70.3646 134.083 70.1666 134.185 69.9913 134.281C69.4204 134.539 68.9618 134.995 68.7 135.564C68.4382 136.133 68.3907 136.778 68.5663 137.38C69.4428 142.09 65.8914 144.511 61.6558 144.816C58.2628 145.059 53.4277 145.823 50.2496 144.658C49.1939 144.255 48.2537 143.599 47.5119 142.747C46.7702 141.895 46.2499 140.873 45.997 139.772C45.5672 138.121 45.9348 136.611 45.9008 134.976C45.9276 134.009 45.6994 133.051 45.2392 132.2L44.1082 143.001C44.1082 143.001 48.3438 145.67 50.3853 145.987C56.2439 147.683 65.3316 147.514 68.538 147.531C73.1638 147.531 76.636 144.335 76.636 144.335L76.2515 128.597C75.0583 129.027 74.5719 130.667 73.7633 131.521Z" fill="#AF2245" fill-opacity="0.1"/>
<path d="M108.361 133.099C108.288 133.367 108.241 133.642 108.219 133.919C108.114 134.88 108.065 135.847 108.072 136.814C108.072 137.798 108.072 138.788 108.146 139.772C108.146 140.083 108.644 140.083 108.632 139.772C108.522 138.03 108.522 136.283 108.632 134.541C108.643 134.098 108.706 133.657 108.819 133.229C108.827 133.198 108.83 133.166 108.826 133.134C108.822 133.102 108.812 133.072 108.796 133.044C108.78 133.016 108.759 132.992 108.734 132.972C108.709 132.952 108.68 132.938 108.649 132.929C108.618 132.921 108.586 132.918 108.554 132.922C108.523 132.926 108.492 132.936 108.464 132.952C108.436 132.968 108.412 132.989 108.392 133.014C108.373 133.039 108.358 133.068 108.35 133.099H108.361Z" fill="#AF2245" fill-opacity="0.1"/>
<path d="M13.1976 132.613C13.308 133.044 13.3706 133.485 13.3843 133.93C13.4946 135.67 13.4946 137.415 13.3843 139.155C13.3843 139.472 13.8536 139.472 13.8649 139.155C13.9385 137.657 13.978 136.153 13.9045 134.631C13.884 133.985 13.8178 133.34 13.7066 132.703C13.6951 132.621 13.6781 132.54 13.6557 132.46C13.5596 132.166 13.0902 132.29 13.1863 132.59L13.1976 132.613Z" fill="#AF2245" fill-opacity="0.1"/>
<path d="M76.5342 126.714C76.433 123.627 76.5843 120.537 76.9866 117.474C77.1248 116.372 77.3575 115.284 77.6822 114.222C77.7783 113.923 77.309 113.798 77.2128 114.092C76.65 116.086 76.3254 118.14 76.2458 120.211C76.1101 122.021 76.0535 123.836 76.0592 125.651C76.0592 126.013 76.0592 126.369 76.0592 126.731C76.0592 126.796 76.0848 126.858 76.1304 126.903C76.176 126.949 76.2379 126.974 76.3024 126.974C76.3668 126.974 76.4287 126.949 76.4743 126.903C76.5199 126.858 76.5455 126.796 76.5455 126.731L76.5342 126.714Z" fill="#AF2245" fill-opacity="0.1"/>
<path d="M73.1695 119.736C73.6067 120.202 74.0004 120.708 74.3457 121.246C75.1506 122.42 75.7351 123.731 76.0705 125.114C76.1384 125.419 76.6077 125.289 76.5342 124.984C76.1922 123.567 75.5921 122.225 74.7642 121.025C74.3975 120.45 73.9772 119.91 73.5088 119.414C73.2939 119.187 72.9433 119.532 73.1695 119.759V119.736Z" fill="#AF2245" fill-opacity="0.1"/>
<path d="M45.9969 128.637C46.0983 125.506 45.9413 122.372 45.5276 119.267C45.3894 118.165 45.1567 117.077 44.832 116.015C44.7415 115.721 44.2665 115.845 44.3683 116.145C44.9314 118.116 45.2598 120.147 45.3466 122.196C45.4767 123.977 45.5276 125.77 45.5276 127.557C45.5276 127.913 45.5276 128.275 45.5276 128.637C45.5276 128.702 45.5532 128.763 45.5988 128.809C45.6444 128.855 45.7062 128.88 45.7707 128.88C45.8352 128.88 45.8971 128.855 45.9427 128.809C45.9883 128.763 46.0139 128.702 46.0139 128.637H45.9969Z" fill="#AF2245" fill-opacity="0.1"/>
<path d="M48.5813 121.342C48.1176 121.841 47.6976 122.378 47.3258 122.948C46.5042 124.151 45.9047 125.492 45.5558 126.907C45.488 127.212 45.9573 127.342 46.0252 127.037C46.3517 125.655 46.9266 124.345 47.7217 123.169C48.0721 122.631 48.4675 122.124 48.9036 121.653C49.1185 121.433 48.7792 121.088 48.5587 121.314L48.5813 121.342Z" fill="#AF2245" fill-opacity="0.1"/>
<path d="M60.5644 107.77C60.5644 107.77 59.1563 108.522 59.3033 109.896C59.4503 111.27 61.1016 111.197 61.1016 111.197C61.1016 111.197 62.7585 110.993 62.7133 109.76C62.6681 108.528 61.6049 107.431 60.5644 107.77Z" fill="#AF2245"/>
<path d="M60.1346 111.005C60.1346 111.005 58.3702 115.964 57.686 125.962C57.0187 135.734 56.9678 136.763 56.9678 136.763L60.2421 140.411L63.4994 137.074C63.4994 137.074 63.833 116.863 61.5427 110.586L60.1346 111.005Z" fill="#AF2245"/>
<path d="M61.2939 107.702L63.816 112.384L68.5493 107.012L65.4899 104.377C65.4899 104.377 64.6021 106.328 61.2939 107.702Z" fill="#AF2245" fill-opacity="0.1"/>
<path d="M60.5247 107.77L57.5558 111.96L52.8282 106.588L56.6737 104.326C56.6737 104.326 57.2222 106.407 60.5247 107.77Z" fill="#AF2245" fill-opacity="0.1"/>
<defs>
<linearGradient id="paint0_linear_1172_1323" x1="128.751" y1="68.7897" x2="197.387" y2="77.8408" gradientUnits="userSpaceOnUse">
<stop stop-color="#AF2245"/>
<stop offset="1" stop-color="#FF7194"/>
</linearGradient>
<linearGradient id="paint1_linear_1172_1323" x1="141.14" y1="91.0536" x2="170.783" y2="95.5337" gradientUnits="userSpaceOnUse">
<stop stop-color="#AF2245"/>
<stop offset="1" stop-color="#FF7194"/>
</linearGradient>
<linearGradient id="paint2_linear_1172_1323" x1="168.191" y1="96.4485" x2="186.67" y2="97.4035" gradientUnits="userSpaceOnUse">
<stop stop-color="#AF2245"/>
<stop offset="1" stop-color="#FF7194"/>
</linearGradient>
</defs>
</svg>
