<svg width="36" height="37" viewBox="0 0 36 37" fill="none" xmlns="http://www.w3.org/2000/svg">
<path d="M0.767819 17.9148C0.766975 20.9617 1.56308 23.9367 3.07686 26.5589L0.623047 35.5181L9.79175 33.1141C12.3277 34.4946 15.169 35.218 18.0564 35.2182H18.064C27.5958 35.2182 35.3548 27.4619 35.3589 17.9285C35.3607 13.3088 33.5633 8.96484 30.2976 5.69665C27.0325 2.42874 22.6901 0.628085 18.0633 0.625977C8.53041 0.625977 0.771895 8.38182 0.767959 17.9148" fill="url(#paint0_linear_6122_227690)"/>
<path d="M0.150394 17.909C0.14941 21.0654 0.974048 24.1468 2.5418 26.8629L0 36.1434L9.49746 33.6532C12.1143 35.0799 15.0606 35.8322 18.0587 35.8333H18.0664C27.9401 35.8333 35.9779 27.798 35.9822 17.9233C35.9838 13.1377 34.1218 8.63755 30.7394 5.25227C27.3567 1.86742 22.8589 0.00196777 18.0664 0C8.191 0 0.15433 8.03414 0.150394 17.909ZM5.80648 26.3952L5.45186 25.8322C3.96113 23.4619 3.1743 20.7228 3.17543 17.9101C3.17852 9.70239 9.85827 3.02475 18.072 3.02475C22.0498 3.02644 25.788 4.57704 28.5996 7.3904C31.4112 10.204 32.9583 13.9442 32.9573 17.9222C32.9536 26.1299 26.2737 32.8084 18.0664 32.8084H18.0605C15.3881 32.807 12.7672 32.0893 10.4815 30.7331L9.93754 30.4105L4.30155 31.8882L5.80648 26.3952Z" fill="url(#paint1_linear_6122_227690)"/>
<path d="M13.5886 10.4221C13.2532 9.67671 12.9003 9.66167 12.5813 9.6486C12.3202 9.63735 12.0217 9.6382 11.7234 9.6382C11.4249 9.6382 10.9398 9.7505 10.5298 10.1982C10.1194 10.6463 8.96289 11.7291 8.96289 13.9315C8.96289 16.1338 10.567 18.2624 10.7907 18.5614C11.0146 18.8598 13.8875 23.5239 18.4376 25.3183C22.2191 26.8094 22.9886 26.5128 23.8093 26.4381C24.6302 26.3636 26.4579 25.3555 26.8308 24.3102C27.204 23.265 27.204 22.3691 27.0921 22.1819C26.9803 21.9954 26.6817 21.8834 26.234 21.6596C25.7864 21.4358 23.5854 20.3527 23.1751 20.2033C22.7647 20.054 22.4663 19.9796 22.1678 20.4278C21.8692 20.8753 21.012 21.8834 20.7507 22.1819C20.4897 22.4812 20.2284 22.5184 19.7809 22.2945C19.3329 22.0699 17.8912 21.5978 16.1808 20.0729C14.85 18.8863 13.9516 17.421 13.6905 16.9728C13.4293 16.5253 13.6625 16.2827 13.887 16.0596C14.0881 15.859 14.3348 15.5369 14.5588 15.2756C14.782 15.0142 14.8565 14.8276 15.0058 14.5291C15.1552 14.2303 15.0804 13.9688 14.9687 13.7449C14.8565 13.521 13.9866 11.3072 13.5886 10.4221Z" fill="white"/>
<defs>
<linearGradient id="paint0_linear_6122_227690" x1="1737.42" y1="3489.84" x2="1737.42" y2="0.625977" gradientUnits="userSpaceOnUse">
<stop stop-color="#1FAF38"/>
<stop offset="1" stop-color="#60D669"/>
</linearGradient>
<linearGradient id="paint1_linear_6122_227690" x1="1799.11" y1="3614.34" x2="1799.11" y2="0" gradientUnits="userSpaceOnUse">
<stop stop-color="#F9F9F9"/>
<stop offset="1" stop-color="white"/>
</linearGradient>
</defs>
</svg>
